<svg xmlns="http://www.w3.org/2000/svg" width="207.13" height="200.748" viewBox="0 0 329.13 262.748">
    <defs>
        <style>
            .cls-1{fill:#ebebeb}.cls-2{fill:#dbdbdb}.cls-3{fill:#c7c7c7}.cls-5{fill:#37474f}.cls-6{fill:#263238}.cls-7{fill:#fff}
        </style>
    </defs>
    <g id="Groupe_202" transform="translate(-361 -264)">
        <g id="freepik--background-complete--inject-112" transform="translate(361 264)">
            <path id="Tracé_1099" d="M38.65 138.4l7.362 7.242h41.326V131.15H46.012z" class="cls-1" transform="translate(-38.65 -63.101)"/>
            <path id="Tracé_1100" d="M38.73 165.388l7.721 6.868 41.273-2.056L87 155.73l-41.274 2.05z" class="cls-1" transform="translate(-38.67 -69.292)"/>
            <path id="Tracé_1101" d="M154.994 151.932l-7.923 6.636-41.192-3.292 1.167-14.446 41.192 3.292z" class="cls-1" transform="translate(-55.584 -65.539)"/>
            <path id="Tracé_1102" d="M97.51 309.322h11.169l-2.6-186.522h-5.963z" class="cls-2" transform="translate(-53.476 -60.998)"/>
            <path id="Tracé_1103" d="M430.919 279.283a26.7 26.7 0 0 1-1.309 10.182 27.674 27.674 0 0 1-1.915 4.4c-.958 1.81-1.945 3.569-1.9 5.633.187.142-.486.075-.494-.127-5.237-3.539-12.2-4.646-16.017-10.07a17.415 17.415 0 0 1-2.82-8.79 25.938 25.938 0 0 1 .995-10.279 10.573 10.573 0 0 1 5.476-6.426c2.716-1.189 6.314-.8 9.082.292 5.962 2.37 8.491 9.202 8.902 15.185z" class="cls-1" transform="translate(-131.259 -96.33)"/>
            <path id="Tracé_1104" d="M432.049 321.983c-.554-2.544-1.107-5.095-1.683-7.631-1.13-4.983-2.312-9.943-3.673-14.865q-1.212-4.421-2.618-8.768a52.808 52.808 0 0 1 1.062-5.237c.621-2.087 1.444-4.085 2.244-6.112.052-.127-.15-.209-.217-.09-1.444 2.768-3.329 6.3-3.628 9.681q-1.638-4.923-3.576-9.726a40.653 40.653 0 0 1 .845-7.818.1.1 0 0 0-.18-.052 27.636 27.636 0 0 0-1.07 6.883q-1.5-3.628-3.2-7.167c-.1-.209-.4 0-.314.187 1.751 4.115 3.344 8.3 4.818 12.539a26.269 26.269 0 0 0-8.229-5.633c-.135-.06-.247.135-.112.2a31.236 31.236 0 0 1 8.813 6.838q1.586 4.646 2.992 9.352a28.671 28.671 0 0 0-12.112-7.721c-.157-.052-.217.18-.067.239 5.117 1.982 8.977 5.237 12.673 9.15.367 1.264.748 2.536 1.077 3.808 1.332 4.818 2.566 9.658 3.741 14.514.561 2.334 1.107 4.661 1.638 6.995.576 2.514.98 5.155 1.788 7.593.082.239.494.217.456-.06a69.815 69.815 0 0 0-1.468-7.099z" class="cls-2" transform="translate(-132.703 -98.324)"/>
            <path id="Tracé_1105" d="M430.529 277.67a13.616 13.616 0 0 0-2.349 4.758.037.037 0 0 0 .075 0 43.478 43.478 0 0 1 2.506-4.653c.097-.12-.127-.24-.232-.105z" class="cls-2" transform="translate(-136.764 -99.991)"/>
            <path id="Tracé_1106" d="M415.475 291.235a14.543 14.543 0 0 0-4.781-2.035c-.045 0-.075.052 0 .075.748.389 1.571.681 2.349 1.055s1.534.8 2.319 1.145a.142.142 0 0 0 .112-.239z" class="cls-2" transform="translate(-132.349 -102.91)"/>
            <path id="Tracé_1107" d="M414.3 272.938a10.179 10.179 0 0 0-1.5-1.1.09.09 0 0 0-.1.135 9.924 9.924 0 0 0 1.5 1.13c.066.067.216-.09.1-.165z" class="cls-2" transform="translate(-132.86 -98.536)"/>
            <path id="Tracé_1108" d="M457.286 286.315c-3.875 1.421-7.773 2.746-11.641 4.145-.337.127-7.8-12.239-5.79-18.965a21.516 21.516 0 0 1 12.613-13.549c2.761-1.13 6.172-2.147 9.187-1.676a7.686 7.686 0 0 1 5.693 4.9c1.384 3.307 1.242 7.369.815 10.855a19 19 0 0 1-3.329 9.112 15.349 15.349 0 0 1-7.548 5.178z" class="cls-1" transform="translate(-139.619 -94.586)"/>
            <path id="Tracé_1109" d="M462.922 276.44a52.372 52.372 0 0 1-7.541 3.524 32.235 32.235 0 0 0-5.042 2.192c1.429-3.815 3.037-7.563 4.75-11.289a17.753 17.753 0 0 0 6.92-4.137.106.106 0 1 0-.15-.15 36.107 36.107 0 0 1-6.539 3.793c.464-1 .935-2 1.414-2.992.135-.277-.254-.524-.419-.247a83.273 83.273 0 0 0-5.02 9.726 42.955 42.955 0 0 1-.935-8.6.06.06 0 1 0-.12 0 28.824 28.824 0 0 0 .688 9.471c-1.212 2.85-2.3 5.753-3.254 8.686-.554-1.691-1.249-3.352-1.743-5.057a23.736 23.736 0 0 1-1.04-7.556.056.056 0 1 0-.112 0 26.8 26.8 0 0 0 2.506 13.848c-.554 1.758-1.077 3.531-1.549 5.3a103.638 103.638 0 0 0-3.539 27.68.172.172 0 0 0 .337 0 135.619 135.619 0 0 1 4.2-27.4c.928-3.509 2.035-6.935 3.277-10.294 2.289-.838 4.549-1.915 6.793-2.85a21.56 21.56 0 0 0 6.196-3.536c.094-.045 0-.157-.078-.112z" class="cls-2" transform="translate(-140.295 -97.205)"/>
            <path id="Tracé_1110" d="M472.163 274.507c-2.357 1-4.571 2.349-6.928 3.367-.1.045 0 .224.082.195a16.286 16.286 0 0 0 6.95-3.434c.075-.068-.022-.165-.104-.128z" class="cls-2" transform="translate(-146.087 -99.207)"/>
            <path id="Tracé_1111" d="M447.515 269.137c0-.127-.172-.187-.2-.052a12.309 12.309 0 0 0-.052 6.883c0 .082.172.082.172 0a38.544 38.544 0 0 1 .08-6.831z" class="cls-2" transform="translate(-141.451 -97.824)"/>
            <path id="Tracé_1112" d="M460.361 261.466a5.911 5.911 0 0 0-.808 3.845.082.082 0 0 0 .165 0c.209-1.287.636-2.476.943-3.741a.165.165 0 0 0-.3-.1z" class="cls-2" transform="translate(-144.654 -95.907)"/>
            <path id="Tracé_1113" d="M470.265 303.658c-.494 3.823-2.312 9.307-6.591 10.115-2.776.524-5.641.7-8.431 1.16-2.992.486-5.985 1.025-8.933 1.736-.247.06-1.249-8.977 5.147-14.648 1.8-1.579 4.182-2.409 6.374-3.307a31.513 31.513 0 0 1 7.833-2.244c1.653-.232 3.09-.127 3.98 1.459s.856 3.911.621 5.729z" class="cls-1" transform="translate(-141.279 -104.718)"/>
            <path id="Tracé_1114" d="M464.956 300.3c-1.668.748-3.337 1.594-4.982 2.461a18.683 18.683 0 0 1 1.19-1.668c.643-.748 1.377-1.407 2.087-2.1.06-.052 0-.18-.082-.127a9.981 9.981 0 0 0-3.628 4.122c-2.057 1.092-4.077 2.244-5.985 3.486a24.321 24.321 0 0 0-3.741 2.9 17.321 17.321 0 0 1 1.025-2.858 14.858 14.858 0 0 1 2.992-3.419.114.114 0 0 0-.15-.172 10.361 10.361 0 0 0-4.489 7.07 24.55 24.55 0 0 0-3.411 4.421c-3.741 6.247-6.232 14.087-4.938 21.411 0 .18.322.172.322 0a41.229 41.229 0 0 1 5.574-21.067c.269-.456.546-.9.838-1.324a32.7 32.7 0 0 1 3.845-1.01c1.5-.247 3.082-.322 4.623-.471 2.544-.239 5.319-.711 7.354-2.371.09-.075 0-.239-.112-.172-4.713 2.731-10.414 1.354-15.269 3.344a24.141 24.141 0 0 1 6.591-6.135l.427-.262c3.307-.195 6.868.037 9.83-1.579a.082.082 0 0 0-.067-.142c-2.91 1.309-5.985.875-9.022 1.257 3.037-1.855 6.187-3.464 9.239-5.312.26-.124.223-.408-.061-.283z" class="cls-2" transform="translate(-139.867 -105.342)"/>
            <path id="Tracé_1115" d="M474.288 304.708a44.877 44.877 0 0 1-4.638 1.2v.067a10.01 10.01 0 0 0 4.7-1.152c.05-.04.05-.145-.062-.115z" class="cls-2" transform="translate(-147.21 -106.815)"/>
            <path id="Tracé_1116" d="M460.216 303.1a7.659 7.659 0 0 0-2.042 2.035c-.067.09.067.217.142.135.344-.359.7-.7 1.07-1.04a11.683 11.683 0 0 0 1-.92.142.142 0 0 0-.172-.209z" class="cls-2" transform="translate(-144.315 -106.408)"/>
            <path id="Tracé_1117" d="M420.691 316.894c.052.12-.12.232-.187.1a.2.2 0 0 1-.112.075 72.284 72.284 0 0 1-8.91 1.549c-2.409.217-5.185.352-7.294-1.047-2.858-1.893-4.743-6.965-3.194-10.182 1.825-3.83 7.339-1.751 10.1-.389a20.252 20.252 0 0 1 9.597 9.894z" class="cls-1" transform="translate(-129.776 -106.941)"/>
            <path id="Tracé_1118" d="M423.942 319.4a28.472 28.472 0 0 0-5.319-4.047 18.178 18.178 0 0 0-5.394-5.5c-.1-.075-.194.1-.1.164a24.292 24.292 0 0 1 4.549 4.751 50.531 50.531 0 0 0-6.666-3.03 8.9 8.9 0 0 0-3.583-3.591s-.067 0-.037.045a14.791 14.791 0 0 1 3.232 3.4c-1.354-.5-2.723-.973-4.092-1.429-.12-.037-.172.15-.052.194 2.439.95 4.93 1.953 7.339 3.112a28.115 28.115 0 0 1-8.888 0c-.082 0-.12.1-.037.127a17.565 17.565 0 0 0 9.434.142 44.2 44.2 0 0 1 4.489 2.506 10.989 10.989 0 0 0-3.613.3 27.587 27.587 0 0 1-6.359.748.071.071 0 0 0 0 .142c3.688.636 7.167-1.04 10.825-.606a29.047 29.047 0 0 1 3.8 3.1 28.668 28.668 0 0 1 5.551 7.833c1.534 3.127 2.372 6.449 3.613 9.681a.12.12 0 0 0 .224-.06c-1.098-6.407-4.271-13.439-8.916-17.982z" class="cls-2" transform="translate(-130.888 -107.684)"/>
            <path id="Tracé_1119" d="M414.813 310.84a4.214 4.214 0 0 0-.943-1.145 3.74 3.74 0 0 0-1.092-.815c-.037 0-.052.037 0 .06.3.344.748.6 1.047.928s.6.711.928 1.04a.06.06 0 0 0 .06-.067z" class="cls-2" transform="translate(-132.876 -107.867)"/>
            <path id="Tracé_1120" d="M406.24 313.9c-.546-.142-1.122-.127-1.676-.247a15.174 15.174 0 0 1-1.631-.486.067.067 0 0 0-.052.12 5.386 5.386 0 0 0 3.359.748.082.082 0 0 0 0-.135z" class="cls-2" transform="translate(-130.386 -108.948)"/>
            <path id="Tracé_1121" d="M445.722 332.21l-.6 6.83-2.042 23.05h-18.051l-2.551-23.05-.748-6.83z" class="cls-3" transform="translate(-135.14 -113.744)"/>
            <path id="Tracé_1122" fill="#a6a6a6" d="M445.722 332.21l-.6 6.83h-22.644l-.748-6.83z" transform="translate(-135.14 -113.744)"/>
            <path id="Rectangle_1570" d="M0 0H27.568V5.536H0z" class="cls-3" transform="translate(284.802 216.611)"/>
            <path id="Tracé_1123" d="M424.48 92.18h-84.71s8.4-22.93 21.314-22.93 16.967 15.83 16.967 15.83 8.716-8.6 15.883-8.6 13.384 11.364 13.384 11.364 10.122-6.115 17.162 4.336z" class="cls-1" transform="translate(-114.496 -47.51)"/>
            <path id="Tracé_1124" d="M241.036 53H201.46s8.84-12.81 15.808-12.81 9.03 8.536 9.03 8.536 4.915-3.98 9.471-3.269S241.036 53 241.036 53z" class="cls-1" transform="translate(-79.658 -40.19)"/>
            <path id="Tracé_1125" d="M173.336 68.815H96.28s10.549-23.566 21.845-25.032 16.691 17.506 16.691 17.506 7.279-6.733 13.01-6.733 10.145 8.835 10.145 8.835 11.415-6 15.365 5.424z" class="cls-1" transform="translate(-53.166 -41.075)"/>
        </g>
        <g id="freepik--Map--inject-112" transform="translate(427.688 323.184)">
            <path id="Tracé_1126" d="M323.37 125.674l48.77-6.374v197.19l-48.77 6.374z" class="cls-5" transform="translate(-177.052 -119.3)"/>
            <path id="Tracé_1127" d="M192.98 125.674l48.77-6.374v197.19l-48.77 6.374z" class="cls-6" transform="translate(-144.21 -119.3)"/>
            <path id="Tracé_1128" d="M306.948 125.674L258.17 119.3v197.19l48.777 6.374z" class="cls-6" transform="translate(-160.63 -119.3)"/>
            <path id="Tracé_1129" d="M176.56 125.674l-48.77-6.374v197.19l48.77 6.374z" class="cls-5" transform="translate(-127.79 -119.3)"/>
            <path id="Tracé_1130" d="M323.37 131.506l44.117-5.716v187.786l-44.117 5.716z" class="cls-2" transform="translate(-177.052 -120.935)"/>
            <path id="Tracé_1131" d="M192.98 131.857l48.77-6.067v187.786l-48.77 6.067z" class="cls-2" transform="translate(-144.21 -120.935)"/>
            <path id="Tracé_1132" d="M306.948 131.743l-48.778-5.723v187.793l48.777 5.716z" class="cls-1" transform="translate(-160.63 -120.993)"/>
            <path id="Tracé_1133" d="M178.127 131.857l-44.117-6.067v187.786l44.117 6.067z" class="cls-1" transform="translate(-129.357 -120.935)"/>
            <path id="Tracé_1134" d="M172.972 132.819l-3.935 13.474-.928 3.18-9.733 33.209-.568 1.318-2.85-1.077-20.947-7.9v-3.539l22.085 8.342 13.87-47.423z" class="cls-7" transform="translate(-129.357 -122.6)"/>
            <path id="Tracé_1135" d="M229.577 127.18l-1.788 1.085-3.112 1.87-19.459 11.745-2.641 1.6-13.264 8-.172-.052-10.017-3.277-1.384-.449.83-3.217 1.481.486 8.918 2.918.172-.1 32.506-19.623v-.007h.007l3.269-.4 1.713-.217h.015z" class="cls-7" transform="translate(-140.371 -121.285)"/>
            <path id="Tracé_1136" d="M285.458 132.089l-2.536 10.578-.853 3.576-14.05 58.391-.771 3.239-.007.037-10.421-4.047-3.606-1.489-7.242-2.992-.9-.374-1.466-2.312-32.925-52.069-.763-1.2 2.431-1.938.973 1.541 14.543 23 1.96 3.1 17.139 27.1 18.239 7.287 9.419-39.1.838-3.494 7-29.184z" class="cls-7" transform="translate(-148.477 -122.431)"/>
            <path id="Tracé_1137" d="M284.335 161.111l-1.811 2.656-.441-.382-28.608-24.621-.823-.711-1.788-1.13-2.6-1.631-8.02-5.035-.711-.449.958-1.923 1.713-.217h.015l1.137.718 10.122 6.374.9.561 28.548 24.568z" class="cls-7" transform="translate(-155.935 -121.408)"/>
            <path id="Tracé_1138" d="M362.537 178.511v3.621l-7.75-3.628-2.776-1.309-34.376-16.122-11.935-11.432-1.953-1.87 1.923-2.551.883.845 12.658 12.12z" class="cls-7" transform="translate(-172.111 -125.829)"/>
            <path id="Tracé_1139" d="M343.088 281.311l-2.888-.823 21.306-94.4 2.888.823z" class="cls-7" transform="translate(-181.292 -136.123)"/>
            <path id="Tracé_1140" d="M351.253 296.8v3.5l-36.321 12.726-2.888 1.017h-.007l-4.175 1.459-44.775 41.872-4.137-.486 15.45-14.438 3.1-2.91 13.616-12.726 2.454-2.289 12.845-12.015 13.455-4.71 3.337-1.175z" class="cls-7" transform="translate(-160.826 -164.009)"/>
            <path id="Tracé_1141" d="M313.4 242.924l-28.892-11.2.958-3.165 28.286 10.967 25.713-2.708.277 3.329z" class="cls-7" transform="translate(-167.264 -146.82)"/>
            <path id="Tracé_1142" d="M235.111 171.092l-2.671-1.474 14.66-33.658 2.671 1.474z" class="cls-7" transform="translate(-154.149 -123.496)"/>
            <path id="Tracé_1143" d="M246.685 347.355l-.4 3.307-3.359-.5-16.623-2.491-48.329-16.863-43.967 4.878v-3.367l29.753-3.3 3.905-.426 10.616-1.182.284.1 27.606 9.628 3.12 1.085 17.656 6.157 19.085 2.865z" class="cls-7" transform="translate(-129.357 -171.719)"/>
            <path id="Tracé_1144" d="M144.588 230.849l-10.578 24.344v-7.631l20.947-48.209.748-1.713 2.671 1.474-.569 1.317-11.79 27.134z" class="cls-7" transform="translate(-129.357 -139.032)"/>
            <path id="Tracé_1145" d="M168.162 317.408l-2.042 2.424-2.357-2.521-29.753-31.765v-4.616l23.139 24.718 2.379 2.529 8.14 8.708z" class="cls-7" transform="translate(-129.357 -160.011)"/>
            <path id="Tracé_1146" d="M181.548 237.627l-34.7-1.8.135-3.344 34.189 1.773 48.523-16.6.868 3.2z" class="cls-7" transform="translate(-132.591 -144.075)"/>
            <path id="Tracé_1147" d="M166.76 299.091l-2.82-1.077 17.36-57.194 2.82 1.085z" class="cls-7" transform="translate(-136.895 -149.908)"/>
            <path id="Tracé_1148" d="M375.033 262.516v3.374l-20.379-2.544-1.294-.165.329-3.322 1.7.21z" class="cls-7" transform="translate(-184.606 -154.704)"/>
            <path id="Tracé_1149" d="M293.6 309.492l-26.132-84.7 2.813-1.1 26.132 84.7z" class="cls-7" transform="translate(-162.972 -145.594)"/>
            <path id="Tracé_1150" d="M231.842 330.143l-2.222-2.229 20.424-25.743 23.618-14.581 1.429 2.933-23.169 14.3z" class="cls-7" transform="translate(-153.439 -161.689)"/>
            <path id="Tracé_1151" d="M285.458 132.089l-2.536 10.578-.853 3.576-14.05 58.391-.771 3.239-.007.037-10.421-4.047-3.606-1.489-7.242-2.992-.9-.374-1.466-2.312-32.925-52.069-.763-1.2 2.431-1.938.973 1.541 14.543 23 1.96 3.1 17.139 27.1 18.239 7.287 9.419-39.1.838-3.494 7-29.184z" class="cls-7" transform="translate(-148.477 -122.431)"/>
            <path id="Tracé_1152" d="M313.4 242.924l-28.892-11.2.958-3.165 28.286 10.967 25.713-2.708.277 3.329z" class="cls-7" transform="translate(-167.264 -146.82)"/>
            <path id="Tracé_1153" d="M246.685 347.355l-.4 3.314-3.367-.509-16.616-2.491L207.176 341h-.015l-19.489-6.808-9.7-3.382-43.967 4.878v-3.367l29.753-3.3 3.913-.426 10.6-1.182.3.1 9.1 3.179 18.5 6.449 3.12 1.085h.007l.045.022 17.6 6.135 19.085 2.865z" class="cls-7" transform="translate(-129.357 -171.719)"/>
            <path id="Tracé_1154" d="M296.415 308.392l-2.813 1.092-10.526-34.1v-.008l-.988-3.2-14.388-46.638-.232-.748.352-.142 2.461-.958 1.032 3.337 14.409 46.72z" class="cls-7" transform="translate(-162.972 -145.594)"/>
            <path id="Tracé_1155" d="M275.091 290.515v.008l-1.549.958-21.621 13.346-18.538 23.373-1.541 1.945-2.222-2.222.636-.808 19.788-24.942 22.511-13.9 1.107-.681z" class="cls-7" transform="translate(-153.439 -161.689)"/>
            <path id="Tracé_1156" d="M353.516 363.513l-3.165.411-20.625-45.014h-.008l-.569-1.257 2.648-1.534.815 1.773z" class="cls-7" transform="translate(-178.508 -168.875)"/>
            <path id="Tracé_1157" d="M207.947 215.162l25.346-8.671L216.73 180.3l-13.93 4.676z" class="cls-1" transform="translate(-146.683 -134.665)"/>
            <path id="Tracé_1158" d="M332.82 219.8l14.476-1.526 6.613-28.81-15.6-7.317z" class="cls-1" transform="translate(-179.433 -135.131)"/>
            <path id="Tracé_1159" d="M371.363 165.268l-32.573-14.506v-20.753l32.581-4.219z" class="cls-1" transform="translate(-180.936 -120.935)"/>
            <path id="Tracé_1160" d="M198.1 161.743l8.11-4.893 7.257 11.521-12.935 4.421z" class="cls-1" transform="translate(-145.5 -128.758)"/>
            <path id="Tracé_1161" d="M268.87 311.352l13.219-8.162 7.077 22.952-9.464 8.85-10.833-1.623z" class="cls-2" transform="translate(-163.325 -165.618)"/>
            <path id="Tracé_1162" d="M267.76 133.267v-6.157l26.252 3.1-5.095 21.254z" class="cls-2" transform="translate(-163.046 -121.267)"/>
            <path id="Tracé_1163" d="M140.6 269.647l16.863 18.007 10.893-36.045-19.541-1.01z" class="cls-2" transform="translate(-131.017 -152.372)"/>
            <path id="Tracé_1164" d="M140.22 169.449V140.13l23.82 3.426-9.194 31.421z" class="cls-2" transform="translate(-130.921 -124.547)"/>
            <path id="Tracé_1165" d="M140.22 133.141l23.82 3.426 1.893-6.389-25.713-3.538z" class="cls-2" transform="translate(-130.921 -121.149)"/>
            <path id="Tracé_1166" d="M199.63 369.031V341.56l17.469 6.127v19.167z" class="cls-1" transform="translate(-145.885 -175.283)"/>
            <path id="Tracé_1167" d="M138.98 343.911l13.578-1.511v24.082l-13.578-1.87z" class="cls-2" transform="translate(-130.609 -175.494)"/>
            <path id="Tracé_1168" d="M362.3 357.086l-15.15-33.052 26.319-9.224.007 40.825z" class="cls-1" transform="translate(-183.042 -168.545)"/>
            <path id="Tracé_1169" d="M311.773 224.945v-16.683l-15.1-5.282-3.573 14.865z" class="cls-2" transform="translate(-169.428 -140.377)"/>
            <path id="Tracé_1170" fill="#ffc628" d="M255.767 221.07l14.416 46.72-1.107.673-1.541.95v.008l-21.628 13.346-18.486 23.394-2.177 2.746h-.015L205.74 302.1v-3.5l18.5 6.456 19.788-24.95 22.511-13.9-14.394-46.638h.007l.12-.883.344-2.589v-.022l11.544 4.593 4.975-20.663 2.82 1.1-5.768 24z" transform="translate(-147.424 -139.629)"/>
            <path id="Tracé_1171" d="M299.379 170.382c-.561-5.678-4.489-11.342-11.364-11.342s-10.8 5.663-11.364 11.342c-.868 8.775 5.05 16.728 11.364 23.977 6.322-7.249 12.24-15.202 11.364-23.977zm-11.364 6.318a6.217 6.217 0 1 1 4.408-1.818 6.224 6.224 0 0 1-4.408 1.818z" class="cls-6" transform="translate(-165.264 -129.31)"/>
            <path id="Tracé_1172" d="M213.257 300.679c-.569-5.686-4.489-11.349-11.371-11.349s-10.8 5.663-11.364 11.349c-.868 8.776 5.05 16.721 11.364 23.94 6.321-7.219 12.239-15.164 11.371-23.94zm-11.371 6.307a6.217 6.217 0 1 1 4.408-1.818 6.224 6.224 0 0 1-4.409 1.818z" class="cls-6" transform="translate(-143.569 -162.127)"/>
        </g>
        <g id="freepik--speech-bubble--inject-112" transform="translate(644.605 341.611)">
            <path id="Tracé_1173" d="M420.057 160.836a9.067 9.067 0 0 1-1.556-5.012c0-6.359 6.98-11.514 15.591-11.514s15.576 5.155 15.576 11.514-6.968 11.506-15.576 11.506a18.7 18.7 0 0 1-10.751-3.18L418 165.512z" class="cls-7" transform="translate(-417.806 -144.027)"/>
            <path id="Tracé_1174" d="M417.987 165.454l-.1-.127 5.349-1.444h.075l.067.045a18.269 18.269 0 0 0 9.389 2.992 20.746 20.746 0 0 0 4.96-.352 17.954 17.954 0 0 0 4.713-1.5 14.438 14.438 0 0 0 3.995-2.858 10.023 10.023 0 0 0 2.476-4.145 8.17 8.17 0 0 0-.067-4.773 10.057 10.057 0 0 0-2.536-4.107 16.279 16.279 0 0 0-8.746-4.3 20.813 20.813 0 0 0-9.845.628 14.08 14.08 0 0 0-7.863 5.768 8.977 8.977 0 0 0-1.317 4.743 9.2 9.2 0 0 0 1.459 4.743zm.367-9.449a9.134 9.134 0 0 1 1.219-4.915 12.149 12.149 0 0 1 3.434-3.741 16.354 16.354 0 0 1 4.541-2.342 21.162 21.162 0 0 1 5.012-1.025 21.637 21.637 0 0 1 5.11.254 16.937 16.937 0 0 1 9.142 4.444 10.907 10.907 0 0 1 2.746 4.384 8.9 8.9 0 0 1 .045 5.192 10.735 10.735 0 0 1-2.678 4.429 15.073 15.073 0 0 1-4.2 2.992 20.2 20.2 0 0 1-9.987 1.825 18.569 18.569 0 0 1-9.561-3.322h.142l-5.386 1.287-.187.045.082-.172 2.17-4.638a9.022 9.022 0 0 1-1.638-4.7z" class="cls-6" transform="translate(-417.74 -143.932)"/>
            <path id="Tracé_1175" d="M447 159.156a1.616 1.616 0 1 0 1.616-1.616 1.616 1.616 0 0 0-1.616 1.616z" class="cls-6" transform="translate(-425.11 -147.359)"/>
            <path id="Tracé_1176" d="M437.34 159.156a1.616 1.616 0 1 0 1.616-1.616 1.616 1.616 0 0 0-1.616 1.616z" class="cls-6" transform="translate(-422.677 -147.359)"/>
            <path id="Tracé_1177" d="M427.69 159.156a1.616 1.616 0 1 0 1.616-1.616 1.616 1.616 0 0 0-1.616 1.616z" class="cls-6" transform="translate(-420.246 -147.359)"/>
        </g>
    </g>
</svg>
