<svg xmlns="http://www.w3.org/2000/svg" width="380.96" height="200.411" viewBox="0 0 439.96 262.411">
  <defs>
    <style>
      .cls-1 {
        fill: #ffc628;
        fill-rule: evenodd;
      }

      .cls-2 {
        fill: #fff;
      }

      .cls-3 {
        fill: #263238;
      }
    </style>
  </defs>
  <g id="Processing-pana" transform="translate(-32.51 -28.337)">
    <g id="freepik--Gears--inject-47">
      <path id="Tracé_1243" data-name="Tracé 1243" class="cls-1" d="M86.19,61.42A48,48,0,0,1,98,56.36l2.45-11.61L120,44.47,122.83,56a47.92,47.92,0,0,1,11.89,4.73l9.95-6.47L158.75,68l-6.19,10.12a48,48,0,0,1,5.07,11.76l11.61,2.46.28,19.63L158,114.72a48.38,48.38,0,0,1-4.73,11.9l6.47,9.94L146,150.65l-10.12-6.19a48,48,0,0,1-11.76,5.06l-2.46,11.61-19.64.28-2.79-11.54a47.92,47.92,0,0,1-11.89-4.73l-10,6.47-14-13.69,6.19-10.12A48,48,0,0,1,64.47,116l-11.62-2.46L52.58,94l11.54-2.79a48,48,0,0,1,4.72-11.9l-6.47-9.94L76.06,55.23l10.13,6.19Z"/>
      <path id="Tracé_1244" data-name="Tracé 1244" class="cls-2" d="M122.63,97.16A25.15,25.15,0,0,0,122,93a16.09,16.09,0,0,0-1.89-4.48,16.8,16.8,0,0,0-20.18-7.13,16,16,0,0,0-4.24,2.28,15.47,15.47,0,0,0-3.54,3.56,16.69,16.69,0,0,0,0,19.79,20.622,20.622,0,0,0,1.64,2,18,18,0,0,0,1.9,1.61,15.75,15.75,0,0,0,4.24,2.29,16.824,16.824,0,0,0,20.18-7.14,16.33,16.33,0,0,0,1.9-4.48,25.63,25.63,0,0,0,.62-4.12.8.8,0,0,1,0,.27c0,.22,0,.48,0,.81a7.6,7.6,0,0,1-.11,1.32,11.328,11.328,0,0,1-.32,1.77,16.08,16.08,0,0,1-1.84,4.58,17.066,17.066,0,0,1-20.55,7.44A16.36,16.36,0,0,1,95.39,111a15.81,15.81,0,0,1-3.65-3.65,17.16,17.16,0,0,1,0-20.4,19.2,19.2,0,0,1,1.69-2,20.261,20.261,0,0,1,2-1.66A16,16,0,0,1,99.76,81a17.082,17.082,0,0,1,20.57,7.4A16.19,16.19,0,0,1,122.2,93a11.652,11.652,0,0,1,.32,1.78,7.421,7.421,0,0,1,.11,1.31q0,.495,0,.81a.9.9,0,0,1,0,.26Z"/>
      <path id="Tracé_1245" data-name="Tracé 1245" class="cls-2" d="M117.28,109.54c.1-.1,3.8,3.44,8.27,7.91s8,8.17,7.91,8.27-3.81-3.44-8.28-7.9S117.18,109.64,117.28,109.54Z"/>
      <path id="Tracé_1246" data-name="Tracé 1246" class="cls-1" d="M220.43,135.73a61.421,61.421,0,0,1,15.09-6.5l3.16-14.91,25.2-.35,3.58,14.81a61.54,61.54,0,0,1,15.27,6.07l12.77-8.31,18.07,17.57-7.94,13a62,62,0,0,1,6.5,15.09l14.9,3.16.36,25.2-14.81,3.58a61.931,61.931,0,0,1-6.07,15.27l8.3,12.77-17.57,18.07-13-7.94a62,62,0,0,1-15.1,6.5L266,263.71l-25.21.36-3.58-14.81a61.849,61.849,0,0,1-15.27-6.07l-12.76,8.3L191.1,233.92l7.94-13a61.62,61.62,0,0,1-6.49-15.1l-14.91-3.15-.35-25.21,14.81-3.57a61.539,61.539,0,0,1,6.07-15.27l-8.31-12.77,17.57-18.08,13,7.95Z"/>
      <path id="Tracé_1247" data-name="Tracé 1247" class="cls-2" d="M243.81,215.28h4.47l12.37-.08-.15.15c-.05-2.12-.11-4.51-.17-7.07v-.12l.11-.05A38.06,38.06,0,0,0,271,200.8a26.721,26.721,0,0,0,4.44-5.68,19.66,19.66,0,0,0,2.44-7.23,24.05,24.05,0,0,0-3.79-15.84,28.77,28.77,0,0,0-13.79-11,23.73,23.73,0,0,0-13.24-.92,26,26,0,0,0-11.51,5.32,23.39,23.39,0,0,0-6.94,9.59c-.31.91-.7,1.78-.93,2.69s-.44,1.82-.66,2.71a28.86,28.86,0,0,0-.47,5.34,24.81,24.81,0,0,0,.63,5,23.079,23.079,0,0,0,1.63,4.48,25.771,25.771,0,0,0,5,6.91,34.14,34.14,0,0,0,10.32,7.05h.06v.06q-.18,2.9-.27,4.41a5.175,5.175,0,0,1-.07,1.14,2.548,2.548,0,0,1,0,.39,1.532,1.532,0,0,1,0-.36c0-.27,0-.64,0-1.12,0-1,.09-2.51.16-4.47l.06.1a33.88,33.88,0,0,1-10.47-7,25.711,25.711,0,0,1-5.1-7,23.44,23.44,0,0,1-1.68-4.55,25.787,25.787,0,0,1-.67-5.12,29.792,29.792,0,0,1,.46-5.43c.22-.91.44-1.82.66-2.75s.63-1.82.94-2.74a23.9,23.9,0,0,1,7.06-9.81A26.49,26.49,0,0,1,247,159.63a24.19,24.19,0,0,1,13.52.93,29.23,29.23,0,0,1,14,11.21,23.93,23.93,0,0,1,3.37,7.95,14.5,14.5,0,0,1,.38,2.07,13.192,13.192,0,0,1,.2,2.07c0,.69.06,1.38.07,2.06l-.19,2a19.82,19.82,0,0,1-2.52,7.39,27.21,27.21,0,0,1-4.53,5.77,38.36,38.36,0,0,1-10.74,7.26l.11-.17c0,2.56.08,5,.11,7.08v.16h-.16l-12.46-.08h-4.11Z"/>
      <path id="Tracé_1248" data-name="Tracé 1248" class="cls-2" d="M260.89,220a71.661,71.661,0,0,1-8.65.27,73,73,0,0,1-8.65-.26,73,73,0,0,1,8.65-.26,71.917,71.917,0,0,1,8.65.25Z"/>
      <path id="Tracé_1249" data-name="Tracé 1249" class="cls-2" d="M255.29,226.5a6.66,6.66,0,0,1-3.06.36,6.74,6.74,0,0,1-3-.55,15,15,0,0,1,3.05,0A14.728,14.728,0,0,1,255.29,226.5Z"/>
      <path id="Tracé_1250" data-name="Tracé 1250" class="cls-2" d="M247.34,215.28a.9.9,0,0,1,0-.28v-.84c0-.78,0-1.85.05-3.22.07-2.83.16-6.86.28-11.83.06-2.5.14-5.23.21-8.17a5.37,5.37,0,0,0-.29-2.11,1.39,1.39,0,0,0-1.52-1,2,2,0,0,0-1.34,1.52,3.1,3.1,0,0,0,.28,2.2,5,5,0,0,0,3.86,2.57,5.14,5.14,0,0,0,4.5-1.8,7.68,7.68,0,0,0,1.89-4.84,4.56,4.56,0,0,0-.53-2.56,1.88,1.88,0,0,0-2.11-.9,1.9,1.9,0,0,0-1,2.07,5.23,5.23,0,0,0,1.2,2.35,9.52,9.52,0,0,0,4.17,3.22,5.42,5.42,0,0,0,2.51.3,5.07,5.07,0,0,0,2.28-.95,4,4,0,0,0,1.43-1.9,2.92,2.92,0,0,0-.13-2.25,1.94,1.94,0,0,0-1.71-1.16,2.37,2.37,0,0,0-1.79,1.07c-.83,1.23-.84,2.84-1.05,4.27-.32,2.91-.53,5.64-.72,8.13-.33,5-.6,9-.79,11.8-.1,1.37-.17,2.44-.22,3.21a7.609,7.609,0,0,1-.07.84,1.18,1.18,0,0,1,0,.28,1.231,1.231,0,0,1,0-.28v-.84c0-.77.07-1.85.12-3.22.12-2.79.31-6.83.64-11.81.16-2.5.35-5.23.65-8.16.09-.73.16-1.47.29-2.23a5.461,5.461,0,0,1,.81-2.25,2.83,2.83,0,0,1,2.16-1.28,2.42,2.42,0,0,1,2.14,1.41,3.38,3.38,0,0,1,.17,2.63,4.46,4.46,0,0,1-1.59,2.14,5.55,5.55,0,0,1-2.51,1.05,5.85,5.85,0,0,1-2.75-.32,9.94,9.94,0,0,1-4.4-3.38,5.55,5.55,0,0,1-1.31-2.59,2.42,2.42,0,0,1,1.35-2.64,2.39,2.39,0,0,1,2.74,1.12,5,5,0,0,1,.6,2.85,8.2,8.2,0,0,1-2,5.16,5.62,5.62,0,0,1-4.94,2,5.48,5.48,0,0,1-4.23-2.85,3.61,3.61,0,0,1-.3-2.54,2.47,2.47,0,0,1,1.71-1.84,1.68,1.68,0,0,1,1.27.29,2.22,2.22,0,0,1,.75,1,5.75,5.75,0,0,1,.3,2.3c-.1,2.93-.19,5.66-.28,8.16-.18,5-.33,9-.44,11.83-.06,1.36-.11,2.44-.15,3.21v.84A1,1,0,0,1,247.34,215.28Z"/>
      <path id="Tracé_1251" data-name="Tracé 1251" class="cls-2" d="M259.37,223.23a46.547,46.547,0,0,1-7,.26,46.551,46.551,0,0,1-7-.26,48.18,48.18,0,0,1,7-.26A48.18,48.18,0,0,1,259.37,223.23Z"/>
      <path id="Tracé_1252" data-name="Tracé 1252" class="cls-1" d="M385.94,176a39.63,39.63,0,0,1,9.73-4.37l1.89-9.7,16.35-.49,2.47,9.57a40,40,0,0,1,10,3.78l8.2-5.51,11.9,11.21-5,8.51a40.57,40.57,0,0,1,4.37,9.73l9.7,1.9.48,16.34-9.57,2.47a40,40,0,0,1-3.78,10l5.52,8.2-11.22,11.9-8.51-5a40,40,0,0,1-9.73,4.37l-1.89,9.7-16.35.49-2.5-9.65a40.39,40.39,0,0,1-10-3.79l-8.19,5.52L367.91,240l5-8.51a40.319,40.319,0,0,1-4.37-9.72l-9.7-1.9-.48-16.35L368,201a39.9,39.9,0,0,1,3.78-10l-5.52-8.2L377.43,171Z"/>
      <path id="Tracé_1253" data-name="Tracé 1253" class="cls-2" d="M429.09,227.81a4.832,4.832,0,0,1-.79.05h-2.27l-8.37.08-27.59.08h-2.23v-.26c0-10.31.06-19.55.08-26.28,0-3.3.07-6,.09-7.9v-2.14a6.012,6.012,0,0,1,.05-.74,3.24,3.24,0,0,1,0,.74c0,.54,0,1.25.05,2.14,0,1.92.05,4.6.08,7.9,0,6.73.05,16,.08,26.28l-.26-.26h2l27.59.07,8.37.09h2.27a4,4,0,0,1,.85.15Z"/>
      <path id="Tracé_1254" data-name="Tracé 1254" class="cls-2" d="M424.54,199.74a10.588,10.588,0,0,1-1.22,1.17l-3.46,3c-2.94,2.55-7,6.05-11.55,9.88l-.68.58-.18.15-.17-.16-5.13-4.77h.32l-7.54,6.22-2.19,1.75a4.761,4.761,0,0,1-.82.58,4.19,4.19,0,0,1,.72-.7l2.1-1.86,7.42-6.36.16-.14.16.14,5.15,4.75h-.34l.69-.58c4.52-3.83,8.64-7.28,11.64-9.76l3.57-2.91a10.192,10.192,0,0,1,1.35-.98Z"/>
      <path id="Tracé_1255" data-name="Tracé 1255" class="cls-2" d="M424.54,208.33a13.273,13.273,0,0,1-.18-2.56c-.05-1.59-.08-3.78-.08-6.23l.26.26h-.44c-2.55,0-4.86,0-6.53-.08a14.879,14.879,0,0,1-2.71-.18,14.229,14.229,0,0,1,2.71-.19c1.67,0,4-.07,6.53-.07h.7v.26c0,2.45,0,4.64-.08,6.23a13.268,13.268,0,0,1-.18,2.56Z"/>
      <path id="Tracé_1256" data-name="Tracé 1256" class="cls-3" d="M160,229.24a9.15,9.15,0,0,1-1.16-2.78,8.9,8.9,0,0,1-.66-2.94,8.87,8.87,0,0,1,1.16,2.78A8.76,8.76,0,0,1,160,229.24Z"/>
      <path id="Tracé_1257" data-name="Tracé 1257" class="cls-3" d="M170.64,250.64a40.64,40.64,0,0,1-6-10.38,56.772,56.772,0,0,1,3.05,5.15,53.422,53.422,0,0,1,2.95,5.23Z"/>
      <path id="Tracé_1258" data-name="Tracé 1258" class="cls-3" d="M186.24,268.71a39.408,39.408,0,0,1-8.38-8.53,55.779,55.779,0,0,1,4.24,4.22,55.265,55.265,0,0,1,4.14,4.31Z"/>
      <path id="Tracé_1259" data-name="Tracé 1259" class="cls-3" d="M206,282.1a25.6,25.6,0,0,1-5.41-2.61,24.5,24.5,0,0,1-4.93-3.42,58.536,58.536,0,0,1,5.19,3A55.4,55.4,0,0,1,206,282.1Z"/>
      <path id="Tracé_1260" data-name="Tracé 1260" class="cls-3" d="M228.72,289.42a37.27,37.27,0,0,1-11.62-2.82,35.434,35.434,0,0,1,5.82,1.38,35.575,35.575,0,0,1,5.8,1.44Z"/>
      <path id="Tracé_1261" data-name="Tracé 1261" class="cls-3" d="M252.59,289.94a25.279,25.279,0,0,1-6,.71,25.561,25.561,0,0,1-6-.18,53,53,0,0,1,6-.34,56.411,56.411,0,0,1,6-.19Z"/>
      <path id="Tracé_1262" data-name="Tracé 1262" class="cls-3" d="M275.92,284.79a26.4,26.4,0,0,1-5.64,2,25.93,25.93,0,0,1-5.88,1.2,51.579,51.579,0,0,1,5.74-1.7A48.861,48.861,0,0,1,275.92,284.79Z"/>
      <path id="Tracé_1263" data-name="Tracé 1263" class="cls-3" d="M297.57,274.65A41.49,41.49,0,0,1,287,280.32a51.008,51.008,0,0,1,5.23-2.91,52.265,52.265,0,0,1,5.34-2.76Z"/>
      <path id="Tracé_1264" data-name="Tracé 1264" class="cls-3" d="M316.12,259.62a23.612,23.612,0,0,1-4.06,4.42,25.128,25.128,0,0,1-4.71,3.72,56.722,56.722,0,0,1,4.36-4.1A57.741,57.741,0,0,1,316.12,259.62Z"/>
      <path id="Tracé_1265" data-name="Tracé 1265" class="cls-3" d="M329.33,239.77a24.37,24.37,0,0,1-2.46,5.48,23.309,23.309,0,0,1-3.32,5c-.12-.09,1.29-2.36,2.86-5.25a57.81,57.81,0,0,1,2.92-5.23Z"/>
      <path id="Tracé_1266" data-name="Tracé 1266" class="cls-3" d="M337.53,217.3a34.541,34.541,0,0,1-1.62,5.76,34.407,34.407,0,0,1-2.12,5.61,34.222,34.222,0,0,1,1.62-5.77,33.442,33.442,0,0,1,2.12-5.6Z"/>
      <path id="Tracé_1267" data-name="Tracé 1267" class="cls-3" d="M345.18,194.61c.16.07-.76,2.58-1.84,5.7a34.18,34.18,0,0,1-2.21,5.57,33.53,33.53,0,0,1,1.72-5.74c.53-1.57,1.1-3,1.53-3.95a6.821,6.821,0,0,1,.8-1.58Z"/>
      <path id="Tracé_1268" data-name="Tracé 1268" class="cls-3" d="M355.79,173.19a49.7,49.7,0,0,1-2.83,5.27,51.108,51.108,0,0,1-3,5.19,26.271,26.271,0,0,1,2.53-5.44A26.061,26.061,0,0,1,355.79,173.19Z"/>
      <path id="Tracé_1269" data-name="Tracé 1269" class="cls-3" d="M371.76,155.52c.09.12-2,1.78-4.42,4s-4.25,4.19-4.36,4.08a22,22,0,0,1,4-4.46,21.439,21.439,0,0,1,4.78-3.62Z"/>
      <path id="Tracé_1270" data-name="Tracé 1270" class="cls-3" d="M393.32,145.42a58.616,58.616,0,0,1-5.62,2,58.236,58.236,0,0,1-5.63,2,23.892,23.892,0,0,1,5.46-2.5,24.409,24.409,0,0,1,5.79-1.5Z"/>
      <path id="Tracé_1271" data-name="Tracé 1271" class="cls-3" d="M417,142.78c0,.15-2.69.08-6,.2a58.348,58.348,0,0,1-6,.18,24.391,24.391,0,0,1,6-.7,23,23,0,0,1,6,.32Z"/>
      <path id="Tracé_1272" data-name="Tracé 1272" class="cls-3" d="M440.1,148.67a55.5,55.5,0,0,1-5.66-1.95c-3.1-1.11-5.66-1.9-5.62-2a24.421,24.421,0,0,1,5.8,1.55,25.37,25.37,0,0,1,5.48,2.4Z"/>
      <path id="Tracé_1273" data-name="Tracé 1273" class="cls-3" d="M460.46,161.13c-.1.11-2.2-1.54-4.89-3.45a56.427,56.427,0,0,1-4.85-3.51,25.5,25.5,0,0,1,5.15,3.08A24,24,0,0,1,460.46,161.13Z"/>
      <path id="Tracé_1274" data-name="Tracé 1274" class="cls-3" d="M472.47,174.4a26.179,26.179,0,0,1-3.56-4.82,13,13,0,0,1,3.56,4.82Z"/>
      <path id="Tracé_1275" data-name="Tracé 1275" class="cls-3" d="M32.51,88.66s.05-.31.18-.9l.6-2.65a68,68,0,0,1,3.33-9.89A74.441,74.441,0,0,1,44.89,61,82.21,82.21,0,0,1,60.15,45.33,80.9,80.9,0,0,1,83.41,32.75a85.11,85.11,0,0,1,14.36-3.47,92.43,92.43,0,0,1,15.65-.91,81.771,81.771,0,0,1,16.33,2.07,74.439,74.439,0,0,1,16.19,5.72A72.59,72.59,0,0,1,160.75,46,69.871,69.871,0,0,1,173,59.59,67.56,67.56,0,0,1,181.28,76,77.249,77.249,0,0,1,185,93.34c.11,1.46.27,2.91.34,4.35s.06,2.89.1,4.32-.08,2.87-.11,4.29a39.4,39.4,0,0,1-.41,4.22,62.929,62.929,0,0,1-4.3,15.9,123.262,123.262,0,0,1-7.1,14q-3.86,6.57-7.46,12.74a74.76,74.76,0,0,0-8.73,24.8,109.79,109.79,0,0,0-1.42,11.44c-.27,3.63-.39,7.07-.41,10.29a113.49,113.49,0,0,0,.78,16.45,66.149,66.149,0,0,0,2.28,10.15c.37,1.14.68,2,.91,2.55.11.29.21.5.27.64a1.626,1.626,0,0,1,.08.22,23.06,23.06,0,0,1-1.35-3.38,61.441,61.441,0,0,1-2.39-10.15,112.662,112.662,0,0,1-.87-16.49c0-3.22.11-6.66.37-10.3A107.685,107.685,0,0,1,157,177.85a75,75,0,0,1,8.71-24.95l7.44-12.74a122.658,122.658,0,0,0,7.06-13.93,63.14,63.14,0,0,0,4.25-15.77c.18-1.39.27-2.79.4-4.19a40.08,40.08,0,0,0,.1-4.25c-.02-1.42-.07-2.86-.1-4.3s-.23-2.88-.34-4.33a76.2,76.2,0,0,0-3.73-17.27,66.69,66.69,0,0,0-8.18-16.23,69.19,69.19,0,0,0-12.2-13.48,72.15,72.15,0,0,0-14.69-9.79,73.47,73.47,0,0,0-16.08-5.69,80.831,80.831,0,0,0-16.24-2.08,92.44,92.44,0,0,0-15.56.88,85,85,0,0,0-14.29,3.43A80.67,80.67,0,0,0,60.38,45.62a82.06,82.06,0,0,0-15.25,15.5A75.159,75.159,0,0,0,36.8,75.3a71.18,71.18,0,0,0-3.41,9.84l-.65,2.63Z"/>
    </g>
  </g>
</svg>
