<svg xmlns="http://www.w3.org/2000/svg" width="385.27" height="311.571" viewBox="0 0 385.27 311.571">
    <path fill="#f1f2f6" d="M182.143 10.836c29.018 14.894 74.984 12.84 98.866 30.815 23.882 18.232 25.936 56.495 17.976 95.271-7.7 38.776-25.166 78.066-54.954 95.014-30.045 16.948-72.673 11.813-119.153 16.948-46.48 5.393-96.812 21.057-136.872 7.447-40.317-13.61-70.362-56.752-70.105-99.38.514-42.628 31.329-85 58.036-116.328C2.9 9.295 25.755-11.249 50.664-27.684c24.652-16.435 51.359-28.5 70.875-18.489 19.261 10.015 31.586 42.115 60.604 57.009z" transform="translate(82.101 49.82)"/>
</svg>
