<svg xmlns="http://www.w3.org/2000/svg" width="20" height="14" viewBox="0 0 30 24">
    <path fill="#f5a202" d="M29.432 12.425a.351.351 0 0 1 .568.293V25.5a2.912 2.912 0 0 1-2.812 3H2.813A2.912 2.912 0 0 1 0 25.5V12.725a.349.349 0 0 1 .568-.293c1.313 1.087 3.053 2.468 9.029 7.1 1.237.963 3.322 2.988 5.4 2.975 2.092.019 4.219-2.05 5.408-2.975 5.977-4.631 7.711-6.019 9.023-7.107zM15 20.5c1.359.025 3.317-1.825 4.3-2.588 7.775-6.019 8.368-6.544 10.16-8.044a1.533 1.533 0 0 0 .54-1.18V7.5a2.912 2.912 0 0 0-2.812-3H2.813A2.912 2.912 0 0 0 0 7.5v1.188a1.544 1.544 0 0 0 .539 1.181c1.793 1.493 2.385 2.025 10.16 8.044.984.762 2.942 2.612 4.301 2.587z" transform="translate(0 -4.5)"/>
</svg>
