<svg xmlns="http://www.w3.org/2000/svg" width="15" height="15" viewBox="0 0 25 25">
    <defs>
        <clipPath id="clip-path">
            <path d="M0 0H25V25H0z" class="cls-1"/>
        </clipPath>
        <style>
            .cls-1{fill:none}
        </style>
    </defs>
    <g id="Composant_143_1" clip-path="url(#clip-path)">
        <path id="Rectangle_320" d="M0 0H21V21H0z" class="cls-1"/>
        <path id="Tracé_110" fill="#f5a202" d="M14.509 17.857l2.679-2.457a.82.82 0 0 1 .67-.223l.446.223 6.25 2.9c.446.223.446.446.446.893-.223 1.786-.67 3.125-1.786 4.018A6.394 6.394 0 0 1 18.527 25a13.6 13.6 0 0 1-6.25-1.562 29.262 29.262 0 0 1-6.25-4.464 38.02 38.02 0 0 1-3.348-4.911A30.854 30.854 0 0 1 .446 9.152 13.736 13.736 0 0 1 0 4.911a5.866 5.866 0 0 1 1.563-3.348C2.455.67 3.795.223 5.8 0a1.16 1.16 0 0 1 .9.446L10.045 6.7a.779.779 0 0 0 .223.446.82.82 0 0 1-.223.67l-2.9 2.679a1 1 0 0 0 0 1.116 21.316 21.316 0 0 0 2.679 3.571 22.538 22.538 0 0 0 3.571 2.9c.444.218.891.218 1.114-.225z"/>
    </g>
</svg>
