<svg xmlns="http://www.w3.org/2000/svg" width="480.197" height="360" viewBox="0 0 560.197 440.748">
    <defs>
        <style>
            .cls-1,.cls-11,.cls-12,.cls-13{fill:#f5f5f5}.cls-2{fill:#e0e0e0}.cls-3{fill:#ffc628}.cls-5{fill:#37474f}.cls-6{fill:#455a64}.cls-7{fill:#263238}.cls-8{opacity:.3}.cls-9{fill:#ebebeb}.cls-10{fill:#fff}.cls-11,.cls-14{opacity:.5}.cls-12{opacity:.6}.cls-13{opacity:.7}
        </style>
    </defs>
    <g id="Groupe_224" transform="translate(-870.812 -430)">
        <g id="Plain_credit_card-amico" transform="translate(870.812 430)">
            <g id="freepik--Floor--inject-14" transform="translate(0 148.099)">
                <path id="Tracé_302" d="M104.351 437.192c109.385 57.138 286.746 57.138 396.119 0s109.4-149.8 0-206.937-286.734-57.15-396.119 0-109.385 149.787 0 206.937z" class="cls-1" transform="translate(-22.312 -187.396)"/>
            </g>
            <g id="freepik--Shadows--inject-14" transform="translate(70.602 189.1)">
                <path id="Tracé_303" d="M381.027 311.572c-14.673-8.5-38.448-8.5-53.121 0s-14.661 22.2 0 30.669 38.448 8.5 53.121 0 14.673-22.198 0-30.669z" class="cls-2" transform="translate(-29.978 -203.23)"/>
                <path id="Tracé_304" d="M381.027 311.572c-14.673-8.5-38.448-8.5-53.121 0s-14.661 22.2 0 30.669 38.448 8.5 53.121 0 14.673-22.198 0-30.669z" class="cls-2" transform="translate(-29.978 -203.23)"/>
                <path id="Tracé_305" d="M144.6 227.552c-14.661-8.5-38.448-8.5-53.109 0s-14.673 22.2 0 30.669 38.448 8.5 53.109 0 14.668-22.198 0-30.669z" class="cls-2" transform="translate(-80.486 -221.18)"/>
                <path id="Tracé_306" d="M427.907 254.822c-14.673-8.5-38.46-8.5-53.121 0s-14.673 22.21 0 30.669 38.448 8.5 53.121 0 14.661-22.198 0-30.669z" class="cls-2" transform="translate(-19.963 -215.354)"/>
            </g>
            <g id="freepik--Plants--inject-14" transform="translate(60.533 142.555)">
                <path id="Tracé_307" d="M146.475 352.08a109.229 109.229 0 0 0-7.367-31.348c-6.542-16.153-17.889-29.249-32.38-32.319s-20.025 4.5-18.8 13.083 13.35 15.086 21.578 22.282 23.448 24.6 27.683 41.4l8.18.9z" class="cls-3" transform="translate(-68.863 -160.42)"/>
                <path id="Tracé_308" d="M146.475 352.08a109.229 109.229 0 0 0-7.367-31.348c-6.542-16.153-17.889-29.249-32.38-32.319s-20.025 4.5-18.8 13.083 13.35 15.086 21.578 22.282 23.448 24.6 27.683 41.4l8.18.9z" opacity="0.2" transform="translate(-68.863 -160.42)"/>
                <path id="Tracé_309" d="M140.414 365.405a.619.619 0 0 1-.57-.643c1.845-28.812-16.918-60.682-42.72-72.539a.595.595 0 0 1-.3-.8.619.619 0 0 1 .8-.3c26.239 12.064 45.317 44.443 43.436 73.716a.607.607 0 0 1-.643.57z" class="cls-1" transform="translate(-66.94 -159.704)"/>
                <path id="Tracé_310" d="M149.256 408.576s-8.5 5.34-21.651 3.07-16.005-11.246-17.137-20.134-7.61-4.855-16.457-8.5-10.3-12.743-8.326-19.564a20.074 20.074 0 0 1 4.478-7.986s-6.25-2.731-11.906-12.209a89.881 89.881 0 0 1-6.068-13.35s7.185-5.486 21.372-2.512a35.837 35.837 0 0 1 13.168 5.935s7.707-8.653 18.217-5.5a12 12 0 0 1 7.707 7.44 35.834 35.834 0 0 0 1.723 4.308 7.282 7.282 0 0 0 5.389 3.022c5.012.728 9.709-.121 14.321 2.427a14.564 14.564 0 0 1 5.219 5.825c6.857 12.143-10.049 57.728-10.049 57.728z" class="cls-3" transform="translate(-72.19 -152.132)"/>
                <path id="Tracé_311" d="M153.839 390.692a.631.631 0 0 1-.522-.291c-20.632-33.472-53.267-52.817-74.966-59.213a.63.63 0 1 1 .34-1.214c21.845 6.456 54.869 25.984 75.658 59.735a.619.619 0 0 1-.51.935z" class="cls-1" transform="translate(-70.972 -151.397)"/>
                <path id="Tracé_312" d="M95.663 360.1a.631.631 0 0 1-.461-.206.595.595 0 0 1 0-.85c.413-.376 10.28-8.932 23.678-9.163a.595.595 0 0 1 .619.595.607.607 0 0 1-.595.619c-12.962.218-22.8 8.762-22.9 8.86a.632.632 0 0 1-.341.145z" class="cls-1" transform="translate(-67.312 -147.14)"/>
                <path id="Tracé_313" d="M108.5 348.978a.619.619 0 0 1-.607-.546 31.166 31.166 0 0 1 2.694-15.692.608.608 0 1 1 1.092.534 30.426 30.426 0 0 0-2.573 15.025.619.619 0 0 1-.534.68z" class="cls-1" transform="translate(-64.589 -150.874)"/>
                <path id="Tracé_314" d="M411.091 248.707s-4.964-16.19-2.5-31.555 9.709-27.38 19.248-32.44 21.4.534 13.568 11.335-23.763 25.28-22.246 52.284z" class="cls-5" transform="translate(-.469 -182.828)"/>
                <path id="Tracé_315" d="M414.123 248.391a.5.5 0 0 1-.473-.364c-5.3-19.588 2.427-50.973 20.292-62.126a.485.485 0 0 1 .51.825c-17.537 10.923-25.074 41.786-19.867 61.046a.5.5 0 0 1-.34.607z" class="cls-1" transform="translate(.407 -182.185)"/>
                <path id="Tracé_316" d="M422.574 261.566a10.548 10.548 0 0 0 4.855 1.286 14.2 14.2 0 0 0 5.862-.886c3.325-1.214 6.068-3.155 6.942-6.748.655-2.828-.388-6.068.85-8.738s4.94-4.321 7.476-5.122c1.784-.57 3.641-.837 5.4-1.5a6.929 6.929 0 0 0 4.138-3.532c1.675-4.126-2.9-8.8-1.4-12.986.74-2.075 2.767-3.35 4.636-4.539s3.847-2.6 4.357-4.745a6.153 6.153 0 0 0-1.845-5.461c-3.338-3.447-8.932-3.774-13.411-2.063a44.922 44.922 0 0 1-4.236 1.638c-5.631 1.469-11.639-2.221-17.306-.886a10.255 10.255 0 0 0-7.488 7.573c-.267 1.214-.3 2.512-.595 3.75-.716 3.095-3.981 3.75-4.757 6.918-.716 2.864.182 5.874.68 8.7.753 4.345 1.6 8.665 2.512 12.986q.728 3.52 1.5 7.015c.473 2.16-.158 4.515.8 6.493a10.768 10.768 0 0 0 1.019.849z" class="cls-6" transform="translate(1.216 -177.981)"/>
                <path id="Tracé_317" d="M420.158 245.588h-.085a.5.5 0 0 1-.413-.558c2.427-15.777 24.625-34.467 38.836-36.409a.5.5 0 0 1 .546.425.485.485 0 0 1-.413.546c-13.908 1.918-35.608 20.122-37.987 35.584a.5.5 0 0 1-.484.412z" class="cls-1" transform="translate(2.042 -177.319)"/>
                <path id="Tracé_318" d="M431.4 224.265a.486.486 0 0 1-.473-.449c-.886-9.636-4.393-13.35-4.43-13.35a.489.489 0 1 1 .7-.68c.146.158 3.774 3.981 4.685 14.005a.473.473 0 0 1-.437.522z" class="cls-1" transform="translate(3.473 -177.101)"/>
                <path id="Tracé_319" d="M446.892 228.987a.486.486 0 0 1-.182 0c-.109 0-10.983-4.6-20.1-2.124a.485.485 0 0 1-.255-.935c9.442-2.573 20.268 1.966 20.729 2.16a.486.486 0 0 1 .255.643.473.473 0 0 1-.447.256z" class="cls-1" transform="translate(3.404 -173.789)"/>
            </g>
            <g id="freepik--Wallet--inject-14" transform="translate(196.667)">
                <path id="Tracé_320" d="M364.24 119.81l10.061 5.8v17.44l-10.061-5.813z" class="cls-7" transform="translate(-145.931 -53.737)"/>
                <path id="Tracé_321" d="M394.95 89.4l-32.55 18.788V70.565a5.037 5.037 0 0 0-7.707-4.43l-160.988 92.977c-6.226 3.641-9.345 8.289-9.345 13v156.9c0 4.709 3.119 9.418 9.345 13.01l.218.133c12.452 7.185 32.623 7.185 45.075 0l160.953-92.94a6 6 0 0 0 2.682-4.648V90.76l-2.525-1.46a5.765 5.765 0 0 0-5.158.1z" class="cls-3" transform="translate(-184.36 -65.368)"/>
                <path id="Tracé_322" d="M193.7 185.055c-12.4-7.148-12.4-18.86 0-26.008l160.987-92.929a5.728 5.728 0 0 1 5.194-.1c1.384.8 1.311 2.148-.17 3L203.225 159.4c-1.481.862-3.908 2.221-5.279 3.253-7.282 5.449-7.913 12.719-1.663 17.865a25.207 25.207 0 0 0 5.328 3.119c8.981 3.75 21.845 3.374 31.4-.934 1.566-.7 3.956-2.112 5.437-2.961L395 89.384a5.765 5.765 0 0 1 5.194-.1c1.4.8 1.323 2.148-.158 3.01l-161.05 92.94c-12.4 7.16-32.671 7.16-45.075 0z" class="cls-3" transform="translate(-184.353 -65.351)"/>
                <path id="Tracé_323" d="M193.7 185.055c-12.4-7.148-12.4-18.86 0-26.008l160.987-92.929a5.728 5.728 0 0 1 5.194-.1c1.384.8 1.311 2.148-.17 3L203.225 159.4c-1.481.862-3.908 2.221-5.279 3.253-7.282 5.449-7.913 12.719-1.663 17.865a25.207 25.207 0 0 0 5.328 3.119c8.981 3.75 21.845 3.374 31.4-.934 1.566-.7 3.956-2.112 5.437-2.961L395 89.384a5.765 5.765 0 0 1 5.194-.1c1.4.8 1.323 2.148-.158 3.01l-161.05 92.94c-12.4 7.16-32.671 7.16-45.075 0z" class="cls-8" transform="translate(-184.353 -65.351)"/>
                <path id="Tracé_324" d="M189.212 172.354a.631.631 0 0 1-.4-.146 19.994 19.994 0 0 1-2.2-2.233.608.608 0 1 1 .934-.777 18.539 18.539 0 0 0 2.063 2.087.619.619 0 0 1 .061.862.631.631 0 0 1-.458.207z" class="cls-1" transform="translate(-183.908 -43.232)"/>
                <path id="Tracé_325" d="M216.681 194.465a.607.607 0 0 1-.012-1.214 54.63 54.63 0 0 0 6.068-.546.607.607 0 0 1 .692.51.619.619 0 0 1-.51.692 57.3 57.3 0 0 1-6.165.558zm-6.068-.121a52.48 52.48 0 0 1-6.068-.825.595.595 0 0 1-.485-.7.619.619 0 0 1 .716-.485 50.014 50.014 0 0 0 5.983.8.607.607 0 1 1 0 1.214zm18.2-1.711a.607.607 0 0 1-.583-.449.595.595 0 0 1 .413-.74 39.785 39.785 0 0 0 5.656-2.063.595.595 0 0 1 .8.291.607.607 0 0 1-.291.813 40.848 40.848 0 0 1-5.838 2.124zm-30.159-.655a.547.547 0 0 1-.194 0 36.87 36.87 0 0 1-5.7-2.427.607.607 0 0 1 .57-1.068 36.924 36.924 0 0 0 5.522 2.427.615.615 0 0 1-.194 1.214zm41.264-4.369a.607.607 0 0 1-.3-1.129l5.3-3.058a.607.607 0 1 1 .607 1.044l-5.3 3.058a.546.546 0 0 1-.364.121zm10.607-6.068a.619.619 0 0 1-.534-.3.607.607 0 0 1 .158-.874l5.292-3.071a.607.607 0 0 1 .825.231.595.595 0 0 1-.218.825l-5.291 3.058a.571.571 0 0 1-.291.085zm10.6-6.068a.607.607 0 0 1-.522-.3.619.619 0 0 1 .218-.837l5.291-3.058a.631.631 0 0 1 .837.231.607.607 0 0 1-.231.825l-5.292 3.058a.571.571 0 0 1-.352-.012zm10.6-6.068a.607.607 0 0 1-.522-.3.619.619 0 0 1 .219-.837l5.3-3.058a.595.595 0 0 1 .825.231.607.607 0 0 1-.218.825L272 169.173a.668.668 0 0 1-.34.085zm10.6-6.068a.582.582 0 0 1-.522-.3.607.607 0 0 1 .218-.825l5.3-3.058a.595.595 0 0 1 .825.218.619.619 0 0 1-.218.837l-5.3 3.058a.656.656 0 0 1-.364-.133zm10.6-6.068a.607.607 0 0 1-.3-1.129l5.3-3.058a.595.595 0 0 1 .825.218.619.619 0 0 1-.218.837l-5.3 3.058a.656.656 0 0 1-.364-.182zm10.607-6.068a.607.607 0 0 1-.3-1.129l5.291-3.058a.607.607 0 0 1 .607 1.044l-5.291 3.07a.692.692 0 0 1-.364-.231zm10.595-6.068a.631.631 0 0 1-.534-.3.619.619 0 0 1 .231-.825l5.291-3.058a.607.607 0 1 1 .607 1.044l-5.291 3.058a.571.571 0 0 1-.364-.267zm10.6-6.068a.607.607 0 0 1-.3-1.129l5.291-3.058a.619.619 0 0 1 .837.218.607.607 0 0 1-.231.825l-5.291 3.058a.571.571 0 0 1-.364-.316zm10.6-6.068a.607.607 0 0 1-.3-1.129l5.3-3.071a.619.619 0 0 1 .825.231.595.595 0 0 1-.218.825l-5.3 3.058a.546.546 0 0 1-.364-.364zm10.6-6.068a.607.607 0 0 1-.522-.3.619.619 0 0 1 .218-.837l5.291-3.556a.619.619 0 0 1 .825.231.595.595 0 0 1-.218.825l-5.3 3.058a.546.546 0 0 1-.352.085zm10.6-6.068a.607.607 0 0 1-.522-.3.619.619 0 0 1 .218-.837l5.3-3.058a.595.595 0 0 1 .825.218.619.619 0 0 1-.218.837l-5.3 3.058a.668.668 0 0 1-.364-.461zm10.573-6.071a.619.619 0 0 1-.534-.3.607.607 0 0 1 .231-.825l5.291-3.058a.595.595 0 0 1 .825.218.619.619 0 0 1-.219.837l-5.291 3.058a.692.692 0 0 1-.364-.534zm10.6-6.068a.631.631 0 0 1-.534-.3.619.619 0 0 1 .231-.825l5.291-3.058a.609.609 0 1 1 .607 1.056L378 108.648a.692.692 0 0 1-.413-.583z" class="cls-1" transform="translate(-182.626 -57.017)"/>
                <path id="Tracé_326" d="M356.508 104.389a.619.619 0 0 1-.607-.607v-1.99l-1.711 1a.595.595 0 0 1-.825-.218.619.619 0 0 1 .219-.837l2.621-1.517a.607.607 0 0 1 .91.534v3.034a.607.607 0 0 1-.607.601z" class="cls-1" transform="translate(-148.272 -57.94)"/>
                <path id="Tracé_327" d="M356.047 224.289a.619.619 0 0 1-.607-.607v-6.068a.607.607 0 0 1 1.214 0v6.068a.607.607 0 0 1-.607.607zm0-12.136a.607.607 0 0 1-.607-.607v-6.068a.619.619 0 0 1 .607-.607.607.607 0 0 1 .607.607v6.068a.607.607 0 0 1-.607.583zm0-12.136a.619.619 0 0 1-.607-.607v-6.068a.607.607 0 0 1 1.214 0v6.068a.607.607 0 0 1-.607.57zm0-12.136a.607.607 0 0 1-.607-.607v-6.068a.607.607 0 0 1 1.214 0v6.068a.607.607 0 0 1-.607.546zm0-12.136a.607.607 0 0 1-.607-.607v-6.068a.619.619 0 0 1 .607-.607.607.607 0 0 1 .607.607v6.068a.607.607 0 0 1-.607.534zm0-12.136a.619.619 0 0 1-.607-.607v-6.068a.607.607 0 0 1 1.214 0V163a.607.607 0 0 1-.607.522zm0-12.136a.607.607 0 0 1-.607-.607V144.8a.607.607 0 1 1 1.214 0v6.068a.607.607 0 0 1-.607.5zm0-12.136a.619.619 0 0 1-.607-.607v-6.07a.607.607 0 0 1 1.214 0v6.068a.607.607 0 0 1-.607.485zm0-12.136a.607.607 0 0 1-.607-.607v-6.068a.607.607 0 0 1 1.214 0v6.068a.607.607 0 0 1-.607.461zm0-12.136a.607.607 0 0 1-.607-.607v-6.068a.619.619 0 0 1 .607-.607.607.607 0 0 1 .607.607v6.068a.607.607 0 0 1-.607.449z" class="cls-1" transform="translate(-147.811 -56.307)"/>
                <path id="Tracé_328" d="M353.886 213.545a.607.607 0 0 1-.3-1.129l2.318-1.347v-2.682a.619.619 0 0 1 .607-.607.607.607 0 0 1 .607.607v3.034a.607.607 0 0 1-.3.534l-2.658 1.517a.693.693 0 0 1-.274.073z" class="cls-1" transform="translate(-148.271 -34.943)"/>
                <path id="Tracé_329" d="M216.7 304.638a.607.607 0 1 1 0-1.214 51.826 51.826 0 0 0 6.068-.558.619.619 0 0 1 .692.51.607.607 0 0 1-.51.692 54.391 54.391 0 0 1-6.165.57zm-6.068-.121a53.214 53.214 0 0 1-6.129-.825.607.607 0 0 1-.485-.7.619.619 0 0 1 .716-.485 50.675 50.675 0 0 0 5.983.8.607.607 0 1 1 0 1.214zm18.2-1.723a.6.6 0 0 1-.583-.437.607.607 0 0 1 .413-.752 39.244 39.244 0 0 0 5.656-2.063.608.608 0 1 1 .51 1.1 40.693 40.693 0 0 1-5.826 2.124.439.439 0 0 1-.243.024zm-30.159-.643a.549.549 0 0 1-.194 0 37.527 37.527 0 0 1-5.7-2.427.607.607 0 0 1 .57-1.068 38.2 38.2 0 0 0 5.522 2.427.615.615 0 0 1-.194 1.214zm41.264-4.381a.607.607 0 0 1-.3-1.129l5.3-3.058a.607.607 0 0 1 .607 1.044l-5.376 3.01a.545.545 0 0 1-.3.133zm10.607-6.068a.607.607 0 0 1-.534-.3.595.595 0 0 1 .231-.825l5.291-3.058a.607.607 0 1 1 .607 1.044l-5.364 3.01a.57.57 0 0 1-.3.085zm10.6-6.068a.619.619 0 0 1-.534-.3.607.607 0 0 1 .231-.825l5.292-3.071a.631.631 0 0 1 .837.231.619.619 0 0 1-.231.825l-5.364 3.01a.57.57 0 0 1-.3 0zm10.6-6.068a.607.607 0 0 1-.522-.3.619.619 0 0 1 .218-.837l5.291-3.058a.619.619 0 0 1 .837.231.607.607 0 0 1-.231.825l-5.34 2.913a.571.571 0 0 1-.328.1zm10.6-6.068a.607.607 0 0 1-.522-.3.619.619 0 0 1 .218-.837l5.3-3.058a.609.609 0 0 1 .607 1.056l-5.3 3.058a.667.667 0 0 1-.376-.049zm10.6-6.129a.582.582 0 0 1-.522-.3.607.607 0 0 1 .218-.825l5.3-3.058a.609.609 0 1 1 .607 1.056l-5.3 3.058a.655.655 0 0 1-.376-.121zm10.6-6.068a.606.606 0 0 1-.3-1.129l5.3-3.058a.607.607 0 1 1 .607 1.044l-5.3 3.071a.619.619 0 0 1-.376-.17zm10.607-6.068a.607.607 0 0 1-.3-1.129l5.291-3.058a.607.607 0 1 1 .607 1.044l-5.291 3.058a.57.57 0 0 1-.376-.206zm10.6-6.068a.607.607 0 0 1-.3-1.129l5.291-3.058a.607.607 0 1 1 .607 1.044l-5.292 3.058a.57.57 0 0 1-.376-.255zm10.6-6.068a.607.607 0 0 1-.3-1.129l5.3-3.058a.607.607 0 1 1 .607 1.044l-5.3 3.058a.57.57 0 0 1-.376-.3zm10.6-6.068a.607.607 0 0 1-.522-.3.619.619 0 0 1 .219-.837l5.3-3.058a.619.619 0 0 1 .825.231.594.594 0 0 1-.218.825l-5.3 3.058a.546.546 0 0 1-.376-.352zm10.6-6.068a.607.607 0 0 1-.522-.3.619.619 0 0 1 .218-.837l5.3-3.058a.609.609 0 0 1 .607 1.056l-5.3 3.058a.546.546 0 0 1-.376-.4zm10.6-6.068a.607.607 0 0 1-.522-.3.619.619 0 0 1 .218-.837l5.3-3.058a.595.595 0 0 1 .825.218.619.619 0 0 1-.218.837l-5.3 3.058a.631.631 0 0 1-.376-.449zm10.607-6.129a.6.6 0 0 1-.3-1.129l5.291-3.058a.619.619 0 0 1 .837.219.631.631 0 0 1-.231.837l-5.292 3.058a.692.692 0 0 1-.376-.461z" class="cls-1" transform="translate(-182.622 -33.509)"/>
                <path id="Tracé_330" d="M189.211 282.492a.631.631 0 0 1-.4-.146 19.915 19.915 0 0 1-2.2-2.221.631.631 0 0 1 .073-.862.619.619 0 0 1 .862.085 18.553 18.553 0 0 0 2.063 2.087.595.595 0 0 1 .061.85.582.582 0 0 1-.459.207z" class="cls-1" transform="translate(-183.908 -19.7)"/>
                <path id="Tracé_331" d="M360.85 97.705V79.416a4.758 4.758 0 0 0-2.15-3.726 1.311 1.311 0 0 1 0 2.427l-167.08 96.521a12.67 12.67 0 0 0 3.131 3.641 25.487 25.487 0 0 0 5.316 3.119 37.988 37.988 0 0 0 15.607 2.549l143.039-82.527a4.757 4.757 0 0 0 2.136-3.714z" class="cls-2" transform="translate(-182.809 -63.162)"/>
                <path id="Tracé_332" d="M358.9 75.854l-.74-.425a4.758 4.758 0 0 0-4.284 0l-163.16 94.252a8.908 8.908 0 0 0 1.1 5.17L358.9 78.342a1.311 1.311 0 0 0 0-2.488z" class="cls-9" transform="translate(-183.01 -63.327)"/>
                <path id="Tracé_333" d="M370.32 84.358a4.782 4.782 0 0 0-2.148-3.714l-.74-.425a4.782 4.782 0 0 0-4.3 0L194.44 177.65a26.262 26.262 0 0 0 5.085 2.937c8.993 3.75 21.845 3.374 31.4-.947 1.566-.7 3.956-2.087 5.437-2.937L370.32 99.322z" class="cls-2" transform="translate(-182.207 -62.303)"/>
                <path id="Tracé_334" d="M199.4 180.555l168.772-97.443a1.311 1.311 0 0 0 0-2.427l-.74-.425a4.782 4.782 0 0 0-4.3 0l-168.7 97.431a26.6 26.6 0 0 0 4.968 2.864z" class="cls-9" transform="translate(-182.207 -62.295)"/>
                <path id="Tracé_335" d="M378.326 89.15a4.721 4.721 0 0 0-2.148-3.714l-.74-.437a4.782 4.782 0 0 0-4.3 0L204.06 181.472a43.691 43.691 0 0 0 24.746-2.852c1.566-.7 3.956-2.087 5.437-2.937l144.083-83.195z" class="cls-2" transform="translate(-180.151 -61.282)"/>
                <path id="Tracé_336" d="M376.178 85.437l-.74-.437a4.782 4.782 0 0 0-4.3 0L204.06 181.472a42.7 42.7 0 0 0 8.957.643l163.161-94.2a1.311 1.311 0 0 0 0-2.476z" class="cls-9" transform="translate(-180.151 -61.282)"/>
                <path id="Tracé_337" d="M396.766 133.927v35.717a4.758 4.758 0 0 1-2.136 3.714l-65.172 37.623h-.121c-4.927 2.8-9.394 3.168-12.658 1.481-1-.51-4.855-2.731-5.753-3.337-2.949-1.905-4.745-5.668-4.745-10.923 0-10.923 7.658-24.188 17.282-30.341l61.082-35.261.316-.218c.862-.692.752-1.638-.316-2.257l-7.913-4.575v-5.81l17.986 10.389a4.757 4.757 0 0 1 2.1 3.289 2.5 2.5 0 0 1 .048.509z" class="cls-3" transform="translate(-158.335 -53.752)"/>
                <path id="Tracé_338" d="M396.766 133.927v35.717a4.758 4.758 0 0 1-2.136 3.714l-65.172 37.623h-.121c-4.927 2.8-9.394 3.168-12.658 1.481-1-.51-4.855-2.731-5.753-3.337-2.949-1.905-4.745-5.668-4.745-10.923 0-10.923 7.658-24.188 17.282-30.341l61.082-35.261.316-.218c.862-.692.752-1.638-.316-2.257l-7.913-4.575v-5.81l17.986 10.389a4.757 4.757 0 0 1 2.1 3.289 2.5 2.5 0 0 1 .048.509z" class="cls-8" transform="translate(-158.335 -53.752)"/>
                <path id="Tracé_339" d="M395.883 131.714v35.717a4.758 4.758 0 0 1-2.136 3.714l-65.172 37.623h-.121c-6.42 3.641-12.064 3.168-15.292-.607a14.09 14.09 0 0 1-2.828-9.272c0-11.238 8.168-25.05 18.2-30.875l62.284-35.948 2.888-1.663c1.056-.619 1.93-.255 2.1.813a2.514 2.514 0 0 1 .073.5z" class="cls-3" transform="translate(-157.452 -51.538)"/>
                <path id="Tracé_340" d="M322.77 182.144c0 4.855 3.374 6.76 7.549 4.357a16.664 16.664 0 0 0 7.549-13.071c0-4.855-3.386-6.772-7.549-4.357a16.651 16.651 0 0 0-7.549 13.071z" class="cls-5" transform="translate(-154.79 -43.435)"/>
                <path id="Tracé_341" d="M337.746 169.856l-2.246-1.286-10.91 18.338 2.561 1.481z" class="cls-5" transform="translate(-154.402 -43.32)"/>
                <path id="Tracé_342" d="M324.84 183.346c0 4.855 3.386 6.76 7.549 4.357a16.687 16.687 0 0 0 7.549-13.083c0-4.855-3.374-6.76-7.549-4.357a16.724 16.724 0 0 0-7.549 13.083z" class="cls-6" transform="translate(-154.348 -43.18)"/>
            </g>
            <g id="freepik--Card--inject-14" transform="translate(136.964 142.655)">
                <path id="Tracé_343" d="M137.682 445.092a5.765 5.765 0 0 1-2.512-4.551v-144.9a5.9 5.9 0 0 1 2.682-4.636l185.869-107.318a5.037 5.037 0 0 1 7.719 4.454v144.9a5.947 5.947 0 0 1-2.682 4.648L142.889 444.995a5.753 5.753 0 0 1-5.207.097z" class="cls-6" transform="translate(-135.166 -182.911)"/>
                <path id="Tracé_344" d="M145.232 278.942l-9.272-5.352a5.461 5.461 0 0 0-.789 2.634v144.944a5.037 5.037 0 0 0 7.719 4.454l2.342-1.359z" class="cls-7" transform="translate(-135.167 -163.538)"/>
                <path id="Tracé_345" d="M139.32 297.975v144.9c0 1.711 1.214 2.427 2.682 1.541L327.871 337.1a5.947 5.947 0 0 0 2.682-4.648v-144.9c0-1.711-1.214-2.427-2.682-1.541L142 293.327a5.923 5.923 0 0 0-2.68 4.648z" class="cls-5" transform="translate(-134.28 -182.329)"/>
                <path id="Tracé_346" d="M151.76 313.239V336.1c0 1.711 1.214 2.427 2.682 1.541l29.858-17.229a5.91 5.91 0 0 0 2.682-4.648V292.9c0-1.711-1.214-2.427-2.682-1.541l-29.819 17.234a5.946 5.946 0 0 0-2.719 4.648z" class="cls-3" transform="translate(-131.622 -159.824)"/>
                <path id="Tracé_347" d="M186.975 298.016v-1.4l-35.2 20.328v1.408l9.454-5.461v10.267l-9.454 5.461v1.4l35.2-20.328v-1.408l-9.454 5.461v-10.267zm-10.655 16.432l-13.884 8.01v-10.267l13.884-8.01z" class="cls-1" transform="translate(-131.618 -158.618)"/>
                <path id="Tracé_348" d="M158.347 288.521v1.99a6.068 6.068 0 0 1-3.022 5.5c-1.99 1.153-3.034.376-3.034-2v-7.767a6.068 6.068 0 0 1 3.034-5.5c1.99-1.141 3.022-.376 3.022 2v1.456l-1.918 1.1v-1.6c0-1.056-.4-1.214-1.056-.862a2.2 2.2 0 0 0-1.044 2.088v8.046c0 1.068.4 1.214 1.044.85a2.148 2.148 0 0 0 1.056-2.063v-2.1z" class="cls-10" transform="translate(-131.51 -162.121)"/>
                <path id="Tracé_349" d="M162.548 291.605a4.259 4.259 0 0 1-.182-1.723v-2.342c0-1.4-.413-1.675-1.335-1.141l-.692.413v6.068l-2.039 1.214v-14.9l3.07-1.772c2.1-1.214 3.01-.607 3.01 1.687v1.214a5.449 5.449 0 0 1-1.335 3.8c1.019-.1 1.347.837 1.347 2.427v2.306a4.186 4.186 0 0 0 .218 1.687zm-2.185-11.469v4.588l.789-.461a2.354 2.354 0 0 0 1.214-2.282v-1.469c0-1.068-.316-1.347-1.032-.934z" class="cls-10" transform="translate(-130.225 -162.851)"/>
                <path id="Tracé_350" d="M166.447 280.913l2.791-1.614v2.136l-2.791 1.614v4.369l3.507-2.027v2.124l-5.534 3.2V275.8l5.558-3.2v2.136l-3.532 1.99z" class="cls-10" transform="translate(-128.917 -163.75)"/>
                <path id="Tracé_351" d="M170 272.425l3.216-1.845c2.027-1.214 3.022-.449 3.022 1.93v7.549a5.91 5.91 0 0 1-3.022 5.437L170 287.353zm2.039.959v10.668l1.141-.668a2.124 2.124 0 0 0 1.032-2.039v-7.707c0-1.068-.388-1.214-1.032-.849z" class="cls-10" transform="translate(-127.725 -164.303)"/>
                <path id="Tracé_352" d="M176.22 268.634l2.027-1.214v14.915l-2.027 1.214z" class="cls-10" transform="translate(-126.396 -164.856)"/>
                <path id="Tracé_353" d="M178.62 267.641l6.275-3.641v2.124l-2.124 1.214v12.792l-2.027 1.214v-12.756l-2.124 1.212z" class="cls-10" transform="translate(-125.884 -165.587)"/>
                <path id="Tracé_354" d="M192.795 268.632v1.99a6.068 6.068 0 0 1-3.022 5.5c-1.99 1.214-3.022.376-3.022-2v-7.772a6.068 6.068 0 0 1 3.022-5.5c1.99-1.153 3.022-.376 3.022 2v1.456l-1.918 1.1v-1.6c0-1.056-.4-1.214-1.044-.862a2.184 2.184 0 0 0-1.056 2.087v8.046c0 1.068.4 1.214 1.056.85a2.16 2.16 0 0 0 1.044-2.063v-2.124z" class="cls-10" transform="translate(-124.148 -166.372)"/>
                <path id="Tracé_355" d="M199.422 270.412l-2.051 1.214-.352-2.512-2.488 1.444-.352 2.913-1.869 1.068 2.063-16.1 2.973-1.723zm-4.636-2.051l1.954-1.129-.971-6.979z" class="cls-10" transform="translate(-122.959 -167.144)"/>
                <path id="Tracé_356" d="M203.188 268.2a4.394 4.394 0 0 1-.182-1.736v-2.342c0-1.384-.4-1.663-1.335-1.129l-.692.4v6.068l-2.039 1.214V255.72l3.07-1.772c2.1-1.214 3.01-.607 3.01 1.7v1.214a5.388 5.388 0 0 1-1.335 3.786c1.019-.1 1.347.85 1.347 2.427v2.294a3.958 3.958 0 0 0 .231 1.687zm-2.209-11.517v4.587l.789-.461a2.427 2.427 0 0 0 1.214-2.282v-1.469c0-1.068-.3-1.359-1.032-.934z" class="cls-10" transform="translate(-121.543 -167.865)"/>
                <path id="Tracé_357" d="M205.06 252.2l3.216-1.857c2.027-1.214 3.022-.449 3.022 1.942v7.549a5.911 5.911 0 0 1-3.022 5.437l-3.216 1.845zm2.027.959v10.656l1.141-.655a2.112 2.112 0 0 0 1.044-2.051v-7.759c0-1.068-.388-1.214-1.044-.85z" class="cls-10" transform="translate(-120.235 -168.627)"/>
                <path id="Tracé_358" d="M151.76 349.16v5.425c0 1.711 1.214 2.427 2.682 1.541l29.858-17.234a5.947 5.947 0 0 0 2.682-4.648v-5.425c0-1.711-1.214-2.427-2.682-1.553l-29.819 17.246a5.923 5.923 0 0 0-2.721 4.648z" class="cls-2" transform="translate(-131.622 -152.151)"/>
                <path id="Tracé_359" d="M186.31 329.2v5.425c0 1.711 1.214 2.427 2.682 1.553l29.868-17.246a5.9 5.9 0 0 0 2.682-4.636v-5.437c0-1.711-1.214-2.427-2.682-1.541l-29.868 17.234a5.947 5.947 0 0 0-2.682 4.648z" class="cls-2" transform="translate(-124.241 -156.414)"/>
                <path id="Tracé_360" d="M220.87 309.258v5.425c0 1.711 1.214 2.427 2.682 1.553l29.855-17.246a5.911 5.911 0 0 0 2.694-4.7v-5.425c0-1.711-1.214-2.427-2.694-1.541l-29.855 17.234a5.947 5.947 0 0 0-2.682 4.7z" class="cls-2" transform="translate(-116.858 -160.685)"/>
                <path id="Tracé_361" d="M255.42 289.3v5.425c0 1.711 1.214 2.427 2.682 1.553l29.868-17.246a5.947 5.947 0 0 0 2.682-4.648v-5.425c0-1.711-1.214-2.427-2.682-1.553l-29.87 17.246a5.923 5.923 0 0 0-2.682 4.648z" class="cls-2" transform="translate(-109.476 -164.939)"/>
                <path id="Tracé_362" d="M272.176 290.82l-6.894 3.908a3.568 3.568 0 0 0-1.6 2.791v2.1c0 1.019.716 1.432 1.6.922l6.845-3.956a3.532 3.532 0 0 0 1.614-2.779v-2.1c.036-.983-.667-1.406-1.565-.886z" class="cls-3" transform="translate(-107.712 -159.905)"/>
                <path id="Tracé_363" d="M284.607 283.628l-6.845 3.957a3.556 3.556 0 0 0-1.6 2.791v2.087c0 1.032.716 1.444 1.6.935l6.845-3.957a3.532 3.532 0 0 0 1.614-2.791v-2.087c0-1.032-.716-1.444-1.614-.935z" class="cls-3" transform="translate(-105.046 -161.44)"/>
                <path id="Tracé_364" d="M212.382 345.406l85.222-49.2c1.481-.862 2.682-.17 2.682 1.541v2.524a5.947 5.947 0 0 1-2.682 4.648l-85.222 49.2c-1.481.862-2.682.158-2.682-1.554v-2.512a5.922 5.922 0 0 1 2.682-4.647z" class="cls-3" transform="translate(-119.244 -158.786)"/>
            </g>
            <g id="freepik--Coins--inject-14" transform="translate(74.381 180.62)">
                <path id="Tracé_365" d="M385.889 317.476a22 22 0 0 0-8.095-7.488c-13.241-7.634-34.7-7.634-47.927 0a21.844 21.844 0 0 0-8.095 7.488h-1.832v6.93c.243 4.854 3.532 9.576 9.9 13.253 13.229 7.646 34.686 7.646 47.927 0 6.359-3.641 9.648-8.5 9.891-13.253v-6.93z" class="cls-3" transform="translate(-33.109 -194.95)"/>
                <path id="Tracé_366" d="M385.889 317.476a22 22 0 0 0-8.095-7.488c-13.241-7.634-34.7-7.634-47.927 0a21.844 21.844 0 0 0-8.095 7.488h-1.832v6.93c.243 4.854 3.532 9.576 9.9 13.253 13.229 7.646 34.686 7.646 47.927 0 6.359-3.641 9.648-8.5 9.891-13.253v-6.93z" class="cls-11" transform="translate(-33.109 -194.95)"/>
                <path id="Tracé_367" d="M377.794 304.758c-13.241-7.634-34.7-7.634-47.927 0s-13.241 20.037 0 27.671 34.686 7.646 47.927 0 13.229-20.029 0-27.671z" class="cls-3" transform="translate(-33.109 -196.068)"/>
                <path id="Tracé_368" d="M377.794 304.758c-13.241-7.634-34.7-7.634-47.927 0s-13.241 20.037 0 27.671 34.686 7.646 47.927 0 13.229-20.029 0-27.671z" class="cls-12" transform="translate(-33.109 -196.068)"/>
                <path id="Tracé_369" d="M367.424 308.518a38.156 38.156 0 0 0-31.215 0c-4.43 2.269-6.869 5.389-6.869 8.775s2.427 6.493 6.869 8.762a38.156 38.156 0 0 0 31.215 0c4.43-2.27 6.869-5.389 6.869-8.762s-2.439-6.506-6.869-8.775z" class="cls-3" transform="translate(-31.101 -194.754)"/>
                <path id="Tracé_370" d="M367.424 308.518a38.156 38.156 0 0 0-31.215 0c-4.43 2.269-6.869 5.389-6.869 8.775s2.427 6.493 6.869 8.762a38.156 38.156 0 0 0 31.215 0c4.43-2.27 6.869-5.389 6.869-8.762s-2.439-6.506-6.869-8.775z" class="cls-12" transform="translate(-31.101 -194.754)"/>
                <path id="Tracé_371" d="M376.793 305.784c-6.177-3.568-14.43-5.534-23.229-5.534s-16.991 1.966-23.217 5.534c-5.935 3.422-9.187 7.877-9.187 12.561s3.253 9.127 9.187 12.549c6.177 3.568 14.418 5.534 23.217 5.534s17.052-1.966 23.229-5.534c5.923-3.422 9.187-7.877 9.187-12.549s-3.264-9.138-9.187-12.561zm-7.622 21.324a38.157 38.157 0 0 1-31.215 0c-4.43-2.269-6.869-5.389-6.869-8.763s2.427-6.505 6.869-8.775a38.157 38.157 0 0 1 31.215 0c4.43 2.27 6.869 5.389 6.869 8.775s-2.44 6.493-6.868 8.763z" class="cls-3" transform="translate(-32.848 -195.807)"/>
                <path id="Tracé_372" d="M376.793 305.784c-6.177-3.568-14.43-5.534-23.229-5.534s-16.991 1.966-23.217 5.534c-5.935 3.422-9.187 7.877-9.187 12.561s3.253 9.127 9.187 12.549c6.177 3.568 14.418 5.534 23.217 5.534s17.052-1.966 23.229-5.534c5.923-3.422 9.187-7.877 9.187-12.549s-3.264-9.138-9.187-12.561zm-7.622 21.324a38.157 38.157 0 0 1-31.215 0c-4.43-2.269-6.869-5.389-6.869-8.763s2.427-6.505 6.869-8.775a38.157 38.157 0 0 1 31.215 0c4.43 2.27 6.869 5.389 6.869 8.775s-2.44 6.493-6.868 8.763z" class="cls-13" transform="translate(-32.848 -195.807)"/>
                <path id="Tracé_373" d="M366.684 324.818c8.326-4.272 8.326-11.2 0-15.474s-21.846-4.272-30.147 0-8.326 11.2 0 15.474 21.822 4.272 30.147 0z" class="cls-3" transform="translate(-30.895 -194.549)"/>
                <path id="Tracé_374" d="M366.684 324.818c8.326-4.272 8.326-11.2 0-15.474s-21.846-4.272-30.147 0-8.326 11.2 0 15.474 21.822 4.272 30.147 0z" class="cls-11" transform="translate(-30.895 -194.549)"/>
                <path id="Tracé_375" d="M366.655 311.734c-8.326-4.272-21.845-4.272-30.147 0-3.435 1.76-5.449 3.981-6.068 6.287.595 2.294 2.609 4.515 6.068 6.287 8.326 4.272 21.846 4.272 30.147 0 3.447-1.772 5.449-3.993 6.068-6.287-.623-2.306-2.623-4.527-6.068-6.287z" class="cls-3" transform="translate(-30.866 -194.038)"/>
                <path id="Tracé_376" d="M366.655 311.734c-8.326-4.272-21.845-4.272-30.147 0-3.435 1.76-5.449 3.981-6.068 6.287.595 2.294 2.609 4.515 6.068 6.287 8.326 4.272 21.846 4.272 30.147 0 3.447-1.772 5.449-3.993 6.068-6.287-.623-2.306-2.623-4.527-6.068-6.287z" class="cls-12" transform="translate(-30.866 -194.038)"/>
                <path id="Tracé_377" d="M350.054 308.92v3.119l-1.068 1.129-1.966 2.063v-3.253z" class="cls-3" transform="translate(-27.324 -193.955)"/>
                <path id="Tracé_378" d="M348.085 311.583v3.253h-6.165v-3.787s5.716-.898 6.165.534z" class="cls-3" transform="translate(-28.413 -193.56)"/>
                <path id="Tracé_379" d="M363.312 320.668v2.732l-3.422 1.966-2.524-1.456a12.888 12.888 0 0 1-9.794.437v-2.694l1.553-1.541-1.553.425a9.964 9.964 0 0 1-7.622-.874c-1.541-.886-2.245-1.845-2.245-2.84v-2.634l.279-1.141-.983-.57v-2.708l2.524 1.468a3.933 3.933 0 0 0-1.869 2.9c0 .971.752 1.918 2.245 2.779 3.325 1.918 6.614 1.287 9.636.316 2.8-.91 4.855-1.99 6.469-1.056 1 .583.692 1.286-.437 1.942a5.644 5.644 0 0 1-4.855.279l-3.228 3.2a11.388 11.388 0 0 0 1.784.522 13.411 13.411 0 0 0 8.01-.959l2.524 1.456z" class="cls-3" transform="translate(-29.464 -193.774)"/>
                <path id="Tracé_380" d="M353.77 319.18v2.694l2.536 1.456v-2.694z" class="cls-3" transform="translate(-25.882 -191.763)"/>
                <g id="Groupe_11" class="cls-14" transform="translate(307.536 114.965)">
                    <path id="Tracé_381" d="M350.054 308.92v3.119l-1.068 1.129-1.966 2.063v-3.253z" class="cls-1" transform="translate(-334.859 -308.92)"/>
                    <path id="Tracé_382" d="M348.085 311.583v3.253h-6.165v-3.787s5.716-.898 6.165.534z" class="cls-1" transform="translate(-335.949 -308.524)"/>
                    <path id="Tracé_383" d="M363.312 320.668v2.732l-3.422 1.966-2.524-1.456a12.888 12.888 0 0 1-9.794.437v-2.694l1.553-1.541-1.553.425a9.964 9.964 0 0 1-7.622-.874c-1.541-.886-2.245-1.845-2.245-2.84v-2.634l.279-1.141-.983-.57v-2.708l2.524 1.468a3.933 3.933 0 0 0-1.869 2.9c0 .971.752 1.918 2.245 2.779 3.325 1.918 6.614 1.287 9.636.316 2.8-.91 4.855-1.99 6.469-1.056 1 .583.692 1.286-.437 1.942a5.644 5.644 0 0 1-4.855.279l-3.228 3.2a11.388 11.388 0 0 0 1.784.522 13.411 13.411 0 0 0 8.01-.959l2.524 1.456z" class="cls-1" transform="translate(-337 -308.738)"/>
                    <path id="Tracé_384" d="M353.77 319.18v2.694l2.536 1.456v-2.694z" class="cls-1" transform="translate(-333.417 -306.728)"/>
                </g>
                <path id="Tracé_385" d="M362.729 320.672l-1.954-1.129a3.325 3.325 0 0 0 1.954-3 1.839 1.839 0 0 0 0-.267 3.641 3.641 0 0 0-2.184-2.646 8.994 8.994 0 0 0-4.551-1.214h-1.6a20.313 20.313 0 0 0-2.209.461l-1.044.3-1.42.461-.582.376a16.343 16.343 0 0 1-3.034.862 3.058 3.058 0 0 1-1.3 0 2.77 2.77 0 0 1-.619-.255c-.753-.437-.874-1.117.558-1.942a5 5 0 0 1 4.393-.461l3.034-3.058a13 13 0 0 0-9.163.51l-2.537-1.456-3.471 1.899 2.536 1.456a3.872 3.872 0 0 0-1.881 2.9c0 .971.74 1.918 2.245 2.779 3.325 1.918 6.614 1.286 9.636.316 2.8-.922 4.854-1.99 6.457-1.056 1.007.583.7 1.286-.425 1.93a5.559 5.559 0 0 1-4.854.279l-3.228 3.216a11.387 11.387 0 0 0 1.784.522 13.351 13.351 0 0 0 8-.959l2.536 1.456 3.41-1.966z" class="cls-3" transform="translate(-29.464 -194.105)"/>
                <path id="Tracé_386" d="M362.729 320.672l-1.954-1.129a3.325 3.325 0 0 0 1.954-3 1.839 1.839 0 0 0 0-.267 3.641 3.641 0 0 0-2.184-2.646 8.994 8.994 0 0 0-4.551-1.214h-1.6a20.313 20.313 0 0 0-2.209.461l-1.044.3-1.42.461-.582.376a16.343 16.343 0 0 1-3.034.862 3.058 3.058 0 0 1-1.3 0 2.77 2.77 0 0 1-.619-.255c-.753-.437-.874-1.117.558-1.942a5 5 0 0 1 4.393-.461l3.034-3.058a13 13 0 0 0-9.163.51l-2.537-1.456-3.471 1.899 2.536 1.456a3.872 3.872 0 0 0-1.881 2.9c0 .971.74 1.918 2.245 2.779 3.325 1.918 6.614 1.286 9.636.316 2.8-.922 4.854-1.99 6.457-1.056 1.007.583.7 1.286-.425 1.93a5.559 5.559 0 0 1-4.854.279l-3.228 3.216a11.387 11.387 0 0 0 1.784.522 13.351 13.351 0 0 0 8-.959l2.536 1.456 3.41-1.966z" class="cls-13" transform="translate(-29.464 -194.105)"/>
                <path id="Tracé_387" d="M387.549 309.636a22 22 0 0 0-8.1-7.488c-13.241-7.634-34.7-7.634-47.927 0a22 22 0 0 0-8.095 7.488H321.6v6.906c.243 4.855 3.544 9.576 9.9 13.253 13.229 7.646 34.686 7.646 47.927 0 6.36-3.641 9.709-8.5 9.9-13.253v-6.93z" class="cls-3" transform="translate(-32.754 -196.625)"/>
                <path id="Tracé_388" d="M387.549 309.636a22 22 0 0 0-8.1-7.488c-13.241-7.634-34.7-7.634-47.927 0a22 22 0 0 0-8.095 7.488H321.6v6.906c.243 4.855 3.544 9.576 9.9 13.253 13.229 7.646 34.686 7.646 47.927 0 6.36-3.641 9.709-8.5 9.9-13.253v-6.93z" class="cls-11" transform="translate(-32.754 -196.625)"/>
                <path id="Tracé_389" d="M379.453 296.918c-13.241-7.634-34.7-7.634-47.927 0s-13.229 20.037 0 27.671 34.686 7.646 47.927 0 13.229-20.025 0-27.671z" class="cls-3" transform="translate(-32.753 -197.742)"/>
                <path id="Tracé_390" d="M379.453 296.918c-13.241-7.634-34.7-7.634-47.927 0s-13.229 20.037 0 27.671 34.686 7.646 47.927 0 13.229-20.025 0-27.671z" class="cls-12" transform="translate(-32.753 -197.742)"/>
                <path id="Tracé_391" d="M369.084 300.677a38.132 38.132 0 0 0-31.2 0C333.427 303 331 306.066 331 309.452s2.427 6.493 6.881 8.762a38.132 38.132 0 0 0 31.2 0c4.43-2.269 6.881-5.389 6.881-8.762s-2.485-6.452-6.878-8.775z" class="cls-3" transform="translate(-30.746 -196.429)"/>
                <path id="Tracé_392" d="M369.084 300.677a38.132 38.132 0 0 0-31.2 0C333.427 303 331 306.066 331 309.452s2.427 6.493 6.881 8.762a38.132 38.132 0 0 0 31.2 0c4.43-2.269 6.881-5.389 6.881-8.762s-2.485-6.452-6.878-8.775z" class="cls-12" transform="translate(-30.746 -196.429)"/>
                <path id="Tracé_393" d="M378.453 297.974c-6.177-3.568-14.43-5.534-23.229-5.534s-16.991 1.966-23.217 5.534c-5.935 3.422-9.187 7.876-9.187 12.561s3.253 9.126 9.187 12.549c6.177 3.568 14.418 5.534 23.217 5.534s17.052-1.966 23.229-5.534c5.922-3.422 9.187-7.876 9.187-12.549s-3.264-9.175-9.187-12.561zm-7.622 21.326a38.132 38.132 0 0 1-31.2 0c-4.442-2.27-6.881-5.389-6.881-8.762s2.427-6.505 6.881-8.775a38.133 38.133 0 0 1 31.2 0c4.43 2.27 6.881 5.389 6.881 8.775s-2.488 6.456-6.881 8.726z" class="cls-3" transform="translate(-32.494 -197.476)"/>
                <path id="Tracé_394" d="M378.453 297.974c-6.177-3.568-14.43-5.534-23.229-5.534s-16.991 1.966-23.217 5.534c-5.935 3.422-9.187 7.876-9.187 12.561s3.253 9.126 9.187 12.549c6.177 3.568 14.418 5.534 23.217 5.534s17.052-1.966 23.229-5.534c5.922-3.422 9.187-7.876 9.187-12.549s-3.264-9.175-9.187-12.561zm-7.622 21.326a38.132 38.132 0 0 1-31.2 0c-4.442-2.27-6.881-5.389-6.881-8.762s2.427-6.505 6.881-8.775a38.133 38.133 0 0 1 31.2 0c4.43 2.27 6.881 5.389 6.881 8.775s-2.488 6.456-6.881 8.726z" class="cls-13" transform="translate(-32.494 -197.476)"/>
                <ellipse id="Ellipse_11" cx="21.311" cy="10.935" class="cls-3" rx="21.311" ry="10.935" transform="translate(301.419 102.076)"/>
                <ellipse id="Ellipse_12" cx="21.311" cy="10.935" class="cls-11" rx="21.311" ry="10.935" transform="translate(301.419 102.076)"/>
                <path id="Tracé_395" d="M368.313 303.894c-8.325-4.272-21.845-4.272-30.135 0-3.447 1.76-5.461 3.981-6.068 6.287.595 2.294 2.609 4.515 6.068 6.287 8.313 4.26 21.846 4.26 30.135 0 3.447-1.772 5.461-3.993 6.068-6.287-.607-2.306-2.622-4.527-6.068-6.287z" class="cls-3" transform="translate(-30.509 -195.713)"/>
                <path id="Tracé_396" d="M368.313 303.894c-8.325-4.272-21.845-4.272-30.135 0-3.447 1.76-5.461 3.981-6.068 6.287.595 2.294 2.609 4.515 6.068 6.287 8.313 4.26 21.846 4.26 30.135 0 3.447-1.772 5.461-3.993 6.068-6.287-.607-2.306-2.622-4.527-6.068-6.287z" class="cls-12" transform="translate(-30.509 -195.713)"/>
                <path id="Tracé_397" d="M351.726 301.08v3.12l-1.068 1.129-1.978 2.063v-3.253z" class="cls-3" transform="translate(-26.969 -195.63)"/>
                <path id="Tracé_398" d="M349.765 303.745V307H343.6v-3.811s5.7-.876 6.165.556z" class="cls-3" transform="translate(-28.054 -195.236)"/>
                <path id="Tracé_399" d="M364.963 312.828v2.706l-3.423 1.966-2.524-1.456a12.877 12.877 0 0 1-9.794.437v-2.694l1.553-1.541-1.553.425a9.964 9.964 0 0 1-7.622-.874c-1.529-.886-2.245-1.845-2.245-2.84v-2.634l.279-1.141-.935-.546v-2.706l2.536 1.469a3.92 3.92 0 0 0-1.881 2.9c0 .971.752 1.918 2.245 2.779 3.325 1.918 6.614 1.286 9.636.316 2.8-.91 4.854-1.99 6.469-1.056 1.007.583.692 1.286-.425 1.942a5.643 5.643 0 0 1-4.855.279l-3.24 3.2a11.758 11.758 0 0 0 1.784.522 13.35 13.35 0 0 0 8.01-.971l2.524 1.468z" class="cls-3" transform="translate(-29.101 -195.448)"/>
                <path id="Tracé_400" d="M355.44 311.33v2.706l2.524 1.456V312.8z" class="cls-3" transform="translate(-25.525 -193.44)"/>
                <g id="Groupe_12" class="cls-14" transform="translate(309.599 105.45)">
                    <path id="Tracé_401" d="M351.726 301.08v3.12l-1.068 1.129-1.978 2.063v-3.253z" class="cls-1" transform="translate(-336.568 -301.08)"/>
                    <path id="Tracé_402" d="M349.765 303.745V307H343.6v-3.811s5.7-.876 6.165.556z" class="cls-1" transform="translate(-337.653 -300.686)"/>
                    <path id="Tracé_403" d="M364.963 312.828v2.706l-3.423 1.966-2.524-1.456a12.877 12.877 0 0 1-9.794.437v-2.694l1.553-1.541-1.553.425a9.964 9.964 0 0 1-7.622-.874c-1.529-.886-2.245-1.845-2.245-2.84v-2.634l.279-1.141-.935-.546v-2.706l2.536 1.469a3.92 3.92 0 0 0-1.881 2.9c0 .971.752 1.918 2.245 2.779 3.325 1.918 6.614 1.286 9.636.316 2.8-.91 4.854-1.99 6.469-1.056 1.007.583.692 1.286-.425 1.942a5.643 5.643 0 0 1-4.855.279l-3.24 3.2a11.758 11.758 0 0 0 1.784.522 13.35 13.35 0 0 0 8.01-.971l2.524 1.468z" class="cls-1" transform="translate(-338.7 -300.898)"/>
                    <path id="Tracé_404" d="M355.44 311.33v2.706l2.524 1.456V312.8z" class="cls-1" transform="translate(-335.124 -298.89)"/>
                </g>
                <path id="Tracé_405" d="M364.382 312.864l-1.954-1.129a3.325 3.325 0 0 0 1.954-3 1.822 1.822 0 0 0 0-.267c-.085-.935-.765-1.833-2.185-2.646a8.982 8.982 0 0 0-4.539-1.214h-1.578a20.922 20.922 0 0 0-2.209.461l-1.032.3-1.432.461-.546.194a16.106 16.106 0 0 1-3.034.862 3.058 3.058 0 0 1-1.3 0 2.68 2.68 0 0 1-.607-.255c-.765-.437-.886-1.117.546-1.942a5 5 0 0 1 4.393-.461l3.046-3.058a13.022 13.022 0 0 0-9.175.51l-2.53-1.45-3.447 1.99 2.536 1.456a3.9 3.9 0 0 0-1.881 2.9c0 .971.74 1.918 2.245 2.779 3.325 1.917 6.626 1.286 9.636.316 2.8-.922 4.855-1.99 6.469-1.068 1.007.595.692 1.3-.425 1.942a5.559 5.559 0 0 1-4.855.279l-3.24 3.216a11.764 11.764 0 0 0 1.784.522 13.35 13.35 0 0 0 8.01-.971l2.524 1.468 3.422-1.966z" class="cls-3" transform="translate(-29.09 -195.812)"/>
                <path id="Tracé_406" d="M364.382 312.864l-1.954-1.129a3.325 3.325 0 0 0 1.954-3 1.822 1.822 0 0 0 0-.267c-.085-.935-.765-1.833-2.185-2.646a8.982 8.982 0 0 0-4.539-1.214h-1.578a20.922 20.922 0 0 0-2.209.461l-1.032.3-1.432.461-.546.194a16.106 16.106 0 0 1-3.034.862 3.058 3.058 0 0 1-1.3 0 2.68 2.68 0 0 1-.607-.255c-.765-.437-.886-1.117.546-1.942a5 5 0 0 1 4.393-.461l3.046-3.058a13.022 13.022 0 0 0-9.175.51l-2.53-1.45-3.447 1.99 2.536 1.456a3.9 3.9 0 0 0-1.881 2.9c0 .971.74 1.918 2.245 2.779 3.325 1.917 6.626 1.286 9.636.316 2.8-.922 4.855-1.99 6.469-1.068 1.007.595.692 1.3-.425 1.942a5.559 5.559 0 0 1-4.855.279l-3.24 3.216a11.764 11.764 0 0 0 1.784.522 13.35 13.35 0 0 0 8.01-.971l2.524 1.468 3.422-1.966z" class="cls-13" transform="translate(-29.09 -195.812)"/>
                <path id="Tracé_407" d="M385.889 317.476a22 22 0 0 0-8.095-7.488c-13.241-7.634-34.7-7.634-47.927 0a21.844 21.844 0 0 0-8.095 7.488h-1.832v6.93c.243 4.854 3.532 9.576 9.9 13.253 13.229 7.646 34.686 7.646 47.927 0 6.359-3.641 9.648-8.5 9.891-13.253v-6.93z" class="cls-3" transform="translate(-33.109 -194.95)"/>
                <path id="Tracé_408" d="M385.889 317.476a22 22 0 0 0-8.095-7.488c-13.241-7.634-34.7-7.634-47.927 0a21.844 21.844 0 0 0-8.095 7.488h-1.832v6.93c.243 4.854 3.532 9.576 9.9 13.253 13.229 7.646 34.686 7.646 47.927 0 6.359-3.641 9.648-8.5 9.891-13.253v-6.93z" class="cls-11" transform="translate(-33.109 -194.95)"/>
                <path id="Tracé_409" d="M377.794 304.758c-13.241-7.634-34.7-7.634-47.927 0s-13.241 20.037 0 27.671 34.686 7.646 47.927 0 13.229-20.029 0-27.671z" class="cls-3" transform="translate(-33.109 -196.068)"/>
                <path id="Tracé_410" d="M377.794 304.758c-13.241-7.634-34.7-7.634-47.927 0s-13.241 20.037 0 27.671 34.686 7.646 47.927 0 13.229-20.029 0-27.671z" class="cls-12" transform="translate(-33.109 -196.068)"/>
                <path id="Tracé_411" d="M367.424 308.518a38.156 38.156 0 0 0-31.215 0c-4.43 2.269-6.869 5.389-6.869 8.775s2.427 6.493 6.869 8.762a38.156 38.156 0 0 0 31.215 0c4.43-2.27 6.869-5.389 6.869-8.762s-2.439-6.506-6.869-8.775z" class="cls-3" transform="translate(-31.101 -194.754)"/>
                <path id="Tracé_412" d="M367.424 308.518a38.156 38.156 0 0 0-31.215 0c-4.43 2.269-6.869 5.389-6.869 8.775s2.427 6.493 6.869 8.762a38.156 38.156 0 0 0 31.215 0c4.43-2.27 6.869-5.389 6.869-8.762s-2.439-6.506-6.869-8.775z" class="cls-12" transform="translate(-31.101 -194.754)"/>
                <path id="Tracé_413" d="M376.793 305.784c-6.177-3.568-14.43-5.534-23.229-5.534s-16.991 1.966-23.217 5.534c-5.935 3.422-9.187 7.877-9.187 12.561s3.253 9.127 9.187 12.549c6.177 3.568 14.418 5.534 23.217 5.534s17.052-1.966 23.229-5.534c5.923-3.422 9.187-7.877 9.187-12.549s-3.264-9.138-9.187-12.561zm-7.622 21.324a38.157 38.157 0 0 1-31.215 0c-4.43-2.269-6.869-5.389-6.869-8.763s2.427-6.505 6.869-8.775a38.157 38.157 0 0 1 31.215 0c4.43 2.27 6.869 5.389 6.869 8.775s-2.44 6.493-6.868 8.763z" class="cls-3" transform="translate(-32.848 -195.807)"/>
                <path id="Tracé_414" d="M376.793 305.784c-6.177-3.568-14.43-5.534-23.229-5.534s-16.991 1.966-23.217 5.534c-5.935 3.422-9.187 7.877-9.187 12.561s3.253 9.127 9.187 12.549c6.177 3.568 14.418 5.534 23.217 5.534s17.052-1.966 23.229-5.534c5.923-3.422 9.187-7.877 9.187-12.549s-3.264-9.138-9.187-12.561zm-7.622 21.324a38.157 38.157 0 0 1-31.215 0c-4.43-2.269-6.869-5.389-6.869-8.763s2.427-6.505 6.869-8.775a38.157 38.157 0 0 1 31.215 0c4.43 2.27 6.869 5.389 6.869 8.775s-2.44 6.493-6.868 8.763z" class="cls-13" transform="translate(-32.848 -195.807)"/>
                <path id="Tracé_415" d="M366.684 324.818c8.326-4.272 8.326-11.2 0-15.474s-21.846-4.272-30.147 0-8.326 11.2 0 15.474 21.822 4.272 30.147 0z" class="cls-3" transform="translate(-30.895 -194.549)"/>
                <path id="Tracé_416" d="M366.684 324.818c8.326-4.272 8.326-11.2 0-15.474s-21.846-4.272-30.147 0-8.326 11.2 0 15.474 21.822 4.272 30.147 0z" class="cls-11" transform="translate(-30.895 -194.549)"/>
                <path id="Tracé_417" d="M366.655 311.734c-8.326-4.272-21.845-4.272-30.147 0-3.435 1.76-5.449 3.981-6.068 6.287.595 2.294 2.609 4.515 6.068 6.287 8.326 4.272 21.846 4.272 30.147 0 3.447-1.772 5.449-3.993 6.068-6.287-.623-2.306-2.623-4.527-6.068-6.287z" class="cls-3" transform="translate(-30.866 -194.038)"/>
                <path id="Tracé_418" d="M366.655 311.734c-8.326-4.272-21.845-4.272-30.147 0-3.435 1.76-5.449 3.981-6.068 6.287.595 2.294 2.609 4.515 6.068 6.287 8.326 4.272 21.846 4.272 30.147 0 3.447-1.772 5.449-3.993 6.068-6.287-.623-2.306-2.623-4.527-6.068-6.287z" class="cls-12" transform="translate(-30.866 -194.038)"/>
                <path id="Tracé_419" d="M350.054 308.92v3.119l-1.068 1.129-1.966 2.063v-3.253z" class="cls-3" transform="translate(-27.324 -193.955)"/>
                <path id="Tracé_420" d="M348.085 311.583v3.253h-6.165v-3.787s5.716-.898 6.165.534z" class="cls-3" transform="translate(-28.413 -193.56)"/>
                <path id="Tracé_421" d="M363.312 320.668v2.732l-3.422 1.966-2.524-1.456a12.888 12.888 0 0 1-9.794.437v-2.694l1.553-1.541-1.553.425a9.964 9.964 0 0 1-7.622-.874c-1.541-.886-2.245-1.845-2.245-2.84v-2.634l.279-1.141-.983-.57v-2.708l2.524 1.468a3.933 3.933 0 0 0-1.869 2.9c0 .971.752 1.918 2.245 2.779 3.325 1.918 6.614 1.287 9.636.316 2.8-.91 4.855-1.99 6.469-1.056 1 .583.692 1.286-.437 1.942a5.644 5.644 0 0 1-4.855.279l-3.228 3.2a11.388 11.388 0 0 0 1.784.522 13.411 13.411 0 0 0 8.01-.959l2.524 1.456z" class="cls-3" transform="translate(-29.464 -193.774)"/>
                <path id="Tracé_422" d="M353.77 319.18v2.694l2.536 1.456v-2.694z" class="cls-3" transform="translate(-25.882 -191.763)"/>
                <g id="Groupe_13" class="cls-14" transform="translate(307.536 114.965)">
                    <path id="Tracé_423" d="M350.054 308.92v3.119l-1.068 1.129-1.966 2.063v-3.253z" class="cls-1" transform="translate(-334.859 -308.92)"/>
                    <path id="Tracé_424" d="M348.085 311.583v3.253h-6.165v-3.787s5.716-.898 6.165.534z" class="cls-1" transform="translate(-335.949 -308.524)"/>
                    <path id="Tracé_425" d="M363.312 320.668v2.732l-3.422 1.966-2.524-1.456a12.888 12.888 0 0 1-9.794.437v-2.694l1.553-1.541-1.553.425a9.964 9.964 0 0 1-7.622-.874c-1.541-.886-2.245-1.845-2.245-2.84v-2.634l.279-1.141-.983-.57v-2.708l2.524 1.468a3.933 3.933 0 0 0-1.869 2.9c0 .971.752 1.918 2.245 2.779 3.325 1.918 6.614 1.287 9.636.316 2.8-.91 4.855-1.99 6.469-1.056 1 .583.692 1.286-.437 1.942a5.644 5.644 0 0 1-4.855.279l-3.228 3.2a11.388 11.388 0 0 0 1.784.522 13.411 13.411 0 0 0 8.01-.959l2.524 1.456z" class="cls-1" transform="translate(-337 -308.738)"/>
                    <path id="Tracé_426" d="M353.77 319.18v2.694l2.536 1.456v-2.694z" class="cls-1" transform="translate(-333.417 -306.728)"/>
                </g>
                <path id="Tracé_427" d="M362.729 320.672l-1.954-1.129a3.325 3.325 0 0 0 1.954-3 1.839 1.839 0 0 0 0-.267 3.641 3.641 0 0 0-2.184-2.646 8.994 8.994 0 0 0-4.551-1.214h-1.6a20.313 20.313 0 0 0-2.209.461l-1.044.3-1.42.461-.582.376a16.343 16.343 0 0 1-3.034.862 3.058 3.058 0 0 1-1.3 0 2.77 2.77 0 0 1-.619-.255c-.753-.437-.874-1.117.558-1.942a5 5 0 0 1 4.393-.461l3.034-3.058a13 13 0 0 0-9.163.51l-2.537-1.456-3.471 1.899 2.536 1.456a3.872 3.872 0 0 0-1.881 2.9c0 .971.74 1.918 2.245 2.779 3.325 1.918 6.614 1.286 9.636.316 2.8-.922 4.854-1.99 6.457-1.056 1.007.583.7 1.286-.425 1.93a5.559 5.559 0 0 1-4.854.279l-3.228 3.216a11.387 11.387 0 0 0 1.784.522 13.351 13.351 0 0 0 8-.959l2.536 1.456 3.41-1.966z" class="cls-3" transform="translate(-29.464 -194.105)"/>
                <path id="Tracé_428" d="M362.729 320.672l-1.954-1.129a3.325 3.325 0 0 0 1.954-3 1.839 1.839 0 0 0 0-.267 3.641 3.641 0 0 0-2.184-2.646 8.994 8.994 0 0 0-4.551-1.214h-1.6a20.313 20.313 0 0 0-2.209.461l-1.044.3-1.42.461-.582.376a16.343 16.343 0 0 1-3.034.862 3.058 3.058 0 0 1-1.3 0 2.77 2.77 0 0 1-.619-.255c-.753-.437-.874-1.117.558-1.942a5 5 0 0 1 4.393-.461l3.034-3.058a13 13 0 0 0-9.163.51l-2.537-1.456-3.471 1.899 2.536 1.456a3.872 3.872 0 0 0-1.881 2.9c0 .971.74 1.918 2.245 2.779 3.325 1.918 6.614 1.286 9.636.316 2.8-.922 4.854-1.99 6.457-1.056 1.007.583.7 1.286-.425 1.93a5.559 5.559 0 0 1-4.854.279l-3.228 3.216a11.387 11.387 0 0 0 1.784.522 13.351 13.351 0 0 0 8-.959l2.536 1.456 3.41-1.966z" class="cls-13" transform="translate(-29.464 -194.105)"/>
                <path id="Tracé_429" d="M387.549 309.636a22 22 0 0 0-8.1-7.488c-13.241-7.634-34.7-7.634-47.927 0a22 22 0 0 0-8.095 7.488H321.6v6.906c.243 4.855 3.544 9.576 9.9 13.253 13.229 7.646 34.686 7.646 47.927 0 6.36-3.641 9.709-8.5 9.9-13.253v-6.93z" class="cls-3" transform="translate(-32.754 -196.625)"/>
                <path id="Tracé_430" d="M387.549 309.636a22 22 0 0 0-8.1-7.488c-13.241-7.634-34.7-7.634-47.927 0a22 22 0 0 0-8.095 7.488H321.6v6.906c.243 4.855 3.544 9.576 9.9 13.253 13.229 7.646 34.686 7.646 47.927 0 6.36-3.641 9.709-8.5 9.9-13.253v-6.93z" class="cls-11" transform="translate(-32.754 -196.625)"/>
                <path id="Tracé_431" d="M379.453 296.918c-13.241-7.634-34.7-7.634-47.927 0s-13.229 20.037 0 27.671 34.686 7.646 47.927 0 13.229-20.025 0-27.671z" class="cls-3" transform="translate(-32.753 -197.742)"/>
                <path id="Tracé_432" d="M379.453 296.918c-13.241-7.634-34.7-7.634-47.927 0s-13.229 20.037 0 27.671 34.686 7.646 47.927 0 13.229-20.025 0-27.671z" class="cls-12" transform="translate(-32.753 -197.742)"/>
                <path id="Tracé_433" d="M369.084 300.677a38.132 38.132 0 0 0-31.2 0C333.427 303 331 306.066 331 309.452s2.427 6.493 6.881 8.762a38.132 38.132 0 0 0 31.2 0c4.43-2.269 6.881-5.389 6.881-8.762s-2.485-6.452-6.878-8.775z" class="cls-3" transform="translate(-30.746 -196.429)"/>
                <path id="Tracé_434" d="M369.084 300.677a38.132 38.132 0 0 0-31.2 0C333.427 303 331 306.066 331 309.452s2.427 6.493 6.881 8.762a38.132 38.132 0 0 0 31.2 0c4.43-2.269 6.881-5.389 6.881-8.762s-2.485-6.452-6.878-8.775z" class="cls-12" transform="translate(-30.746 -196.429)"/>
                <path id="Tracé_435" d="M378.453 297.974c-6.177-3.568-14.43-5.534-23.229-5.534s-16.991 1.966-23.217 5.534c-5.935 3.422-9.187 7.876-9.187 12.561s3.253 9.126 9.187 12.549c6.177 3.568 14.418 5.534 23.217 5.534s17.052-1.966 23.229-5.534c5.922-3.422 9.187-7.876 9.187-12.549s-3.264-9.175-9.187-12.561zm-7.622 21.326a38.132 38.132 0 0 1-31.2 0c-4.442-2.27-6.881-5.389-6.881-8.762s2.427-6.505 6.881-8.775a38.133 38.133 0 0 1 31.2 0c4.43 2.27 6.881 5.389 6.881 8.775s-2.488 6.456-6.881 8.726z" class="cls-3" transform="translate(-32.494 -197.476)"/>
                <path id="Tracé_436" d="M378.453 297.974c-6.177-3.568-14.43-5.534-23.229-5.534s-16.991 1.966-23.217 5.534c-5.935 3.422-9.187 7.876-9.187 12.561s3.253 9.126 9.187 12.549c6.177 3.568 14.418 5.534 23.217 5.534s17.052-1.966 23.229-5.534c5.922-3.422 9.187-7.876 9.187-12.549s-3.264-9.175-9.187-12.561zm-7.622 21.326a38.132 38.132 0 0 1-31.2 0c-4.442-2.27-6.881-5.389-6.881-8.762s2.427-6.505 6.881-8.775a38.133 38.133 0 0 1 31.2 0c4.43 2.27 6.881 5.389 6.881 8.775s-2.488 6.456-6.881 8.726z" class="cls-13" transform="translate(-32.494 -197.476)"/>
                <ellipse id="Ellipse_13" cx="21.311" cy="10.935" class="cls-3" rx="21.311" ry="10.935" transform="translate(301.419 102.076)"/>
                <ellipse id="Ellipse_14" cx="21.311" cy="10.935" class="cls-11" rx="21.311" ry="10.935" transform="translate(301.419 102.076)"/>
                <path id="Tracé_437" d="M368.313 303.894c-8.325-4.272-21.845-4.272-30.135 0-3.447 1.76-5.461 3.981-6.068 6.287.595 2.294 2.609 4.515 6.068 6.287 8.313 4.26 21.846 4.26 30.135 0 3.447-1.772 5.461-3.993 6.068-6.287-.607-2.306-2.622-4.527-6.068-6.287z" class="cls-3" transform="translate(-30.509 -195.713)"/>
                <path id="Tracé_438" d="M368.313 303.894c-8.325-4.272-21.845-4.272-30.135 0-3.447 1.76-5.461 3.981-6.068 6.287.595 2.294 2.609 4.515 6.068 6.287 8.313 4.26 21.846 4.26 30.135 0 3.447-1.772 5.461-3.993 6.068-6.287-.607-2.306-2.622-4.527-6.068-6.287z" class="cls-12" transform="translate(-30.509 -195.713)"/>
                <path id="Tracé_439" d="M351.726 301.08v3.12l-1.068 1.129-1.978 2.063v-3.253z" class="cls-3" transform="translate(-26.969 -195.63)"/>
                <path id="Tracé_440" d="M349.765 303.745V307H343.6v-3.811s5.7-.876 6.165.556z" class="cls-3" transform="translate(-28.054 -195.236)"/>
                <path id="Tracé_441" d="M364.963 312.828v2.706l-3.423 1.966-2.524-1.456a12.877 12.877 0 0 1-9.794.437v-2.694l1.553-1.541-1.553.425a9.964 9.964 0 0 1-7.622-.874c-1.529-.886-2.245-1.845-2.245-2.84v-2.634l.279-1.141-.935-.546v-2.706l2.536 1.469a3.92 3.92 0 0 0-1.881 2.9c0 .971.752 1.918 2.245 2.779 3.325 1.918 6.614 1.286 9.636.316 2.8-.91 4.854-1.99 6.469-1.056 1.007.583.692 1.286-.425 1.942a5.643 5.643 0 0 1-4.855.279l-3.24 3.2a11.758 11.758 0 0 0 1.784.522 13.35 13.35 0 0 0 8.01-.971l2.524 1.468z" class="cls-3" transform="translate(-29.101 -195.448)"/>
                <path id="Tracé_442" d="M355.44 311.33v2.706l2.524 1.456V312.8z" class="cls-3" transform="translate(-25.525 -193.44)"/>
                <g id="Groupe_14" class="cls-14" transform="translate(309.599 105.45)">
                    <path id="Tracé_443" d="M351.726 301.08v3.12l-1.068 1.129-1.978 2.063v-3.253z" class="cls-1" transform="translate(-336.568 -301.08)"/>
                    <path id="Tracé_444" d="M349.765 303.745V307H343.6v-3.811s5.7-.876 6.165.556z" class="cls-1" transform="translate(-337.653 -300.686)"/>
                    <path id="Tracé_445" d="M364.963 312.828v2.706l-3.423 1.966-2.524-1.456a12.877 12.877 0 0 1-9.794.437v-2.694l1.553-1.541-1.553.425a9.964 9.964 0 0 1-7.622-.874c-1.529-.886-2.245-1.845-2.245-2.84v-2.634l.279-1.141-.935-.546v-2.706l2.536 1.469a3.92 3.92 0 0 0-1.881 2.9c0 .971.752 1.918 2.245 2.779 3.325 1.918 6.614 1.286 9.636.316 2.8-.91 4.854-1.99 6.469-1.056 1.007.583.692 1.286-.425 1.942a5.643 5.643 0 0 1-4.855.279l-3.24 3.2a11.758 11.758 0 0 0 1.784.522 13.35 13.35 0 0 0 8.01-.971l2.524 1.468z" class="cls-1" transform="translate(-338.7 -300.898)"/>
                    <path id="Tracé_446" d="M355.44 311.33v2.706l2.524 1.456V312.8z" class="cls-1" transform="translate(-335.124 -298.89)"/>
                </g>
                <path id="Tracé_447" d="M364.382 312.864l-1.954-1.129a3.325 3.325 0 0 0 1.954-3 1.822 1.822 0 0 0 0-.267c-.085-.935-.765-1.833-2.185-2.646a8.982 8.982 0 0 0-4.539-1.214h-1.578a20.922 20.922 0 0 0-2.209.461l-1.032.3-1.432.461-.546.194a16.106 16.106 0 0 1-3.034.862 3.058 3.058 0 0 1-1.3 0 2.68 2.68 0 0 1-.607-.255c-.765-.437-.886-1.117.546-1.942a5 5 0 0 1 4.393-.461l3.046-3.058a13.022 13.022 0 0 0-9.175.51l-2.53-1.45-3.447 1.99 2.536 1.456a3.9 3.9 0 0 0-1.881 2.9c0 .971.74 1.918 2.245 2.779 3.325 1.917 6.626 1.286 9.636.316 2.8-.922 4.855-1.99 6.469-1.068 1.007.595.692 1.3-.425 1.942a5.559 5.559 0 0 1-4.855.279l-3.24 3.216a11.764 11.764 0 0 0 1.784.522 13.35 13.35 0 0 0 8.01-.971l2.524 1.468 3.422-1.966z" class="cls-3" transform="translate(-29.09 -195.812)"/>
                <path id="Tracé_448" d="M364.382 312.864l-1.954-1.129a3.325 3.325 0 0 0 1.954-3 1.822 1.822 0 0 0 0-.267c-.085-.935-.765-1.833-2.185-2.646a8.982 8.982 0 0 0-4.539-1.214h-1.578a20.922 20.922 0 0 0-2.209.461l-1.032.3-1.432.461-.546.194a16.106 16.106 0 0 1-3.034.862 3.058 3.058 0 0 1-1.3 0 2.68 2.68 0 0 1-.607-.255c-.765-.437-.886-1.117.546-1.942a5 5 0 0 1 4.393-.461l3.046-3.058a13.022 13.022 0 0 0-9.175.51l-2.53-1.45-3.447 1.99 2.536 1.456a3.9 3.9 0 0 0-1.881 2.9c0 .971.74 1.918 2.245 2.779 3.325 1.917 6.626 1.286 9.636.316 2.8-.922 4.855-1.99 6.469-1.068 1.007.595.692 1.3-.425 1.942a5.559 5.559 0 0 1-4.855.279l-3.24 3.216a11.764 11.764 0 0 0 1.784.522 13.35 13.35 0 0 0 8.01-.971l2.524 1.468 3.422-1.966z" class="cls-13" transform="translate(-29.09 -195.812)"/>
                <path id="Tracé_449" d="M149.549 232.636a22 22 0 0 0-8.095-7.488c-13.241-7.634-34.7-7.634-47.927 0a22 22 0 0 0-8.095 7.488H83.6v6.906c.243 4.854 3.544 9.576 9.9 13.253 13.229 7.646 34.686 7.646 47.927 0 6.359-3.641 9.709-8.5 9.9-13.253v-6.93z" class="cls-3" transform="translate(-83.6 -213.075)"/>
                <path id="Tracé_450" d="M149.549 232.636a22 22 0 0 0-8.095-7.488c-13.241-7.634-34.7-7.634-47.927 0a22 22 0 0 0-8.095 7.488H83.6v6.906c.243 4.854 3.544 9.576 9.9 13.253 13.229 7.646 34.686 7.646 47.927 0 6.359-3.641 9.709-8.5 9.9-13.253v-6.93z" class="cls-11" transform="translate(-83.6 -213.075)"/>
                <path id="Tracé_451" d="M141.453 219.918c-13.241-7.634-34.7-7.634-47.927 0s-13.229 20.037 0 27.671 34.686 7.646 47.927 0 13.229-20.025 0-27.671z" class="cls-3" transform="translate(-83.599 -214.193)"/>
                <path id="Tracé_452" d="M141.453 219.918c-13.241-7.634-34.7-7.634-47.927 0s-13.229 20.037 0 27.671 34.686 7.646 47.927 0 13.229-20.025 0-27.671z" class="cls-12" transform="translate(-83.599 -214.193)"/>
                <path id="Tracé_453" d="M131.084 223.679a34.965 34.965 0 0 0-15.607-3.338 34.941 34.941 0 0 0-15.6 3.338C95.427 226 93 229.067 93 232.453s2.427 6.493 6.881 8.763a34.941 34.941 0 0 0 15.6 3.338 34.964 34.964 0 0 0 15.607-3.338c4.43-2.27 6.881-5.389 6.881-8.763s-2.492-6.453-6.885-8.774z" class="cls-3" transform="translate(-81.592 -212.88)"/>
                <path id="Tracé_454" d="M131.084 223.679a34.965 34.965 0 0 0-15.607-3.338 34.941 34.941 0 0 0-15.6 3.338C95.427 226 93 229.067 93 232.453s2.427 6.493 6.881 8.763a34.941 34.941 0 0 0 15.6 3.338 34.964 34.964 0 0 0 15.607-3.338c4.43-2.27 6.881-5.389 6.881-8.763s-2.492-6.453-6.885-8.774z" class="cls-12" transform="translate(-81.592 -212.88)"/>
                <path id="Tracé_455" d="M140.453 220.974c-6.177-3.568-14.43-5.534-23.229-5.534s-17.039 1.893-23.217 5.534c-5.935 3.422-9.187 7.877-9.187 12.561s3.253 9.127 9.187 12.549c6.177 3.568 14.418 5.534 23.217 5.534s16.991-1.966 23.229-5.534c5.923-3.422 9.187-7.876 9.187-12.549s-3.264-9.175-9.187-12.561zm-7.621 21.326a34.964 34.964 0 0 1-15.607 3.338 34.94 34.94 0 0 1-15.6-3.338c-4.454-2.306-6.881-5.425-6.881-8.8s2.427-6.505 6.881-8.775a34.941 34.941 0 0 1 15.6-3.337 34.964 34.964 0 0 1 15.607 3.338c4.43 2.269 6.881 5.389 6.881 8.775s-2.488 6.493-6.881 8.762z" class="cls-3" transform="translate(-83.339 -213.926)"/>
                <path id="Tracé_456" d="M140.453 220.974c-6.177-3.568-14.43-5.534-23.229-5.534s-17.039 1.893-23.217 5.534c-5.935 3.422-9.187 7.877-9.187 12.561s3.253 9.127 9.187 12.549c6.177 3.568 14.418 5.534 23.217 5.534s16.991-1.966 23.229-5.534c5.923-3.422 9.187-7.876 9.187-12.549s-3.264-9.175-9.187-12.561zm-7.621 21.326a34.964 34.964 0 0 1-15.607 3.338 34.94 34.94 0 0 1-15.6-3.338c-4.454-2.306-6.881-5.425-6.881-8.8s2.427-6.505 6.881-8.775a34.941 34.941 0 0 1 15.6-3.337 34.964 34.964 0 0 1 15.607 3.338c4.43 2.269 6.881 5.389 6.881 8.775s-2.488 6.493-6.881 8.762z" class="cls-13" transform="translate(-83.339 -213.926)"/>
                <ellipse id="Ellipse_15" cx="21.311" cy="10.935" class="cls-3" rx="21.311" ry="10.935" transform="translate(12.573 8.626)"/>
                <ellipse id="Ellipse_16" cx="21.311" cy="10.935" class="cls-11" rx="21.311" ry="10.935" transform="translate(12.573 8.626)"/>
                <path id="Tracé_457" d="M130.313 226.894c-8.326-4.272-21.845-4.272-30.135 0-3.447 1.76-5.461 3.981-6.068 6.287.595 2.294 2.609 4.515 6.068 6.287 8.313 4.26 21.845 4.26 30.135 0 3.447-1.772 5.461-3.993 6.068-6.287-.607-2.306-2.621-4.527-6.068-6.287z" class="cls-3" transform="translate(-81.355 -212.163)"/>
                <path id="Tracé_458" d="M130.313 226.894c-8.326-4.272-21.845-4.272-30.135 0-3.447 1.76-5.461 3.981-6.068 6.287.595 2.294 2.609 4.515 6.068 6.287 8.313 4.26 21.845 4.26 30.135 0 3.447-1.772 5.461-3.993 6.068-6.287-.607-2.306-2.621-4.527-6.068-6.287z" class="cls-12" transform="translate(-81.355 -212.163)"/>
                <path id="Tracé_459" d="M113.726 224.08v3.12l-1.068 1.129-1.978 2.063v-3.253z" class="cls-3" transform="translate(-77.815 -212.08)"/>
                <path id="Tracé_460" d="M111.765 226.745V230H105.6v-3.811s5.7-.876 6.165.556z" class="cls-3" transform="translate(-78.9 -211.687)"/>
                <path id="Tracé_461" d="M126.963 235.828v2.706l-3.422 1.966-2.524-1.456a12.877 12.877 0 0 1-9.794.437v-2.694l1.553-1.541-1.553.425a9.963 9.963 0 0 1-7.622-.874c-1.529-.886-2.245-1.845-2.245-2.84v-2.634l.279-1.141-.934-.546v-2.706l2.536 1.469a3.92 3.92 0 0 0-1.881 2.9c0 .971.752 1.918 2.245 2.779 3.325 1.918 6.614 1.286 9.636.316 2.8-.91 4.855-1.99 6.469-1.056 1.007.583.7 1.286-.425 1.942a5.643 5.643 0 0 1-4.855.279l-3.24 3.2a11.763 11.763 0 0 0 1.784.522 13.349 13.349 0 0 0 8.01-.971l2.524 1.468z" class="cls-3" transform="translate(-79.947 -211.899)"/>
                <path id="Tracé_462" d="M117.44 234.34v2.694l2.524 1.456v-2.69z" class="cls-3" transform="translate(-76.371 -209.888)"/>
                <g id="Groupe_15" class="cls-14" transform="translate(20.753 12)">
                    <path id="Tracé_463" d="M113.726 224.08v3.12l-1.068 1.129-1.978 2.063v-3.253z" class="cls-1" transform="translate(-98.568 -224.08)"/>
                    <path id="Tracé_464" d="M111.765 226.745V230H105.6v-3.811s5.7-.876 6.165.556z" class="cls-1" transform="translate(-99.653 -223.686)"/>
                    <path id="Tracé_465" d="M126.963 235.828v2.706l-3.422 1.966-2.524-1.456a12.877 12.877 0 0 1-9.794.437v-2.694l1.553-1.541-1.553.425a9.963 9.963 0 0 1-7.622-.874c-1.529-.886-2.245-1.845-2.245-2.84v-2.634l.279-1.141-.934-.546v-2.706l2.536 1.469a3.92 3.92 0 0 0-1.881 2.9c0 .971.752 1.918 2.245 2.779 3.325 1.918 6.614 1.286 9.636.316 2.8-.91 4.855-1.99 6.469-1.056 1.007.583.7 1.286-.425 1.942a5.643 5.643 0 0 1-4.855.279l-3.24 3.2a11.763 11.763 0 0 0 1.784.522 13.349 13.349 0 0 0 8.01-.971l2.524 1.468z" class="cls-1" transform="translate(-100.7 -223.898)"/>
                    <path id="Tracé_466" d="M117.44 234.34v2.694l2.524 1.456v-2.69z" class="cls-1" transform="translate(-97.124 -221.888)"/>
                </g>
                <path id="Tracé_467" d="M126.382 235.864l-1.954-1.129a3.325 3.325 0 0 0 1.954-3 1.813 1.813 0 0 0 0-.267c-.085-.934-.765-1.833-2.185-2.646a8.982 8.982 0 0 0-4.539-1.214h-1.578a20.913 20.913 0 0 0-2.209.461l-1.032.3-1.432.461-.546.194a16.109 16.109 0 0 1-3.034.862 3.057 3.057 0 0 1-1.3 0 2.682 2.682 0 0 1-.607-.255c-.765-.437-.886-1.117.546-1.942a5 5 0 0 1 4.393-.461l3.046-3.058a13.022 13.022 0 0 0-9.175.51l-2.53-1.45-3.447 1.99 2.536 1.456a3.9 3.9 0 0 0-1.881 2.9c0 .971.74 1.918 2.245 2.779 3.325 1.918 6.626 1.286 9.636.316 2.8-.922 4.855-1.99 6.469-1.068 1.007.595.692 1.3-.425 1.942a5.559 5.559 0 0 1-4.855.279l-3.24 3.216a11.76 11.76 0 0 0 1.784.522 13.411 13.411 0 0 0 8.01-.959l2.524 1.456 3.422-1.966z" class="cls-3" transform="translate(-79.936 -212.262)"/>
                <path id="Tracé_468" d="M126.382 235.864l-1.954-1.129a3.325 3.325 0 0 0 1.954-3 1.813 1.813 0 0 0 0-.267c-.085-.934-.765-1.833-2.185-2.646a8.982 8.982 0 0 0-4.539-1.214h-1.578a20.913 20.913 0 0 0-2.209.461l-1.032.3-1.432.461-.546.194a16.109 16.109 0 0 1-3.034.862 3.057 3.057 0 0 1-1.3 0 2.682 2.682 0 0 1-.607-.255c-.765-.437-.886-1.117.546-1.942a5 5 0 0 1 4.393-.461l3.046-3.058a13.022 13.022 0 0 0-9.175.51l-2.53-1.45-3.447 1.99 2.536 1.456a3.9 3.9 0 0 0-1.881 2.9c0 .971.74 1.918 2.245 2.779 3.325 1.918 6.626 1.286 9.636.316 2.8-.922 4.855-1.99 6.469-1.068 1.007.595.692 1.3-.425 1.942a5.559 5.559 0 0 1-4.855.279l-3.24 3.216a11.76 11.76 0 0 0 1.784.522 13.411 13.411 0 0 0 8.01-.959l2.524 1.456 3.422-1.966z" class="cls-13" transform="translate(-79.936 -212.262)"/>
                <path id="Tracé_469" d="M432.549 260.636a22 22 0 0 0-8.1-7.488c-13.241-7.634-34.7-7.634-47.927 0a22 22 0 0 0-8.095 7.488H366.6v6.906c.243 4.854 3.544 9.576 9.9 13.253 13.229 7.646 34.686 7.646 47.927 0 6.359-3.641 9.709-8.5 9.9-13.253v-6.93z" class="cls-3" transform="translate(-23.141 -207.093)"/>
                <path id="Tracé_470" d="M432.549 260.636a22 22 0 0 0-8.1-7.488c-13.241-7.634-34.7-7.634-47.927 0a22 22 0 0 0-8.095 7.488H366.6v6.906c.243 4.854 3.544 9.576 9.9 13.253 13.229 7.646 34.686 7.646 47.927 0 6.359-3.641 9.709-8.5 9.9-13.253v-6.93z" class="cls-11" transform="translate(-23.141 -207.093)"/>
                <path id="Tracé_471" d="M424.453 247.918c-13.241-7.634-34.7-7.634-47.927 0s-13.229 20.037 0 27.671 34.686 7.646 47.927 0 13.229-20.025 0-27.671z" class="cls-3" transform="translate(-23.139 -208.211)"/>
                <path id="Tracé_472" d="M424.453 247.918c-13.241-7.634-34.7-7.634-47.927 0s-13.229 20.037 0 27.671 34.686 7.646 47.927 0 13.229-20.025 0-27.671z" class="cls-12" transform="translate(-23.139 -208.211)"/>
                <path id="Tracé_473" d="M414.084 251.678a38.133 38.133 0 0 0-31.2 0C378.427 254 376 257.066 376 260.452s2.427 6.493 6.881 8.762a38.132 38.132 0 0 0 31.2 0c4.43-2.269 6.881-5.389 6.881-8.762s-2.485-6.452-6.878-8.774z" class="cls-3" transform="translate(-21.132 -206.897)"/>
                <path id="Tracé_474" d="M414.084 251.678a38.133 38.133 0 0 0-31.2 0C378.427 254 376 257.066 376 260.452s2.427 6.493 6.881 8.762a38.132 38.132 0 0 0 31.2 0c4.43-2.269 6.881-5.389 6.881-8.762s-2.485-6.452-6.878-8.774z" class="cls-12" transform="translate(-21.132 -206.897)"/>
                <path id="Tracé_475" d="M423.453 248.974c-6.177-3.568-14.43-5.534-23.229-5.534s-16.991 1.966-23.217 5.534c-5.935 3.423-9.187 7.876-9.187 12.561s3.253 9.127 9.187 12.549c6.177 3.568 14.418 5.534 23.217 5.534s17.052-1.966 23.229-5.534c5.923-3.422 9.187-7.877 9.187-12.549s-3.264-9.175-9.187-12.561zm-7.621 21.326a38.133 38.133 0 0 1-31.2 0c-4.442-2.27-6.881-5.389-6.881-8.762s2.427-6.505 6.881-8.775a38.132 38.132 0 0 1 31.2 0c4.43 2.269 6.881 5.389 6.881 8.775s-2.488 6.457-6.881 8.726z" class="cls-3" transform="translate(-22.88 -207.944)"/>
                <path id="Tracé_476" d="M423.453 248.974c-6.177-3.568-14.43-5.534-23.229-5.534s-16.991 1.966-23.217 5.534c-5.935 3.423-9.187 7.876-9.187 12.561s3.253 9.127 9.187 12.549c6.177 3.568 14.418 5.534 23.217 5.534s17.052-1.966 23.229-5.534c5.923-3.422 9.187-7.877 9.187-12.549s-3.264-9.175-9.187-12.561zm-7.621 21.326a38.133 38.133 0 0 1-31.2 0c-4.442-2.27-6.881-5.389-6.881-8.762s2.427-6.505 6.881-8.775a38.132 38.132 0 0 1 31.2 0c4.43 2.269 6.881 5.389 6.881 8.775s-2.488 6.457-6.881 8.726z" class="cls-13" transform="translate(-22.88 -207.944)"/>
                <ellipse id="Ellipse_17" cx="21.311" cy="10.935" class="cls-3" rx="21.311" ry="10.935" transform="translate(356.033 42.608)"/>
                <ellipse id="Ellipse_18" cx="21.311" cy="10.935" class="cls-11" rx="21.311" ry="10.935" transform="translate(356.033 42.608)"/>
                <path id="Tracé_477" d="M413.313 254.894c-8.326-4.272-21.845-4.272-30.135 0-3.447 1.76-5.461 3.981-6.068 6.287.595 2.294 2.609 4.515 6.068 6.287 8.313 4.26 21.846 4.26 30.135 0 3.447-1.772 5.461-3.993 6.068-6.287-.607-2.306-2.622-4.527-6.068-6.287z" class="cls-3" transform="translate(-20.895 -206.182)"/>
                <path id="Tracé_478" d="M413.313 254.894c-8.326-4.272-21.845-4.272-30.135 0-3.447 1.76-5.461 3.981-6.068 6.287.595 2.294 2.609 4.515 6.068 6.287 8.313 4.26 21.846 4.26 30.135 0 3.447-1.772 5.461-3.993 6.068-6.287-.607-2.306-2.622-4.527-6.068-6.287z" class="cls-12" transform="translate(-20.895 -206.182)"/>
                <path id="Tracé_479" d="M396.726 252.08v3.12l-1.068 1.129-1.978 2.063v-3.253z" class="cls-3" transform="translate(-17.355 -206.098)"/>
                <path id="Tracé_480" d="M394.765 254.745V258H388.6v-3.811s5.7-.876 6.165.556z" class="cls-3" transform="translate(-18.441 -205.705)"/>
                <path id="Tracé_481" d="M409.963 263.828v2.706l-3.422 1.966-2.524-1.456a12.877 12.877 0 0 1-9.794.437v-2.694l1.553-1.541-1.553.425a9.964 9.964 0 0 1-7.622-.874c-1.529-.886-2.245-1.845-2.245-2.84v-2.634l.279-1.141-.935-.546v-2.706l2.536 1.469a3.92 3.92 0 0 0-1.881 2.9c0 .971.753 1.918 2.245 2.779 3.325 1.918 6.614 1.286 9.636.316 2.8-.91 4.854-1.99 6.469-1.056 1.007.583.692 1.287-.425 1.942a5.644 5.644 0 0 1-4.855.279l-3.24 3.2a11.752 11.752 0 0 0 1.784.522 13.35 13.35 0 0 0 8.01-.971l2.524 1.468z" class="cls-3" transform="translate(-19.487 -205.917)"/>
                <path id="Tracé_482" d="M400.44 262.33v2.706l2.524 1.456V263.8z" class="cls-3" transform="translate(-15.911 -203.909)"/>
                <g id="Groupe_16" class="cls-14" transform="translate(364.213 45.982)">
                    <path id="Tracé_483" d="M396.726 252.08v3.12l-1.068 1.129-1.978 2.063v-3.253z" class="cls-1" transform="translate(-381.568 -252.08)"/>
                    <path id="Tracé_484" d="M394.765 254.745V258H388.6v-3.811s5.7-.876 6.165.556z" class="cls-1" transform="translate(-382.653 -251.686)"/>
                    <path id="Tracé_485" d="M409.963 263.828v2.706l-3.422 1.966-2.524-1.456a12.877 12.877 0 0 1-9.794.437v-2.694l1.553-1.541-1.553.425a9.964 9.964 0 0 1-7.622-.874c-1.529-.886-2.245-1.845-2.245-2.84v-2.634l.279-1.141-.935-.546v-2.706l2.536 1.469a3.92 3.92 0 0 0-1.881 2.9c0 .971.753 1.918 2.245 2.779 3.325 1.918 6.614 1.286 9.636.316 2.8-.91 4.854-1.99 6.469-1.056 1.007.583.692 1.287-.425 1.942a5.644 5.644 0 0 1-4.855.279l-3.24 3.2a11.752 11.752 0 0 0 1.784.522 13.35 13.35 0 0 0 8.01-.971l2.524 1.468z" class="cls-1" transform="translate(-383.7 -251.898)"/>
                    <path id="Tracé_486" d="M400.44 262.33v2.706l2.524 1.456V263.8z" class="cls-1" transform="translate(-380.124 -249.89)"/>
                </g>
                <path id="Tracé_487" d="M409.382 263.864l-1.954-1.129a3.325 3.325 0 0 0 1.954-3 1.8 1.8 0 0 0 0-.267c-.085-.935-.764-1.833-2.185-2.646a8.98 8.98 0 0 0-4.539-1.214h-1.578a20.9 20.9 0 0 0-2.209.461l-1.031.3-1.432.461-.546.194a16.109 16.109 0 0 1-3.034.862 3.06 3.06 0 0 1-1.3 0 2.687 2.687 0 0 1-.607-.255c-.764-.437-.886-1.117.546-1.942a5 5 0 0 1 4.393-.461l3.046-3.058a13.022 13.022 0 0 0-9.175.51l-2.531-1.45-3.447 1.99 2.536 1.456a3.9 3.9 0 0 0-1.881 2.9c0 .971.74 1.918 2.245 2.779 3.325 1.917 6.626 1.286 9.636.316 2.8-.922 4.855-1.99 6.469-1.068 1.007.595.692 1.3-.425 1.942a5.559 5.559 0 0 1-4.855.279l-3.24 3.216a11.758 11.758 0 0 0 1.784.522 13.349 13.349 0 0 0 8.01-.971l2.524 1.469 3.423-1.966z" class="cls-3" transform="translate(-19.477 -206.28)"/>
                <path id="Tracé_488" d="M409.382 263.864l-1.954-1.129a3.325 3.325 0 0 0 1.954-3 1.8 1.8 0 0 0 0-.267c-.085-.935-.764-1.833-2.185-2.646a8.98 8.98 0 0 0-4.539-1.214h-1.578a20.9 20.9 0 0 0-2.209.461l-1.031.3-1.432.461-.546.194a16.109 16.109 0 0 1-3.034.862 3.06 3.06 0 0 1-1.3 0 2.687 2.687 0 0 1-.607-.255c-.764-.437-.886-1.117.546-1.942a5 5 0 0 1 4.393-.461l3.046-3.058a13.022 13.022 0 0 0-9.175.51l-2.531-1.45-3.447 1.99 2.536 1.456a3.9 3.9 0 0 0-1.881 2.9c0 .971.74 1.918 2.245 2.779 3.325 1.917 6.626 1.286 9.636.316 2.8-.922 4.855-1.99 6.469-1.068 1.007.595.692 1.3-.425 1.942a5.559 5.559 0 0 1-4.855.279l-3.24 3.216a11.758 11.758 0 0 0 1.784.522 13.349 13.349 0 0 0 8.01-.971l2.524 1.469 3.423-1.966z" class="cls-13" transform="translate(-19.477 -206.28)"/>
                <path id="Tracé_489" d="M434.549 252.636a22 22 0 0 0-8.095-7.488c-13.241-7.634-34.7-7.634-47.927 0a22 22 0 0 0-8.095 7.488H368.6v6.906c.243 4.855 3.544 9.576 9.9 13.253 13.229 7.646 34.686 7.646 47.927 0 6.359-3.641 9.709-8.5 9.9-13.253v-6.93z" class="cls-3" transform="translate(-22.713 -208.802)"/>
                <path id="Tracé_490" d="M434.549 252.636a22 22 0 0 0-8.095-7.488c-13.241-7.634-34.7-7.634-47.927 0a22 22 0 0 0-8.095 7.488H368.6v6.906c.243 4.855 3.544 9.576 9.9 13.253 13.229 7.646 34.686 7.646 47.927 0 6.359-3.641 9.709-8.5 9.9-13.253v-6.93z" class="cls-11" transform="translate(-22.713 -208.802)"/>
                <path id="Tracé_491" d="M426.453 239.918c-13.241-7.634-34.7-7.634-47.927 0s-13.229 20.037 0 27.671 34.686 7.646 47.927 0 13.229-20.025 0-27.671z" class="cls-3" transform="translate(-22.712 -209.92)"/>
                <path id="Tracé_492" d="M426.453 239.918c-13.241-7.634-34.7-7.634-47.927 0s-13.229 20.037 0 27.671 34.686 7.646 47.927 0 13.229-20.025 0-27.671z" class="cls-12" transform="translate(-22.712 -209.92)"/>
                <path id="Tracé_493" d="M416.084 243.678a38.132 38.132 0 0 0-31.2 0C380.427 246 378 249.066 378 252.452s2.427 6.493 6.881 8.762a38.132 38.132 0 0 0 31.2 0c4.43-2.269 6.881-5.388 6.881-8.762s-2.485-6.452-6.878-8.774z" class="cls-3" transform="translate(-20.705 -208.606)"/>
                <path id="Tracé_494" d="M416.084 243.678a38.132 38.132 0 0 0-31.2 0C380.427 246 378 249.066 378 252.452s2.427 6.493 6.881 8.762a38.132 38.132 0 0 0 31.2 0c4.43-2.269 6.881-5.388 6.881-8.762s-2.485-6.452-6.878-8.774z" class="cls-12" transform="translate(-20.705 -208.606)"/>
                <path id="Tracé_495" d="M425.453 240.974c-6.177-3.568-14.43-5.534-23.229-5.534s-16.991 1.966-23.217 5.534c-5.935 3.422-9.187 7.876-9.187 12.561s3.253 9.127 9.187 12.549c6.177 3.568 14.418 5.534 23.217 5.534s17.052-1.966 23.229-5.534c5.923-3.422 9.187-7.876 9.187-12.549s-3.264-9.175-9.187-12.561zm-7.621 21.326a38.133 38.133 0 0 1-31.2 0c-4.442-2.27-6.881-5.389-6.881-8.762s2.427-6.505 6.881-8.775a38.133 38.133 0 0 1 31.2 0c4.43 2.27 6.881 5.389 6.881 8.775s-2.488 6.457-6.881 8.726z" class="cls-3" transform="translate(-22.453 -209.653)"/>
                <path id="Tracé_496" d="M425.453 240.974c-6.177-3.568-14.43-5.534-23.229-5.534s-16.991 1.966-23.217 5.534c-5.935 3.422-9.187 7.876-9.187 12.561s3.253 9.127 9.187 12.549c6.177 3.568 14.418 5.534 23.217 5.534s17.052-1.966 23.229-5.534c5.923-3.422 9.187-7.876 9.187-12.549s-3.264-9.175-9.187-12.561zm-7.621 21.326a38.133 38.133 0 0 1-31.2 0c-4.442-2.27-6.881-5.389-6.881-8.762s2.427-6.505 6.881-8.775a38.133 38.133 0 0 1 31.2 0c4.43 2.27 6.881 5.389 6.881 8.775s-2.488 6.457-6.881 8.726z" class="cls-13" transform="translate(-22.453 -209.653)"/>
                <ellipse id="Ellipse_19" cx="21.311" cy="10.935" class="cls-3" rx="21.311" ry="10.935" transform="translate(358.46 32.899)"/>
                <ellipse id="Ellipse_20" cx="21.311" cy="10.935" class="cls-11" rx="21.311" ry="10.935" transform="translate(358.46 32.899)"/>
                <path id="Tracé_497" d="M415.313 246.894c-8.326-4.272-21.846-4.272-30.135 0-3.447 1.76-5.461 3.981-6.068 6.287.595 2.294 2.609 4.515 6.068 6.287 8.313 4.26 21.846 4.26 30.135 0 3.447-1.772 5.461-3.993 6.068-6.287-.607-2.306-2.622-4.527-6.068-6.287z" class="cls-3" transform="translate(-20.468 -207.891)"/>
                <path id="Tracé_498" d="M415.313 246.894c-8.326-4.272-21.846-4.272-30.135 0-3.447 1.76-5.461 3.981-6.068 6.287.595 2.294 2.609 4.515 6.068 6.287 8.313 4.26 21.846 4.26 30.135 0 3.447-1.772 5.461-3.993 6.068-6.287-.607-2.306-2.622-4.527-6.068-6.287z" class="cls-12" transform="translate(-20.468 -207.891)"/>
                <path id="Tracé_499" d="M398.726 244.08v3.12l-1.068 1.129-1.978 2.063v-3.253z" class="cls-3" transform="translate(-16.928 -207.807)"/>
                <path id="Tracé_500" d="M396.765 246.745V250H390.6v-3.811s5.7-.876 6.165.556z" class="cls-3" transform="translate(-18.013 -207.414)"/>
                <path id="Tracé_501" d="M411.963 255.828v2.706l-3.422 1.966-2.524-1.456a12.877 12.877 0 0 1-9.794.437v-2.694l1.553-1.541-1.553.425a9.964 9.964 0 0 1-7.622-.874c-1.529-.886-2.245-1.845-2.245-2.84v-2.634l.279-1.141-.935-.546v-2.706l2.537 1.468a3.92 3.92 0 0 0-1.881 2.9c0 .971.753 1.918 2.245 2.779 3.325 1.918 6.614 1.286 9.636.316 2.8-.91 4.855-1.99 6.469-1.056 1.007.583.692 1.286-.425 1.942a5.644 5.644 0 0 1-4.855.279l-3.24 3.2a11.764 11.764 0 0 0 1.784.522 13.351 13.351 0 0 0 8.01-.971l2.524 1.468z" class="cls-3" transform="translate(-19.06 -207.626)"/>
                <path id="Tracé_502" d="M402.44 254.34v2.694l2.524 1.456v-2.69z" class="cls-3" transform="translate(-15.484 -205.616)"/>
                <g id="Groupe_17" class="cls-14" transform="translate(366.64 36.273)">
                    <path id="Tracé_503" d="M398.726 244.08v3.12l-1.068 1.129-1.978 2.063v-3.253z" class="cls-1" transform="translate(-383.568 -244.08)"/>
                    <path id="Tracé_504" d="M396.765 246.745V250H390.6v-3.811s5.7-.876 6.165.556z" class="cls-1" transform="translate(-384.653 -243.686)"/>
                    <path id="Tracé_505" d="M411.963 255.828v2.706l-3.422 1.966-2.524-1.456a12.877 12.877 0 0 1-9.794.437v-2.694l1.553-1.541-1.553.425a9.964 9.964 0 0 1-7.622-.874c-1.529-.886-2.245-1.845-2.245-2.84v-2.634l.279-1.141-.935-.546v-2.706l2.537 1.468a3.92 3.92 0 0 0-1.881 2.9c0 .971.753 1.918 2.245 2.779 3.325 1.918 6.614 1.286 9.636.316 2.8-.91 4.855-1.99 6.469-1.056 1.007.583.692 1.286-.425 1.942a5.644 5.644 0 0 1-4.855.279l-3.24 3.2a11.764 11.764 0 0 0 1.784.522 13.351 13.351 0 0 0 8.01-.971l2.524 1.468z" class="cls-1" transform="translate(-385.7 -243.898)"/>
                    <path id="Tracé_506" d="M402.44 254.34v2.694l2.524 1.456v-2.69z" class="cls-1" transform="translate(-382.124 -241.888)"/>
                </g>
                <path id="Tracé_507" d="M411.382 255.864l-1.954-1.129a3.325 3.325 0 0 0 1.954-3 1.822 1.822 0 0 0 0-.267c-.085-.934-.765-1.833-2.185-2.646a8.981 8.981 0 0 0-4.539-1.214h-1.578a20.9 20.9 0 0 0-2.209.461l-1.032.3-1.432.461-.546.194a16.106 16.106 0 0 1-3.034.862 3.058 3.058 0 0 1-1.3 0 2.685 2.685 0 0 1-.607-.255c-.765-.437-.886-1.117.546-1.942a5 5 0 0 1 4.393-.461l3.046-3.058a13.022 13.022 0 0 0-9.175.51l-2.53-1.45-3.447 1.99 2.537 1.456a3.9 3.9 0 0 0-1.881 2.9c0 .971.74 1.918 2.245 2.779 3.325 1.918 6.626 1.286 9.636.316 2.8-.922 4.855-1.99 6.469-1.068 1.007.595.692 1.3-.425 1.942a5.559 5.559 0 0 1-4.855.279l-3.24 3.216a11.766 11.766 0 0 0 1.784.522 13.35 13.35 0 0 0 8.01-.971l2.524 1.469 3.422-1.966z" class="cls-3" transform="translate(-19.049 -207.989)"/>
                <path id="Tracé_508" d="M411.382 255.864l-1.954-1.129a3.325 3.325 0 0 0 1.954-3 1.822 1.822 0 0 0 0-.267c-.085-.934-.765-1.833-2.185-2.646a8.981 8.981 0 0 0-4.539-1.214h-1.578a20.9 20.9 0 0 0-2.209.461l-1.032.3-1.432.461-.546.194a16.106 16.106 0 0 1-3.034.862 3.058 3.058 0 0 1-1.3 0 2.685 2.685 0 0 1-.607-.255c-.765-.437-.886-1.117.546-1.942a5 5 0 0 1 4.393-.461l3.046-3.058a13.022 13.022 0 0 0-9.175.51l-2.53-1.45-3.447 1.99 2.537 1.456a3.9 3.9 0 0 0-1.881 2.9c0 .971.74 1.918 2.245 2.779 3.325 1.918 6.626 1.286 9.636.316 2.8-.922 4.855-1.99 6.469-1.068 1.007.595.692 1.3-.425 1.942a5.559 5.559 0 0 1-4.855.279l-3.24 3.216a11.766 11.766 0 0 0 1.784.522 13.35 13.35 0 0 0 8.01-.971l2.524 1.469 3.422-1.966z" class="cls-13" transform="translate(-19.049 -207.989)"/>
                <path id="Tracé_509" d="M431.549 245.636a22 22 0 0 0-8.1-7.488c-13.241-7.634-34.7-7.634-47.926 0a22 22 0 0 0-8.1 7.488H365.6v6.906c.243 4.855 3.544 9.576 9.9 13.253 13.229 7.646 34.686 7.646 47.927 0 6.359-3.641 9.709-8.5 9.9-13.253v-6.93z" class="cls-3" transform="translate(-23.354 -210.298)"/>
                <path id="Tracé_510" d="M431.549 245.636a22 22 0 0 0-8.1-7.488c-13.241-7.634-34.7-7.634-47.926 0a22 22 0 0 0-8.1 7.488H365.6v6.906c.243 4.855 3.544 9.576 9.9 13.253 13.229 7.646 34.686 7.646 47.927 0 6.359-3.641 9.709-8.5 9.9-13.253v-6.93z" class="cls-11" transform="translate(-23.354 -210.298)"/>
                <path id="Tracé_511" d="M423.453 232.918c-13.241-7.634-34.7-7.634-47.926 0s-13.229 20.037 0 27.671 34.686 7.646 47.926 0 13.229-20.025 0-27.671z" class="cls-3" transform="translate(-23.353 -211.415)"/>
                <path id="Tracé_512" d="M423.453 232.918c-13.241-7.634-34.7-7.634-47.926 0s-13.229 20.037 0 27.671 34.686 7.646 47.926 0 13.229-20.025 0-27.671z" class="cls-12" transform="translate(-23.353 -211.415)"/>
                <path id="Tracé_513" d="M413.084 236.678a38.132 38.132 0 0 0-31.2 0C377.427 239 375 242.066 375 245.452s2.427 6.493 6.881 8.762a38.132 38.132 0 0 0 31.2 0c4.43-2.269 6.881-5.389 6.881-8.762s-2.485-6.452-6.878-8.774z" class="cls-3" transform="translate(-21.346 -210.102)"/>
                <path id="Tracé_514" d="M413.084 236.678a38.132 38.132 0 0 0-31.2 0C377.427 239 375 242.066 375 245.452s2.427 6.493 6.881 8.762a38.132 38.132 0 0 0 31.2 0c4.43-2.269 6.881-5.389 6.881-8.762s-2.485-6.452-6.878-8.774z" class="cls-12" transform="translate(-21.346 -210.102)"/>
                <path id="Tracé_515" d="M422.453 233.974c-6.177-3.568-14.43-5.534-23.229-5.534s-16.991 1.966-23.217 5.534c-5.935 3.422-9.187 7.876-9.187 12.561s3.253 9.127 9.187 12.549c6.177 3.568 14.418 5.534 23.217 5.534s17.052-1.966 23.229-5.534c5.922-3.422 9.187-7.876 9.187-12.549s-3.264-9.175-9.187-12.561zm-7.621 21.326a38.132 38.132 0 0 1-31.2 0c-4.442-2.269-6.881-5.389-6.881-8.762s2.427-6.505 6.881-8.775a38.132 38.132 0 0 1 31.2 0c4.43 2.269 6.881 5.389 6.881 8.775s-2.488 6.457-6.881 8.726z" class="cls-3" transform="translate(-23.094 -211.149)"/>
                <path id="Tracé_516" d="M422.453 233.974c-6.177-3.568-14.43-5.534-23.229-5.534s-16.991 1.966-23.217 5.534c-5.935 3.422-9.187 7.876-9.187 12.561s3.253 9.127 9.187 12.549c6.177 3.568 14.418 5.534 23.217 5.534s17.052-1.966 23.229-5.534c5.922-3.422 9.187-7.876 9.187-12.549s-3.264-9.175-9.187-12.561zm-7.621 21.326a38.132 38.132 0 0 1-31.2 0c-4.442-2.269-6.881-5.389-6.881-8.762s2.427-6.505 6.881-8.775a38.132 38.132 0 0 1 31.2 0c4.43 2.269 6.881 5.389 6.881 8.775s-2.488 6.457-6.881 8.726z" class="cls-13" transform="translate(-23.094 -211.149)"/>
                <ellipse id="Ellipse_21" cx="21.311" cy="10.935" class="cls-3" rx="21.311" ry="10.935" transform="translate(354.819 24.403)"/>
                <ellipse id="Ellipse_22" cx="21.311" cy="10.935" class="cls-11" rx="21.311" ry="10.935" transform="translate(354.819 24.403)"/>
                <path id="Tracé_517" d="M412.313 239.894c-8.325-4.272-21.845-4.272-30.135 0-3.447 1.76-5.461 3.981-6.068 6.287.595 2.294 2.609 4.515 6.068 6.287 8.313 4.26 21.846 4.26 30.135 0 3.447-1.772 5.461-3.993 6.068-6.287-.607-2.306-2.621-4.527-6.068-6.287z" class="cls-3" transform="translate(-21.109 -209.386)"/>
                <path id="Tracé_518" d="M412.313 239.894c-8.325-4.272-21.845-4.272-30.135 0-3.447 1.76-5.461 3.981-6.068 6.287.595 2.294 2.609 4.515 6.068 6.287 8.313 4.26 21.846 4.26 30.135 0 3.447-1.772 5.461-3.993 6.068-6.287-.607-2.306-2.621-4.527-6.068-6.287z" class="cls-12" transform="translate(-21.109 -209.386)"/>
                <path id="Tracé_519" d="M395.726 237.08v3.12l-1.068 1.129-1.978 2.063v-3.253z" class="cls-3" transform="translate(-17.569 -209.303)"/>
                <path id="Tracé_520" d="M393.765 239.745V243H387.6v-3.811s5.7-.876 6.165.556z" class="cls-3" transform="translate(-18.654 -208.909)"/>
                <path id="Tracé_521" d="M408.963 248.828v2.706l-3.423 1.966-2.524-1.456a12.877 12.877 0 0 1-9.794.437v-2.694l1.554-1.541-1.554.425a9.964 9.964 0 0 1-7.622-.874c-1.529-.886-2.245-1.845-2.245-2.84v-2.634l.279-1.141-.935-.546v-2.706l2.536 1.469a3.92 3.92 0 0 0-1.881 2.9c0 .971.753 1.918 2.245 2.779 3.325 1.918 6.614 1.287 9.636.316 2.8-.91 4.855-1.99 6.469-1.056 1.007.583.692 1.286-.425 1.942a5.644 5.644 0 0 1-4.855.279l-3.24 3.2a11.766 11.766 0 0 0 1.784.522 13.351 13.351 0 0 0 8.01-.971l2.524 1.468z" class="cls-3" transform="translate(-19.701 -209.121)"/>
                <path id="Tracé_522" d="M399.44 247.34v2.694l2.524 1.456v-2.69z" class="cls-3" transform="translate(-16.125 -207.111)"/>
                <g id="Groupe_18" class="cls-14" transform="translate(362.999 27.777)">
                    <path id="Tracé_523" d="M395.726 237.08v3.12l-1.068 1.129-1.978 2.063v-3.253z" class="cls-1" transform="translate(-380.568 -237.08)"/>
                    <path id="Tracé_524" d="M393.765 239.745V243H387.6v-3.811s5.7-.876 6.165.556z" class="cls-1" transform="translate(-381.653 -236.686)"/>
                    <path id="Tracé_525" d="M408.963 248.828v2.706l-3.423 1.966-2.524-1.456a12.877 12.877 0 0 1-9.794.437v-2.694l1.554-1.541-1.554.425a9.964 9.964 0 0 1-7.622-.874c-1.529-.886-2.245-1.845-2.245-2.84v-2.634l.279-1.141-.935-.546v-2.706l2.536 1.469a3.92 3.92 0 0 0-1.881 2.9c0 .971.753 1.918 2.245 2.779 3.325 1.918 6.614 1.287 9.636.316 2.8-.91 4.855-1.99 6.469-1.056 1.007.583.692 1.286-.425 1.942a5.644 5.644 0 0 1-4.855.279l-3.24 3.2a11.766 11.766 0 0 0 1.784.522 13.351 13.351 0 0 0 8.01-.971l2.524 1.468z" class="cls-1" transform="translate(-382.7 -236.898)"/>
                    <path id="Tracé_526" d="M399.44 247.34v2.694l2.524 1.456v-2.69z" class="cls-1" transform="translate(-379.124 -234.888)"/>
                </g>
                <path id="Tracé_527" d="M408.382 248.864l-1.954-1.129a3.325 3.325 0 0 0 1.954-3 1.839 1.839 0 0 0 0-.267c-.085-.935-.765-1.833-2.184-2.646a8.982 8.982 0 0 0-4.539-1.214h-1.578a20.9 20.9 0 0 0-2.209.461l-1.032.3-1.432.461-.546.194a16.1 16.1 0 0 1-3.034.862 3.057 3.057 0 0 1-1.3 0 2.68 2.68 0 0 1-.607-.255c-.765-.437-.886-1.116.546-1.942a5 5 0 0 1 4.393-.461l3.046-3.058a13.022 13.022 0 0 0-9.175.51l-2.531-1.45-3.447 1.99 2.536 1.456a3.9 3.9 0 0 0-1.881 2.9c0 .971.74 1.918 2.245 2.779 3.325 1.918 6.626 1.286 9.636.316 2.8-.922 4.855-1.99 6.469-1.068 1.007.595.692 1.3-.425 1.942a5.559 5.559 0 0 1-4.854.279l-3.24 3.216a11.757 11.757 0 0 0 1.784.522 13.41 13.41 0 0 0 8.01-.959l2.524 1.456 3.422-1.966z" class="cls-3" transform="translate(-19.69 -209.484)"/>
                <path id="Tracé_528" d="M408.382 248.864l-1.954-1.129a3.325 3.325 0 0 0 1.954-3 1.839 1.839 0 0 0 0-.267c-.085-.935-.765-1.833-2.184-2.646a8.982 8.982 0 0 0-4.539-1.214h-1.578a20.9 20.9 0 0 0-2.209.461l-1.032.3-1.432.461-.546.194a16.1 16.1 0 0 1-3.034.862 3.057 3.057 0 0 1-1.3 0 2.68 2.68 0 0 1-.607-.255c-.765-.437-.886-1.116.546-1.942a5 5 0 0 1 4.393-.461l3.046-3.058a13.022 13.022 0 0 0-9.175.51l-2.531-1.45-3.447 1.99 2.536 1.456a3.9 3.9 0 0 0-1.881 2.9c0 .971.74 1.918 2.245 2.779 3.325 1.918 6.626 1.286 9.636.316 2.8-.922 4.855-1.99 6.469-1.068 1.007.595.692 1.3-.425 1.942a5.559 5.559 0 0 1-4.854.279l-3.24 3.216a11.757 11.757 0 0 0 1.784.522 13.41 13.41 0 0 0 8.01-.959l2.524 1.456 3.422-1.966z" class="cls-13" transform="translate(-19.69 -209.484)"/>
                <path id="Tracé_529" d="M434.549 236.636a22 22 0 0 0-8.095-7.488c-13.241-7.634-34.7-7.634-47.927 0a22 22 0 0 0-8.095 7.488H368.6v6.906c.243 4.854 3.544 9.576 9.9 13.253 13.229 7.646 34.686 7.646 47.927 0 6.359-3.641 9.709-8.5 9.9-13.253v-6.93z" class="cls-3" transform="translate(-22.713 -212.221)"/>
                <path id="Tracé_530" d="M434.549 236.636a22 22 0 0 0-8.095-7.488c-13.241-7.634-34.7-7.634-47.927 0a22 22 0 0 0-8.095 7.488H368.6v6.906c.243 4.854 3.544 9.576 9.9 13.253 13.229 7.646 34.686 7.646 47.927 0 6.359-3.641 9.709-8.5 9.9-13.253v-6.93z" class="cls-11" transform="translate(-22.713 -212.221)"/>
                <path id="Tracé_531" d="M426.453 223.918c-13.241-7.634-34.7-7.634-47.927 0s-13.229 20.037 0 27.671 34.686 7.646 47.927 0 13.229-20.025 0-27.671z" class="cls-3" transform="translate(-22.712 -213.338)"/>
                <path id="Tracé_532" d="M426.453 223.918c-13.241-7.634-34.7-7.634-47.927 0s-13.229 20.037 0 27.671 34.686 7.646 47.927 0 13.229-20.025 0-27.671z" class="cls-12" transform="translate(-22.712 -213.338)"/>
                <path id="Tracé_533" d="M416.084 227.678a38.132 38.132 0 0 0-31.2 0C380.427 230 378 233.066 378 236.452s2.427 6.493 6.881 8.763a38.133 38.133 0 0 0 31.2 0c4.43-2.27 6.881-5.389 6.881-8.763s-2.485-6.452-6.878-8.774z" class="cls-3" transform="translate(-20.705 -212.025)"/>
                <path id="Tracé_534" d="M416.084 227.678a38.132 38.132 0 0 0-31.2 0C380.427 230 378 233.066 378 236.452s2.427 6.493 6.881 8.763a38.133 38.133 0 0 0 31.2 0c4.43-2.27 6.881-5.389 6.881-8.763s-2.485-6.452-6.878-8.774z" class="cls-12" transform="translate(-20.705 -212.025)"/>
                <path id="Tracé_535" d="M425.453 224.974c-6.177-3.568-14.43-5.534-23.229-5.534s-16.991 1.966-23.217 5.534c-5.935 3.422-9.187 7.876-9.187 12.561s3.253 9.127 9.187 12.549c6.177 3.568 14.418 5.534 23.217 5.534s17.052-1.966 23.229-5.534c5.923-3.422 9.187-7.877 9.187-12.549s-3.264-9.175-9.187-12.561zm-7.621 21.326a38.133 38.133 0 0 1-31.2 0c-4.442-2.27-6.881-5.389-6.881-8.763s2.427-6.505 6.881-8.775a38.133 38.133 0 0 1 31.2 0c4.43 2.27 6.881 5.389 6.881 8.775s-2.488 6.457-6.881 8.726z" class="cls-3" transform="translate(-22.453 -213.071)"/>
                <path id="Tracé_536" d="M425.453 224.974c-6.177-3.568-14.43-5.534-23.229-5.534s-16.991 1.966-23.217 5.534c-5.935 3.422-9.187 7.876-9.187 12.561s3.253 9.127 9.187 12.549c6.177 3.568 14.418 5.534 23.217 5.534s17.052-1.966 23.229-5.534c5.923-3.422 9.187-7.877 9.187-12.549s-3.264-9.175-9.187-12.561zm-7.621 21.326a38.133 38.133 0 0 1-31.2 0c-4.442-2.27-6.881-5.389-6.881-8.763s2.427-6.505 6.881-8.775a38.133 38.133 0 0 1 31.2 0c4.43 2.27 6.881 5.389 6.881 8.775s-2.488 6.457-6.881 8.726z" class="cls-13" transform="translate(-22.453 -213.071)"/>
                <ellipse id="Ellipse_23" cx="21.311" cy="10.935" class="cls-3" rx="21.311" ry="10.935" transform="translate(358.46 13.48)"/>
                <ellipse id="Ellipse_24" cx="21.311" cy="10.935" class="cls-11" rx="21.311" ry="10.935" transform="translate(358.46 13.48)"/>
                <path id="Tracé_537" d="M415.313 230.894c-8.326-4.272-21.846-4.272-30.135 0-3.447 1.76-5.461 3.981-6.068 6.287.595 2.294 2.609 4.515 6.068 6.287 8.313 4.26 21.846 4.26 30.135 0 3.447-1.772 5.461-3.993 6.068-6.287-.607-2.306-2.622-4.527-6.068-6.287z" class="cls-3" transform="translate(-20.468 -211.309)"/>
                <path id="Tracé_538" d="M415.313 230.894c-8.326-4.272-21.846-4.272-30.135 0-3.447 1.76-5.461 3.981-6.068 6.287.595 2.294 2.609 4.515 6.068 6.287 8.313 4.26 21.846 4.26 30.135 0 3.447-1.772 5.461-3.993 6.068-6.287-.607-2.306-2.622-4.527-6.068-6.287z" class="cls-12" transform="translate(-20.468 -211.309)"/>
                <path id="Tracé_539" d="M398.726 228.08v3.12l-1.068 1.129-1.978 2.063v-3.253z" class="cls-3" transform="translate(-16.928 -211.226)"/>
                <path id="Tracé_540" d="M396.765 230.745V234H390.6v-3.811s5.7-.876 6.165.556z" class="cls-3" transform="translate(-18.013 -210.832)"/>
                <path id="Tracé_541" d="M411.963 239.828v2.706l-3.422 1.966-2.524-1.456a12.876 12.876 0 0 1-9.794.437v-2.694l1.553-1.541-1.553.425a9.964 9.964 0 0 1-7.622-.874c-1.529-.886-2.245-1.845-2.245-2.84v-2.634l.279-1.141-.935-.546v-2.706l2.537 1.468a3.92 3.92 0 0 0-1.881 2.9c0 .971.753 1.918 2.245 2.779 3.325 1.918 6.614 1.286 9.636.316 2.8-.91 4.855-1.99 6.469-1.056 1.007.582.692 1.286-.425 1.942a5.644 5.644 0 0 1-4.855.279l-3.24 3.2a11.762 11.762 0 0 0 1.784.522 13.349 13.349 0 0 0 8.01-.971l2.524 1.469z" class="cls-3" transform="translate(-19.06 -211.044)"/>
                <path id="Tracé_542" d="M402.44 238.34v2.694l2.524 1.456v-2.69z" class="cls-3" transform="translate(-15.484 -209.034)"/>
                <g id="Groupe_19" class="cls-14" transform="translate(366.64 16.854)">
                    <path id="Tracé_543" d="M398.726 228.08v3.12l-1.068 1.129-1.978 2.063v-3.253z" class="cls-1" transform="translate(-383.568 -228.08)"/>
                    <path id="Tracé_544" d="M396.765 230.745V234H390.6v-3.811s5.7-.876 6.165.556z" class="cls-1" transform="translate(-384.653 -227.686)"/>
                    <path id="Tracé_545" d="M411.963 239.828v2.706l-3.422 1.966-2.524-1.456a12.876 12.876 0 0 1-9.794.437v-2.694l1.553-1.541-1.553.425a9.964 9.964 0 0 1-7.622-.874c-1.529-.886-2.245-1.845-2.245-2.84v-2.634l.279-1.141-.935-.546v-2.706l2.537 1.468a3.92 3.92 0 0 0-1.881 2.9c0 .971.753 1.918 2.245 2.779 3.325 1.918 6.614 1.286 9.636.316 2.8-.91 4.855-1.99 6.469-1.056 1.007.582.692 1.286-.425 1.942a5.644 5.644 0 0 1-4.855.279l-3.24 3.2a11.762 11.762 0 0 0 1.784.522 13.349 13.349 0 0 0 8.01-.971l2.524 1.469z" class="cls-1" transform="translate(-385.7 -227.898)"/>
                    <path id="Tracé_546" d="M402.44 238.34v2.694l2.524 1.456v-2.69z" class="cls-1" transform="translate(-382.124 -225.888)"/>
                </g>
                <path id="Tracé_547" d="M411.382 239.864l-1.954-1.129a3.325 3.325 0 0 0 1.954-3 1.823 1.823 0 0 0 0-.267c-.085-.934-.765-1.833-2.185-2.646a8.98 8.98 0 0 0-4.539-1.214h-1.578a20.867 20.867 0 0 0-2.209.461l-1.032.3-1.432.461-.546.194a16.109 16.109 0 0 1-3.034.862 3.059 3.059 0 0 1-1.3 0 2.682 2.682 0 0 1-.607-.255c-.765-.437-.886-1.116.546-1.942a5 5 0 0 1 4.393-.461l3.046-3.058a13.022 13.022 0 0 0-9.175.51l-2.53-1.45-3.447 1.99 2.537 1.456a3.9 3.9 0 0 0-1.881 2.9c0 .971.74 1.918 2.245 2.779 3.325 1.918 6.626 1.286 9.636.316 2.8-.922 4.855-1.99 6.469-1.068 1.007.595.692 1.3-.425 1.942a5.558 5.558 0 0 1-4.855.279l-3.24 3.216a11.761 11.761 0 0 0 1.784.522 13.411 13.411 0 0 0 8.01-.959l2.524 1.456 3.422-1.966z" class="cls-3" transform="translate(-19.049 -211.407)"/>
                <path id="Tracé_548" d="M411.382 239.864l-1.954-1.129a3.325 3.325 0 0 0 1.954-3 1.823 1.823 0 0 0 0-.267c-.085-.934-.765-1.833-2.185-2.646a8.98 8.98 0 0 0-4.539-1.214h-1.578a20.867 20.867 0 0 0-2.209.461l-1.032.3-1.432.461-.546.194a16.109 16.109 0 0 1-3.034.862 3.059 3.059 0 0 1-1.3 0 2.682 2.682 0 0 1-.607-.255c-.765-.437-.886-1.116.546-1.942a5 5 0 0 1 4.393-.461l3.046-3.058a13.022 13.022 0 0 0-9.175.51l-2.53-1.45-3.447 1.99 2.537 1.456a3.9 3.9 0 0 0-1.881 2.9c0 .971.74 1.918 2.245 2.779 3.325 1.918 6.626 1.286 9.636.316 2.8-.922 4.855-1.99 6.469-1.068 1.007.595.692 1.3-.425 1.942a5.558 5.558 0 0 1-4.855.279l-3.24 3.216a11.761 11.761 0 0 0 1.784.522 13.411 13.411 0 0 0 8.01-.959l2.524 1.456 3.422-1.966z" class="cls-13" transform="translate(-19.049 -211.407)"/>
            </g>
        </g>
    </g>
</svg>
