<svg xmlns="http://www.w3.org/2000/svg" width="360.748" height="360" viewBox="0 0 440.748 440.748">
    <defs>
        <style>
            .cls-1{fill:#ebebeb}.cls-2{fill:#fff}.cls-3{fill:#263238}.cls-4{fill:#ffc628}.cls-5{opacity:.1}.cls-6{fill:#c7c7c7}.cls-7{fill:#dd6a57}.cls-8{fill:#a6a6a6}.cls-9{fill:#455a64}.cls-13{fill:#37474f}
        </style>
    </defs>
    <g id="Groupe_223" transform="translate(-758.583 -313)">
        <g id="Time_management-cuate" transform="translate(758.583 313)">
            <g id="freepik--background-complete--inject-5" transform="translate(35.927 24.78)">
                <path id="Tracé_549" d="M407.644 140.827l9.593 5.949 1.822-2.933a2.679 2.679 0 0 1 2.523-1.248c.565.046 1.121.064 1.685.055a2.669 2.669 0 0 1 2.441 1.394l1.631 3.052 9.948-5.338-1.631-3.043a2.733 2.733 0 0 1 .182-2.806 16.9 16.9 0 0 0 .911-1.439 2.66 2.66 0 0 1 2.432-1.412l3.453.109.355-11.287-3.471-.1a2.669 2.669 0 0 1-2.332-1.576c-.118-.246-.246-.492-.374-.738s-.273-.492-.419-.729a2.733 2.733 0 0 1 0-2.8l1.822-2.961-9.593-5.949-1.822 2.943a2.678 2.678 0 0 1-2.533 1.239c-.556-.046-1.111-.064-1.676-.055a2.733 2.733 0 0 1-2.432-1.4l-1.64-3.043-9.948 5.338 1.631 3.043a2.733 2.733 0 0 1-.173 2.806 13.75 13.75 0 0 0-.911 1.43 2.679 2.679 0 0 1-2.442 1.412l-3.462-.1-.346 11.278 3.462.109a2.733 2.733 0 0 1 2.332 1.567c.118.255.237.5.373.756s.264.483.41.72a2.678 2.678 0 0 1 0 2.815zm7.124-9.556a9.247 9.247 0 1 1 12.517 3.79 9.247 9.247 0 0 1-12.517-3.79z" class="cls-1" transform="translate(-79.163 -50.765)"/>
                <path id="Tracé_550" d="M397.81 191.943l3.954 6.851 2.1-1.212a1.822 1.822 0 0 1 1.977.064 10.277 10.277 0 0 0 1.02.592 1.822 1.822 0 0 1 1.039 1.667v2.423h7.917v-2.423a1.822 1.822 0 0 1 1.039-1.667 10.248 10.248 0 0 0 1.02-.592 1.822 1.822 0 0 1 1.977-.064l2.1 1.212 3.954-6.851-2.1-1.221a1.868 1.868 0 0 1-.911-1.74v-1.166a1.877 1.877 0 0 1 .911-1.74l2.114-1.212-3.954-6.851-2.1 1.212a1.868 1.868 0 0 1-1.968-.073c-.328-.21-.674-.41-1.02-.592a1.822 1.822 0 0 1-1.039-1.667v-2.423h-7.94v2.423a1.822 1.822 0 0 1-1.039 1.667c-.346.182-.683.383-1.011.592a1.886 1.886 0 0 1-1.977.073l-2.1-1.212-3.954 6.851 2.1 1.212a1.868 1.868 0 0 1 .911 1.74v1.166a1.9 1.9 0 0 1-.911 1.749zm7.561-3.544a6.477 6.477 0 1 1 1.894 4.586 6.486 6.486 0 0 1-1.894-4.586z" class="cls-1" transform="translate(-78.713 -56.796)"/>
                <path id="Tracé_551" d="M51.27 277.914l3.954 6.851 2.1-1.212a1.868 1.868 0 0 1 1.968.073c.337.21.674.41 1.029.592a1.877 1.877 0 0 1 1.039 1.667v2.4h7.889v-2.423a1.822 1.822 0 0 1 1.048-1.667c.346-.182.692-.383 1.02-.592a1.868 1.868 0 0 1 1.968-.073l2.1 1.212 3.945-6.851-2.1-1.212a1.868 1.868 0 0 1-.911-1.74v-1.166a1.868 1.868 0 0 1 .911-1.74l2.1-1.221-3.945-6.851-2.1 1.212a1.822 1.822 0 0 1-1.977-.064 10.257 10.257 0 0 0-1.02-.592 1.877 1.877 0 0 1-1.039-1.64v-2.427h-7.894v2.423a1.877 1.877 0 0 1-1.039 1.667 10.278 10.278 0 0 0-1.02.592 1.822 1.822 0 0 1-1.968.064l-2.1-1.212-3.954 6.851 2.1 1.221a1.9 1.9 0 0 1 .911 1.731v1.175a1.877 1.877 0 0 1-.911 1.74zm7.561-3.535a6.477 6.477 0 1 1 6.477 6.477 6.477 6.477 0 0 1-6.477-6.477z" class="cls-1" transform="translate(-47.872 -64.448)"/>
                <path id="Rectangle_122" d="M0 0H120.025V184.041H0z" class="cls-1"/>
                <path id="Rectangle_123" d="M0 0H50.688V81.863H0z" class="cls-2" transform="translate(6.541 7.37)"/>
                <path id="Rectangle_124" d="M0 0H50.679V81.863H0z" class="cls-2" transform="translate(62.814 7.37)"/>
                <path id="Rectangle_125" d="M0 0H50.688V81.863H0z" class="cls-2" transform="translate(6.541 94.808)"/>
                <path id="Rectangle_126" d="M0 0H50.679V81.863H0z" class="cls-2" transform="translate(62.814 94.808)"/>
                <path id="Tracé_552" d="M85.412 53.39L54.72 84.082V65.971L67.31 53.39z" class="cls-1" transform="translate(-48.179 -46.02)"/>
                <path id="Tracé_553" d="M54.72 230.958l50.688-50.688v18.093L69.8 233.983H54.72z" class="cls-1" transform="translate(-48.179 -57.312)"/>
                <path id="Tracé_554" d="M157.156 149.37l-40.676 40.676v-18.1l22.575-22.575z" class="cls-1" transform="translate(-53.675 -54.562)"/>
                <path id="Tracé_555" d="M169.918 118.52v18.093l-4.437 4.437h-18.1z" class="cls-1" transform="translate(-56.425 -51.816)"/>
                <path id="Tracé_556" d="M170.268 218.41v18.1l-.865.865H151.31z" class="cls-1" transform="translate(-56.775 -60.706)"/>
                <path id="Tracé_557" d="M57.626 149.37h9.046L54.72 161.322v-9.055z" class="cls-1" transform="translate(-48.179 -54.562)"/>
                <path id="Tracé_558" d="M64.03 139.126l42.207-42.216v9.046l-33.161 33.17z" class="cls-1" transform="translate(-49.008 -49.893)"/>
                <path id="Tracé_559" d="M159.607 53.39L116.48 96.508v-9.046l34.081-34.072z" class="cls-1" transform="translate(-53.675 -46.02)"/>
                <path id="Tracé_560" d="M100.288 53.39L54.72 98.958V96.69l43.3-43.3z" class="cls-1" transform="translate(-48.179 -46.02)"/>
                <path id="Tracé_561" d="M85.82 237.045l22.356-22.365v2.268l-20.088 20.1z" class="cls-1" transform="translate(-50.947 -60.374)"/>
                <path id="Tracé_562" d="M167.168 152.94v2.25l-50.688 50.688v-2.268z" class="cls-1" transform="translate(-53.675 -54.88)"/>
                <path id="Rectangle_127" d="M0 0H120.025V184.041H0z" class="cls-1" transform="translate(146.99)"/>
                <path id="Rectangle_128" d="M0 0H50.688V81.863H0z" class="cls-2" transform="translate(153.531 7.37)"/>
                <path id="Rectangle_129" d="M0 0H50.679V81.863H0z" class="cls-2" transform="translate(209.795 7.37)"/>
                <path id="Rectangle_130" d="M0 0H50.688V81.863H0z" class="cls-2" transform="translate(153.531 94.808)"/>
                <path id="Rectangle_131" d="M0 0H50.679V81.863H0z" class="cls-2" transform="translate(209.795 94.808)"/>
                <path id="Tracé_563" d="M216.07 149.37h4.774l-4.774 4.774z" class="cls-1" transform="translate(-62.539 -54.562)"/>
                <path id="Tracé_564" d="M216.07 129.787l50.688-50.7V97.2l-40.339 40.34H216.07z" class="cls-1" transform="translate(-62.539 -48.307)"/>
                <path id="Tracé_565" d="M313.778 53.39L277.83 89.338V71.227l17.838-17.837z" class="cls-1" transform="translate(-68.035 -46.02)"/>
                <path id="Tracé_566" d="M328.509 178.55v18.1l-37.169 37.18h-13.51v-4.6z" class="cls-1" transform="translate(-68.035 -57.159)"/>
                <path id="Tracé_567" d="M266.758 53.39v1.676l-50.688 50.688V96.7l43.3-43.309z" class="cls-1" transform="translate(-62.539 -46.02)"/>
                <path id="Tracé_568" d="M249.63 237.265l20.115-20.115v9.05l-11.069 11.069z" class="cls-1" transform="translate(-65.525 -60.594)"/>
                <path id="Tracé_569" d="M328.509 155.39v9.055l-50.679 50.68v-9.046z" class="cls-1" transform="translate(-68.035 -55.098)"/>
                <path id="Tracé_570" d="M227 149.37h2.268l-13.2 13.2v-2.259z" class="cls-1" transform="translate(-62.539 -54.562)"/>
                <path id="Tracé_571" d="M234.19 139.911l34.181-34.181V108l-31.912 31.912z" class="cls-1" transform="translate(-64.151 -50.678)"/>
                <path id="Tracé_572" d="M322.205 53.39L277.83 97.765V95.5l42.107-42.11z" class="cls-1" transform="translate(-68.035 -46.02)"/>
                <path id="Tracé_573" d="M216.07 232.408l50.688-50.688v2.259l-50.133 50.133h-.556z" class="cls-1" transform="translate(-62.539 -57.441)"/>
                <path id="Tracé_574" d="M303.985 149.37l-26.155 26.155v-2.259l23.887-23.9z" class="cls-1" transform="translate(-68.035 -54.562)"/>
                <path id="Tracé_575" d="M331.387 119.96v2.268l-18.949 18.949h-2.268z" class="cls-1" transform="translate(-70.913 -51.944)"/>
            </g>
            <g id="freepik--Shadows--inject-5" transform="translate(5.791 355.101)">
                <ellipse id="Ellipse_25" cx="133.881" cy="18.047" class="cls-1" rx="133.881" ry="18.047" transform="translate(80.697)"/>
                <ellipse id="Ellipse_26" cx="37.588" cy="7.443" class="cls-1" rx="37.588" ry="7.443" transform="translate(336.306 10.841)"/>
                <ellipse id="Ellipse_27" cx="140.313" cy="16.434" class="cls-1" rx="140.313" ry="16.434" transform="translate(0 20.552)"/>
            </g>
            <g id="freepik--Floor--inject-5" transform="translate(23.045 350.637)">
                <path id="Tracé_576" d="M33.4 403.445l49.331-.219 49.331-.082 98.662-.155 98.662.155 49.331.082 49.331.219-49.331.228-49.331.073-98.662.155-98.662-.155-49.331-.073z" class="cls-3" transform="translate(-33.4 -402.99)"/>
            </g>
            <g id="freepik--Clock--inject-5">
                <path id="Tracé_577" d="M141.4 389.23l-12.99 35.046h15.25l28.241-19.24z" class="cls-4" transform="translate(-18.811 -51.128)"/>
                <path id="Tracé_578" d="M141.4 389.23l-12.99 35.046h15.25l28.241-19.24z" class="cls-5" transform="translate(-18.811 -51.128)"/>
                <path id="Tracé_579" d="M354.35 389.23l12.991 35.046h-15.25l-28.241-19.24z" class="cls-4" transform="translate(-36.204 -51.128)"/>
                <path id="Tracé_580" d="M354.35 389.23l12.991 35.046h-15.25l-28.241-19.24z" class="cls-5" transform="translate(-36.204 -51.128)"/>
                <circle id="Ellipse_28" cx="155.827" cy="155.827" r="155.827" class="cls-4" transform="rotate(-45 266.015 110.187)"/>
                <circle id="Ellipse_29" cx="148.694" cy="148.694" r="148.694" class="cls-5" transform="translate(69.779 69.119)"/>
                <circle id="Ellipse_30" cx="139.302" cy="139.302" r="139.302" class="cls-2" transform="rotate(-45 276.898 81.652)"/>
                <path id="Tracé_581" d="M373.63 217.631c-63.43 38.436-167.689 101.486-225.93 136.05a139.384 139.384 0 0 1-38.071-51.189l192.7-178.611a139.438 139.438 0 0 1 71.3 93.751z" class="cls-1" transform="translate(-17.139 -27.513)"/>
                <path id="Tracé_582" d="M382.767 264.58a138.083 138.083 0 0 1-9.21 45.268l-173.7 82.163a137.9 137.9 0 0 1-21.946-9.429c52.445-30.327 148.356-85.507 204.856-118.002z" class="cls-1" transform="translate(-23.216 -40.035)"/>
                <path id="Rectangle_132" d="M0 0H2.687V21.117H0z" class="cls-6" transform="translate(219.02 90.518)"/>
                <path id="Rectangle_133" d="M0 0H2.697V21.117H0z" class="cls-6" transform="rotate(-30 279.743 -234.265)"/>
                <path id="Rectangle_134" d="M0 0H2.687V21.117H0z" class="cls-6" transform="rotate(-60 189.228 -15.237)"/>
                <path id="Rectangle_135" d="M0 0H21.117V2.687H0z" class="cls-6" transform="translate(91.179 218.36)"/>
                <path id="Rectangle_136" d="M0 0H21.117V2.687H0z" class="cls-6" transform="rotate(-30 582.255 -59.575)"/>
                <path id="Rectangle_137" d="M0 0H21.117V2.697H0z" class="cls-6" transform="rotate(-60.03 363.738 31.65)"/>
                <path id="Rectangle_138" d="M0 0H2.687V21.117H0z" class="cls-6" transform="translate(219.02 327.78)"/>
                <path id="Rectangle_139" d="M0 0H2.697V21.117H0z" class="cls-6" transform="rotate(-30 722.505 -352.897)"/>
                <path id="Rectangle_140" d="M0 0H2.687V21.117H0z" class="cls-6" transform="rotate(-60 394.702 -133.872)"/>
                <path id="Rectangle_141" d="M0 0H21.117V2.687H0z" class="cls-6" transform="translate(328.441 218.36)"/>
                <path id="Rectangle_142" d="M0 0H21.117V2.687H0z" class="cls-6" transform="rotate(-30 463.663 -502.346)"/>
                <path id="Rectangle_143" d="M0 0H21.117V2.697H0z" class="cls-6" transform="rotate(-60.03 245.212 -173.775)"/>
                <path id="Tracé_583" d="M377.461 260.318L242.35 264.09l.164-13.21 134.986 5.849z" class="cls-4" transform="translate(-28.951 -38.816)"/>
                <path id="Tracé_584" d="M250.3 154.976l5.849 102.816-13.219-.173 3.79-102.688z" class="cls-3" transform="translate(-29.003 -30.276)"/>
                <circle id="Ellipse_31" cx="4.509" cy="4.509" r="4.509" class="cls-4" transform="translate(215.859 215.198)"/>
            </g>
            <g id="freepik--Character--inject-5" transform="translate(209.623 98.695)">
                <path id="Tracé_585" d="M380.2 255.505c-.5-1.512-27.33-36.941-29.152-37.615-.21-.091-12.189 8.436-12.189 8.436-.5.656-23.276-4.154-23.276-4.154l-.228 27.476 41.5-.911s5.6 3.3 10.732 5.985a61.461 61.461 0 0 0 6.742 3.271c2.095.564 6.376-.985 5.871-2.488z" class="cls-7" transform="translate(-245.07 -134.575)"/>
                <path id="Tracé_586" d="M376.086 258.02a58.931 58.931 0 0 1-6.741-3.27c-5.129-2.733-10.732-5.985-10.732-5.985l-9.238.2-14.475-23.332c3.179.565 5.539.911 5.7.692 0 0 11.98-8.536 12.189-8.436 1.822.674 28.642 36.094 29.152 37.615s-3.777 3.053-5.855 2.516z" class="cls-2" transform="translate(-246.81 -134.575)"/>
                <path id="Tracé_587" d="M382.738 255.55c-.528-1.55-27.457-36.95-29.343-37.65-.711-.273-6.568 3.353-12.235 8.427l17.382 22.773s16.043 8.5 18.22 9.046 6.505-1.046 5.976-2.596z" class="cls-8" transform="translate(-247.367 -134.574)"/>
                <path id="Tracé_588" d="M382.175 256.342c-4.664-5.821-22.912-29.744-27.075-35.857 4.737 5.666 22.775 29.744 27.13 35.812.109.103.045.182-.055.045z" class="cls-3" transform="translate(-248.608 -134.802)"/>
                <path id="Tracé_589" d="M376.781 259.85a5.958 5.958 0 0 1-1.248-4.646 5.766 5.766 0 0 1 2.159-3.744s.082 0 .055.073a6.914 6.914 0 0 0-.911 8.263.046.046 0 1 1-.055.055z" class="cls-3" transform="translate(-250.42 -137.563)"/>
                <path id="Tracé_590" d="M362.2 252.873c-1.822-2.35-3.1-5.748-2.277-8.7 0-.118.2-.064.21 0a41.163 41.163 0 0 0 2.4 8.491.195.195 0 0 1-.328.21z" class="cls-3" transform="translate(-249.015 -136.908)"/>
                <path id="Tracé_591" d="M364.523 254.284c-1.822-2.35-3.1-5.739-2.278-8.691 0-.118.191-.073.21 0a41.638 41.638 0 0 0 2.387 8.481.191.191 0 0 1-.319.21z" class="cls-3" transform="translate(-249.221 -137.034)"/>
                <path id="Tracé_592" d="M366.833 255.7c-1.822-2.35-3.1-5.748-2.278-8.7 0-.109.2-.064.219 0a40.5 40.5 0 0 0 2.387 8.481.2.2 0 0 1-.328.219z" class="cls-3" transform="translate(-249.427 -137.16)"/>
                <path id="Tracé_593" d="M369.153 257.144c-1.822-2.35-3.1-5.739-2.277-8.691 0-.118.191-.073.209 0a41.643 41.643 0 0 0 2.387 8.481.191.191 0 0 1-.319.21z" class="cls-3" transform="translate(-249.633 -137.288)"/>
                <path id="Tracé_594" d="M350.127 226.453c-2.022-2.678 2.123-5.821 4.154-3.143s-2.131 5.813-4.154 3.143z" class="cls-3" transform="translate(-248.117 -134.967)"/>
                <path id="Tracé_595" d="M360.794 257.921c.683-2.542.237-5.284.118-7.862a.364.364 0 0 0-.519-.282.073.073 0 0 0-.118 0 15.724 15.724 0 0 0-4.437 6.778c-.474 1.53-.292 3.79 1.622 4.236s2.94-1.385 3.334-2.87zm-1.886 1.6c-2.733 1.731-2.551-2.1-2.159-3.225a17.858 17.858 0 0 1 .911-2.086 46.7 46.7 0 0 1 2.5-4.008c0 1.266.073 2.533.1 3.8.061 1.514.179 4.575-1.351 5.522z" class="cls-3" transform="translate(-248.654 -137.41)"/>
                <path id="Tracé_596" d="M351.933 241.7c-1.412 1.366-.4 3.389.793 4.455a15.66 15.66 0 0 0 7.288 3.526.082.082 0 0 0 .091-.082.374.374 0 0 0 .3-.51c-1.23-2.268-2.268-4.856-4.154-6.678-1.084-1.068-2.97-2.006-4.318-.711zm5.912 4.327c.629 1.1 1.2 2.232 1.877 3.307a47.081 47.081 0 0 1-4.218-2.15 17.656 17.656 0 0 1-1.877-1.3c-.911-.747-3.07-3.936.182-3.881 1.822.036 3.3 2.715 4.054 4.027z" class="cls-3" transform="translate(-248.265 -136.638)"/>
                <path id="Tracé_597" d="M307.464 212.706h-18.621s-19.486-9.365-35.174-5.594c-17.992 4.327-20.3 26.92-6.851 34.91 17.045 10.121 92.859 8.2 92.859 8.2l-16.389-27.8s-25.217-5.3-48.083-4.555l32.259 4.4z" class="cls-9" transform="translate(-238.204 -133.536)"/>
                <path id="Tracé_598" d="M326.886 225.212a.819.819 0 0 1 0-.146v-.118a1.581 1.581 0 0 0-.064-.264c-.018-.091-.128-.364-.191-.547a5.478 5.478 0 0 0-.237-.528 3.379 3.379 0 0 0-.3-.492h-.046c-2.779-.519-21.618-3.216-24.415-3.535s-5.657-.583-8.491-.82a168.067 168.067 0 0 0-17-.61h-1.594a1.59 1.59 0 0 1-.346-.082l-.82-.191c-.51-.091-1.029-.173-1.54-.246-1.075-.164-2.15-.282-3.225-.483-.064 0-.082.091 0 .1 1.075.246 2.123.556 3.2.783l.911.2c-2.077.109-4.154.273-6.231.455-.064 0-.064.109 0 .109 2.824-.173 5.676-.191 8.5-.146s5.612.109 8.418.273c5.676.328 11.342.829 16.99 1.421 3.17.337 22.383 3.134 25.563 3.271h.046a2.141 2.141 0 0 0 .082.219l.273.519c.091.164.182.319.282.474l.155.237.082.109a.506.506 0 0 1 .082.118c.007.039-.039-.08-.084-.08z" class="cls-3" transform="translate(-240.718 -134.509)"/>
                <path id="Tracé_599" d="M341.639 250.142c-1-1.622-1.913-3.307-2.824-5.029s-1.822-3.362-2.8-5.038c-1.868-3.343-8.554-14.576-9.219-15.387 0-.046-.128 0-.109.064.319.911 4.5 8.327 5.466 10.021 1.922 3.325 3.945 6.577 5.94 9.866.565.911 1.157 1.822 1.731 2.788s1.193 1.822 1.722 2.806c.002.018.13-.033.093-.091z" class="cls-3" transform="translate(-246.079 -135.178)"/>
                <path id="Tracé_600" d="M321.484 227.046c-1.667-.41-3.38-.665-5.074-.984l-5.083-.957q-5.083-.911-10.185-1.822c-6.787-1.148-13.6-2.1-20.452-2.733-3.863-.364-7.734-.61-11.615-.911-.082 0-.073.118 0 .128 6.9.31 13.784 1.239 20.616 2.223s13.51 2.041 20.252 3.179l5.7.975c1.931.337 3.863.747 5.8.993.087.028.123-.081.041-.091z" class="cls-3" transform="translate(-240.947 -134.731)"/>
                <path id="Tracé_601" d="M343.52 352.475c-1.631-.164-42.243-18.42-43.355-20.1-.419-.629 1.895-6.7 4.892-13.957.656-1.567 1.33-3.179 2.031-4.81 4.555-10.622 9.575-21.791 9.575-21.791l27.2 12.135-10.322 21.454-2.259 4.71s12.417 13.938 13.437 15.906.441 6.617-1.199 6.453z" class="cls-7" transform="translate(-243.714 -141.154)"/>
                <path id="Tracé_602" d="M343.52 354.6c-1.631-.164-42.243-18.421-43.355-20.1-.51-.765 3.006-9.566 6.924-18.767l26.419 11.8-2.259 4.71s12.417 13.938 13.437 15.906.474 6.618-1.166 6.451z" class="cls-2" transform="translate(-243.714 -143.283)"/>
                <path id="Tracé_603" d="M343.52 355.073c-1.631-.164-42.243-18.42-43.355-20.1-.419-.629 1.895-6.7 4.892-13.957l26.228 11.7s12.417 13.938 13.437 15.906.438 6.615-1.202 6.451z" class="cls-8" transform="translate(-243.714 -143.753)"/>
                <path id="Tracé_604" d="M343.91 354.544c-6.732-3.225-34.2-15.605-41.1-18.284 6.6 3.344 34.172 15.487 41.068 18.357.096.1.169-.009.032-.073z" class="cls-3" transform="translate(-243.95 -145.109)"/>
                <path id="Tracé_605" d="M346.151 348.372a5.994 5.994 0 0 0-4.819-.164 5.758 5.758 0 0 0-3.152 2.952s.055.073.082 0a6.914 6.914 0 0 1 7.853-2.733.046.046 0 0 0 .036-.055z" class="cls-3" transform="translate(-247.102 -146.135)"/>
                <path id="Tracé_606" d="M336.007 335.786c-2.733-1.257-6.3-1.713-8.992-.246-.109.055 0 .2.073.191a41.438 41.438 0 0 1 8.819.419.191.191 0 0 0 .1-.365z" class="cls-3" transform="translate(-246.104 -144.964)"/>
                <path id="Tracé_607" d="M337.908 337.726c-2.733-1.257-6.3-1.722-8.992-.255-.1.064 0 .21.082.2a41.347 41.347 0 0 1 8.809.41.185.185 0 1 0 .1-.355z" class="cls-3" transform="translate(-246.274 -145.136)"/>
                <path id="Tracé_608" d="M339.817 339.666c-2.733-1.266-6.3-1.722-8.992-.255-.109.055 0 .209.073.2a41.319 41.319 0 0 1 8.809.41.191.191 0 0 0 .109-.355z" class="cls-3" transform="translate(-246.443 -145.309)"/>
                <path id="Tracé_609" d="M341.717 341.606c-2.733-1.266-6.3-1.722-8.992-.255-.1.055 0 .2.082.2a41.347 41.347 0 0 1 8.809.41.185.185 0 1 0 .1-.355z" class="cls-3" transform="translate(-246.613 -145.481)"/>
                <path id="Tracé_610" d="M307.557 329.976c-3.061-1.366-5.193 3.389-2.123 4.765s5.193-3.389 2.123-4.765z" class="cls-3" transform="translate(-244.054 -144.529)"/>
                <path id="Tracé_611" d="M342.722 329.255c-.865-1.767-3.107-1.43-4.491-.629a15.642 15.642 0 0 0-5.6 5.858.073.073 0 0 0 .046.118.364.364 0 0 0 .392.437c2.542-.465 5.32-.656 7.643-1.895 1.364-.719 2.83-2.222 2.01-3.889zm-5.949 4.282c-1.239.264-2.5.465-3.726.774 1.093-1.139 2.141-2.323 3.343-3.352a17.869 17.869 0 0 1 1.822-1.394c1-.629 4.7-1.7 3.644 1.385-.592 1.694-3.6 2.277-5.083 2.587z" class="cls-3" transform="translate(-246.606 -144.372)"/>
                <path id="Tracé_612" d="M324.5 332.387c2.2 1.43 4.956 1.822 7.452 2.542.255.073.437-.182.428-.41a.073.073 0 0 0 .055-.109 15.614 15.614 0 0 0-5.083-6.313c-1.312-.911-3.516-1.448-4.555.237s.408 3.242 1.703 4.053zm-.957-2.3c-.793-3.161 2.806-1.777 3.744-1.057a18.066 18.066 0 0 1 1.694 1.54 46.2 46.2 0 0 1 3.052 3.644c-1.2-.41-2.432-.72-3.644-1.084-1.458-.456-4.409-1.294-4.846-3.043z" class="cls-3" transform="translate(-245.701 -144.307)"/>
                <path id="Tracé_613" d="M308.45 303.552l30.564 13.829s36.44-69.892 37.351-91.292c.811-18.22-11.843-25.235-52.838-13.455l-10.021.128v6.924c4.4.583 16.161 2.432 16.161 2.432 8.554 3.225 11.306 4.555 11.169 4.837-21.299 43.072-32.386 76.597-32.386 76.597z" class="cls-9" transform="translate(-244.456 -133.591)"/>
                <path id="Tracé_614" d="M346.556 220.393c-1.23 1.649-2.378 3.362-3.471 5.111a73.411 73.411 0 0 0-20.844-5.466q-3.015-.373-6.067-.537a.064.064 0 0 0 0 .128 91.444 91.444 0 0 1 21.217 3.972c1.9.583 3.772 1.266 5.648 1.94-1.312 2.1-2.551 4.254-3.735 6.423a127.741 127.741 0 0 0-5.985 12.526c-.984 2.36-1.94 4.737-2.788 7.151 0 .073.091.118.118.046q5.621-12.5 12.244-24.47c1.248-2.25 2.551-4.473 3.772-6.741.035-.065-.065-.138-.109-.083z" class="cls-3" transform="translate(-245.138 -134.718)"/>
                <path id="Tracé_615" d="M340.114 318.944c-1.822-.7-3.517-1.567-5.266-2.35l-5.256-2.36c-3.489-1.567-15.587-6.577-16.589-6.814a.067.067 0 0 0-.046.118c.774.5 8.582 3.972 10.34 4.728 3.535 1.512 7.1 2.915 10.659 4.355 1.02.41 2.041.793 3.061 1.2s2.059.765 3.052 1.212c.064.03.1-.071.045-.089z" class="cls-3" transform="translate(-244.855 -142.543)"/>
                <path id="Tracé_616" d="M346.531 223.992c-2.414 4.555-4.473 9.392-6.568 14.13s-4.118 9.465-6.095 14.23q-5.894 14.248-10.932 28.824c-1.922 5.466-3.717 11.023-5.466 16.571 0 .073.1.109.128 0 3.243-9.812 6.75-19.532 10.422-29.152s7.543-19.186 11.652-28.633q1.731-3.972 3.517-7.935c1.193-2.642 2.432-5.266 3.553-7.935-.001-.164-.156-.255-.211-.1z" class="cls-3" transform="translate(-245.259 -135.111)"/>
                <path id="Tracé_617" d="M293.993 210.59c.692.683 43.227.273 43.437 0 .556-.747-5.812-27.549-10.595-37.716-6.122-13.027-9.356-14.111-11.3-14.84a15.05 15.05 0 0 0-7.953-.064c-1.2.537-6.286 6.632-7.716 11.469-2.866 9.713-6.483 40.55-5.873 41.151z" class="cls-4" transform="translate(-243.163 -129.198)"/>
                <path id="Tracé_618" d="M324.823 161.49c18.776 13.173 35.256 31.776 33.926 37.879-1.4 6.45-13.838 14.029-24.98 15.852-2.278.374-9.921-16.2-7.6-17.054 1.822-.656 10.021-3.289 11-4.464.665-.82-12.827-18.548-17.309-27.895-4.739-9.775-.047-7.844 4.963-4.318z" class="cls-7" transform="translate(-245.297 -129.3)"/>
                <path id="Tracé_619" d="M329.2 201.31s-6.969.911-11.506 1.749c-2.523.465-6.787 1.631-8.491 2.824-2.542 1.776-12.062 10.823-9.912 13.182 1.94 2.132 4.646-1.43 4.646-1.43s-3.325 3.644-.747 5.129 5.676-3.444 5.676-3.444-3.8 3.589-.911 4.956c2.514 1.184 6.687-4.172 6.687-4.172s-4.4 3.334-1.94 4.8c2.733 1.622 10.021-5.621 10.021-5.621a33 33 0 0 0 13.856-1.376c.745-.244-7.379-16.597-7.379-16.597z" class="cls-7" transform="translate(-243.613 -133.099)"/>
                <path id="Tracé_620" d="M308.65 221.7l.793-1.13a23.232 23.232 0 0 1 1.6-2.159c.574-.656 1.175-1.285 1.822-1.9s1.385-1.23 2.022-1.895a.055.055 0 1 1 .073.073 25.683 25.683 0 0 0-1.822 2.05l-1.7 2.068c-.556.683-1.148 1.312-1.722 1.977-.282.328-.556.674-.82 1.011a8.038 8.038 0 0 1-.793.957l-.064-.046a6.317 6.317 0 0 1 .611-1.006z" class="cls-3" transform="translate(-244.42 -134.281)"/>
                <path id="Tracé_621" d="M303.679 219.332a34.914 34.914 0 0 1 2.888-4.063 24.928 24.928 0 0 1 3.58-3.489.055.055 0 0 1 .073.073c-1.075 1.285-2.168 2.551-3.252 3.808-.538.62-2.87 3.507-3.152 3.781-.073.058-.173-.042-.137-.11z" class="cls-3" transform="translate(-244.031 -134.031)"/>
                <path id="Tracé_622" d="M313.389 224.048a35.537 35.537 0 0 1 2.788-3.772 31.191 31.191 0 0 1 3.644-3.1.055.055 0 0 1 .073.073c-1.139 1.121-2.3 2.214-3.371 3.4-.528.574-2.5 2.979-3.052 3.48-.027.047-.109-.017-.082-.081z" class="cls-3" transform="translate(-244.895 -134.511)"/>
                <path id="Tracé_623" d="M345.69 177.754l-13.665 9.5s-10.877-15.7-13.811-23.2.2-7.625 7.707-2.359 19.769 16.059 19.769 16.059z" class="cls-4" transform="translate(-245.228 -129.248)"/>
                <path id="Tracé_624" d="M343.813 177.591a114.373 114.373 0 0 1-11.369 8.2c-.046 0-.1-.046-.046-.082 1.039-.674 6.6-5.047 11.36-8.2.055-.046.118.036.055.082z" class="cls-3" transform="translate(-246.585 -130.98)"/>
                <path id="Tracé_625" d="M333.371 187.907a6.565 6.565 0 0 0-.829.465c-1.64-2.624-3.4-5.284-5.065-7.9-.811-1.275-1.631-2.551-2.441-3.835s-1.622-2.733-2.542-4.018h-.064a42.331 42.331 0 0 0 2.032 3.735 6.7 6.7 0 0 0-.456-.556c-.355-.4-.7-.8-1.029-1.221-.055-.073-.164 0-.109.064.31.41.592.829.865 1.257a14.515 14.515 0 0 0 .911 1.248c.328.41.61.765.911 1.139l.118.137c.446.765.911 1.53 1.357 2.287 1.64 2.642 5.348 7.953 5.393 7.935a7.659 7.659 0 0 0 .984-.7s.01-.044-.036-.037z" class="cls-3" transform="translate(-245.7 -130.546)"/>
                <path id="Tracé_626" d="M297.232 161.688c-14.631 8.2-28.241 18.074-30.7 24.688-1.512 4.163.765 11.542 2.569 15.97.911 2.15 21.181-7.006 19.414-8.755-4.373-4.336-5.111-6.113-4.683-7.033.264-.583 16.088-15.25 20.443-21.764 6.076-9.083-.647-6.687-7.043-3.106z" class="cls-7" transform="translate(-240.682 -129.288)"/>
                <path id="Tracé_627" d="M297.157 216.434c-1.913 1.157-4.355-3.79-4.355-3.79a4.109 4.109 0 0 1-1.066 2.587c-1.193 1.193-3.6-.155-3.6-.155a5.1 5.1 0 0 1-1.558 2.551c-1.266 1.029-3.881 0-3.881 0a4.491 4.491 0 0 1-2.786 1.373c-2.851.182-5.393-3.362-7.033-5.6s-4.191-10.112-4.828-11.57l14.266-10.641s10.2 7.935 11.752 10.841c1.267 2.47 5.967 12.67 3.089 14.404z" class="cls-7" transform="translate(-240.861 -132.199)"/>
                <path id="Tracé_628" d="M294.845 213.845a37.081 37.081 0 0 0-3.644-8.317c0-.055-.118 0-.091.055 1.467 2.605 2.277 5.657 3.644 8.317a.073.073 0 0 0 .091-.055z" class="cls-3" transform="translate(-242.912 -133.473)"/>
                <path id="Tracé_629" d="M289.755 216.5a7.624 7.624 0 0 0-.957-1.822c-.383-.629-.783-1.239-1.184-1.822q-1.212-1.822-2.523-3.644c0-.055-.128 0-.091 0 .811 1.221 1.594 2.451 2.35 3.708.374.629.747 1.257 1.111 1.886a10.021 10.021 0 0 0 1.121 1.749.1.1 0 0 0 .173-.055z" class="cls-3" transform="translate(-242.368 -133.8)"/>
                <path id="Tracé_630" d="M283.621 219.522a5.467 5.467 0 0 0-.957-1.6l-1.13-1.658c-.747-1.1-1.494-2.214-2.2-3.343 0-.064-.128 0-.091.046.711 1.157 1.412 2.323 2.141 3.471.355.565.711 1.13 1.075 1.685a5.214 5.214 0 0 0 1.111 1.439z" class="cls-3" transform="translate(-241.856 -134.13)"/>
                <path id="Tracé_631" d="M277.1 173.945l11.242 10.322s13.911-13.146 17.819-20.2.829-7.58-7.288-3.38-21.773 13.258-21.773 13.258z" class="cls-4" transform="translate(-241.666 -129.248)"/>
                <path id="Tracé_632" d="M277.1 173.945l11.242 10.322s13.911-13.146 17.819-20.2.829-7.58-7.288-3.38-21.773 13.258-21.773 13.258z" class="cls-4" transform="translate(-241.666 -129.248)"/>
                <path id="Tracé_633" d="M290.859 182.778a106.7 106.7 0 0 1-9.921-9.265c-.046 0 0-.1.064-.055.838.856 6.031 5.32 9.93 9.247.082.046-.032.11-.073.073z" class="cls-3" transform="translate(-242.006 -130.62)"/>
                <path id="Tracé_634" d="M301.607 167.747c-.51 1.184-1.02 2.369-1.439 3.589a2.2 2.2 0 0 0 0-.246 16.532 16.532 0 0 1 .264-2.2c0-.082-.109-.109-.119 0-.146.729-.273 1.467-.364 2.214-.046.355-.064.711-.082 1.066v.128c-.474 1.622-.756 3.271-1.157 4.9 0 .082.109.109.128 0 .392-1.6.984-3.161 1.494-4.728s.911-3.161 1.394-4.728c-.019-.013-.092-.05-.119.005z" class="cls-3" transform="translate(-243.589 -130.11)"/>
                <path id="Tracé_635" d="M309.985 164.5c2.414.583 6.577-3.1 8.2-6.076.109-.209-.191-2.369-.437-5.02-.146-1.6-.264-3.4-.264-5.038 0-.337-10.313 2.46-10.313 2.46a26.343 26.343 0 0 1 .966 6.313 3.187 3.187 0 0 1-.073.674.664.664 0 0 1 0 .109c-.202 1.286-.411 6.014 1.921 6.578z" class="cls-7" transform="translate(-244.342 -128.385)"/>
                <path id="Tracé_636" d="M316.883 148.41c-.492 2.779-2.25 9.484-7.753 9.584a5.46 5.46 0 0 1-1.048-.064v-.109a4.011 4.011 0 0 0 .082-.674 26.14 26.14 0 0 0-.975-6.313s7.453-2.023 9.694-2.424z" class="cls-3" transform="translate(-244.344 -128.391)"/>
                <path id="Tracé_637" d="M316.378 133c1.822 3.362 2 14.093-.091 16.908-3.024 4.09-9.01 5.621-12.754 1.749s-3.644-17.737-1.184-20.406c3.589-3.933 11.369-3.186 14.029 1.749z" class="cls-7" transform="translate(-243.757 -126.64)"/>
                <path id="Tracé_639" d="M309 143.94a.057.057 0 0 1 .055.064c0 .729.109 1.558.765 1.822-.82-.091-.961-1.194-.82-1.886z" class="cls-3" transform="translate(-244.5 -127.994)"/>
                <path id="Tracé_640" d="M309.606 143.1c1.157-.109 1.3 2.214.228 2.323s-1.203-2.223-.228-2.323z" class="cls-3" transform="translate(-244.5 -127.919)"/>
                <path id="Tracé_641" d="M304.485 144.24a.057.057 0 0 0-.055.064c.073.72 0 1.558-.61 1.822.793-.11.838-1.194.665-1.886z" class="cls-3" transform="translate(-244.044 -128.02)"/>
                <path id="Tracé_642" d="M303.707 143.45c-1.166 0-1.111 2.323 0 2.332s.974-2.314 0-2.332z" class="cls-3" transform="translate(-243.958 -127.95)"/>
                <path id="Tracé_643" d="M310.53 140.862a8.293 8.293 0 0 1-.956-.1 1.54 1.54 0 0 1-.957-.282.51.51 0 0 1-.064-.6 1.23 1.23 0 0 1 1.175-.41 1.822 1.822 0 0 1 1.184.51.528.528 0 0 1-.383.884z" class="cls-3" transform="translate(-244.459 -127.594)"/>
                <path id="Tracé_644" d="M302.435 141.5a7.626 7.626 0 0 0 .911-.3 1.512 1.512 0 0 0 .911-.474.492.492 0 0 0-.064-.6 1.212 1.212 0 0 0-1.3-.137 1.822 1.822 0 0 0-1.057.756.528.528 0 0 0 .6.756z" class="cls-3" transform="translate(-243.862 -127.63)"/>
                <path id="Tracé_645" d="M310.615 151.219c-.164.182-.319.428-.583.465a1.95 1.95 0 0 1-.784-.137.966.966 0 0 0 .911.337.765.765 0 0 0 .528-.674.074.074 0 0 0-.072.009z" class="cls-3" transform="translate(-244.525 -128.64)"/>
                <path id="Tracé_646" d="M309.356 148.158a2.45 2.45 0 0 1-1.567 1.193 3.556 3.556 0 0 1-.911.1h-.328a.182.182 0 0 1-.155-.155v-.137c-.055-.556-.046-1.4-.046-1.4-.2.109-1.2.638-1.212.346a37.608 37.608 0 0 1 .5-7.488.073.073 0 0 1 .137 0c.091 2.323-.219 4.637-.164 6.969a4.638 4.638 0 0 1 1.139-.428 14.351 14.351 0 0 1 0 1.886 3.443 3.443 0 0 0 2.5-.911c.089-.075.151-.033.107.025z" class="cls-3" transform="translate(-244.159 -127.694)"/>
                <path id="Tracé_647" d="M307.42 149.9a2.96 2.96 0 0 0 1.221.838 1.339 1.339 0 0 0 .8 0c.565-.191.547-.72.419-1.166a3.2 3.2 0 0 0-.3-.674 3.771 3.771 0 0 1-2.14 1.002z" class="cls-3" transform="translate(-244.364 -128.435)"/>
                <path id="Tracé_648" fill="#ff98b9" d="M308.76 150.786a1.339 1.339 0 0 0 .8 0c.565-.191.547-.72.419-1.166a1.367 1.367 0 0 0-1.219 1.166z" transform="translate(-244.484 -128.499)"/>
                <path id="Tracé_649" d="M301.425 135.85c3.8 1.986 8.2-2.223 8.2-2.223a3.844 3.844 0 0 0 4.163 1.959s1.394 5.867 2.952 5.666c2.387-.3 2.168-8.491 1.23-10.021a4.318 4.318 0 0 0-3.015-1.676 3.972 3.972 0 0 0-1.9-2.168c-1.822-1.057-7.206 1.294-7.206 1.294a5.265 5.265 0 0 0-1.676-1.822 1.494 1.494 0 0 0-2.1.446 3.389 3.389 0 0 1 .747 1.4c.492 1.7-.911 1.868-1.1.292a2.46 2.46 0 0 1 .355-1.694c-.82-.911-2-1.148-2.633-.51-1.187 1.223-1.169 7.445 1.983 9.057z" class="cls-3" transform="translate(-243.59 -126.436)"/>
                <path id="Tracé_650" d="M303 147.17c-1.084.073-2.059-1.193-2.168-2.824s.665-3.034 1.749-3.107 2.05 1.193 2.168 2.824-.668 3.025-1.749 3.107zm-.392-5.53c-.865.055-1.485 1.257-1.385 2.678s.911 2.514 1.749 2.451 1.485-1.257 1.376-2.678-.886-2.514-1.743-2.45z" class="cls-4" transform="translate(-243.777 -127.753)"/>
                <path id="Tracé_651" d="M310.169 146.651a2.979 2.979 0 1 1 2.56-3.161 2.888 2.888 0 0 1-2.56 3.161zm-.392-5.539a2.587 2.587 0 1 0 2.56 2.405 2.5 2.5 0 0 0-2.56-2.405z" class="cls-4" transform="translate(-244.307 -127.707)"/>
                <path id="Tracé_652" d="M307.122 143.836c-1.521-.419-2.159.118-2.159.118l-.273-.292a2.764 2.764 0 0 1 2.533-.21z" class="cls-4" transform="translate(-244.121 -127.935)"/>
                <path id="Tracé_653" d="M313.06 143.286l-.1-.392c.255-.064 6.222-1.613 6.878-1.694a7.132 7.132 0 0 1 2.56.793l-.164.355a7.652 7.652 0 0 0-2.314-.756c-.547.064-4.72 1.139-6.86 1.694z" class="cls-4" transform="translate(-244.857 -127.75)"/>
                <path id="Tracé_654" d="M317.339 142.84s1.74-3.781 3.416-3.216.783 5.748-.911 6.741a1.822 1.822 0 0 1-2.615-.547z" class="cls-7" transform="translate(-245.237 -127.604)"/>
                <path id="Tracé_655" d="M320.56 141.26v.046a4.646 4.646 0 0 0-1.822 3.3 1.02 1.02 0 0 1 1.458-.537v.073a1.13 1.13 0 0 0-1.157.61 5.392 5.392 0 0 0-.419 1.1c0 .118-.246.1-.228 0-.365-1.668.483-4.127 2.168-4.592z" class="cls-3" transform="translate(-245.333 -127.755)"/>
                <path id="Tracé_656" d="M319.474 160.129a48.27 48.27 0 0 1-3.462 4.109 7.917 7.917 0 0 1-4.318 2.5c-1.622.219-3.261 0-3.945-2.022a11.843 11.843 0 0 1-.337-5.229c0-.091-.118-.109-.128 0-.264 2.633-.483 6.687 1.931 7.488 2.733.911 5.238-.574 7.024-2.487a24.88 24.88 0 0 0 3.289-4.3s-.028-.088-.054-.059z" class="cls-3" transform="translate(-244.339 -129.37)"/>
                <path id="Rectangle_144" d="M0 0H48.875V2.196H0z" class="cls-3" transform="translate(42.531 90.193)"/>
                <path id="Tracé_657" d="M319.729 224.68h-47.636l-3.963-32.35h47.627z" class="cls-3" transform="translate(-240.868 -132.3)"/>
                <path id="Tracé_658" d="M299.063 209.806a2.833 2.833 0 0 1-2.852 2.9 2.97 2.97 0 0 1-2.952-2.9 2.842 2.842 0 0 1 2.852-2.906 2.97 2.97 0 0 1 2.952 2.906z" class="cls-2" transform="translate(-243.104 -133.597)"/>
            </g>
            <g id="freepik--Calendar--inject-5" transform="translate(19.365 260.063)">
                <path id="Tracé_659" d="M270.063 437.733H94.34L63.63 310.22h175.723z" class="cls-8" transform="translate(-32.41 -304.16)"/>
                <path id="Tracé_660" fill="#dbdbdb" d="M29.36 437.733h175.723l30.71-127.513H60.07z" transform="translate(-29.36 -304.16)"/>
                <path id="Tracé_661" d="M213.334 336.52l-3.917 16.289-.237 1-4.054 16.917-.237 1-4.054 16.9-.246 1-4.063 16.908-.237 1.011-3.972 16.562H63.31l3.972-16.562.237-1.011 4.063-16.908.246-1 4.054-16.9.246-1 4.054-16.917.237-1 3.917-16.289z" class="cls-2" transform="translate(-32.381 -306.5)"/>
                <path id="Tracé_662" d="M104.976 336.52l-3.917 16.289-.237 1-4.054 16.917-.237 1-4.054 16.9-.246 1-4.054 16.914-.246 1.011-3.972 16.562H82.93l3.981-16.562.237-1.011 4.052-16.908.246-1 4.045-16.9.246-1 4.063-16.921.237-1 3.9-16.289z" class="cls-1" transform="translate(-34.128 -306.5)"/>
                <path id="Tracé_663" d="M125.146 336.52l-3.917 16.289-.237 1-4.054 16.917-.237 1-4.054 16.9-.246 1-4.054 16.908-.246 1.011-3.972 16.562H103.1l3.981-16.562.237-1.011 4.054-16.908.246-1 4.045-16.9.246-1 4.063-16.917.237-1 3.9-16.289z" class="cls-1" transform="translate(-35.923 -306.5)"/>
                <path id="Tracé_664" d="M145.326 336.52l-3.908 16.289-.246 1-4.054 16.917-.237 1-4.054 16.9-.237 1-4.063 16.908-.246 1.011-3.972 16.562h-1.029l3.981-16.562.246-1.011 4.045-16.908.246-1 4.054-16.9.237-1 4.063-16.917.237-1 3.911-16.289z" class="cls-1" transform="translate(-37.719 -306.5)"/>
                <path id="Tracé_665" d="M165.5 336.52l-3.908 16.289-.246 1-4.054 16.917-.237 1L153 388.629l-.237 1-4.063 16.911-.246 1.011-3.972 16.562h-1.032l3.981-16.562.246-1.011 4.045-16.908.246-1 4.054-16.9.237-1 4.063-16.917.237-1 3.908-16.289z" class="cls-1" transform="translate(-39.514 -306.5)"/>
                <path id="Tracé_666" d="M185.676 336.52l-3.908 16.289-.246 1-4.045 16.917-.246 1-4.054 16.9-.237 1-4.063 16.908-.237 1.011-3.972 16.562h-1.038l3.981-16.562.246-1.011 4.054-16.908.237-1 4.054-16.9.237-1 4.063-16.917.237-1 3.908-16.289z" class="cls-1" transform="translate(-41.31 -306.5)"/>
                <path id="Tracé_667" d="M205.846 336.52l-3.908 16.289-.246 1-4.045 16.917-.246 1-4.054 16.9-.237 1-4.063 16.908-.237 1.011-3.972 16.562H183.8l3.981-16.562.246-1.011 4.054-16.908.237-1 4.054-16.9.237-1 4.063-16.917.246-1 3.9-16.289z" class="cls-1" transform="translate(-43.105 -306.5)"/>
                <path id="Tracé_668" d="M211.065 354.4l-.237 1h-129l.237-1z" class="cls-1" transform="translate(-34.03 -308.092)"/>
                <path id="Tracé_669" d="M206.354 374.07l-.237 1H77.11l.246-1z" class="cls-1" transform="translate(-33.61 -309.842)"/>
                <path id="Tracé_670" d="M201.643 393.72l-.246 1H72.39l.246-1z" class="cls-1" transform="translate(-33.19 -311.591)"/>
                <path id="Tracé_671" d="M196.914 413.38l-.237 1.011H67.67l.237-1.011z" class="cls-1" transform="translate(-32.769 -313.341)"/>
                <path id="Rectangle_145" d="M0 0H2.487V17.874H0z" class="cls-6" transform="rotate(-38.92 126.468 -54.406)"/>
                <path id="Rectangle_146" d="M0 0H21.026V2.487H0z" class="cls-6" transform="rotate(-42.35 133.05 -37.635)"/>
                <path id="Rectangle_147" d="M0 0H2.487V17.874H0z" class="cls-6" transform="rotate(-38.92 122.206 -120.85)"/>
                <path id="Rectangle_148" d="M0 0H21.026V2.487H0z" class="cls-6" transform="rotate(-42.35 130.955 -98.989)"/>
                <path id="Tracé_672" d="M87.636 372.03l-4.746-8.3 2.159-1.239 2.97 5.193 10.823-13.054 1.913 1.585z" class="cls-4" transform="translate(-34.124 -308.112)"/>
                <path id="Tracé_673" d="M112.846 429.93l-4.746-8.3 2.159-1.239 2.961 5.193 10.823-13.055 1.913 1.585z" class="cls-4" transform="translate(-36.368 -313.265)"/>
                <path id="Tracé_674" d="M183.929 376a29.292 29.292 0 0 0-6.3 4.664c-1.822 1.822-3.416 4.036-3.644 6.523a4.291 4.291 0 0 0 .838 3.307 6.049 6.049 0 0 0 3.107 1.722 16.4 16.4 0 0 0 7.543-.191 16.716 16.716 0 0 0 6.842-3.2 9.373 9.373 0 0 0 2.378-2.842 5.94 5.94 0 0 0 .738-3.462 4.418 4.418 0 0 0-1.9-2.915 9.647 9.647 0 0 0-3.471-1.5 16.179 16.179 0 0 0-7.753.082 15.487 15.487 0 0 1 7.889-.729 10.266 10.266 0 0 1 3.826 1.448 5.466 5.466 0 0 1 2.441 3.435 6.614 6.614 0 0 1-.747 4.172 10.552 10.552 0 0 1-2.615 3.243 18.539 18.539 0 0 1-15.487 3.644 7.133 7.133 0 0 1-3.644-2.141 4.428 4.428 0 0 1-.911-2.013 7.033 7.033 0 0 1 0-2.141 11.809 11.809 0 0 1 4.2-6.86 26.8 26.8 0 0 1 6.67-4.246z" class="cls-4" transform="translate(-42.141 -310.014)"/>
                <path id="Tracé_675" d="M101.362 341.336H87.66l.383-1.676h13.7z" class="cls-6" transform="translate(-34.549 -306.78)"/>
                <path id="Tracé_676" d="M94.993 344.477H86.94l.383-1.667h8.053z" class="cls-6" transform="translate(-34.484 -307.06)"/>
                <path id="Tracé_677" d="M163.016 399.117h-8.336l.383-1.667h8.337z" class="cls-6" transform="translate(-40.513 -311.923)"/>
                <path id="Tracé_678" d="M161.566 405.527h-8.336l.383-1.667h8.345z" class="cls-6" transform="translate(-40.384 -312.493)"/>
                <path id="Tracé_679" d="M167.023 402.266H153.95l.392-1.676h13.064z" class="cls-6" transform="translate(-40.448 -312.202)"/>
                <path id="Tracé_680" d="M186.716 384.986h-8.336l.383-1.676h8.345z" class="cls-6" transform="translate(-42.622 -310.665)"/>
                <path id="Tracé_681" d="M190.723 388.127H177.65l.392-1.667h13.064z" class="cls-6" transform="translate(-42.557 -310.945)"/>
                <path id="Tracé_682" d="M64.615 349.9l8.044-6.013a4.892 4.892 0 0 0 1.822-2.733 3.061 3.061 0 0 0-.392-2.441 2.842 2.842 0 0 0-2.432-1.2 4.554 4.554 0 0 0-2.733.911l-.838.629a.465.465 0 0 1-.692 0 .5.5 0 0 1 .182-.692l.838-.656a5.939 5.939 0 0 1 3.434-1.2 3.535 3.535 0 0 1 3.116 1.549 3.835 3.835 0 0 1 .5 3.116 6.222 6.222 0 0 1-2.323 3.462l-6.887 5.147h6.732a.392.392 0 0 1 .374.51.665.665 0 0 1-.6.492h-8.008a.364.364 0 0 1-.328-.146.565.565 0 0 1 .191-.729z" class="cls-8" transform="translate(-32.475 -306.498)"/>
                <path id="Tracé_683" d="M60.242 370.484a11.488 11.488 0 0 1 2.487-4.983 5.83 5.83 0 0 1 4.063-2.141 3.325 3.325 0 0 1 3.061 2.141 8.2 8.2 0 0 1 .237 4.983 11.433 11.433 0 0 1-2.533 4.965 5.794 5.794 0 0 1-4.036 2.159 3.316 3.316 0 0 1-3.061-2.159 8.081 8.081 0 0 1-.219-4.965zm1 0a7.288 7.288 0 0 0 .173 4.418 2.578 2.578 0 0 0 2.341 1.713 4.555 4.555 0 0 0 3.116-1.74 10.212 10.212 0 0 0 2.232-4.391 7.288 7.288 0 0 0-.21-4.418 2.514 2.514 0 0 0-2.332-1.713 4.41 4.41 0 0 0-3.125 1.713 10.167 10.167 0 0 0-2.193 4.418z" class="cls-8" transform="translate(-32.083 -308.889)"/>
                <path id="Tracé_684" d="M52.226 403.571l8.044-6.013a4.892 4.892 0 0 0 1.822-2.733 3.061 3.061 0 0 0-.392-2.441 2.851 2.851 0 0 0-2.414-1.193 4.555 4.555 0 0 0-2.733.911l-.838.629a.465.465 0 0 1-.692 0 .5.5 0 0 1 .182-.692l.838-.656a5.94 5.94 0 0 1 3.434-1.2 3.535 3.535 0 0 1 3.07 1.53 3.835 3.835 0 0 1 .5 3.116 6.222 6.222 0 0 1-2.323 3.462l-6.9 5.147h6.746a.392.392 0 0 1 .374.51.665.665 0 0 1-.6.492h-7.98a.364.364 0 0 1-.328-.146.565.565 0 0 1 .19-.723z" class="cls-8" transform="translate(-31.373 -311.276)"/>
                <path id="Tracé_685" d="M47.852 424.151a11.488 11.488 0 0 1 2.514-4.983A5.831 5.831 0 0 1 54.43 417a3.325 3.325 0 0 1 3.061 2.141 8.272 8.272 0 0 1 .237 4.983 11.533 11.533 0 0 1-2.533 4.965 5.794 5.794 0 0 1-4.063 2.159 3.307 3.307 0 0 1-3.061-2.159 8.081 8.081 0 0 1-.219-4.938zm1 0a7.288 7.288 0 0 0 .173 4.418 2.6 2.6 0 0 0 2.341 1.713 4.555 4.555 0 0 0 3.116-1.713 10.1 10.1 0 0 0 2.241-4.418 7.179 7.179 0 0 0-.2-4.418 2.514 2.514 0 0 0-2.332-1.713 4.409 4.409 0 0 0-3.125 1.713 10.166 10.166 0 0 0-2.2 4.418z" class="cls-8" transform="translate(-30.98 -313.663)"/>
                <path id="Tracé_686" d="M225.457 332.73s-3.9 16.9-5.548 24.06-8.445 11.715-8.445 11.715H174.25s6.623-7.88 7.971-13.729l5.093-22.046z" class="cls-4" transform="translate(-42.255 -306.163)"/>
                <path id="Tracé_687" d="M194.015 346.2l-1.95 2.05a.219.219 0 0 1-.146.073.119.119 0 0 1-.118-.073l-1-2.041-.911 3.781a.21.21 0 0 1-.191.155.119.119 0 0 1-.128-.155l.984-4.264a.192.192 0 0 1 .091-.128.146.146 0 0 1 .21 0l1.121 2.268 2.15-2.268a.182.182 0 0 1 .237 0 .119.119 0 0 1 0 .055.246.246 0 0 1 0 .082l-.987 4.265a.209.209 0 0 1-.191.155.118.118 0 0 1-.118-.155z" transform="translate(-43.618 -307.304)"/>
                <path id="Tracé_688" d="M196.312 345.695a.219.219 0 0 1 .2-.155h2.369a.119.119 0 0 1 .118.155.21.21 0 0 1-.2.164h-2.2l-.419 1.822h1.931a.128.128 0 0 1 .118.164.21.21 0 0 1-.191.164H196.1l-.419 1.822h2.2a.118.118 0 0 1 .118.164.2.2 0 0 1-.191.155h-2.387a.118.118 0 0 1-.109-.155z" transform="translate(-44.129 -307.303)"/>
                <path id="Tracé_689" d="M200.6 345.695a.209.209 0 0 1 .191-.155h2.369a.127.127 0 0 1 .128.155.218.218 0 0 1-.2.164h-2.214l-.419 1.822h1.931a.127.127 0 0 1 .118.164.209.209 0 0 1-.2.164h-1.922l-.419 1.822h2.2c.091 0 .137.073.118.164a.209.209 0 0 1-.2.155h-2.378a.118.118 0 0 1-.109-.155z" transform="translate(-44.51 -307.303)"/>
                <path id="Tracé_690" d="M206.1 345.859h-1.385a.128.128 0 0 1-.128-.164.228.228 0 0 1 .2-.155h3.088a.128.128 0 0 1 .128.155.219.219 0 0 1-.2.164h-1.385l-.911 4.127a.209.209 0 0 1-.191.155.127.127 0 0 1-.128-.155z" transform="translate(-44.954 -307.303)"/>
                <path id="Tracé_691" d="M209.623 345.695a.209.209 0 0 1 .191-.155.127.127 0 0 1 .128.155l-.975 4.291a.228.228 0 0 1-.21.155.118.118 0 0 1-.118-.155z" transform="translate(-45.315 -307.303)"/>
                <path id="Tracé_692" d="M211.99 346.215l-.911 3.772a.209.209 0 0 1-.191.155.118.118 0 0 1-.118-.155l.975-4.227a.182.182 0 0 1 .1-.173h.21l1.9 3.872.865-3.753a.209.209 0 0 1 .191-.155.127.127 0 0 1 .128.155l-.984 4.245a.218.218 0 0 1-.2.155.127.127 0 0 1-.109-.055z" transform="translate(-45.504 -307.304)"/>
                <path id="Tracé_693" d="M218.612 348.064a.118.118 0 0 1-.128-.155.209.209 0 0 1 .21-.164h1.439a.118.118 0 0 1 .1.164l-.364 1.576a.237.237 0 0 1-.091.118 2.924 2.924 0 0 1-1.6.5 1.822 1.822 0 0 1-1.822-2.341 3.134 3.134 0 0 1 2.933-2.323 1.9 1.9 0 0 1 1.366.519.155.155 0 0 1 0 .219.182.182 0 0 1-.237 0 1.649 1.649 0 0 0-1.184-.446 2.733 2.733 0 0 0-2.533 2 1.576 1.576 0 0 0 1.6 2.022 2.561 2.561 0 0 0 1.312-.392l.31-1.357z" transform="translate(-45.995 -307.294)"/>
                <path id="Tracé_694" d="M187.587 354.674l-.738.383a.173.173 0 0 1-.091 0 .118.118 0 0 1-.118-.073.173.173 0 0 1 .109-.219l1.011-.547a.155.155 0 0 1 .21.064.183.183 0 0 1 0 .118l-1 4.254a.219.219 0 0 1-.2.164.128.128 0 0 1-.118-.164z" transform="translate(-43.357 -308.074)"/>
                <path id="Tracé_695" d="M192.035 354.5l-1.476 1.221a1.185 1.185 0 0 1 .692.428 1.321 1.321 0 0 1 .2 1.1 2.123 2.123 0 0 1-1.931 1.567 1.221 1.221 0 0 1-.993-.465c-.055-.055 0-.164.055-.228a.155.155 0 0 1 .228 0 .984.984 0 0 0 .793.355 1.576 1.576 0 0 0 .911-.355 1.6 1.6 0 0 0 .565-.911.993.993 0 0 0-.164-.865.911.911 0 0 0-.783-.364.146.146 0 0 1-.118-.064.182.182 0 0 1 .055-.237l1.421-1.184h-1.767a.127.127 0 0 1-.128-.164.228.228 0 0 1 .21-.164h2.15a.127.127 0 0 1 .128.164.183.183 0 0 1 0 .073z" transform="translate(-43.523 -308.071)"/>
                <path id="Tracé_696" d="M194.774 355.752a.228.228 0 0 1-.191.164h-.419l-.537 2.341a.191.191 0 0 0 .182.237.137.137 0 0 1 .128.164.246.246 0 0 1-.2.164.428.428 0 0 1-.437-.565l.538-2.341h-.4c-.155 0-.137-.082-.118-.164a.164.164 0 0 1 .191-.155h.428l.282-1.2a.228.228 0 0 1 .191-.155.137.137 0 0 1 .137.155l-.282 1.2h.419a.127.127 0 0 1 .091.155z" transform="translate(-43.948 -308.077)"/>
                <path id="Tracé_697" d="M198.487 356.853a.738.738 0 0 0-.8-.911 1.266 1.266 0 0 0-1.239.911l-.419 1.822a.164.164 0 0 1-.118.082.118.118 0 0 1-.109-.055.127.127 0 0 1 0-.055.136.136 0 0 1 0-.055l.41-1.822v-.055l.556-2.442a.228.228 0 0 1 .2-.155.127.127 0 0 1 .127.155l-.392 1.7a1.685 1.685 0 0 1 1.13-.474.993.993 0 0 1 1.057 1.266l-.419 1.822a.209.209 0 0 1-.2.164.127.127 0 0 1-.118-.164z" transform="translate(-44.172 -308.067)"/>
                <path id="Tracé_698" d="M200.469 356.738a.155.155 0 0 1 .155-.118h1.4a.1.1 0 0 1 .1.118.173.173 0 0 1-.155.137h-1.4a.1.1 0 0 1-.1-.137z" transform="translate(-44.588 -308.289)"/>
                <path id="Tracé_699" d="M204.327 354.674l-.738.383a.173.173 0 0 1-.091 0 .118.118 0 0 1-.118-.073.173.173 0 0 1 .109-.219l1.011-.547a.155.155 0 0 1 .21.064.263.263 0 0 1 0 .118l-.975 4.227a.219.219 0 0 1-.2.164.128.128 0 0 1-.118-.164z" transform="translate(-44.846 -308.074)"/>
                <path id="Tracé_700" d="M205.609 356.515a3.8 3.8 0 0 1 .811-1.612 1.9 1.9 0 0 1 1.312-.692 1.066 1.066 0 0 1 .957.72 2.733 2.733 0 0 1 .082 1.612 3.726 3.726 0 0 1-.82 1.6 1.877 1.877 0 0 1-1.312.7 1.057 1.057 0 0 1-.993-.7 2.66 2.66 0 0 1-.037-1.628zm.328 0a2.314 2.314 0 0 0 .055 1.43.829.829 0 0 0 .756.547 1.485 1.485 0 0 0 1.011-.547 3.27 3.27 0 0 0 .72-1.43 2.305 2.305 0 0 0-.064-1.43.811.811 0 0 0-.756-.547 1.421 1.421 0 0 0-1.011.547 3.253 3.253 0 0 0-.692 1.43z" transform="translate(-45.036 -308.075)"/>
                <path id="Tracé_701" d="M213.221 357.669h-2.1l-.665 1.084a.219.219 0 0 1-.173.109h-.055a.137.137 0 0 1-.045-.21l2.587-4.273a.237.237 0 0 1 .182-.1c.064 0 .128 0 .128.1l.619 4.273a.228.228 0 0 1-.137.21h-.062a.146.146 0 0 1-.128-.109zm-1.9-.319h1.822l-.355-2.478z" transform="translate(-45.45 -308.081)"/>
                <path id="Tracé_702" d="M219.568 354.869l-1.94 2.05a.2.2 0 0 1-.155.073c-.064 0-.1 0-.118-.073l-1.011-2.041-.865 3.781a.219.219 0 0 1-.2.164.128.128 0 0 1-.128-.164l.984-4.263a.256.256 0 0 1 .1-.119.155.155 0 0 1 .219.045l1.111 2.268 2.159-2.268a.173.173 0 0 1 .228-.045.193.193 0 0 1 0 .055.128.128 0 0 1 0 .082l-.984 4.263a.209.209 0 0 1-.191.164.128.128 0 0 1-.128-.164z" transform="translate(-45.894 -308.078)"/>
                <path id="Tracé_703" d="M68.627 318.342a4.628 4.628 0 0 1-3.389-1.622c-.911-1.048-2.2-3.453-.911-7.816 1.212-4 4.118-5.648 6.377-5.22 1.731.328 3.644 2.086 3.307 5.958a1.075 1.075 0 0 1-1.184 1 1.112 1.112 0 0 1-1-1.193c.173-2.013-.419-3.4-1.53-3.644-1.257-.237-3.043.975-3.863 3.7-.747 2.487-.592 4.555.446 5.748a2.3 2.3 0 0 0 1.868.911 1.1 1.1 0 1 1 .3 2.177 3.678 3.678 0 0 1-.419 0z" class="cls-8" transform="translate(-32.424 -303.572)"/>
                <path id="Tracé_704" d="M83.523 318.342a4.61 4.61 0 0 1-3.423-1.622c-.911-1.048-2.2-3.453-.911-7.816 1.2-4 4.118-5.648 6.377-5.22 1.731.328 3.644 2.086 3.307 5.958a1.084 1.084 0 0 1-1.184 1 1.111 1.111 0 0 1-.975-1.212c.173-2.013-.419-3.4-1.53-3.644-1.266-.237-3.043.975-3.863 3.7-.756 2.487-.592 4.555.446 5.748a2.3 2.3 0 0 0 1.868.911 1.1 1.1 0 1 1 .3 2.177 3.693 3.693 0 0 1-.41.018z" class="cls-8" transform="translate(-33.746 -303.572)"/>
                <path id="Tracé_705" d="M98.338 318.342a4.61 4.61 0 0 1-3.38-1.622c-.911-1.048-2.2-3.453-.911-7.816 1.2-4 4.118-5.648 6.377-5.22 1.731.328 3.644 2.086 3.307 5.958a1.084 1.084 0 0 1-1.184 1 1.1 1.1 0 0 1-1-1.193c.173-2.013-.419-3.4-1.54-3.644s-3.034.975-3.854 3.7c-.756 2.487-.592 4.555.446 5.748a2.3 2.3 0 0 0 1.822.911 1.1 1.1 0 1 1 .3 2.177 3.721 3.721 0 0 1-.383 0z" class="cls-8" transform="translate(-35.069 -303.572)"/>
                <path id="Tracé_706" d="M113.2 318.342a4.555 4.555 0 0 1-3.343-1.622c-.911-1.048-2.2-3.453-.911-7.816 1.2-4 4.118-5.648 6.377-5.22 1.731.328 3.644 2.086 3.316 5.958a1.1 1.1 0 0 1-2.186-.191c.164-2.013-.419-3.4-1.54-3.644s-3.034.975-3.854 3.7c-.756 2.487-.592 4.555.446 5.748a2.287 2.287 0 0 0 1.822.911 1.1 1.1 0 1 1 .3 2.177 3.817 3.817 0 0 1-.427-.001z" class="cls-8" transform="translate(-36.394 -303.572)"/>
                <path id="Tracé_707" d="M128.057 318.337a4.628 4.628 0 0 1-3.389-1.667c-.911-1.048-2.2-3.453-.911-7.816 1.2-4 4.118-5.648 6.377-5.22 1.731.328 3.644 2.086 3.316 5.958a1.1 1.1 0 0 1-2.186-.191c.164-2.013-.419-3.4-1.54-3.644s-3.034.975-3.854 3.7c-.756 2.487-.6 4.555.446 5.748a2.278 2.278 0 0 0 1.822.911 1.1 1.1 0 1 1 .3 2.177 3.782 3.782 0 0 1-.383.046z" class="cls-8" transform="translate(-37.713 -303.568)"/>
                <path id="Tracé_708" d="M142.917 318.337a4.628 4.628 0 0 1-3.389-1.667c-.911-1.048-2.2-3.453-.911-7.816 1.2-4 4.118-5.648 6.377-5.22 1.731.328 3.644 2.086 3.316 5.958a1.093 1.093 0 0 1-1.193 1 1.111 1.111 0 0 1-1-1.193c.173-2.013-.41-3.4-1.53-3.644-1.257-.237-3.043.975-3.863 3.7-.747 2.487-.592 4.555.446 5.748a2.3 2.3 0 0 0 1.868.911 1.1 1.1 0 0 1 .3 2.177 3.548 3.548 0 0 1-.419.046z" class="cls-8" transform="translate(-39.035 -303.568)"/>
                <path id="Tracé_709" d="M157.777 318.337a4.628 4.628 0 0 1-3.389-1.667c-.911-1.048-2.2-3.453-.911-7.816 1.212-4 4.127-5.648 6.377-5.22 1.731.328 3.644 2.086 3.316 5.958a1.093 1.093 0 0 1-1.193 1 1.111 1.111 0 0 1-1-1.193c.173-2.013-.419-3.4-1.53-3.644-1.257-.237-3.043.975-3.863 3.7-.747 2.487-.592 4.555.446 5.748a2.3 2.3 0 0 0 1.822.911 1.1 1.1 0 1 1 .3 2.177 3.592 3.592 0 0 1-.375.046z" class="cls-8" transform="translate(-40.358 -303.568)"/>
                <path id="Tracé_710" d="M172.637 318.337a4.628 4.628 0 0 1-3.389-1.667c-.911-1.048-2.2-3.453-.911-7.816 1.212-4 4.118-5.648 6.377-5.22 1.731.328 3.644 2.086 3.307 5.958a1.075 1.075 0 0 1-1.184 1 1.111 1.111 0 0 1-1-1.193c.173-2.013-.419-3.4-1.531-3.644-1.257-.237-3.043.975-3.863 3.7-.747 2.487-.592 4.555.446 5.748a2.3 2.3 0 0 0 1.868.911 1.1 1.1 0 0 1 .3 2.177 3.656 3.656 0 0 1-.42.046z" class="cls-8" transform="translate(-41.68 -303.568)"/>
                <path id="Tracé_711" d="M187.528 318.337a4.61 4.61 0 0 1-3.38-1.667c-.911-1.048-2.2-3.453-.911-7.816 1.2-4 4.118-5.648 6.377-5.22 1.731.328 3.644 2.086 3.307 5.958a1.084 1.084 0 0 1-1.184 1 1.1 1.1 0 0 1-1-1.193c.173-2.013-.419-3.4-1.54-3.644s-3.034.975-3.854 3.7c-.756 2.487-.592 4.555.446 5.748a2.3 2.3 0 0 0 1.822.911 1.1 1.1 0 1 1 .3 2.177 3.681 3.681 0 0 1-.383.046z" class="cls-8" transform="translate(-43.006 -303.568)"/>
                <path id="Tracé_712" d="M202.348 318.337a4.555 4.555 0 0 1-3.38-1.667c-.911-1.048-2.2-3.453-.911-7.816 1.2-4 4.118-5.648 6.377-5.22 1.74.328 3.644 2.086 3.316 5.958a1.084 1.084 0 0 1-1.184 1 1.1 1.1 0 0 1-1-1.193c.164-2.013-.419-3.4-1.54-3.644-1.257-.237-3.034.975-3.854 3.7-.756 2.487-.592 4.555.446 5.748a2.3 2.3 0 0 0 1.868.911 1.1 1.1 0 0 1 .3 2.177 3.7 3.7 0 0 1-.437.046z" class="cls-8" transform="translate(-44.325 -303.568)"/>
                <path id="Tracé_713" d="M217.211 318.342a4.628 4.628 0 0 1-3.352-1.622c-.911-1.048-2.2-3.453-.911-7.816 1.2-4 4.118-5.648 6.377-5.22 1.731.328 3.644 2.086 3.316 5.958a1.1 1.1 0 1 1-2.186-.191c.164-2.013-.419-3.4-1.54-3.644s-3.034.975-3.854 3.7c-.756 2.487-.592 4.555.446 5.748a2.287 2.287 0 0 0 1.822.911 1.1 1.1 0 1 1 .3 2.177 3.832 3.832 0 0 1-.418-.001z" class="cls-8" transform="translate(-45.65 -303.572)"/>
                <path id="Tracé_714" d="M232.067 318.337a4.628 4.628 0 0 1-3.389-1.667c-.911-1.048-2.2-3.453-.911-7.816 1.2-4 4.118-5.648 6.377-5.22 1.731.328 3.644 2.086 3.316 5.958a1.1 1.1 0 1 1-2.186-.191c.164-2.013-.419-3.4-1.54-3.644-1.257-.237-3.034.975-3.863 3.7-.747 2.487-.592 4.555.446 5.748a2.3 2.3 0 0 0 1.822.911 1.1 1.1 0 0 1 .31 2.177 3.8 3.8 0 0 1-.382.044z" class="cls-8" transform="translate(-46.969 -303.568)"/>
                <path id="Tracé_715" d="M246.927 318.337a4.628 4.628 0 0 1-3.389-1.667c-.911-1.048-2.2-3.453-.911-7.816 1.2-4 4.118-5.648 6.377-5.22 1.731.328 3.644 2.086 3.316 5.958a1.093 1.093 0 0 1-1.193 1 1.111 1.111 0 0 1-1-1.193c.173-2.013-.419-3.4-1.53-3.644-1.257-.237-3.034.975-3.863 3.7-.747 2.487-.592 4.555.446 5.748a2.3 2.3 0 0 0 1.868.911 1.1 1.1 0 0 1 .3 2.177 3.551 3.551 0 0 1-.419.046z" class="cls-8" transform="translate(-48.292 -303.568)"/>
            </g>
            <g id="freepik--Plant--inject-5" transform="translate(336.403 255.003)">
                <path id="Tracé_716" d="M414.7 327.665a71.589 71.589 0 0 1 1.649-11.624 25.875 25.875 0 0 1 4.154-9.8 12.472 12.472 0 0 1 8.144-5.074c3.188-.392 6.177 1.029 8.563 3.043a41.207 41.207 0 0 1 7.343 8.973 108.723 108.723 0 0 1 6.377 11.105.109.109 0 0 1-.191.1 68.5 68.5 0 0 0-5.667-9.283 57.815 57.815 0 0 0-6.532-7.907c-2.186-2.141-4.974-4.136-8.144-4.236a10.021 10.021 0 0 0-7.962 4.1 24.525 24.525 0 0 0-4.018 9.429 69.609 69.609 0 0 0-1.685 11.069c-.629 7.652-.793 15.359-.966 23.039q-.146 6.514-.2 13.036l-.055 6.6a40.128 40.128 0 0 1-.255 6.377.437.437 0 0 1-.838 0 37.131 37.131 0 0 1-.292-6.04q-.055-3.125-.082-6.259-.055-6.086-.046-12.171c.048-8.17.149-16.351.703-24.477z" class="cls-3" transform="translate(-380.63 -298.288)"/>
                <path id="Tracé_717" d="M426.62 321.623c.41-2.168 1.139-4.992 2.369-6.669 2.223-3.015 4.61-1.7 2.4 1.631a19.942 19.942 0 0 0-3.107 8.2s3.726 5.32 8.2 7.944c-.191-2.05-.774-5.193-.374-8.2.865-6.568 4.838-6.2 3.854-.975a45.2 45.2 0 0 0-.911 10.559 22.36 22.36 0 0 0 4.8 2.359c-.255-.765-.528-1.676-.829-2.788-1.6-5.894 2.332-7.734 2.46-4.418a45.636 45.636 0 0 0 1.53 8.363c2.159.729 3.945 1.221 5.038 1.6a18.338 18.338 0 0 1 7.37 5.038 23.168 23.168 0 0 0 5.029-6.5c-1.376-1.184-3.544-2.943-6.559-5.074-5.657-3.99-3.644-9.028.793-5.894 3.234 2.259 5.739 6.45 6.878 8.6a34.736 34.736 0 0 0 2.569-11.77c-4.446-4.163-15.423-9.976-12.116-9.976 2.979 0 9.648 4.364 12.089 6.049a31.33 31.33 0 0 0-.374-3.416c-4.182-2.733-17.774-7.006-15.605-8.2 2.378-1.339 11.843 3.043 14.722 4.437a17.061 17.061 0 0 0-2.505-5.2c-5.785-7.734-16.2-10.4-20.744-8.928-3.216 1.039-2.277 9.2-2.97 8.928-12.896-5.232-18.763-1.56-14.007 14.3zm31.676-.911c.911-1.1 5.156 2.15 3.936 3.936s-5.12-2.505-3.936-3.926zm-22.156-6.96c1.111.711-.538 4.837-2.259 3.589-1.458-1.057 1.139-4.291 2.259-3.58z" class="cls-4" transform="translate(-381.607 -298.013)"/>
                <path id="Tracé_718" d="M438.76 315.972c.583-1.157 1.193-2.3 1.822-3.407a20.158 20.158 0 0 1 2.141-3.1l-.556-.683c-.073-.091.055-.219.137-.128.219.246.419.5.629.756a.164.164 0 0 1 .091.1 36.714 36.714 0 0 1 2.268 2.952 33.352 33.352 0 0 1 3.753 1.084c1.266.428 2.523.911 3.753 1.385.137.055.073.273-.064.209-1.212-.537-2.451-1.057-3.717-1.485s-2.414-.72-3.644-1.057c.392.556.774 1.111 1.148 1.685a44.717 44.717 0 0 1 6.641 2.733c2.241 1.066 4.4 2.3 6.55 3.544.118.073 0 .264-.118.191a72.224 72.224 0 0 0-6.514-3.371c-2.077-.975-4.227-1.776-6.322-2.733 5.275 8.2 8.436 17.746 12.672 26.537.064.128-.137.237-.191.109-1.294-3.088-2.779-6.095-4.191-9.11-1.257-2.733-2.5-5.466-3.762-8.2-.364-.793-.747-1.594-1.13-2.387.228 4.4.137 8.873.856 13.219a.109.109 0 1 1-.219 0c-.3-4.7-1.13-9.329-1.1-14.057v-.058q-1.339-2.733-2.879-5.293c-1.749 4.118-3.589 8.3-4.4 12.754 0 .137-.246.073-.21-.064 1.184-4.427 2.287-8.864 4.427-12.964a50.548 50.548 0 0 0-3.717-5.357c-.592 1.093-1.339 2.132-2 3.17s-1.294 2.05-1.895 3.107a44.017 44.017 0 0 0-3.307 6.978c-.046.128-.264.064-.21-.064 1.09-2.367 2.111-4.717 3.258-6.995z" class="cls-3" transform="translate(-382.543 -298.957)"/>
                <path id="Tracé_719" d="M397.848 329.759c2.906-3.817 6.213-8.755 11.406-9.447 5.01-.665 9.228 2.879 11.907 6.751 2.8 4.054 4.254 8.873 5.521 13.574a171.17 171.17 0 0 1 3.644 17.118c.528 3.2.911 6.377 1.294 9.629a64.436 64.436 0 0 1 .574 9.821c0 .528-.856.665-.966.109-.51-2.688-.765-5.42-1.111-8.126s-.747-5.32-1.2-7.971q-1.367-8.049-3.38-15.952c-1.184-4.61-2.268-9.356-4.273-13.665-1.822-3.908-4.8-8.245-9.165-9.483-5.967-1.685-10.877 3.516-14.057 7.78-.057.09-.276-.028-.194-.138z" class="cls-3" transform="translate(-379.191 -299.99)"/>
                <path id="Tracé_720" d="M377.37 334.806v2.059a12.09 12.09 0 0 1 5.648-2.032c4.828-.282 4.345 3.353 1.13 3.353a18.346 18.346 0 0 0-6.65 1c.483 6.377 1.986 11.561 2.241 11.643a93.712 93.712 0 0 0 12.754-1c-1.075-2.6-3.644-6.113-2.232-6.313s2.733 2.87 3.38 6.14a61.189 61.189 0 0 0 9.374-2.1c-2.022-1.922-5.174-4.355-3.881-5.266s3.726 2.414 5.165 4.819a18.7 18.7 0 0 0 4.1-2.032c-2.651-4.318-9.538-5.466-8.491-8.481s7.334 1.521 10.021 7.288c3.589-3.389 4.828-8.354 4.674-12.663-2.961-.492-8.727-.137-8.2-2.259s4.637-1.512 7.971-.1a11.843 11.843 0 0 0-1.767-4.81c-2.943-4.182-12.754.483-12.754.483s1.485-9.584-2.1-11.424c-2.059-1.057-5.776-1.221-9.611.793 2.086.273 4.555 1.057 5.53 2.56 1.212 1.913-.911 2.824-2.15 1.9-.911-.647-2.514-2.633-5.594-3.034a18.994 18.994 0 0 0-3.644 3.644 18.575 18.575 0 0 0-1.084 1.549 13.127 13.127 0 0 1 11.205.738c4.054 2.259 1.531 6.459-1.968 4.619s-6.814-3.644-10.65-2.888a26.855 26.855 0 0 0-2.341 10.65 19.128 19.128 0 0 1 6.3-2.66c4.191-.911 5.32 1.64.756 1.886a18.219 18.219 0 0 0-7.132 1.938zm5.339-6.377c-.219-1.357 2.733-1.6 3.17-.492.355.911-2.952 1.8-3.17.492zm24.716 8.609c.31-.72 2.232.2 2 1.1-.3 1.166-2.332-.428-2-1.139zm-14.066 4.027c1.458-.5 3.516 3.161 1.922 3.9s-3.106-3.516-1.922-3.936z" class="cls-4" transform="translate(-377.37 -299.289)"/>
                <path id="Tracé_721" d="M377.37 334.806v2.059a12.09 12.09 0 0 1 5.648-2.032c4.828-.282 4.345 3.353 1.13 3.353a18.346 18.346 0 0 0-6.65 1c.483 6.377 1.986 11.561 2.241 11.643a93.712 93.712 0 0 0 12.754-1c-1.075-2.6-3.644-6.113-2.232-6.313s2.733 2.87 3.38 6.14a61.189 61.189 0 0 0 9.374-2.1c-2.022-1.922-5.174-4.355-3.881-5.266s3.726 2.414 5.165 4.819a18.7 18.7 0 0 0 4.1-2.032c-2.651-4.318-9.538-5.466-8.491-8.481s7.334 1.521 10.021 7.288c3.589-3.389 4.828-8.354 4.674-12.663-2.961-.492-8.727-.137-8.2-2.259s4.637-1.512 7.971-.1a11.843 11.843 0 0 0-1.767-4.81c-2.943-4.182-12.754.483-12.754.483s1.485-9.584-2.1-11.424c-2.059-1.057-5.776-1.221-9.611.793 2.086.273 4.555 1.057 5.53 2.56 1.212 1.913-.911 2.824-2.15 1.9-.911-.647-2.514-2.633-5.594-3.034a18.994 18.994 0 0 0-3.644 3.644 18.575 18.575 0 0 0-1.084 1.549 13.127 13.127 0 0 1 11.205.738c4.054 2.259 1.531 6.459-1.968 4.619s-6.814-3.644-10.65-2.888a26.855 26.855 0 0 0-2.341 10.65 19.128 19.128 0 0 1 6.3-2.66c4.191-.911 5.32 1.64.756 1.886a18.219 18.219 0 0 0-7.132 1.938zm5.339-6.377c-.219-1.357 2.733-1.6 3.17-.492.355.911-2.952 1.8-3.17.492zm24.716 8.609c.31-.72 2.232.2 2 1.1-.3 1.166-2.332-.428-2-1.139zm-14.066 4.027c1.458-.5 3.516 3.161 1.922 3.9s-3.106-3.516-1.922-3.936z" class="cls-5" transform="translate(-377.37 -299.289)"/>
                <path id="Tracé_722" d="M380.639 351.317c2.323-3.5 4.628-7.015 7.06-10.44q1.695-2.387 3.526-4.683l-.5-.146-.856-.2c-.656-.146-1.312-.273-1.977-.374a18.885 18.885 0 0 0-1.886-.2 10.015 10.015 0 0 0-2.022 0c-.082 0-.091-.109 0-.109.674.064 1.367 0 2.041 0a17.212 17.212 0 0 1 1.959.146c.647.073 1.221.155 1.822.273l.993.228a4.476 4.476 0 0 1 .6.155q1.877-2.323 3.854-4.555a43.066 43.066 0 0 0-11.606-4.318c-.064 0 0-.118 0-.109a40.084 40.084 0 0 1 11.779 4.2c.729-.811 1.458-1.622 2.2-2.423s1.7-1.776 2.451-2.733c.055-.064.146 0 .091.064a42.341 42.341 0 0 0-2.9 3.216 41.931 41.931 0 0 1 4.218 3.726c1.366 1.339 2.733 2.733 4 4.127.046.055 0 .128-.082.082-1.275-1.4-2.605-2.733-4.008-4.018s-2.87-2.469-4.282-3.735l-1.066 1.266c-.173.219-.355.428-.537.638a.091.091 0 0 1 0 .046l-1.786 2.15a17.677 17.677 0 0 1 1.521 3.088c.437 1.039.8 2.1 1.139 3.18a45.855 45.855 0 0 1 1.476 6.833.055.055 0 1 1-.109 0 39.47 39.47 0 0 0-1.64-6.714c-.365-1.121-.793-2.214-1.23-3.307s-.911-1.959-1.275-2.961l-1.53 1.868-.428.556a.064.064 0 0 1-.055.091c-1.576 2-3.088 4.045-4.555 6.113a2.161 2.161 0 0 1 .164.483c.073.255.146.528.21.793a16.387 16.387 0 0 1 .3 1.622c.064.51.109 1.029.137 1.54a13.919 13.919 0 0 0 .046 1.749c0 .091-.128.091-.1 0a6.108 6.108 0 0 0-.045-1.631c-.055-.565-.128-1.121-.228-1.676s-.21-.993-.328-1.485c-.064-.255-.128-.5-.2-.738s-.1-.273-.137-.41c-.683.975-1.366 1.95-2.041 2.943-1.339 1.95-2.66 3.908-3.99 5.867-.097.113-.252.022-.188-.078z" class="cls-3" transform="translate(-377.66 -300.504)"/>
                <path id="Tracé_723" d="M413.73 373.534c.055-1.822.337-3.589.528-5.366s.392-3.571.583-5.366a81.8 81.8 0 0 1 1.385-10.331 15.032 15.032 0 0 1 4.209-7.734 6.824 6.824 0 0 1 4.127-1.968 7.051 7.051 0 0 1 4.373 1.348 15.256 15.256 0 0 1 3.69 3.881 38.82 38.82 0 0 1 2.87 4.664c0 .064-.064.1-.1 0a23.885 23.885 0 0 0-6.213-6.96 7.351 7.351 0 0 0-3.917-1.631 5.32 5.32 0 0 0-3.8 1.512 14.275 14.275 0 0 0-4.008 7.1 71.761 71.761 0 0 0-1.549 9.556q-.383 2.824-.747 5.676c-.246 1.877-.41 3.808-.8 5.666a.319.319 0 0 1-.628-.046z" class="cls-3" transform="translate(-380.606 -301.996)"/>
                <path id="Tracé_724" d="M423.167 359.552a10.022 10.022 0 0 0 1.94 2c-.292-1.749-.647-4.847.237-6.5 1.366-2.569 2.979-1.294 2.168.911a18.223 18.223 0 0 0-1.321 6.322 27.626 27.626 0 0 0 5.94 2.8 10.145 10.145 0 0 1-.21-3.061c.273-2.733 2.369-2.733 1.822.155a17.915 17.915 0 0 0-.282 3.353 61.18 61.18 0 0 0 9.256 2.086 27.027 27.027 0 0 0 3.826-6.823c-2.223-.556-6.741-.683-6.65-2.277.128-2.141 4.555-.492 7.069 1.066a17.017 17.017 0 0 0 .765-5.776 28.976 28.976 0 0 0-6.149-1.02c-4.555-.392-4.364-3-1.039-2.933 2.46.046 5.566 1.549 7.033 2.323-.956-6.24-5.721-10.249-9.538-10.4-6.423-.255-4.118 7.734-4.118 7.734s-4.355-3.061-8.454-2.979-6.686 6.916-2.295 13.019zM440.321 348c-.146-.911 2.733-1.111 2.87 0 .173 1.331-2.724.921-2.87 0zm4.61 9.374c-.055-.583 1.184-.683 1.458.055.191.483-1.404.529-1.458-.054zm-15.423.547c.966.137 1.521 3.6-.146 3.535-1.275-.055-.674-3.644.146-3.535z" class="cls-4" transform="translate(-381.242 -301.907)"/>
                <path id="Tracé_725" d="M431.819 363.593c.164-.428.3-.911.437-1.3-.118.446-.237.911-.319 1.339a.064.064 0 1 1-.118-.036z" class="cls-3" transform="translate(-382.215 -303.733)"/>
                <path id="Tracé_726" d="M433.57 357c.3-.911.638-1.767.984-2.642.191-.465.373-.911.583-1.376a5.342 5.342 0 0 1 .574-1.166 7.782 7.782 0 0 1-.519-1.12s0-.064.055 0a11.941 11.941 0 0 1 1.248 1.94c.182.3.355.61.528.911a8.925 8.925 0 0 1 1.084.173c.383.064.765.146 1.148.228l1.148.273c.374.082.747.21 1.139.273.082 0 .046.155 0 .118a7.785 7.785 0 0 0-1.2-.319c-.364-.073-.738-.137-1.112-.191l-1.121-.137-.847-.073c.146.273.31.537.455.811l.073.128a3.487 3.487 0 0 1 .911.109c.328.055.665.118.993.191.665.155 1.339.31 2 .492 1.394.392 2.733.838 4.136 1.284.073 0 0 .137-.046.109a41.242 41.242 0 0 0-4.154-1.148c-.656-.146-1.312-.3-1.977-.437l-.984-.21a5.6 5.6 0 0 1-.774-.173c.711 1.312 1.376 2.633 1.986 3.99 1.33 2.943 2.46 5.985 3.6 9.01 0 .073-.091.118-.118 0a81.932 81.932 0 0 0-3.826-8.809l-.774-1.558q-.044.158-.073.319l-.191 1.075c-.119.711-.237 1.43-.346 2.15a25.387 25.387 0 0 0-.519 4.464c0 .091-.137.082-.118 0 .109-.711.109-1.458.155-2.177s.1-1.5.191-2.25.173-1.439.292-2.159l.191-1.075a2.212 2.212 0 0 1 .2-.774c-.374-.756-.747-1.512-1.13-2.268s-.72-1.4-1.084-2.1c-.155-.3-.319-.6-.483-.911a11.174 11.174 0 0 1-.428 1.084c-.164.4-.328.811-.5 1.212-.364.911-.711 1.822-1.048 2.733-.492 1.284-1.03 2.605-1.421 3.945.349-1.315.681-2.69 1.119-3.949z" class="cls-3" transform="translate(-382.271 -302.699)"/>
                <path id="Tracé_727" d="M432.3 362.26a.951.951 0 0 1 .1-.31c-.036.1-.064.2-.1.31z" class="cls-3" transform="translate(-382.259 -303.703)"/>
                <path id="Tracé_728" d="M397.6 377.11l.783 11.542 2.022 29.753H444.5l2.013-29.753.783-11.542z" class="cls-13" transform="translate(-379.17 -305.052)"/>
                <path id="Tracé_729" d="M397.6 377.11l.783 11.542h48.128l.783-11.542z" class="cls-3" transform="translate(-379.17 -305.052)"/>
                <path id="Rectangle_149" d="M0 0H55.963V9.329H0z" class="cls-13" transform="rotate(180 35.63 38.361)"/>
                <path id="Rectangle_150" d="M0 0H7.744V4.883H0z" class="cls-13" transform="translate(54.013 113.353)"/>
                <path id="Rectangle_151" d="M0 0H7.744V2.441H0z" class="cls-3" transform="translate(54.013 113.353)"/>
                <path id="Rectangle_152" d="M0 0H7.734V4.883H0z" class="cls-13" transform="translate(24.798 113.353)"/>
                <path id="Rectangle_153" d="M0 0H7.734V2.441H0z" class="cls-3" transform="translate(24.798 113.353)"/>
            </g>
        </g>
    </g>
</svg>
