<svg xmlns="http://www.w3.org/2000/svg" width="490.202" height="360" viewBox="0 0 591.202 440.899">
    <defs>
        <style>
            .cls-1{fill:#ebebeb}.cls-2{fill:#fafafa}.cls-3{fill:#f0f0f0}.cls-4{fill:#f5f5f5}.cls-7{fill:#e0e0e0}.cls-6{fill:#e6e6e6}.cls-15,.cls-8{fill:#fff}.cls-9{fill:#ffc628}.cls-13{fill:#263238}.cls-14,.cls-18{opacity:.2}.cls-15{opacity:.4}.cls-17{fill:#b55b52}
        </style>
    </defs>
    <g id="Groupe_225" transform="translate(-19.705 -253)">
        <g id="City_driver-rafiki" transform="translate(19.705 253)">
            <g id="Groupe_103">
                <g id="freepik--background-complete--inject-4">
                    <path id="Rectangle_3" d="M0 0H591.202V0.347H0z" class="cls-1" transform="translate(0 378.26)"/>
                    <path id="Tracé_2" d="M313.945 447.262H46.116a7.92 7.92 0 0 1-7.906-7.92V62.851A7.92 7.92 0 0 1 46.116 55h267.829a7.92 7.92 0 0 1 7.92 7.92v376.422a7.92 7.92 0 0 1-7.92 7.92zM46.116 55.277a7.573 7.573 0 0 0-7.56 7.573v376.492a7.573 7.573 0 0 0 7.559 7.573h267.83a7.587 7.587 0 0 0 7.573-7.573V62.851a7.587 7.587 0 0 0-7.573-7.573z" class="cls-1" transform="translate(14.79 -55)"/>
                    <path id="Tracé_3" d="M530.262 447.262H262.42a7.934 7.934 0 0 1-7.92-7.92V62.851A7.934 7.934 0 0 1 262.42 55h267.842a7.92 7.92 0 0 1 7.892 7.851v376.491a7.92 7.92 0 0 1-7.892 7.92zM262.42 55.277a7.587 7.587 0 0 0-7.573 7.573v376.492a7.587 7.587 0 0 0 7.573 7.573h267.842a7.587 7.587 0 0 0 7.573-7.573V62.851a7.587 7.587 0 0 0-7.573-7.573z" class="cls-1" transform="translate(-3.822 -55)"/>
                    <path id="Rectangle_4" d="M0 0H36.064V0.347H0z" class="cls-1" transform="translate(485.647 400.577)"/>
                    <path id="Rectangle_5" d="M0 0H62.46V0.347H0z" class="cls-1" transform="translate(361.428 404.35)"/>
                    <path id="Rectangle_6" d="M0 0H84.32V0.347H0z" class="cls-1" transform="translate(417.903 387.706)"/>
                    <path id="Rectangle_7" d="M0 0H26.673V0.347H0z" class="cls-1" transform="translate(72.765 390.036)"/>
                    <path id="Rectangle_8" d="M0 0H76.691V0.347H0z" class="cls-1" transform="translate(93.251 390.036)"/>
                    <path id="Rectangle_9" d="M0 0H103.295V0.347H0z" class="cls-1" transform="translate(194.542 395.889)"/>
                    <path id="Rectangle_10" d="M0 0H29.406V101.783H0z" class="cls-2" transform="translate(64.138 276.477)"/>
                    <path id="Rectangle_11" d="M0 0H29.406V79.451H0z" class="cls-2" transform="translate(89.882 298.809)"/>
                    <path id="Rectangle_12" d="M0 0H29.406V144.92H0z" class="cls-2" transform="translate(108.69 233.339)"/>
                    <path id="Rectangle_13" d="M0 0H29.406V262.433H0z" class="cls-2" transform="translate(108.476 115.827)"/>
                    <path id="Rectangle_14" d="M0 0H78.91V242.001H0z" class="cls-2" transform="translate(126.249 136.259)"/>
                    <path id="Rectangle_15" d="M0 0H33.595V69.658H0z" class="cls-2" transform="rotate(180 243.741 189.13)"/>
                    <path id="Rectangle_16" d="M0 0H33.595V54.373H0z" class="cls-2" transform="rotate(180 231.306 189.13)"/>
                    <path id="Rectangle_17" d="M0 0H33.595V99.189H0z" class="cls-2" transform="rotate(180 222.235 189.13)"/>
                    <path id="Rectangle_18" d="M0 0H33.595V179.611H0z" class="cls-2" transform="rotate(180 212.8 189.13)"/>
                    <path id="Rectangle_19" d="M0 0H103.1V219.42H0z" class="cls-3" transform="translate(313.235 158.84)"/>
                    <path id="Rectangle_20" d="M0 0H4.91V26.701H0z" class="cls-4" transform="translate(397.837 203.132)"/>
                    <path id="Rectangle_21" d="M0 0H4.91V26.701H0z" class="cls-4" transform="translate(397.837 237.915)"/>
                    <path id="Rectangle_22" d="M0 0H4.91V26.701H0z" class="cls-4" transform="translate(397.837 272.687)"/>
                    <path id="Rectangle_23" d="M0 0H4.91V26.701H0z" class="cls-4" transform="translate(397.837 307.459)"/>
                    <path id="Rectangle_24" d="M0 0H4.91V26.701H0z" class="cls-4" transform="translate(397.837 335.066)"/>
                    <path id="Rectangle_25" d="M0 0H4.91V26.701H0z" class="cls-4" transform="translate(383.028 203.132)"/>
                    <path id="Rectangle_26" d="M0 0H4.91V26.701H0z" class="cls-4" transform="translate(383.028 237.915)"/>
                    <path id="Rectangle_27" d="M0 0H4.91V26.701H0z" class="cls-4" transform="translate(383.028 272.687)"/>
                    <path id="Rectangle_28" d="M0 0H4.91V26.701H0z" class="cls-4" transform="translate(383.028 307.459)"/>
                    <path id="Rectangle_29" d="M0 0H4.91V26.701H0z" class="cls-4" transform="translate(383.028 335.066)"/>
                    <path id="Rectangle_30" d="M0 0H4.91V26.701H0z" class="cls-4" transform="translate(368.219 203.132)"/>
                    <path id="Rectangle_31" d="M0 0H4.91V26.701H0z" class="cls-4" transform="translate(368.219 237.915)"/>
                    <path id="Rectangle_32" d="M0 0H4.91V26.701H0z" class="cls-4" transform="translate(368.219 272.687)"/>
                    <path id="Rectangle_33" d="M0 0H4.91V26.701H0z" class="cls-4" transform="translate(368.219 307.459)"/>
                    <path id="Rectangle_34" d="M0 0H4.91V26.701H0z" class="cls-4" transform="translate(368.219 335.066)"/>
                    <path id="Rectangle_35" d="M0 0H4.91V26.701H0z" class="cls-4" transform="translate(353.41 203.132)"/>
                    <path id="Rectangle_36" d="M0 0H4.91V26.701H0z" class="cls-4" transform="translate(353.41 237.915)"/>
                    <path id="Rectangle_37" d="M0 0H4.91V26.701H0z" class="cls-4" transform="translate(353.41 272.687)"/>
                    <path id="Rectangle_38" d="M0 0H4.91V26.701H0z" class="cls-4" transform="translate(353.41 307.459)"/>
                    <path id="Rectangle_39" d="M0 0H4.91V26.701H0z" class="cls-4" transform="translate(353.41 335.066)"/>
                    <path id="Rectangle_40" d="M0 0H4.91V26.701H0z" class="cls-4" transform="translate(338.589 203.132)"/>
                    <path id="Rectangle_41" d="M0 0H4.91V26.701H0z" class="cls-4" transform="translate(338.589 237.915)"/>
                    <path id="Rectangle_42" d="M0 0H4.91V26.701H0z" class="cls-4" transform="translate(338.589 272.687)"/>
                    <path id="Rectangle_43" d="M0 0H4.91V26.701H0z" class="cls-4" transform="translate(338.589 307.459)"/>
                    <path id="Rectangle_44" d="M0 0H4.91V26.701H0z" class="cls-4" transform="translate(338.589 335.066)"/>
                    <path id="Tracé_4" fill="#e0e0e0" d="M273.17 224.21h21.236l9.238 219.42H273.17z" opacity="0.5" transform="translate(47.258 -65.37)"/>
                    <path id="Tracé_5" d="M236.63 163.09l61.142 11.568v292.629H236.63z" class="cls-3" transform="translate(38.48 -89.027)"/>
                    <path id="Rectangle_45" d="M0 0H48.922V304.197H0z" class="cls-6" transform="translate(234.961 74.063)"/>
                    <path id="Rectangle_46" d="M0 0H110.064V1.554H0z" class="cls-7" transform="rotate(180 170.19 74.48)"/>
                    <path id="Rectangle_47" d="M0 0H110.064V1.554H0z" class="cls-7" transform="rotate(180 170.19 81.449)"/>
                    <path id="Rectangle_48" d="M0 0H110.064V1.554H0z" class="cls-7" transform="rotate(180 170.19 88.418)"/>
                    <path id="Rectangle_49" d="M0 0H110.064V1.554H0z" class="cls-7" transform="rotate(180 170.19 95.382)"/>
                    <path id="Rectangle_50" d="M0 0H110.064V1.554H0z" class="cls-7" transform="rotate(180 170.19 102.357)"/>
                    <path id="Rectangle_51" d="M0 0H110.064V1.554H0z" class="cls-7" transform="rotate(180 170.19 109.326)"/>
                    <path id="Rectangle_52" d="M0 0H110.064V1.554H0z" class="cls-7" transform="rotate(180 170.19 116.295)"/>
                    <path id="Rectangle_53" d="M0 0H110.064V1.554H0z" class="cls-7" transform="rotate(180 170.19 123.265)"/>
                    <path id="Rectangle_54" d="M0 0H110.064V1.554H0z" class="cls-7" transform="rotate(180 170.19 130.24)"/>
                    <path id="Rectangle_55" d="M0 0H110.064V1.554H0z" class="cls-7" transform="rotate(180 170.19 137.208)"/>
                    <path id="Rectangle_56" d="M0 0H110.064V1.554H0z" class="cls-7" transform="rotate(180 170.19 144.178)"/>
                    <path id="Rectangle_57" d="M0 0H110.064V1.554H0z" class="cls-7" transform="rotate(180 170.19 151.142)"/>
                    <path id="Rectangle_58" d="M0 0H110.064V1.554H0z" class="cls-7" transform="rotate(180 170.19 158.117)"/>
                    <path id="Rectangle_59" d="M0 0H110.064V1.554H0z" class="cls-7" transform="rotate(180 170.19 158.073)"/>
                    <path id="Rectangle_60" d="M0 0H110.064V1.554H0z" class="cls-7" transform="rotate(180 170.19 166.354)"/>
                    <path id="Rectangle_61" d="M0 0H110.064V1.554H0z" class="cls-7" transform="rotate(180 170.19 174.635)"/>
                    <path id="Rectangle_62" d="M0 0H110.064V1.554H0z" class="cls-7" transform="rotate(180 170.19 182.923)"/>
                    <path id="Rectangle_63" d="M0 0H51.141V368.848H0z" class="cls-3" transform="translate(169.319 9.412)"/>
                    <path id="Tracé_6" d="M196.341 125.568H145.2L164.022 93h73.237z" class="cls-2" transform="translate(21.937 -40.292)"/>
                    <path id="Tracé_7" d="M182.07 119.413L222.988 93v325.551H182.07z" class="cls-1" transform="translate(30.874 -40.292)"/>
                    <path id="Rectangle_64" d="M0 0H92.059V1.97H0z" class="cls-7" transform="translate(167.137 86.22)"/>
                    <path id="Rectangle_65" d="M0 0H92.059V1.97H0z" class="cls-7" transform="translate(167.137 103.787)"/>
                    <path id="Rectangle_66" d="M0 0H92.059V1.97H0z" class="cls-7" transform="translate(167.137 121.353)"/>
                    <path id="Rectangle_67" d="M0 0H92.059V1.97H0z" class="cls-7" transform="translate(167.137 138.931)"/>
                    <path id="Rectangle_68" d="M0 0H92.059V1.97H0z" class="cls-7" transform="translate(167.137 156.497)"/>
                    <path id="Rectangle_69" d="M0 0H92.059V1.97H0z" class="cls-7" transform="translate(167.137 174.063)"/>
                    <path id="Rectangle_70" d="M0 0H92.059V1.97H0z" class="cls-7" transform="translate(167.137 191.629)"/>
                    <path id="Rectangle_71" d="M0 0H92.059V1.97H0z" class="cls-7" transform="translate(167.137 209.196)"/>
                    <path id="Rectangle_72" d="M0 0H92.059V1.97H0z" class="cls-7" transform="translate(167.137 226.762)"/>
                    <path id="Rectangle_73" d="M0 0H92.059V1.97H0z" class="cls-7" transform="translate(167.137 244.34)"/>
                    <path id="Rectangle_74" d="M0 0H92.059V1.97H0z" class="cls-7" transform="translate(167.137 261.906)"/>
                    <path id="Rectangle_75" d="M0 0H92.059V1.97H0z" class="cls-7" transform="translate(167.137 279.472)"/>
                    <path id="Rectangle_76" d="M0 0H92.059V1.97H0z" class="cls-7" transform="translate(167.137 297.038)"/>
                    <path id="Rectangle_77" d="M0 0H92.059V1.97H0z" class="cls-7" transform="translate(167.137 314.605)"/>
                    <path id="Rectangle_78" d="M0 0H92.059V1.97H0z" class="cls-7" transform="translate(167.137 318.879)"/>
                    <path id="Rectangle_79" d="M0 0H92.059V1.97H0z" class="cls-7" transform="translate(167.137 339.769)"/>
                    <path id="Rectangle_80" d="M0 0H92.059V1.97H0z" class="cls-7" transform="translate(167.137 360.644)"/>
                    <path id="Rectangle_81" d="M0 0H55.829V190.361H0z" class="cls-3" transform="translate(114.76 187.899)"/>
                    <path id="Rectangle_82" d="M0 0H8.96V30.557H0z" class="cls-6" transform="translate(125.605 227.473)"/>
                    <path id="Rectangle_83" d="M0 0H8.96V30.557H0z" class="cls-6" transform="translate(144.304 227.473)"/>
                    <path id="Rectangle_84" d="M0 0H8.96V30.557H0z" class="cls-6" transform="translate(125.605 260.375)"/>
                    <path id="Rectangle_85" d="M0 0H8.96V30.557H0z" class="cls-6" transform="translate(144.304 260.375)"/>
                    <path id="Rectangle_86" d="M0 0H8.96V30.557H0z" class="cls-6" transform="translate(125.605 293.265)"/>
                    <path id="Rectangle_87" d="M0 0H8.96V30.557H0z" class="cls-6" transform="translate(144.304 293.265)"/>
                    <path id="Rectangle_88" d="M0 0H8.96V30.557H0z" class="cls-6" transform="translate(125.605 316.438)"/>
                    <path id="Rectangle_89" d="M0 0H8.96V30.557H0z" class="cls-6" transform="translate(144.304 316.438)"/>
                    <path id="Tracé_8" d="M154.365 248.841H98.55l13.094-13.191h55.829z" class="cls-8" transform="translate(15.75 -25.751)"/>
                    <path id="Tracé_9" d="M138.79 248.841l13.11-13.191 13.094 13.191V439.2h-26.2z" class="cls-6" transform="translate(24.201 -60.942)"/>
                </g>
                <g id="freepik--Shadow--inject-4" transform="translate(77.828 409.496)">
                    <ellipse id="freepik--path--inject-4" cx="217.773" cy="15.702" class="cls-4" rx="217.773" ry="15.702"/>
                </g>
                <g id="freepik--Smartphone--inject-4" transform="translate(278.211 6.776)">
                    <rect id="Rectangle_90" width="202.664" height="418.408" class="cls-9" rx="9.29" transform="translate(8.017)"/>
                    <rect id="Rectangle_91" width="202.664" height="418.408" class="cls-9" rx="9.29"/>
                    <rect id="Rectangle_92" width="202.664" height="418.408" fill="#fff" opacity="0.7" rx="9.29"/>
                    <g id="Groupe_5" opacity="0.9">
                        <path id="Rectangle_93" d="M0 0H10.972V418.408H0z" class="cls-8" transform="translate(29.711)"/>
                        <path id="Rectangle_94" d="M0 0H6.727V418.408H0z" class="cls-8" transform="translate(150.039)"/>
                        <path id="Tracé_10" d="M274.35 183.6v10.972l202.664-12.553V171.05z" class="cls-8" transform="translate(-274.35 -92.722)"/>
                        <path id="Rectangle_95" d="M0 0H10.972V202.664H0z" class="cls-8" transform="rotate(-90 180.534 180.52)"/>
                        <path id="Rectangle_96" d="M0 0H5.978V202.664H0z" class="cls-8" transform="rotate(-90 75.817 75.817)"/>
                        <path id="Tracé_11" d="M274.35 340.7v12.567l202.664-68.576V272.12z" class="cls-8" transform="translate(-274.35 -53.602)"/>
                        <path id="Tracé_12" d="M328.622 114.58H317.65L347.139 533h10.972z" class="cls-8" transform="translate(-257.59 -114.58)"/>
                    </g>
                </g>
                <g id="freepik--Car--inject-4" transform="translate(62.684 196.881)">
                    <path id="Tracé_13" d="M462.33 406.277H221.05V331.07h212.679l19.848 16.13a23.663 23.663 0 0 1 8.752 18.448z" class="cls-9" transform="translate(-20.938 -220.89)"/>
                    <path id="Tracé_14" d="M462.33 406.277H221.05V331.07h212.679l19.848 16.13a23.663 23.663 0 0 1 8.752 18.448z" opacity="0.5" transform="translate(-20.938 -220.89)"/>
                    <path id="Tracé_15" d="M228.263 394.269c0-27.45 12.484-49.7 27.741-49.7h-29.433c-15.355 0-27.741 22.193-27.741 49.7s12.484 49.712 27.741 49.712h29.489c-15.382 0-27.797-22.262-27.797-49.712z" class="cls-13" transform="translate(-29.539 -215.664)"/>
                    <ellipse id="Ellipse_3" cx="27.797" cy="49.699" class="cls-13" rx="27.797" ry="49.699" transform="translate(198.725 128.906)"/>
                    <ellipse id="Ellipse_4" cx="19.71" cy="38.755" class="cls-8" rx="19.71" ry="38.755" transform="translate(209.045 139.85)"/>
                    <path id="Tracé_16" d="M112.754 394.269c0-27.45 12.484-49.7 27.741-49.7h-29.434c-15.355 0-27.741 22.193-27.741 49.7s12.484 49.712 27.741 49.712h29.489c-15.35 0-27.796-22.262-27.796-49.712z" class="cls-13" transform="translate(-74.248 -215.664)"/>
                    <ellipse id="Ellipse_5" cx="27.797" cy="49.699" class="cls-13" rx="27.797" ry="49.699" transform="translate(38.505 128.906)"/>
                    <path id="Tracé_17" d="M365.594 394.269c0-27.45 12.484-49.7 27.741-49.7H363.9c-15.341 0-27.741 22.193-27.741 49.7s12.484 49.712 27.741 49.712h29.49c-15.341 0-27.796-22.262-27.796-49.712z" class="cls-13" transform="translate(23.617 -215.664)"/>
                    <ellipse id="Ellipse_6" cx="27.797" cy="49.699" class="cls-13" rx="27.797" ry="49.699" transform="translate(389.211 128.906)"/>
                    <ellipse id="Ellipse_7" cx="19.71" cy="38.755" class="cls-8" rx="19.71" ry="38.755" transform="translate(399.544 139.85)"/>
                    <path id="Tracé_18" d="M242.659 404.16H207l-2-1.942a10.958 10.958 0 0 0-7.74-3.218h-89.132a10.958 10.958 0 0 0-7.74 3.218l-1.221 1.207h-3.245a19.141 19.141 0 0 1-19.142-19.239V354.85h202.262l-16.09 34.982a21.5 21.5 0 0 1-20.293 14.328z" class="cls-9" transform="translate(-76.78 -211.685)"/>
                    <path id="Tracé_19" d="M242.659 404.16H207l-2-1.942a10.958 10.958 0 0 0-7.74-3.218h-89.132a10.958 10.958 0 0 0-7.74 3.218l-1.221 1.207h-3.245a19.141 19.141 0 0 1-19.142-19.239V354.85h202.262l-16.09 34.982a21.5 21.5 0 0 1-20.293 14.328z" class="cls-14" transform="translate(-76.78 -211.685)"/>
                    <path id="Tracé_20" d="M348.354 269.729a.625.625 0 0 1-.347-.1.679.679 0 0 1-.25-.943l9.71-16.645a.694.694 0 1 1 1.193.694l-9.709 16.645a.694.694 0 0 1-.597.349z" class="cls-13" transform="translate(28.068 -251.636)"/>
                    <path id="Tracé_21" d="M441.82 351.178v-18.92c0-9.945-14.453-56.87-34.33-65.664s-67.966-12.705-98.26-11.1-70.74 64.97-70.74 64.97l4.4 54.484c6.159 0 25.772-1.859 28.643 52.043a14.814 14.814 0 0 0 14.828 14.065h106.052a14.772 14.772 0 0 0 14.62-12.733c2.774-19.211 10.015-53.416 27.478-53.416 12.248 0 21.028 10.486 21.028 22.512a81.505 81.505 0 0 0-9.349-37.922z" class="cls-9" transform="translate(-14.188 -250.278)"/>
                    <path id="Tracé_22" d="M242.325 255.4c-55.164 0-117.665 64.97-117.665 64.97h157.945s40.405-63.347 70.74-64.97z" class="cls-9" transform="translate(-58.247 -250.179)"/>
                    <path id="Tracé_23" d="M242.67 255.4c-46.467 0-95.208 46.106-109.425 60.629a2.552 2.552 0 0 0 1.831 4.341h127.415a32.6 32.6 0 0 0 26.354-13.288c13.7-18.67 40.1-50.531 61.461-51.682z" class="cls-15" transform="translate(-55.208 -250.179)"/>
                    <path id="Tracé_24" d="M301.138 302.24L242.8 348.277l-157-.5s-9.016 13.108-9.016 27.436h202.258c3.315-8.78 14.939-18.49 26.493-18.49 0-16.339-4.397-54.483-4.397-54.483z" class="cls-9" transform="translate(-76.78 -232.049)"/>
                    <path id="Tracé_25" d="M211.191 335.418a.69.69 0 0 1-.1-1.373 76.981 76.981 0 0 0 37.867-17.616 11.18 11.18 0 0 0 2.011-14.9.694.694 0 1 1 1.137-.791 12.581 12.581 0 0 1-2.261 16.742A78.148 78.148 0 0 1 211.3 335.4z" class="cls-14" transform="translate(-25.019 -232.756)"/>
                    <path id="Tracé_26" d="M83.28 347.777s27.575-32.138 57.4-45.537h157.942l-58.34 46.037z" class="cls-9" transform="translate(-74.264 -232.049)"/>
                    <path id="Rectangle_97" d="M0 0H103.572V3.01H0z" class="cls-13" transform="translate(27.575 115.729)"/>
                    <path id="Tracé_27" d="M170.527 335.577l5.548-5.548a9.21 9.21 0 0 1 4.55-2.483l41.9-9.127a9.127 9.127 0 0 1 4.452.139l2.247.624a9.21 9.21 0 0 1 4.439 14.925l-9.016 10.306a9.238 9.238 0 0 1-6.075 3.107l-40.683 3.69a9.182 9.182 0 0 1-7.351-2.635 9.21 9.21 0 0 1-.011-12.998z" class="cls-8" transform="translate(-41.53 -225.868)"/>
                    <path id="Tracé_28" d="M105.579 336.359l-4.591-8.586a7.6 7.6 0 0 0-2.774-2.913 7.545 7.545 0 0 0-7.393-.208l-3.482 1.831a7.587 7.587 0 0 0-3.634 4.258l-2.122 6.283a7.56 7.56 0 0 0 5.867 9.89l9.585 1.651a7.559 7.559 0 0 0 7.948-3.87l.638-1.179a7.532 7.532 0 0 0-.042-7.157z" class="cls-8" transform="translate(-75.077 -223.709)"/>
                    <path id="Tracé_29" d="M263.949 319.5h146.03a7.934 7.934 0 0 0 7.6-10.223c-3.329-11.1-9.709-28.449-19.294-37.3a8.059 8.059 0 0 0-3.787-1.942c-17.213-3.648-44.885-6.075-65.414-7.49a64.582 64.582 0 0 0-50.5 19.2 177.657 177.657 0 0 0-21.069 25.7 7.754 7.754 0 0 0 6.436 12.054z" class="cls-15" transform="translate(-7.328 -247.469)"/>
                    <path id="Tracé_30" d="M199.526 368.869c0 4.549-4.661 8.253-10.4 8.253s-10.4-3.7-10.4-8.253 4.647-8.239 10.4-8.239 10.4 3.69 10.4 8.239z" class="cls-13" transform="translate(-37.322 -209.448)"/>
                    <path id="Tracé_31" d="M135.834 330.53c3.412 0 5.077 3.5 3.717 7.8s-5.215 7.809-8.641 7.809-5.077-3.5-3.717-7.809 5.229-7.8 8.641-7.8z" class="cls-13" transform="translate(-57.451 -221.099)"/>
                    <path id="Tracé_32" d="M84.467 368.869c0 4.549-1.387 8.253-2.927 8.253s-2.941-3.7-2.941-8.253 1.387-8.239 2.941-8.239 2.927 3.69 2.927 8.239z" class="cls-13" transform="translate(-76.075 -209.448)"/>
                    <path id="Tracé_33" d="M258.55 306.443v-4.674a9.016 9.016 0 0 1 10.861-8.836l17.782 3.7a9.03 9.03 0 0 1 7.185 8.836v.971a9.03 9.03 0 0 1-9.016 9.03H267.58a9.03 9.03 0 0 1-9.03-9.027z" class="cls-13" transform="translate(-6.423 -235.725)"/>
                    <path id="Tracé_34" d="M327.815 264.076s-2.372-.236-6.505-.6c18.282 37.451 13.621 55.607 13.621 55.607h13.954c.139-22.799-21.07-55.007-21.07-55.007z" class="cls-13" transform="translate(17.869 -247.051)"/>
                    <path id="Tracé_35" fill="#ffc628" d="M239.694 301.959a11.9 11.9 0 0 1-11.832 10.764H155.97c-5.243 0-7.143-5.853-3.343-10.209a203.042 203.042 0 0 1 22.273-21.749c13.538-11.4 30.349-17.324 46.064-16.229l5.937.43a11.929 11.929 0 0 1 10.736 9.39 90.353 90.353 0 0 1 2.053 27.6z" opacity="0.2" transform="translate(-48.195 -246.693)"/>
                    <path id="Tracé_36" d="M332.524 411.68a.693.693 0 0 1-.694-.693c0-14.037 7.157-71.919 9.03-80.588 1.817-8.42 1.817-17.824 0-23.941a.694.694 0 0 1 .472-.86.707.707 0 0 1 .86.472c1.873 6.325 1.873 15.993 0 24.62s-9 66.316-9 80.3a.693.693 0 0 1-.668.69z" class="cls-14" transform="translate(21.941 -230.759)"/>
                    <path id="Tracé_37" d="M336.322 325.978h-16.909a2.095 2.095 0 0 1-2.108-2.566l.347-1.956a3.19 3.19 0 0 1 3.01-2.566h16.908a2.095 2.095 0 0 1 2.108 2.566l-.347 1.956a3.19 3.19 0 0 1-3.009 2.566z" class="cls-14" transform="translate(16.298 -225.604)"/>
                </g>
                <g id="freepik--Pin--inject-4" transform="translate(366.997 102.679)">
                    <path id="Tracé_38" d="M378.478 183.074h-1.387a36.712 36.712 0 0 0-1.513-10.436l1.388-.383a37.937 37.937 0 0 1 1.512 10.819zm-5.978-17.741a36.7 36.7 0 0 0-32-18.836v-1.387a38.033 38.033 0 0 1 33.206 19.558z" class="cls-9" transform="translate(-307.405 -145.11)"/>
                    <path id="Tracé_39" d="M349.735 148.61a33.109 33.109 0 0 0-33.1 33.109c0 31.9 33.1 53.763 33.1 53.763s33.123-21.874 33.123-53.763a33.123 33.123 0 0 0-33.123-33.109zm0 48.7a15.452 15.452 0 1 1 15.465-15.452 15.452 15.452 0 0 1-15.465 15.452z" class="cls-9" transform="translate(-316.64 -143.755)"/>
                </g>
                <g id="freepik--Character--inject-4" transform="translate(306.065 115.102)">
                    <path id="Tracé_40" d="M297.97 420.178l8.378-.139 2.414-19.419-8.364.139z" class="cls-17" transform="translate(-255.485 -112.19)"/>
                    <path id="Tracé_41" d="M328.209 420.1l8.128-2.483-5.049-18.406-8.128 2.5z" class="cls-17" transform="translate(-245.734 -112.736)"/>
                    <path id="Tracé_42" d="M335.12 411.193l-9.071 4.674a.735.735 0 0 0-.361.846l1.942 7.365a1.221 1.221 0 0 0 1.762.763c2.9-1.554 4.938-2.774 8.614-4.73 2.261-1.165 9.2-4.439 12.317-6.061s1.942-4.91.527-4.522c-6.38 1.706-11.6 2.205-14.287 1.5a2 2 0 0 0-1.443.165z" class="cls-13" transform="translate(-244.767 -108.754)"/>
                    <path id="Tracé_43" d="M307.312 413.92l-9.141.153a.721.721 0 0 0-.694.583l-1.54 7.462a1.207 1.207 0 0 0 1.221 1.47c3.3-.111 8.059-.374 12.206-.444 4.841-.069 6.256.125 11.943 0 3.426 0 4.328-3.551 2.885-3.842-6.575-1.387-9.141-1.387-14.842-4.8a4.162 4.162 0 0 0-2.038-.582z" class="cls-13" transform="translate(-256.282 -107.042)"/>
                    <path id="Tracé_44" d="M316.493 231.05c1.9 3.814 4.05 7.851 6.2 11.693s4.425 7.67 6.852 11.263c.624.888 1.207 1.817 1.845 2.663l1.567 2.136c.319.416.5.61.555.707s.083.236.486.264a8.032 8.032 0 0 0 3.953-1.942c.763-.583 1.54-1.248 2.3-1.956s1.526-1.526 2.192-2.178l5.534 3.079a28.046 28.046 0 0 1-1.637 3.565 24.345 24.345 0 0 1-2.136 3.357 19.827 19.827 0 0 1-2.913 3.163 13.6 13.6 0 0 1-4.4 2.622 10.889 10.889 0 0 1-6.325.347 12.485 12.485 0 0 1-5.3-2.774 11.978 11.978 0 0 1-.957-.9l-.444-.458-.319-.361-1.221-1.387c-.818-.929-1.567-1.886-2.344-2.774a121.25 121.25 0 0 1-8.184-11.929c-1.221-2.053-2.427-4.161-3.537-6.228s-2.192-4.161-3.218-6.505z" class="cls-17" transform="translate(-252.744 -177.824)"/>
                    <path id="Tracé_45" d="M302.541 232.924c-2.261 7.684 13.621 28.615 13.621 28.615l16.021-10.306a102.2 102.2 0 0 0-11.1-18.836c-6.557-8.364-16.073-7.92-18.542.527z" class="cls-9" transform="translate(-253.8 -179.643)"/>
                    <g id="Groupe_6" class="cls-18" transform="translate(48.521 46.708)">
                        <path id="Tracé_46" d="M302.541 232.924c-2.261 7.684 13.621 28.615 13.621 28.615l16.021-10.306a102.2 102.2 0 0 0-11.1-18.836c-6.557-8.364-16.073-7.92-18.542.527z" transform="translate(-302.321 -226.351)"/>
                    </g>
                    <path id="Tracé_47" d="M311.293 237.634c3.287 1.387 8.142 9.349 10.666 15.258l-6.8 4.369a126.8 126.8 0 0 1-10.219-16.021c2.15-2.386 4.605-4.34 6.353-3.606z" class="cls-14" transform="translate(-252.787 -175.337)"/>
                    <path id="Tracé_48" d="M331.32 251.077l5.8-9.377 5.063 8.087a9.973 9.973 0 0 1-5.548 4.563z" class="cls-17" transform="translate(-242.576 -173.702)"/>
                    <path id="Tracé_49" d="M343.579 242.361v2.9a3.911 3.911 0 0 1-.888 2.483l-2.108 2.608-5.063-8.087 5.229-1.9a2.122 2.122 0 0 1 2.83 2z" class="cls-17" transform="translate(-240.95 -174.266)"/>
                    <path id="Tracé_50" d="M339.8 255.724l-9.127-.139 5.049-18.906 9.127.139z" class="cls-9" transform="translate(-242.828 -175.645)"/>
                    <path id="Tracé_51" d="M340.467 255.724l-9.127-.139 5.049-18.906 9.127.139z" class="cls-13" transform="translate(-242.568 -175.645)"/>
                    <path id="Tracé_52" d="M308.436 400.63l-1.248 10-8.378.139 1.248-10.015z" class="cls-14" transform="translate(-255.16 -112.186)"/>
                    <path id="Tracé_53" d="M323.16 401.707l8.142-2.5 2.598 9.493-8.142 2.5z" class="cls-14" transform="translate(-245.734 -112.736)"/>
                    <path id="Tracé_54" d="M277.058 237.313c6.838 29.434 5.354 58.631 6.1 64.929l44.65-3.329c4.286-47.84-5.867-72.127-5.867-72.127s-2.871-.555-6.769-.957c-1.221-.125-2.552-.236-3.925-.305-.763 0-1.526-.069-2.316-.083a165.759 165.759 0 0 0-18.975 1.387c-1.193.153-2.4.319-3.579.513l-3.163.583h-.125a7.754 7.754 0 0 0-6.034 9.39z" class="cls-9" transform="translate(-263.66 -179.996)"/>
                    <g id="Groupe_7" class="cls-18" transform="translate(13.19 45.444)">
                        <path id="Tracé_55" d="M277.058 237.313c6.838 29.434 5.354 58.631 6.1 64.929l44.65-3.329c4.286-47.84-5.867-72.127-5.867-72.127s-2.871-.555-6.769-.957c-1.221-.125-2.552-.236-3.925-.305-.763 0-1.526-.069-2.316-.083a165.759 165.759 0 0 0-18.975 1.387c-1.193.153-2.4.319-3.579.513l-3.163.583h-.125a7.754 7.754 0 0 0-6.034 9.39z" transform="translate(-276.85 -225.44)"/>
                    </g>
                    <path id="Tracé_56" d="M283.882 238.48l-5.132 6.589a1.543 1.543 0 0 1 0 .25c.721 4.466 1.276 8.836 1.692 13.052 4.924-6.062 4.203-17.006 3.44-19.891z" class="cls-14" transform="translate(-262.924 -174.948)"/>
                    <path id="Tracé_57" d="M288.469 217.648c1.068 4.494 1 9.487-2.219 13.066 3.565 3.052 8.184 6.533 15.452 6.256s5.645-5.188 3.523-7.67c-6.2-1-6.214-5.035-6.27-9.474a2.122 2.122 0 0 0-1.484-2.011l-6.824-2.192a1.706 1.706 0 0 0-2.178 2.025z" class="cls-17" transform="translate(-260.021 -183.827)"/>
                    <path id="Tracé_58" d="M304.246 257.437c-3.745 0-7.2-4.494-7.878-10.237a11.387 11.387 0 0 1 2.067-8.739 4.674 4.674 0 0 1 3.551-1.692c3.731 0 7.2 4.494 7.865 10.237a11.4 11.4 0 0 1-2.053 8.739 4.744 4.744 0 0 1-3.551 1.692zM302 238.157a3.288 3.288 0 0 0-2.511 1.234 10.1 10.1 0 0 0-1.72 7.643c.569 4.9 3.537 9.016 6.491 9.016a3.287 3.287 0 0 0 2.524-1.234 10.153 10.153 0 0 0 1.72-7.643c-.541-4.9-3.509-9.016-6.45-9.016z" class="cls-9" transform="translate(-256.171 -175.61)"/>
                    <path id="Tracé_59" d="M297.336 218.81l-6.866.888c.153.305.347.6.527.888 1.3 2.081 4.161 3.454 7.13 3.953a14.606 14.606 0 0 1-.791-5.729z" class="cls-14" transform="translate(-258.388 -182.562)"/>
                    <path id="Tracé_60" d="M301.84 208.64c3.814.638 10.944-3.69 9.279-9.46-2.136 2.677-9.279 1.775-9.279 1.775z" class="cls-13" transform="translate(-253.987 -190.16)"/>
                    <path id="Tracé_61" d="M293.891 210.528c.416 3.856-4.342 10.722-10 8.711 2.774-1.97 2.33-9.168 2.33-9.168z" class="cls-13" transform="translate(-260.934 -185.945)"/>
                    <path id="Tracé_62" d="M287.348 207.793c-1.026 8.239-2.053 13.025 1.29 18.032 5.007 7.449 15.771 5.548 19.239-2.178 3.121-6.935 4.272-19.294-3.107-24.038a11.332 11.332 0 0 0-17.422 8.184z" class="cls-17" transform="translate(-259.981 -190.7)"/>
                    <path id="Tracé_63" d="M288.432 218.092c2.011 2.122 7.546-6.547 6.533-9.709 2.081.915 6.075-.832 5.826-4.272 6.228 3.329 15.258 5.964 15.4 0s-5.548-10.472-11.1-10.944c.666 1.789-1.1 2.552-4.716 1.789s-17.575-7.185-16.035 5.644c-5.215.306-5.895 6.909 4.092 17.492z" class="cls-13" transform="translate(-262.203 -192.677)"/>
                    <path id="Tracé_64" d="M283.331 209.878a7.893 7.893 0 0 0 3.052 5.2c2.219 1.651 3.606-.1 3.814-2.7.194-2.358 0-6.048-2.649-6.672a3.537 3.537 0 0 0-4.217 4.175z" class="cls-17" transform="translate(-261.18 -187.667)"/>
                    <path id="Tracé_65" d="M292.392 280.608l29.35-2.178s3.8 60.24 3.509 85.776c-.291 26.576-12.484 91.727-12.484 91.727l-14.176.222s1.124-63.195 1.124-89.285c0-35.134-7.365-86.262-7.365-86.262" class="cls-13" transform="translate(-257.66 -159.485)"/>
                    <path id="Tracé_66" d="M300.56 325.15c.388 1.734 11.3 50.572 14.828 79.063 1.872-11.845 3.8-25.147 5.1-36.9z" class="cls-14" transform="translate(-254.482 -141.401)"/>
                    <path id="Tracé_67" d="M310.148 279.29s22.346 54.734 27.381 78.744c5.548 26.285 14.356 92.767 14.356 92.767l-15.161 2.358s-11.471-49.7-17.893-75.082c-7.3-28.934-36.23-74.749-37.451-96.651z" class="cls-13" transform="translate(-261.906 -159.152)"/>
                    <path id="Tracé_68" d="M339.5 405.647l-18.836 4.411-2.374-7.258 20.57-3.523z" class="cls-9" transform="translate(-247.619 -112.708)"/>
                    <path id="Tracé_69" d="M313.128 408.24l-16.894.264-.083-5.451 18.864-.583z" class="cls-9" transform="translate(-256.189 -111.474)"/>
                    <path id="Tracé_70" d="M295.359 208.379c-.125.666.125 1.262.555 1.387s.888-.388 1.013-1.054-.125-1.262-.569-1.387-.874.389-.999 1.054z" class="cls-13" transform="translate(-256.508 -187.015)"/>
                    <path id="Tracé_71" d="M301.279 209.638a1.164 1.164 0 0 0 .555 1.387c.43.125.888-.388 1.013-1.054s-.125-1.276-.555-1.387-.892.389-1.013 1.054z" class="cls-13" transform="translate(-254.216 -186.526)"/>
                    <path id="Tracé_72" fill="#a02724" d="M299.649 209.22a24.153 24.153 0 0 0 2.108 6.27 3.911 3.911 0 0 1-3.287 0z" transform="translate(-255.291 -186.274)"/>
                    <path id="Tracé_73" d="M298.473 216a5.548 5.548 0 0 1-3.606-2.538.2.2 0 1 1 .347-.194 5.368 5.368 0 0 0 4.161 2.469.208.208 0 0 1 0 .4 5.313 5.313 0 0 1-.902-.137z" class="cls-13" transform="translate(-256.695 -184.746)"/>
                    <path id="Tracé_74" d="M294.84 206.432a.787.787 0 0 1-.18-.111.43.43 0 0 1 0-.569 3.981 3.981 0 0 1 3.482-1.013.4.4 0 0 1 .277.485.388.388 0 0 1-.472.277 3.176 3.176 0 0 0-2.774.846.4.4 0 0 1-.333.085z" class="cls-13" transform="translate(-256.807 -188.036)"/>
                    <path id="Tracé_75" d="M305.13 208.749a.4.4 0 0 1-.264-.277 3.079 3.079 0 0 0-1.859-2.164.4.4 0 1 1 .236-.763 3.926 3.926 0 0 1 2.386 2.774.374.374 0 0 1-.277.486.305.305 0 0 1-.222-.056z" class="cls-13" transform="translate(-253.643 -187.703)"/>
                    <path id="Tracé_76" d="M335.388 411.441a9.706 9.706 0 0 1-2.081.735.166.166 0 0 1-.208 0 .194.194 0 0 1 0-.222c.18-.305 1.817-3.024 2.857-3.024a.638.638 0 0 1 .569.347 1.207 1.207 0 0 1 .111 1.123 2.58 2.58 0 0 1-1.248 1.041zm-1.706.222a4.064 4.064 0 0 0 2.58-1.484.8.8 0 0 0-.1-.763c-.083-.139-.153-.153-.222-.153-.541 0-1.581 1.345-2.261 2.4z" class="cls-9" transform="translate(-241.901 -108.973)"/>
                    <path id="Tracé_77" d="M333.5 412.46h-.111a.222.222 0 0 1-.167-.125 5.95 5.95 0 0 1-.472-3.482 1.124 1.124 0 0 1 .638-.624.638.638 0 0 1 .791.18c.6.749 0 3.149-.61 3.967a.139.139 0 0 1-.069.083zm0-3.787a.707.707 0 0 0-.333.361 4.813 4.813 0 0 0 .333 2.774c.458-.985.777-2.7.43-3.135 0 0-.111-.139-.347 0z" class="cls-9" transform="translate(-242.053 -109.271)"/>
                    <path id="Tracé_78" d="M304.774 415.271a.194.194 0 0 1 0-.361c.374-.208 3.717-1.97 4.744-1.387a.666.666 0 0 1 .333.527 1.137 1.137 0 0 1-.361.971c-.9.818-3.3.527-4.661.277zm4.522-1.456a8.24 8.24 0 0 0-3.773 1.165 5.451 5.451 0 0 0 3.745-.277.721.721 0 0 0 .222-.652.222.222 0 0 0-.125-.208z" class="cls-9" transform="translate(-252.898 -107.241)"/>
                    <path id="Tracé_79" d="M304.763 415.808a.222.222 0 0 1-.083-.18 5.784 5.784 0 0 1 1.248-3.246 1.526 1.526 0 0 1 1.1-.361.667.667 0 0 1 .749.555c.166.943-1.8 2.774-2.774 3.246a.194.194 0 0 1-.24-.014zm2.372-3.371a.359.359 0 0 0-.194 0 1.013 1.013 0 0 0-.8.264 4.633 4.633 0 0 0-1.068 2.594c1.026-.624 2.358-2.081 2.261-2.635 0-.083-.028-.166-.194-.222zm-.18-.237z" class="cls-9" transform="translate(-252.888 -107.778)"/>
                    <path id="Tracé_80" d="M294.069 237.691c-2.774 4.924-5.548 10.181-8.045 15.355a120.205 120.205 0 0 0-6.45 15.646c-.208.652-.361 1.29-.555 1.928-.069.291-.194.707-.236.9a4.958 4.958 0 0 0-.111.486 8.1 8.1 0 0 0 .069 2.622 24.358 24.358 0 0 0 2.7 6.755 84.874 84.874 0 0 0 10.015 13.579l-4.022 4.827a60.658 60.658 0 0 1-14.12-12.969 31.2 31.2 0 0 1-5.091-9.377 18.033 18.033 0 0 1-.874-6.283 14.662 14.662 0 0 1 .18-1.734c.069-.569.153-.86.236-1.3.167-.8.319-1.651.5-2.441a105.408 105.408 0 0 1 6.3-17.949 153.365 153.365 0 0 1 8.6-16.534z" class="cls-17" transform="translate(-267.34 -177.766)"/>
                    <path id="Tracé_81" d="M284.588 227.851c-7.726 2.122-15.258 23.83-15.258 23.83l18.6 5.16a59.933 59.933 0 0 0 7.726-14.869c3.912-10.556-1.72-16.672-11.068-14.121z" class="cls-9" transform="translate(-266.57 -179.286)"/>
                    <g id="Groupe_8" class="cls-18" transform="translate(2.76 47.987)">
                        <path id="Tracé_82" d="M284.588 227.851c-7.726 2.122-15.258 23.83-15.258 23.83l18.6 5.16a59.933 59.933 0 0 0 7.726-14.869c3.912-10.556-1.72-16.672-11.068-14.121z" transform="translate(-269.33 -227.273)"/>
                    </g>
                    <path id="Tracé_83" d="M282.845 276.14l8.489 2.233-3.371 7.976s-7.615-1.609-7.573-5.756z" class="cls-17" transform="translate(-262.289 -160.371)"/>
                    <path id="Tracé_84" d="M292.48 283.16l-2.511 6.311-4.12-3.745 3.371-7.976z" class="cls-17" transform="translate(-260.176 -159.748)"/>
                </g>
            </g>
        </g>
    </g>
</svg>
