<svg xmlns="http://www.w3.org/2000/svg" width="319.775" height="200.405" viewBox="0 0 381.775 262.405">
    <defs>
        <style>
            .cls-1{fill:#f5f5f5}.cls-2{fill:#ebebeb}.cls-3{fill:#e0e0e0}.cls-4{fill:#fff}.cls-6{fill:#ffc628}.cls-8{fill:#263238}.cls-9{opacity:.3}
        </style>
    </defs>
    <g id="Groupe_167" transform="translate(-337 -264)">
        <g id="freepik--background-complete--inject-18" transform="translate(346.606 264)">
            <path id="Tracé_1" d="M416.788 79.275a28.044 28.044 0 1 1-31.75-23.644 28.044 28.044 0 0 1 31.75 23.644z" class="cls-1" transform="translate(-194.259 -55.332)"/>
            <path id="Tracé_2" d="M413.516 83.547a21.367 21.367 0 1 1-24.2-18.028 21.367 21.367 0 0 1 24.2 18.028z" class="cls-2" transform="translate(-197.584 -58.643)"/>
            <path id="Tracé_3" d="M413.249 82.514a13.533 13.533 0 0 1-.928-2.464 22.754 22.754 0 0 0-3.379-6.123A21.857 21.857 0 0 0 405.6 70.5a21.533 21.533 0 0 0-4.674-2.884 20.277 20.277 0 0 0-2.784-1.035 20.946 20.946 0 0 0-12.693.321 21.433 21.433 0 0 0-2.938 1.275 19.916 19.916 0 0 0-2.617 1.643 19.265 19.265 0 0 0-2.257 1.93 21.046 21.046 0 0 0-5.342 8.68 22.735 22.735 0 0 0-1.068 6.911 16.807 16.807 0 0 1 0 2.631 6 6 0 0 1-.614-2.591 19.783 19.783 0 0 1 .587-7.281 21.82 21.82 0 0 1 1.856-4.694 21.506 21.506 0 0 1 3.5-4.674 20.286 20.286 0 0 1 2.39-2.11 20.7 20.7 0 0 1 2.8-1.809 21.7 21.7 0 0 1 3.158-1.4 24.294 24.294 0 0 1 3.439-.9 23.751 23.751 0 0 1 3.546-.334 20.991 20.991 0 0 1 3.445.227 20.313 20.313 0 0 1 3.245.734 19.742 19.742 0 0 1 2.971 1.1 21.467 21.467 0 0 1 8.32 7 19.791 19.791 0 0 1 3.031 6.624 6.181 6.181 0 0 1 .348 2.65z" class="cls-3" transform="translate(-197.417 -58.271)"/>
            <path id="Tracé_4" d="M402.514 102.076l.588 3.679-3.285.521-.568-3.572a15.6 15.6 0 0 1-8.593-1.335l1.168-4.293a13.314 13.314 0 0 0 6.737 1.335l-.881-5.475c-3.779-.3-8.046-.868-8.794-5.555-.554-3.479 1.489-6.871 6.577-8.286l-.581-3.646 3.278-.527.574 3.579a15.03 15.03 0 0 1 6.978.935l-.995 4.3a13.608 13.608 0 0 0-5.288-.908l.895 5.582c3.773.267 7.972.841 8.714 5.469.547 3.403-1.476 6.755-6.524 8.197zm-5.569-13.969l-.748-4.674c-1.676.668-2.21 1.736-2.036 2.818s1.229 1.629 2.784 1.856zm6.9 7c-.18-1.148-1.235-1.616-2.724-1.883l.728 4.527c1.549-.621 2.13-1.589 1.963-2.644z" class="cls-3" transform="translate(-203.495 -61.841)"/>
            <path id="Tracé_5" d="M629.743 271.808s-6.216-3.592-12.646 11.144-8.68 23.143-8.68 23.143-1.749 3.112-3.919 1.282-5.342-7.225-8.767-6.009c-3.566 1.255-4.514 5.375-3.465 11.278s2.871 18.936 3.031 20.111-.4 2.911-2.083 1.9-11.6-10.8-15.965-5.816 1.262 20.959 1.85 22.7.274 2.544-.548 3.038-3.846-3.112-6.777-5.782-6.8-5.248-9.081-2.163-2.33 15.357 10.47 34.441l6.51 8.467 10.683-1.235c22.642-4.006 31.429-12.566 32.05-16.346s-3.9-4.781-7.852-5.041-8.68.06-8.867-.875.14-1.7 1.809-2.5 17.08-7.826 17.641-14.429-13.354-6.951-15.264-7.458-1.022-2.13-.08-2.818 11.611-8.427 16.593-11.765 7.291-6.884 5.722-10.323c-1.509-3.339-7.579-1.85-10.4-2.143s-1.8-3.712-1.8-3.712 4.487-7.465 10.643-22.315-.922-16.846-.922-16.846" class="cls-2" transform="translate(-260.892 -127.137)"/>
            <path id="Tracé_6" d="M589.29 394.067c4.567-10.89 11-25.874 18.155-42.413s13.628-31.5 18.249-42.36l5.469-12.867 1.489-3.5.394-.9c.093-.207.147-.307.147-.307a2.717 2.717 0 0 1-.107.32l-.367.915c-.327.821-.808 2-1.422 3.526-1.242 3.058-3.071 7.472-5.342 12.914-4.587 10.89-11.017 25.914-18.162 42.406s-13.628 31.509-18.249 42.366" class="cls-3" transform="translate(-270.116 -133.882)"/>
            <path id="Tracé_7" d="M618.89 327.78a3.344 3.344 0 0 1 .32.708c.18.461.427 1.135.728 2 .588 1.676 1.335 4.006 2.117 6.6l2 6.644c.24.788.441 1.456.608 2a.387.387 0 1 1-.134.047c-.187-.467-.434-1.142-.721-2-.574-1.683-1.289-4.006-2.07-6.617l-2-6.624-.614-2a2.73 2.73 0 0 1-.234-.758z" class="cls-3" transform="translate(-279.952 -145.864)"/>
            <path id="Tracé_8" d="M629.25 352.25c0-.093 4.714-1.856 10.6-3.939s10.683-3.692 10.683-3.592-4.714 1.856-10.6 3.94-10.65 3.657-10.683 3.591z" class="cls-3" transform="translate(-283.395 -151.491)"/>
            <path id="Tracé_9" d="M611.08 392.258a3.216 3.216 0 0 1 .781-.087l2.143-.127c1.8-.107 4.3-.267 7.044-.541s5.222-.588 7.011-.841l2.123-.287a3.177 3.177 0 0 1 .788-.067 2.971 2.971 0 0 1-.761.207c-.494.107-1.215.247-2.11.407-1.783.314-4.26.668-7.018.948s-5.255.387-7.071.427h-2.143a2.965 2.965 0 0 1-.788-.04z" class="cls-3" transform="translate(-277.357 -166.641)"/>
            <path id="Tracé_10" d="M596.09 369.82a5.01 5.01 0 0 1 .461.568c.274.381.668.928 1.142 1.622.941 1.376 2.23 3.3 3.632 5.429s2.671 4.073 3.552 5.489c.447.708.8 1.289 1.042 1.689a3.144 3.144 0 0 1 .341.668 2.67 2.67 0 0 1-.461-.568c-.274-.381-.668-.935-1.142-1.622-.941-1.382-2.23-3.3-3.632-5.435s-2.671-4.073-3.552-5.489c-.447-.708-.8-1.282-1.042-1.689a3.217 3.217 0 0 1-.341-.661z" class="cls-3" transform="translate(-272.376 -159.833)"/>
            <path id="Tracé_11" d="M575.87 400.69a5.02 5.02 0 0 1 .574.728c.387.554.881 1.249 1.469 2.077 1.222 1.763 2.891 4.213 4.714 6.924s3.459 5.188 4.627 6.984l1.369 2.143a4.787 4.787 0 0 1 .461.815 4.62 4.62 0 0 1-.581-.734l-1.462-2.077c-1.222-1.763-2.891-4.207-4.721-6.924s-3.459-5.188-4.627-6.984c-.547-.855-1-1.576-1.369-2.143a4 4 0 0 1-.454-.809z" class="cls-3" transform="translate(-265.657 -170.091)"/>
            <path id="Tracé_12" d="M595.38 427.738a5.229 5.229 0 0 1 .995-.14l2.671-.254c2.284-.22 5.442-.527 8.914-.968s6.61-.908 8.88-1.269l2.671-.421a4.928 4.928 0 0 1 .995-.107 5.46 5.46 0 0 1-.968.247c-.628.14-1.536.327-2.671.534-2.257.427-5.4.941-8.874 1.375s-6.677.714-8.941.861c-1.148.073-2.077.127-2.718.147a5.064 5.064 0 0 1-.955-.007z" class="cls-3" transform="translate(-272.14 -178.029)"/>
            <path id="Tracé_13" d="M242.9 274.792l-127.26-39.609a6.2 6.2 0 0 1-4.08-7.765l24.472-78.6a6.2 6.2 0 0 1 7.779-4.093l127.266 39.615a6.2 6.2 0 0 1 4.073 7.759l-24.5 78.616a6.19 6.19 0 0 1-7.745 4.073z" class="cls-3" transform="translate(-111.278 -84.943)"/>
            <path id="Tracé_14" d="M309.147 222.425a10.049 10.049 0 1 1-.694-7.667 10.056 10.056 0 0 1 .694 7.667z" class="cls-4" transform="translate(-170.495 -106.519)"/>
            <path id="Tracé_15" d="M315.5 235.146a10.848 10.848 0 0 1-1.823-.4 10.343 10.343 0 1 1 1.823.4zm2.491-19.965A9.648 9.648 0 1 0 326 227.62a9.655 9.655 0 0 0-6.343-12.079 10.417 10.417 0 0 0-1.7-.361z" class="cls-4" transform="translate(-176.133 -108.235)"/>
            <path id="Tracé_16" d="M140.995 234.125l-2.39 7.719-.795-.247 2.183-7.011-1.816-.568.22-.708z" class="cls-4" transform="translate(-120.094 -114.472)"/>
            <path id="Tracé_17" d="M148.4 244.649l-.22.708-5.415-1.689.18-.561 4.187-2.143c1.135-.594 1.462-1.062 1.629-1.589.28-.895-.18-1.643-1.335-2a2.751 2.751 0 0 0-2.377.207l-.414-.668a3.632 3.632 0 0 1 3.078-.254c1.569.487 2.317 1.6 1.916 2.885-.234.741-.668 1.335-2 2l-3.432 1.763z" class="cls-4" transform="translate(-121.739 -115.508)"/>
            <path id="Tracé_18" d="M160.667 247.317l-1.549-.474-.628 2-.795-.254.628-2-4.353-1.335.174-.574 5.689-3.839.881.274-5.5 3.753 3.339 1.048.554-1.789.768.24-.554 1.789 1.542.481z" class="cls-4" transform="translate(-125.464 -116.975)"/>
            <path id="Tracé_19" d="M178.387 252.833l-1.542-.481-.634 2-.795-.247.634-2-4.36-1.335.18-.574 5.682-3.846.881.274-5.5 3.759 3.339 1.042.554-1.783.775.24-.561 1.783 1.549.481z" class="cls-4" transform="translate(-131.352 -118.805)"/>
            <path id="Tracé_20" d="M188.959 255.411c-.407 1.335-1.643 2.057-3.532 1.469a4.16 4.16 0 0 1-2.457-1.856l.581-.507a3.492 3.492 0 0 0 2.09 1.629c1.335.414 2.21 0 2.5-.948s-.12-1.8-2.083-2.417l-1.643-.507 1.6-3.753 4.227 1.335-.22.708-3.532-1.1-1.028 2.384.995.307c2.329.692 2.93 1.894 2.502 3.256z" class="cls-4" transform="translate(-135.101 -119.527)"/>
            <path id="Tracé_21" d="M200.59 259.169a2.505 2.505 0 0 1-3.339 1.556c-2.05-.668-2.724-2.41-1.963-4.848.815-2.624 2.671-3.552 4.774-2.9a3.712 3.712 0 0 1 1.7.988l-.514.541a2.885 2.885 0 0 0-1.389-.828c-1.663-.521-3.072.22-3.719 2.317a6.1 6.1 0 0 0-.167.634 2.591 2.591 0 0 1 2.778-.588 2.468 2.468 0 0 1 1.839 3.128zm-.788-.234a1.78 1.78 0 0 0-1.422-2.27 1.781 1.781 0 1 0-.988 3.359 1.769 1.769 0 0 0 2.41-1.088z" class="cls-4" transform="translate(-139.093 -120.941)"/>
            <path id="Tracé_22" d="M216.193 263.861c-.407 1.289-1.649 2-3.512 1.409a4.193 4.193 0 0 1-2.471-1.856l.581-.508a3.5 3.5 0 0 0 2.117 1.636c1.275.4 2.17 0 2.464-.935s-.174-1.736-1.6-2.183l-.554-.174.18-.581 2.978-2-3.953-1.229.22-.708 4.968 1.549-.18.561-3.038 2.07c1.626.588 2.18 1.714 1.8 2.949z" class="cls-4" transform="translate(-144.152 -122.255)"/>
            <path id="Tracé_23" d="M227.994 267.709a2.525 2.525 0 0 1-3.372 1.549c-2.05-.668-2.724-2.41-1.963-4.848.815-2.624 2.671-3.546 4.774-2.891a3.693 3.693 0 0 1 1.7.988l-.514.541a2.891 2.891 0 0 0-1.389-.835c-1.669-.514-3.071.22-3.719 2.317a6.242 6.242 0 0 0-.167.668 2.584 2.584 0 0 1 2.771-.594 2.416 2.416 0 0 1 1.879 3.105zm-.788-.227a1.774 1.774 0 0 0-1.422-2.264 1.867 1.867 0 0 0-2.511 1.068c-.267.848.187 1.87 1.522 2.29a1.769 1.769 0 0 0 2.41-1.1z" class="cls-4" transform="translate(-148.188 -123.779)"/>
            <path id="Tracé_24" d="M240.767 265.216l-.18.561-5.455 6.156-.861-.274 5.342-6.009-3.966-1.235-.454 1.442-.781-.247.668-2.15z" class="cls-4" transform="translate(-152.147 -124.491)"/>
            <path id="Tracé_25" d="M257.267 270.363l-.174.568-5.462 6.15-.861-.267 5.342-6.009-4.006-1.235-.447 1.449-.788-.247.668-2.15z" class="cls-4" transform="translate(-157.63 -126.206)"/>
            <path id="Tracé_26" d="M266.253 279.748c-.427 1.369-1.85 1.856-3.692 1.282s-2.711-1.776-2.284-3.145a2 2 0 0 1 2.077-1.436 1.816 1.816 0 0 1-.668-2.077c.387-1.255 1.7-1.7 3.339-1.2s2.477 1.629 2.09 2.884a1.83 1.83 0 0 1-1.769 1.335 2 2 0 0 1 .907 2.357zm-.808-.267c.294-.948-.341-1.8-1.709-2.223s-2.357-.08-2.671.868.32 1.81 1.689 2.23 2.39.087 2.691-.875zm-1.509-2.851c1.2.374 2.083.053 2.344-.781s-.321-1.636-1.482-2-2.07-.067-2.337.795.266 1.612 1.475 1.986z" class="cls-4" transform="translate(-160.753 -127.652)"/>
            <path id="Tracé_27" d="M278.12 281.5c-.815 2.624-2.671 3.546-4.774 2.891a3.659 3.659 0 0 1-1.7-.988l.514-.541a2.8 2.8 0 0 0 1.389.828c1.663.521 3.071-.214 3.719-2.31a5.7 5.7 0 0 0 .167-.668 2.591 2.591 0 0 1-2.778.588 2.445 2.445 0 0 1-1.876-3.125 2.524 2.524 0 0 1 3.339-1.549c2.087.634 2.761 2.403 2 4.874zm-.614-1.876a1.878 1.878 0 0 0-1.522-2.29 1.767 1.767 0 1 0-.988 3.359 1.868 1.868 0 0 0 2.511-1.1z" class="cls-4" transform="translate(-164.568 -128.816)"/>
            <path id="Tracé_28" d="M293.248 281.515l-2.4 7.725-.795-.247 2.183-7.018-1.823-.568.22-.708z" class="cls-4" transform="translate(-170.682 -130.22)"/>
            <path id="Tracé_29" d="M300.649 292.037l-.22.708-5.429-1.689.174-.561 4.187-2.143c1.142-.588 1.469-1.055 1.636-1.589.274-.888-.18-1.636-1.335-2a2.758 2.758 0 0 0-2.377.2l-.407-.668a3.632 3.632 0 0 1 3.078-.247c1.562.487 2.31 1.589 1.91 2.878-.234.741-.668 1.335-2 2l-3.425 1.763z" class="cls-4" transform="translate(-172.327 -131.254)"/>
            <path id="Tracé_30" d="M311.563 293.551c-.4 1.289-1.649 2-3.519 1.409a4.226 4.226 0 0 1-2.464-1.856l.581-.507a3.553 3.553 0 0 0 2.11 1.636c1.282.4 2.177 0 2.471-.935s-.174-1.736-1.6-2.183l-.554-.174.18-.581 2.978-2-3.953-1.229.22-.708 4.968 1.542-.174.568-3.045 2.063c1.627.592 2.181 1.72 1.801 2.955z" class="cls-4" transform="translate(-175.843 -132.12)"/>
            <path id="Rectangle_2" d="M0 0H3.512V64.775H0z" class="cls-4" transform="rotate(-72.72 141.215 27.605)"/>
            <path id="Rectangle_3" d="M0 0H3.512V33.225H0z" class="cls-4" transform="rotate(-72.72 166.152 16.598)"/>
            <g id="Groupe_4" opacity="0.5" transform="translate(18.264 92.138)">
                <rect id="Rectangle_4" width="27.183" height="20.305" class="cls-2" rx="4.96" transform="rotate(17.25 3.01 19.864)"/>
            </g>
            <path id="Tracé_31" d="M141.13 210.3l.387-1.242 13.354 4.16a2.931 2.931 0 1 0 1.743-5.6l-13.354-4.16.387-1.242L157 206.38a4.233 4.233 0 1 1-2.517 8.079z" class="cls-3" transform="translate(-121.198 -104.142)"/>
            <path id="Rectangle_5" d="M0 0H1.297V9.572H0z" class="cls-3" transform="rotate(-72.474 92.879 28.89)"/>
            <path id="Rectangle_6" d="M0 0H69.903V5.996H0z" class="cls-4" transform="rotate(17.25 -237.766 144.897)"/>
            <path id="Tracé_32" d="M173.179 387.956a17.728 17.728 0 1 1-20.091-14.95 17.728 17.728 0 0 1 20.091 14.95z" class="cls-1" transform="translate(-120.128 -160.829)"/>
            <path id="Tracé_33" d="M171.1 390.657a13.514 13.514 0 1 1-15.311-11.4 13.514 13.514 0 0 1 15.311 11.4z" class="cls-2" transform="translate(-122.223 -162.922)"/>
            <path id="Tracé_34" d="M170.94 389.968a7.975 7.975 0 0 1-.588-1.556 14.457 14.457 0 0 0-2.137-3.873 13.354 13.354 0 0 0-6.837-4.674 11.971 11.971 0 0 0-1.91-.407 13.512 13.512 0 0 0-2-.12 15.733 15.733 0 0 0-2.077.2 15.14 15.14 0 0 0-2 .527 13.2 13.2 0 0 0-1.856.808 13.364 13.364 0 0 0-5.228 4.988 13.915 13.915 0 0 0-1.249 2.771 14.449 14.449 0 0 0-.668 4.367 7.344 7.344 0 0 1 0 1.669 4.16 4.16 0 0 1-.387-1.643 12.727 12.727 0 0 1 .374-4.6 14.149 14.149 0 0 1 1.2-2.991 13.842 13.842 0 0 1 2.217-2.978 12.742 12.742 0 0 1 1.509-1.335 13.612 13.612 0 0 1 1.769-1.142 14.14 14.14 0 0 1 2-.881 15.56 15.56 0 0 1 2.177-.574 15.086 15.086 0 0 1 2.244-.214 13.752 13.752 0 0 1 2.177.147 12.955 12.955 0 0 1 2.057.461 13.36 13.36 0 0 1 1.876.734 13.568 13.568 0 0 1 5.262 4.427 12.614 12.614 0 0 1 1.936 4.187 3.966 3.966 0 0 1 .139 1.702z" class="cls-3" transform="translate(-122.129 -162.654)"/>
            <path id="Tracé_35" d="M164.135 402.37l.374 2.324-2.077.334-.361-2.264a9.935 9.935 0 0 1-5.428-.828l.734-2.718a8.506 8.506 0 0 0 4.26.828l-.554-3.465c-2.4-.187-5.088-.541-5.562-3.512-.354-2.2.941-4.34 4.16-5.242l-.367-2.3 2.07-.334.367 2.264a9.515 9.515 0 0 1 4.414.594l-.628 2.718a8.612 8.612 0 0 0-3.339-.574l.568 3.532c2.39.167 5.041.534 5.509 3.459.334 2.153-.941 4.269-4.14 5.184zm-3.539-8.834l-.474-2.951c-1.062.427-1.4 1.1-1.289 1.783s.802 1.021 1.767 1.168zm4.367 4.427c-.113-.728-.781-1.022-1.723-1.2l.461 2.864c.999-.388 1.369-1.003 1.262-1.664z" class="cls-3" transform="translate(-125.961 -164.94)"/>
        </g>
        <g id="freepik--Plant--inject-18" transform="translate(648.581 479.326)">
            <path id="Tracé_36" d="M583.129 397c-1.3 1.843-3.813 1.235-4.974.107a9.435 9.435 0 0 1-2.11-4.327c-1.028-3.559-2.057-7.3-1.3-10.93a6.1 6.1 0 0 1 1.4-2.971 3.185 3.185 0 0 1 3-1c1.269.334 2.057 1.582 2.624 2.764a26.041 26.041 0 0 1 2.577 11.177 9.111 9.111 0 0 1-1.217 5.18" class="cls-6" transform="translate(-567.172 -377.816)"/>
            <g id="Groupe_5" opacity="0.2" transform="translate(7.314)">
                <path id="Tracé_37" d="M583.129 397c-1.3 1.843-3.813 1.235-4.974.107a9.435 9.435 0 0 1-2.11-4.327c-1.028-3.559-2.057-7.3-1.3-10.93a6.1 6.1 0 0 1 1.4-2.971 3.185 3.185 0 0 1 3-1c1.269.334 2.057 1.582 2.624 2.764a26.041 26.041 0 0 1 2.577 11.177 9.111 9.111 0 0 1-1.217 5.18" transform="translate(-574.485 -377.816)"/>
            </g>
            <path id="Tracé_38" d="M574.641 420.04a11.218 11.218 0 0 0-6.964-.848 5.749 5.749 0 0 0-3.432 1.536 2.476 2.476 0 0 0-.04 3.432 3.3 3.3 0 0 0 2.17.548c1.836 0 3.879-.347 5.342.761.841.634 1.4 1.683 2.4 2a2.377 2.377 0 0 0 2.6-1.162 4.006 4.006 0 0 0 .294-2.991 4.547 4.547 0 0 0-2.37-3.276z" class="cls-6" transform="translate(-563.532 -391.493)"/>
            <path id="Tracé_39" d="M592.063 402.6a6.731 6.731 0 0 1-1.042-6.19 11.918 11.918 0 0 1 3.666-5.342 19.73 19.73 0 0 1 6.564-3.873 7.024 7.024 0 0 1 2.951-.5 3.1 3.1 0 0 1 2.477 1.5c.668 1.335.033 2.918-.668 4.22a49.272 49.272 0 0 1-4.313 6.57 11.429 11.429 0 0 1-4.741 4.06c-1.97.721-4.006.668-5.061-.668" class="cls-6" transform="translate(-572.554 -380.764)"/>
            <path id="Tracé_40" d="M582.765 439.863a4.76 4.76 0 0 1-.114-.841c-.06-.608-.133-1.376-.227-2.29a33.4 33.4 0 0 0-.514-3.339 26.358 26.358 0 0 0-1.222-3.966 14.478 14.478 0 0 0-2-3.592 7.191 7.191 0 0 0-4.714-2.8 3.74 3.74 0 0 1-.841-.12 4.432 4.432 0 0 1 .855 0 6.609 6.609 0 0 1 2.25.588 7.559 7.559 0 0 1 2.671 2.15 14.457 14.457 0 0 1 2.1 3.659 24.045 24.045 0 0 1 1.215 4.04 29.312 29.312 0 0 1 .447 3.405c.073.968.1 1.756.113 2.3a3.477 3.477 0 0 1-.013.808z" class="cls-8" transform="translate(-566.721 -392.793)"/>
            <path id="Tracé_41" d="M585.2 426.809a1.6 1.6 0 0 1 0-.387v-1.115c0-.968 0-2.37-.053-4.1-.087-3.459-.381-8.226-.955-13.474s-1.335-9.969-2.05-13.354c-.167-.848-.334-1.609-.487-2.284s-.28-1.249-.4-1.716-.194-.795-.26-1.082a1.605 1.605 0 0 1-.067-.387 2 2 0 0 1 .134.367l.327 1.068c.14.467.287 1.042.454 1.709s.36 1.422.541 2.27a127.432 127.432 0 0 1 2.15 13.354c.581 5.262.835 10.016.861 13.508 0 1.736 0 3.138-.06 4.106 0 .454-.053.821-.067 1.115a2.264 2.264 0 0 1-.068.402z" class="cls-8" transform="translate(-569.313 -381.502)"/>
            <path id="Tracé_42" d="M587.28 418.98a8.129 8.129 0 0 1 0-1.162c.047-.748.147-1.83.361-3.152a41.706 41.706 0 0 1 1.022-4.6 40.8 40.8 0 0 1 1.923-5.435 28.9 28.9 0 0 1 5.649-8.794 14.445 14.445 0 0 1 1.335-1.235c.207-.167.387-.341.568-.474l.521-.361a7.623 7.623 0 0 1 .975-.628 36.417 36.417 0 0 0-3.212 2.871 30.6 30.6 0 0 0-5.5 8.754 43.462 43.462 0 0 0-1.936 5.388c-.5 1.689-.835 3.245-1.088 4.554s-.381 2.384-.467 3.125a6.869 6.869 0 0 1-.151 1.149z" class="cls-8" transform="translate(-571.416 -382.908)"/>
        </g>
        <g id="freepik--credit-card--inject-18" transform="translate(415.227 284.146)">
            <path id="Tracé_43" d="M318.179 263.793L214.831 154.476a2.878 2.878 0 0 1 .114-4.06l67.845-64.127a2.871 2.871 0 0 1 4.06.114l103.341 109.324a2.878 2.878 0 0 1-.114 4.06l-67.833 64.1a2.864 2.864 0 0 1-4.066-.093z" class="cls-6" transform="translate(-214.048 -85.504)"/>
            <g id="Groupe_6" class="cls-9">
                <path id="Tracé_44" d="M318.179 263.793L214.831 154.476a2.878 2.878 0 0 1 .114-4.06l67.845-64.127a2.871 2.871 0 0 1 4.06.114l103.341 109.324a2.878 2.878 0 0 1-.114 4.06l-67.833 64.1a2.864 2.864 0 0 1-4.066-.093z" transform="translate(-214.048 -85.504)"/>
            </g>
            <path id="Tracé_45" d="M413.395 195.151L311.556 87.429a3.966 3.966 0 0 0-5.616-.16l-19.27 18.222a1.583 1.583 0 0 0-.481 1.416c1.93 10.777 9.635 20.412 18.823 26.8 11.1 7.712 24.251 11.778 36.724 16.926s25.046 11.932 32.544 23.183c7.071 10.623 8.74 23.8 12.339 36.056a70.594 70.594 0 0 0 3.659 9.735 1.6 1.6 0 0 0 2.537.494l20.425-19.31a3.966 3.966 0 0 0 .154-5.635z" class="cls-6" transform="translate(-238.013 -85.729)"/>
            <path id="Tracé_46" d="M318.916 130.747c-.921.875-2.15.668-3.472-.755l-2.6-2.758 5.342-5.035 2.457 2.6c1.262 1.335 1.335 2.544.527 3.339a1.756 1.756 0 0 1-1.843.4 1.816 1.816 0 0 1-.411 2.209zm-.516-6.447l-1.255 1.189 1.148 1.249c.568.6 1.088.728 1.509.334s.314-.915-.254-1.516zm-.528 5.081c.447-.421.341-.968-.267-1.609l-1.335-1.436-1.335 1.242 1.335 1.442c.628.641 1.148.795 1.6.387z" class="cls-4" transform="translate(-246.875 -97.698)"/>
            <path id="Tracé_47" d="M325.211 139.212l-2.344-2.477-1.589.608-1.189-1.262 7.572-2.671 1.148 1.222-3.071 7.418-1.229-1.3zm.568-1.275l1.242-2.771-2.838 1.082z" class="cls-4" transform="translate(-249.285 -101.422)"/>
            <path id="Tracé_48" d="M339.272 144.551l-5.342 5.035-.941-1.028.728-5.709-3.238 3.038-1.148-1.222 5.342-5.035.968 1.022-.734 5.7 3.238-3.058z" class="cls-4" transform="translate(-252.355 -103.489)"/>
            <path id="Tracé_49" d="M341.946 153.841h-1.422l-1.335 1.275-1.189-1.235 5.342-5.041 1.155 1.229-2.491 2.35h4.721l1.3 1.335-4.46.04-.734 5.168-1.335-1.436z" class="cls-4" transform="translate(-255.236 -106.55)"/>
            <path id="Tracé_50" d="M285.336 162.361l-.895-.982-1.335 1.215-.474-.5 1.289-1.215-2.611-2.758.361-.347 5.7-.474.527.561-5.522.487 2 2.123 1.124-1.071.461.494-1.128 1.068.922.975z" class="cls-4" transform="translate(-236.398 -109.361)"/>
            <path id="Tracé_51" d="M290.54 166.79c-.821.768-2 .775-3.125-.407a3.505 3.505 0 0 1-1.035-2.357l.628-.134a2.931 2.931 0 0 0 .868 2.05c.768.815 1.562.9 2.17.327s.581-1.335-.274-2.237l-.334-.347.374-.354 2.978-.247-2.364-2.5.447-.421 2.971 3.145-.354.334-3.051.26c.936 1.098.882 2.161.101 2.888z" class="cls-4" transform="translate(-238.083 -110.311)"/>
            <path id="Tracé_52" d="M296.177 172.9c-.835.788-2 .821-3.158-.374a3.452 3.452 0 0 1-1.028-2.35l.628-.134a2.9 2.9 0 0 0 .855 2c.781.835 1.6.895 2.2.327s.668-1.335-.521-2.6l-.988-1.042 2.671-2.063 2.531 2.671-.447.421-2.09-2.2-1.723 1.3.594.668c1.39 1.419 1.337 2.528.476 3.376z" class="cls-4" transform="translate(-239.947 -112.474)"/>
            <path id="Tracé_53" d="M302.467 179.528a2.09 2.09 0 0 1-3.078-.247c-1.229-1.3-.995-2.858.548-4.32 1.663-1.569 3.385-1.482 4.641-.154a3.052 3.052 0 0 1 .835 1.416l-.6.18a2.283 2.283 0 0 0-.668-1.169c-.995-1.055-2.31-1.1-3.639.16-.114.107-.247.247-.381.4a2.137 2.137 0 0 1 2.25.7 2.03 2.03 0 0 1 .092 3.034zm-.481-.481a1.456 1.456 0 0 0-.107-2.223 1.48 1.48 0 1 0-2.083 2.03 1.469 1.469 0 0 0 2.19.194z" class="cls-4" transform="translate(-242.145 -114.843)"/>
            <path id="Tracé_54" d="M315.794 197.143l.434-2.617-2.671.28-.527-.561 3.265-.334.474-3.071.534.561-.4 2.464 2.484-.26.514.548-3.091.307-.5 3.252z" class="cls-4" transform="translate(-246.939 -120.506)"/>
            <path id="Tracé_55" d="M321.071 202.733l.434-2.624-2.671.28-.534-.561 3.265-.327.481-3.071.528.554-.394 2.464 2.477-.254.521.548-3.1.307-.5 3.252z" class="cls-4" transform="translate(-248.69 -122.363)"/>
            <path id="Tracé_56" d="M326.354 208.313l.434-2.617-2.671.28-.527-.561 3.258-.327.481-3.078.527.561-.394 2.464 2.484-.254.514.541-3.1.307-.5 3.252z" class="cls-4" transform="translate(-250.448 -124.217)"/>
            <path id="Tracé_57" d="M331.624 213.863l.434-2.617-2.671.28-.527-.561 3.258-.334.481-3.071.528.561-.394 2.464 2.484-.26.514.548-3.1.307-.494 3.252z" class="cls-4" transform="translate(-252.199 -126.062)"/>
            <path id="Tracé_58" d="M349.874 233.193l.434-2.617-2.671.28-.527-.561 3.258-.327.481-3.078.527.561-.394 2.464 2.484-.26.514.548-3.1.307-.5 3.252z" class="cls-4" transform="translate(-258.263 -132.485)"/>
            <path id="Tracé_59" d="M355.154 238.783l.434-2.624-2.671.28-.528-.554 3.258-.334.481-3.071.527.561-.394 2.464 2.484-.26.514.548-3.1.307-.5 3.252z" class="cls-4" transform="translate(-260.017 -134.342)"/>
            <path id="Tracé_60" d="M360.438 244.373l.441-2.624-2.671.28-.528-.561 3.258-.327.481-3.071.527.554-.394 2.464 2.484-.254.514.541-3.1.307-.494 3.252z" class="cls-4" transform="translate(-261.775 -136.2)"/>
            <path id="Tracé_61" d="M365.724 249.953l.434-2.617-2.671.28-.527-.561 3.258-.327.481-3.078.534.561-.4 2.464 2.484-.26.514.548-3.1.307-.494 3.252z" class="cls-4" transform="translate(-263.53 -138.054)"/>
            <path id="Tracé_62" d="M388.128 262.666l-4.888 4.627-.481-.507 4.447-4.2-1.088-1.148.447-.427z" class="cls-4" transform="translate(-270.109 -143.823)"/>
            <path id="Tracé_63" d="M389.74 271.7c-.815.775-2 .775-3.125-.407a3.505 3.505 0 0 1-1.035-2.357l.628-.134a2.985 2.985 0 0 0 .868 2.057c.768.808 1.569.9 2.177.327s.581-1.335-.28-2.243l-.327-.347.367-.347 2.978-.254-2.364-2.5.447-.427 2.971 3.145-.354.341-3.045.26c.935 1.117.888 2.159.094 2.886z" class="cls-4" transform="translate(-271.046 -145.172)"/>
            <path id="Tracé_64" d="M396.523 279.955l-.928-.982-1.282 1.215-.481-.5 1.289-1.215-2.611-2.758.367-.347 5.689-.467.527.554-5.522.487 2 2.123L396.7 277l.467.487-1.135 1.068.928.982z" class="cls-4" transform="translate(-273.349 -148.438)"/>
            <path id="Tracé_65" d="M400.763 285.744l-.447.421-3.245-3.432.361-.334 3.913.147a2.23 2.23 0 0 0 1.829-.481c.568-.541.541-1.269-.167-2a2.284 2.284 0 0 0-1.81-.815v-.668a3.018 3.018 0 0 1 2.337 1.068c.935.995 1.028 2.1.207 2.871a2.933 2.933 0 0 1-2.284.668l-3.212-.113z" class="cls-4" transform="translate(-274.864 -149.661)"/>
            <path id="Tracé_66" d="M260.376 170.8a1.769 1.769 0 0 1 2.9 1.476l-.668-.04a1.033 1.033 0 1 0-1.776.568 1.015 1.015 0 0 0 .835.32v.668a1.669 1.669 0 0 1-1.335-.574 1.649 1.649 0 0 1 .047-2.417z" class="cls-4" transform="translate(-229.259 -113.709)"/>
            <path id="Tracé_67" d="M264.337 176.737l-1.028-1.082-.668.267-.521-.554 3.339-1.168.5.534-1.335 3.252-.581-.581zm.247-.554l.541-1.215-1.242.474z" class="cls-4" transform="translate(-230.022 -114.977)"/>
            <path id="Tracé_68" d="M267.539 180.656l.22-1.068-.447-.467-.668.614-.514-.541 2.337-2.2.955 1.008a1.194 1.194 0 0 1 .107 1.81 1.035 1.035 0 0 1-1.189.22l-.254 1.229zm1.415-2.3l-.421-.441-.815.768.421.441c.307.327.621.347.875.113s.247-.554-.06-.908z" class="cls-4" transform="translate(-231.354 -115.904)"/>
            <path id="Tracé_69" d="M269.69 182.555l.581-.2a1.856 1.856 0 0 0 .487 1c.3.32.528.347.668.214.434-.414-1.148-1.482-.28-2.3.4-.374 1.028-.367 1.656.294a2.123 2.123 0 0 1 .561 1.008l-.568.22a1.822 1.822 0 0 0-.427-.821c-.307-.321-.541-.327-.668-.194-.427.407 1.148 1.489.294 2.3-.394.367-1.028.361-1.663-.307a2.33 2.33 0 0 1-.641-1.214z" class="cls-4" transform="translate(-232.537 -117.242)"/>
            <path id="Tracé_70" d="M278.32 187.367l-2.337 2.21-.507-.541.955-.908-1-1.062-.955.908-.514-.541 2.337-2.2.507.534-.921.875 1 1.062.921-.875z" class="cls-4" transform="translate(-233.956 -118.642)"/>
            <path id="Tracé_71" d="M279.062 190.424a1.763 1.763 0 1 1 0 2.417 1.669 1.669 0 0 1 0-2.417zm1.9 2a.975.975 0 0 0 .06-1.436 1.028 1.028 0 1 0-.06 1.436z" class="cls-4" transform="translate(-235.479 -120.183)"/>
            <path id="Tracé_72" d="M284.107 193.49l.508.541-1.9 1.8 1.112 1.169-.441.414-1.616-1.709z" class="cls-4" transform="translate(-236.551 -121.386)"/>
            <path id="Tracé_73" d="M286.96 196.51l1 1.062a1.609 1.609 0 1 1-2.33 2.2l-1-1.062zm-.915 2.818a1 1 0 1 0 1.449-1.335l-.467-.494-1.442 1.342z" class="cls-4" transform="translate(-237.502 -122.39)"/>
            <path id="Tracé_74" d="M290.673 204.209l-.434.414-1.709-1.81 2.337-2.2 1.663 1.763-.427.407-1.162-1.222-.507.474 1.022 1.088-.421.394-1.022-1.082-.541.507z" class="cls-4" transform="translate(-238.797 -123.752)"/>
            <path id="Tracé_75" d="M293.109 207.7l.22-1.062-.447-.467-.668.614-.514-.541 2.337-2.21.955 1.015a1.194 1.194 0 0 1 .107 1.809 1.035 1.035 0 0 1-1.189.22l-.254 1.229zm1.416-2.3l-.421-.441-.808.775.414.441c.314.327.621.347.875.107s.247-.549-.061-.882z" class="cls-4" transform="translate(-239.851 -124.889)"/>
            <path id="Tracé_76" d="M246.649 181.918l1.242-.08a1.436 1.436 0 0 0 .294 1.3c.394.414.855.4 1.335-.067l2.137-2-1.5-1.582.843-.789 2.477 2.617-2.918 2.751a2 2 0 0 1-3.185-.047 2.491 2.491 0 0 1-.725-2.103z" class="cls-4" transform="translate(-224.874 -116.472)"/>
            <path id="Tracé_77" d="M251.867 189.014a.855.855 0 1 1-.033 1.209.855.855 0 0 1 .033-1.209z" class="cls-4" transform="translate(-226.526 -119.821)"/>
            <path id="Tracé_78" d="M265.019 192.8l-5.889 2.778-1.055-1.115 2.11-3.866-4.006 1.856-1.048-1.108 3.1-5.729 1.022 1.075-2.2 4.006 4.167-1.93.908.962-2.217 4.04 4.18-1.963z" class="cls-4" transform="translate(-227.699 -118.771)"/>
            <path id="Tracé_79" d="M268.39 196.946a.856.856 0 0 1 1.2 1.222.855.855 0 0 1-1.2-1.222zm-.928 1.1l.948 1-3.459 3.265-.941-1z" class="cls-4" transform="translate(-230.65 -122.466)"/>
            <path id="Tracé_80" d="M271.507 199.74l.948 1-4.767 4.514-.948-1z" class="cls-4" transform="translate(-231.557 -123.463)"/>
            <path id="Tracé_81" d="M274.237 202.63l.948 1-4.767 4.507-.948-1z" class="cls-4" transform="translate(-232.464 -124.424)"/>
            <path id="Tracé_82" d="M276.59 205.619a.795.795 0 0 1 1.148.093.781.781 0 0 1 .047 1.135.861.861 0 0 1-1.2-1.229zm-.928 1.108l.948 1-3.452 3.265-.948-1z" class="cls-4" transform="translate(-233.375 -125.35)"/>
            <path id="Tracé_83" d="M279.963 214.92l-2 1.863-.888-.935.434-.407a1.563 1.563 0 0 1-1.476-.6 1.532 1.532 0 0 1-.174-2.277c.6-.561 1.436-.548 2.43.5l.755.8c.434-.407.441-.9-.073-1.442a2.277 2.277 0 0 0-1.262-.668l.361-1.015a3.653 3.653 0 0 1 1.83 1.088 1.924 1.924 0 0 1 .063 3.093zm-1.823-.167l.354-.334-.668-.668c-.441-.474-.755-.454-.988-.24s-.214.608.12.962a1.022 1.022 0 0 0 1.182.247z" class="cls-4" transform="translate(-234.444 -127.118)"/>
            <path id="Tracé_84" d="M288.058 223.411l-2 1.87-.941-1 1.823-1.723c.554-.527.574-1.022.194-1.422a1.088 1.088 0 0 0-1.629.087l-1.729 1.643-.948-1 1.823-1.723c.561-.534.588-1.015.194-1.429a1.068 1.068 0 0 0-1.623.1l-1.689 1.656-.948-1 3.452-3.265.908.955-.4.381a1.91 1.91 0 0 1 1.476.668 1.776 1.776 0 0 1 .507 1.676 2.143 2.143 0 0 1 1.749.708 1.827 1.827 0 0 1-.219 2.818z" class="cls-4" transform="translate(-236.156 -128.933)"/>
            <path id="Tracé_85" d="M290.09 229.106l1.035-.347a3.2 3.2 0 0 0 .8 1.516c.434.461.721.521.915.341.561-.534-2-2.077-.608-3.385.668-.614 1.676-.461 2.631.548a3.933 3.933 0 0 1 .955 1.616l-1.028.341a2.67 2.67 0 0 0-.668-1.242c-.421-.447-.748-.507-.928-.341-.588.561 1.956 2.11.594 3.392-.668.608-1.663.447-2.671-.588a4.04 4.04 0 0 1-1.027-1.851z" class="cls-4" transform="translate(-239.316 -132.477)"/>
            <path id="Tracé_86" d="M349.234 287.513c1.482-1.4 3.1-1.375 4.147-.274s.982 2.724-.507 4.126-3.092 1.382-4.146.274-.976-2.723.506-4.126zm2.671 2.8c1.022-.961 1.108-1.723.614-2.243s-1.249-.474-2.27.494-1.108 1.723-.621 2.237 1.235.481 2.257-.487z" class="cls-4" transform="translate(-258.564 -152.271)"/>
            <path id="Tracé_87" d="M358.045 298.593a2.123 2.123 0 0 1-3.1-.287c-1.169-1.242-1.122-2.751.327-4.12a3.023 3.023 0 0 1 4.587 0 3.338 3.338 0 0 1 .881 1.549l-1.128.334a2.083 2.083 0 0 0-.574-1.055 1.643 1.643 0 0 0-2.5-.033 2.136 2.136 0 0 1 1.449.734 2 2 0 0 1 .06 2.878zm-1-.961a.935.935 0 0 0-.053-1.4.968.968 0 0 0-1.409-.14.955.955 0 0 0 .08 1.422.935.935 0 0 0 1.4.12z" class="cls-4" transform="translate(-260.591 -154.497)"/>
            <path id="Tracé_88" d="M364.993 298.8l.848.888-8.059 3.606-.841-.895z" class="cls-4" transform="translate(-261.529 -156.38)"/>
            <path id="Tracé_89" d="M366.073 308.407l-.848.8L362 305.81l.668-.634 3.278.187a1.562 1.562 0 0 0 1.275-.314c.354-.334.327-.775-.127-1.249a1.5 1.5 0 0 0-1.335-.507l-.227-1.222a2.878 2.878 0 0 1 2.524.995c.948 1.008 1.062 2.157.247 2.931a2.45 2.45 0 0 1-2.13.588l-1.95-.114z" class="cls-4" transform="translate(-263.211 -157.46)"/>
            <path id="Tracé_90" d="M372.643 315.448l-.668-.728-.941.888-.961-1.015.948-.888-2.29-2.424.7-.668 4.854-.574 1.035 1.088-4.567.588 1.142 1.209.841-.795.928.982-.841.795.668.734z" class="cls-4" transform="translate(-265.447 -160.115)"/>
            <path id="Tracé_91" d="M398.46 227.308a9.666 9.666 0 0 0-1.863-12.246 12.1 12.1 0 0 0-3.546-2.324c-3.252-1.335-7.559-.367-9.268 2.718-1.4 2.517-.835 5.662.147 8.366 1.022 2.838 2.671 5.736 5.482 6.837a7.453 7.453 0 0 0 7.972-2 8.41 8.41 0 0 0 1.075-1.349z" class="cls-6" transform="translate(-270.171 -127.588)"/>
        </g>
        <g id="freepik--Wallet--inject-18" transform="translate(415.165 385.293)">
            <rect id="Rectangle_7" width="194.043" height="140.827" class="cls-6" rx="17.44" transform="translate(7.882 .182)"/>
            <path id="Tracé_92" d="M419.7 248.814v-.421a9.421 9.421 0 0 0-.12-1.249 11.392 11.392 0 0 0-1.709-4.56 12.149 12.149 0 0 0-2.377-2.7 11.778 11.778 0 0 0-3.8-2.083c-.374-.127-.768-.2-1.162-.314a10.375 10.375 0 0 0-1.235-.194L408 237.23h-7.2l-69.622.053h-92.425a18.432 18.432 0 0 0-3.546.2 11.391 11.391 0 0 0-6.183 3.339 11.2 11.2 0 0 0-2.05 2.945 10.884 10.884 0 0 0-1.042 3.452 29.069 29.069 0 0 0-.114 3.672v115.394a11.558 11.558 0 0 0 2.858 7.592 11.351 11.351 0 0 0 7.071 3.813 35.054 35.054 0 0 0 4.113.114h167.217a16.249 16.249 0 0 0 3.132-.207 11.489 11.489 0 0 0 2.931-.988 12.517 12.517 0 0 0 1.335-.761 13.879 13.879 0 0 0 1.2-.948 11.4 11.4 0 0 0 3.853-7.932c.067-8.013 0-15.718.04-23.063 0-29.379.047-53.177.06-69.616 0-8.22 0-14.6.033-18.93 0 4.333 0 10.683.033 18.93 0 16.439 0 40.223.053 69.616 0 7.345.047 15.044 0 23.076a11.7 11.7 0 0 1-1.9 5.776 11.962 11.962 0 0 1-2 2.35 13.348 13.348 0 0 1-1.235.968 13.158 13.158 0 0 1-1.335.781 11.513 11.513 0 0 1-3 1.015 15.94 15.94 0 0 1-3.185.214H239.835a34.777 34.777 0 0 1-4.16-.12 11.645 11.645 0 0 1-7.285-3.919 11.912 11.912 0 0 1-2.938-7.792V250.9a28.881 28.881 0 0 1 .12-3.719 11.136 11.136 0 0 1 1.075-3.546 11.384 11.384 0 0 1 2.11-3.031 12.359 12.359 0 0 1 2.911-2.217 12.02 12.02 0 0 1 3.445-1.2l.9-.14.9-.047c.608-.033 1.2 0 1.8 0h92.431l69.622.06h7.165l1.3.067c.421.073.841.12 1.242.207a9.4 9.4 0 0 1 1.169.32 11.82 11.82 0 0 1 3.826 2.11 12.114 12.114 0 0 1 2.384 2.731 11.352 11.352 0 0 1 1.683 4.594 8.069 8.069 0 0 1 .107 1.255 3.349 3.349 0 0 1 .058.47z" class="cls-8" transform="translate(-217.771 -236.988)"/>
            <path id="Tracé_93" d="M506.19 250.174a11.645 11.645 0 0 1 4.006 0 11.645 11.645 0 0 1-4.006 0z" class="cls-8" transform="translate(-311.062 -241.312)"/>
            <path id="Tracé_94" d="M481.71 250.174a48.18 48.18 0 0 1 8.173 0 48.183 48.183 0 0 1-8.173 0z" class="cls-8" transform="translate(-302.928 -241.312)"/>
            <path id="Tracé_95" d="M457.24 250.174a48.076 48.076 0 0 1 8.166 0 48.076 48.076 0 0 1-8.166 0z" class="cls-8" transform="translate(-294.797 -241.312)"/>
            <path id="Tracé_96" d="M432.76 250.174a48.18 48.18 0 0 1 8.173 0 48.183 48.183 0 0 1-8.173 0z" class="cls-8" transform="translate(-286.662 -241.312)"/>
            <path id="Tracé_97" d="M408.29 250.174a48.076 48.076 0 0 1 8.166 0 48.076 48.076 0 0 1-8.166 0z" class="cls-8" transform="translate(-278.531 -241.312)"/>
            <path id="Tracé_98" d="M383.81 250.174a48.18 48.18 0 0 1 8.173 0 48.183 48.183 0 0 1-8.173 0z" class="cls-8" transform="translate(-270.397 -241.312)"/>
            <path id="Tracé_99" d="M359.34 250.174a48.076 48.076 0 0 1 8.166 0 48.076 48.076 0 0 1-8.166 0z" class="cls-8" transform="translate(-262.266 -241.312)"/>
            <path id="Tracé_100" d="M334.86 250.174a48.18 48.18 0 0 1 8.173 0 48.183 48.183 0 0 1-8.173 0z" class="cls-8" transform="translate(-254.131 -241.312)"/>
            <path id="Tracé_101" d="M310.38 250.174a48.18 48.18 0 0 1 8.173 0 48.183 48.183 0 0 1-8.173 0z" class="cls-8" transform="translate(-245.997 -241.312)"/>
            <path id="Tracé_102" d="M285.91 250.163a47.942 47.942 0 0 1 8.153 0 47.942 47.942 0 0 1-8.153 0z" class="cls-8" transform="translate(-237.866 -241.301)"/>
            <path id="Tracé_103" d="M261.43 250.163a48.176 48.176 0 0 1 8.173 0 48.184 48.184 0 0 1-8.173 0z" class="cls-8" transform="translate(-229.731 -241.301)"/>
            <path id="Tracé_104" d="M243.1 254.18a22.7 22.7 0 0 1-.174-4.006l.174-.174h1.556l1.275.04a4.281 4.281 0 0 1 1.175.12 4.1 4.1 0 0 1-1.175.127l-1.275.033H243.1l.174-.174a23.512 23.512 0 0 1-.174 4.034z" class="cls-8" transform="translate(-223.576 -241.312)"/>
            <path id="Tracé_105" d="M243.1 274.965a40.435 40.435 0 0 1 0-7.485 40.432 40.432 0 0 1 0 7.485z" class="cls-8" transform="translate(-223.576 -247.12)"/>
            <path id="Tracé_106" d="M243.114 297.4a40.434 40.434 0 0 1 0-7.485 40.429 40.429 0 0 1 0 7.485z" class="cls-8" transform="translate(-223.587 -254.573)"/>
            <path id="Tracé_107" d="M243.114 319.822a40.5 40.5 0 0 1 0-7.492 40.5 40.5 0 0 1 0 7.492z" class="cls-8" transform="translate(-223.587 -262.023)"/>
            <path id="Tracé_108" d="M243.114 342.272a40.5 40.5 0 0 1 0-7.492 40.5 40.5 0 0 1 0 7.492z" class="cls-8" transform="translate(-223.587 -269.483)"/>
            <path id="Tracé_109" d="M243.114 364.675a40.429 40.429 0 0 1 0-7.485 40.429 40.429 0 0 1 0 7.485z" class="cls-8" transform="translate(-223.587 -276.93)"/>
            <path id="Tracé_110" d="M243.114 387.105a40.429 40.429 0 0 1 0-7.485 40.429 40.429 0 0 1 0 7.485z" class="cls-8" transform="translate(-223.587 -284.383)"/>
            <path id="Tracé_111" d="M243.114 409.535a40.429 40.429 0 0 1 0-7.485 40.429 40.429 0 0 1 0 7.485z" class="cls-8" transform="translate(-223.587 -291.836)"/>
            <path id="Tracé_112" d="M247.111 428.49a23.587 23.587 0 0 1-4.006.174c-.347-.347-.1-.1-.174-.18v-2.824a3.76 3.76 0 0 1 .127-1.168 4.206 4.206 0 0 1 .12 1.168c0 .414 0 .835.04 1.275v1.549c-.08-.074.174.18-.174-.167a22.782 22.782 0 0 1 4.066.174z" class="cls-8" transform="translate(-223.578 -299.293)"/>
            <path id="Tracé_113" d="M269.333 430.383a46.319 46.319 0 0 1-8.013 0 46.319 46.319 0 0 1 8.013 0z" class="cls-8" transform="translate(-229.695 -301.186)"/>
            <path id="Tracé_114" d="M293.453 430.383a46.319 46.319 0 0 1-8.013 0 46.319 46.319 0 0 1 8.013 0z" class="cls-8" transform="translate(-237.709 -301.186)"/>
            <path id="Tracé_115" d="M317.553 430.394a46.77 46.77 0 0 1-8.053 0 46.776 46.776 0 0 1 8.053 0z" class="cls-8" transform="translate(-245.704 -301.197)"/>
            <path id="Tracé_116" d="M341.673 430.394a46.77 46.77 0 0 1-8.053 0 46.776 46.776 0 0 1 8.053 0z" class="cls-8" transform="translate(-253.719 -301.197)"/>
            <path id="Tracé_117" d="M365.793 430.394a46.77 46.77 0 0 1-8.053 0 46.776 46.776 0 0 1 8.053 0z" class="cls-8" transform="translate(-261.734 -301.197)"/>
            <path id="Tracé_118" d="M389.913 430.394a46.77 46.77 0 0 1-8.053 0 46.776 46.776 0 0 1 8.053 0z" class="cls-8" transform="translate(-269.749 -301.197)"/>
            <path id="Tracé_119" d="M413.993 430.394a46.769 46.769 0 0 1-8.053 0 46.775 46.775 0 0 1 8.053 0z" class="cls-8" transform="translate(-277.75 -301.197)"/>
            <path id="Tracé_120" d="M438.153 430.394a46.769 46.769 0 0 1-8.053 0 46.775 46.775 0 0 1 8.053 0z" class="cls-8" transform="translate(-285.778 -301.197)"/>
            <path id="Tracé_121" d="M462.273 430.394a46.77 46.77 0 0 1-8.053 0 46.776 46.776 0 0 1 8.053 0z" class="cls-8" transform="translate(-293.793 -301.197)"/>
            <path id="Tracé_122" d="M486.4 430.394a46.769 46.769 0 0 1-8.053 0 46.775 46.775 0 0 1 8.053 0z" class="cls-8" transform="translate(-301.811 -301.197)"/>
            <path id="Tracé_123" d="M506.476 430.394a11.645 11.645 0 0 1-4.006 0 11.645 11.645 0 0 1 4.006 0z" class="cls-8" transform="translate(-309.826 -301.197)"/>
            <g id="Groupe_7" class="cls-9" transform="translate(7.828 78.291)">
                <path id="Tracé_124" d="M292.665 354.24s.04 6.677-2 10.683-2.671 5.6-6.944 7.144-58.037 7.458-58.037 7.458v-18.14z" transform="translate(-225.68 -354.24)"/>
            </g>
            <g id="Groupe_8" class="cls-9" transform="translate(7.882 37.327)">
                <path id="Tracé_125" d="M291.75 308.681s.614-6.817-16.486-9.348c-19.557-2.891-49.5-6.443-49.5-6.443v12.894z" transform="translate(-225.76 -292.89)"/>
            </g>
            <rect id="Rectangle_8" width="74.737" height="44.016" class="cls-6" rx="14.31" transform="translate(.103 46.935)"/>
            <path id="Tracé_126" d="M223.614 351.21h-.568a8.639 8.639 0 0 1-1.663-.227 9.208 9.208 0 0 1-2.543-.983 9.461 9.461 0 0 1-2.811-2.424 9.582 9.582 0 0 1-1.9-4.24 13.906 13.906 0 0 1-.16-2.671v-24.229a9.668 9.668 0 0 1 3.833-7.412 9.441 9.441 0 0 1 4.133-1.816 12.183 12.183 0 0 1 2.31-.16h55.046a9.731 9.731 0 0 1 9.682 8.78c.073.941.047 1.856.053 2.771v21.173c0 .855.033 1.683 0 2.537a10.006 10.006 0 0 1-.154 1.262 12.571 12.571 0 0 1-.334 1.215 9.729 9.729 0 0 1-7.058 6.3 11.535 11.535 0 0 1-1.168.207c-.394.033-.788.047-1.182.06h-23.139l-23.69-.06-6.443-.033 6.443-.033 23.69-.053h20.839a19.786 19.786 0 0 0 4.574-.267 9.421 9.421 0 0 0 6.731-6.13 13.968 13.968 0 0 0 .494-4.914v-21.177c0-.915 0-1.843-.047-2.738a9.4 9.4 0 0 0-2.05-4.994 10.366 10.366 0 0 0-2-1.863 10.156 10.156 0 0 0-2.5-1.2 10.406 10.406 0 0 0-2.758-.414h-55.053a12.089 12.089 0 0 0-2.264.154 9.187 9.187 0 0 0-4.006 1.749 9.4 9.4 0 0 0-3.739 7.191c-.033 2.718 0 5.342 0 7.846v16.372a14.1 14.1 0 0 0 .147 2.637 9.548 9.548 0 0 0 7.1 7.612 9.054 9.054 0 0 0 1.649.254z" class="cls-8" transform="translate(-213.956 -260.267)"/>
            <circle id="Ellipse_3" cx="15.998" cy="15.998" r="15.998" class="cls-8" transform="translate(36.326 54.6)"/>
            <path id="Tracé_127" fill="#fafafa" d="M298.46 350.607a16.919 16.919 0 0 0 3.819-2 13.821 13.821 0 0 0 3.232-3.339 12.54 12.54 0 0 0 1.729-10.877 13.587 13.587 0 0 0-2.043-4.173 16.546 16.546 0 0 0-3-3.085 1.6 1.6 0 0 1 .26.147 8 8 0 0 1 .714.5 12.176 12.176 0 0 1 2.23 2.29 13.535 13.535 0 0 1 2.15 4.227 12.573 12.573 0 0 1-1.776 11.151 13.523 13.523 0 0 1-3.339 3.339 11.838 11.838 0 0 1-2.831 1.476 7.072 7.072 0 0 1-.828.26.842.842 0 0 1-.317.084z" transform="translate(-242.036 -266.941)"/>
        </g>
        <g id="freepik--Money--inject-18" transform="translate(337 326.516)">
            <path id="Tracé_128" d="M638.062 175.788a29.56 29.56 0 1 1-32.05-26.708 29.56 29.56 0 0 1 32.05 26.708z" class="cls-6" transform="translate(-257.113 -148.959)"/>
            <g id="Groupe_9" class="cls-9" transform="translate(328.655 6.041)">
                <path id="Tracé_129" d="M634.318 178.7a14.084 14.084 0 0 1-.828-2.671 24.037 24.037 0 0 0-3.2-6.644 22.98 22.98 0 0 0-3.339-3.813 22.464 22.464 0 0 0-4.741-3.339 20.927 20.927 0 0 0-2.871-1.249 21.767 21.767 0 0 0-3.145-.848 22.089 22.089 0 0 0-3.339-.381 23.371 23.371 0 0 0-3.472.14 24.8 24.8 0 0 0-3.405.668 22.339 22.339 0 0 0-3.165 1.175 21.92 21.92 0 0 0-5.342 3.472 22.529 22.529 0 0 0-3.819 4.347 22.969 22.969 0 0 0-2.324 4.5 23.737 23.737 0 0 0-1.522 7.211 13.145 13.145 0 0 1-.18 2.771c-.14.02-.381-.955-.494-2.771a20.892 20.892 0 0 1 1.042-7.619 22.488 22.488 0 0 1 6.236-9.615 22.854 22.854 0 0 1 9.094-5.115 24.707 24.707 0 0 1 3.672-.755 25.292 25.292 0 0 1 3.746-.147 23.827 23.827 0 0 1 3.619.441 23.076 23.076 0 0 1 6.437 2.35 22.581 22.581 0 0 1 8.353 7.852 20.814 20.814 0 0 1 2.831 7.151c.276 1.889.276 2.889.156 2.889z" transform="translate(-589.102 -158.007)"/>
            </g>
            <g id="Groupe_10" class="cls-9" transform="translate(341.706 13.769)">
                <path id="Tracé_130" d="M622.184 198.425l.407 3.9-3.485.367-.394-3.8a16.637 16.637 0 0 1-8.961-1.883l1.469-4.454a14.135 14.135 0 0 0 7.011 1.769l-.608-5.816c-3.96-.541-8.413-1.375-8.934-6.363-.387-3.692 1.97-7.138 7.4-8.34l-.4-3.866 3.485-.361.394 3.793a15.932 15.932 0 0 1 7.291 1.389l-1.289 4.447a14.376 14.376 0 0 0-5.515-1.255l.614 5.923c3.96.5 8.346 1.335 8.854 6.263.387 3.647-1.944 7.062-7.339 8.287zm-5.084-15.037l-.521-4.948c-1.8.608-2.424 1.7-2.3 2.844s1.235 1.777 2.821 2.104zm6.864 7.772c-.127-1.222-1.209-1.776-2.758-2.143l.5 4.808c1.707-.561 2.375-1.549 2.261-2.665z" transform="translate(-608.649 -169.58)"/>
            </g>
            <path id="Tracé_131" d="M589.739 194.113a.818.818 0 0 1 .047.18 3.542 3.542 0 0 0 .094.527c.04.214.08.527.133.855a9.686 9.686 0 0 0 .234 1.162 22.783 22.783 0 0 0 6.09 10.991l1.055.962c.18.154.347.327.541.481l.594.441c.4.294.795.621 1.222.895l1.335.808a22.814 22.814 0 0 0 6.11 2.37 22.315 22.315 0 0 0 13.842-1.275 22.8 22.8 0 0 0 5.575-3.445l1.162-1.035c.374-.347.668-.741 1.035-1.1.167-.18.341-.361.5-.541s.3-.387.454-.574c.287-.387.574-.761.861-1.135a23.661 23.661 0 0 0 2.424-4.581 22.7 22.7 0 0 0 1.556-7.345 8.88 8.88 0 0 0 0-1.182v-1.4a1.062 1.062 0 0 1 0-.187.755.755 0 0 1 0 .18 2.744 2.744 0 0 0 .04.534c.04.214 0 .534.047.875a7.59 7.59 0 0 1 0 1.189 21.977 21.977 0 0 1-1.462 7.418 22.859 22.859 0 0 1-2.417 4.674l-.835 1.168c-.154.194-.294.4-.454.588l-.507.554c-.341.367-.668.761-1.048 1.115l-1.169 1.062a23.077 23.077 0 0 1-5.649 3.512 22.529 22.529 0 0 1-14.022 1.3 22.883 22.883 0 0 1-6.2-2.43l-1.335-.821c-.434-.28-.828-.614-1.235-.908l-.594-.454c-.194-.154-.367-.334-.554-.494l-1.082-1.015a23.407 23.407 0 0 1-3.225-4.14 22.037 22.037 0 0 1-2.791-7.031 8.1 8.1 0 0 1-.2-1.169c-.04-.334-.073-.628-.107-.868s-.04-.394-.06-.534a.9.9 0 0 1-.005-.177z" class="cls-8" transform="translate(-260.659 -162.59)"/>
            <path id="Tracé_132" d="M588.746 307.406a17.173 17.173 0 1 1-8.013-22.889 17.173 17.173 0 0 1 8.013 22.889z" class="cls-6" transform="translate(-249.476 -193.434)"/>
            <g id="Groupe_11" class="cls-9" transform="translate(311.847 92.956)">
                <path id="Tracé_133" d="M587.874 307.048a7.63 7.63 0 0 1 .374-1.569 14.025 14.025 0 0 0 .381-4.267 13.815 13.815 0 0 0-.528-2.9 13.214 13.214 0 0 0-1.382-3.065 12.75 12.75 0 0 0-5.736-4.988 13.452 13.452 0 0 0-1.9-.668 13.038 13.038 0 0 0-1.93-.354 12.015 12.015 0 0 0-1.89-.067 12.2 12.2 0 0 0-1.81.207 12.83 12.83 0 0 0-3.2 1.028 13.674 13.674 0 0 0-2.5 1.549 13.943 13.943 0 0 0-2.9 3.152 8.147 8.147 0 0 1-.915 1.335 3.813 3.813 0 0 1 .581-1.529 12.018 12.018 0 0 1 2.8-3.519 12.945 12.945 0 0 1 2.584-1.749 13.318 13.318 0 0 1 9.475-1.035 14.751 14.751 0 0 1 2.057.721 14.258 14.258 0 0 1 1.916 1.042 13.4 13.4 0 0 1 1.669 1.3 12.236 12.236 0 0 1 1.4 1.489 12.51 12.51 0 0 1 1.108 1.6 13.393 13.393 0 0 1 1.4 3.339 13.226 13.226 0 0 1 .434 3.085 12.116 12.116 0 0 1-.715 4.414 4.008 4.008 0 0 1-.768 1.449z" transform="translate(-563.93 -288.175)"/>
            </g>
            <g id="Groupe_12" class="cls-9" transform="translate(315.987 98.067)">
                <path id="Tracé_134" d="M575.913 311.969l-.955 2.063-1.85-.855.935-2a9.7 9.7 0 0 1-3.913-3.612l2.063-1.783a8.24 8.24 0 0 0 2.971 2.978l1.436-3.085c-1.823-1.449-3.793-3.2-2.564-5.836.908-1.956 3.1-2.978 6.176-1.956l.955-2.05 1.843.861-.935 2a9.207 9.207 0 0 1 3.225 2.865l-2 1.843a8.372 8.372 0 0 0-2.377-2.27l-1.456 3.138c1.823 1.429 3.759 3.158 2.551 5.762-.864 1.937-3.041 2.918-6.105 1.937zm1.943-9.021l1.222-2.617c-1.082-.234-1.723.12-2 .728s.093 1.242.781 1.876zm1.115 5.929c.294-.668-.073-1.249-.741-1.9l-1.182 2.551c1.008.214 1.676-.08 1.923-.668z" transform="translate(-570.13 -295.83)"/>
            </g>
            <path id="Tracé_135" d="M563.475 300s-.2.541-.527 1.522a13.124 13.124 0 0 0-.614 4.3 13.643 13.643 0 0 0 .407 2.971 14.1 14.1 0 0 0 1.275 3.225 13.352 13.352 0 0 0 2.337 2.982 12.854 12.854 0 0 0 7.245 3.472 13.265 13.265 0 0 0 3.786-.053 12.968 12.968 0 0 0 5.863-2.531 13.355 13.355 0 0 0 2.971-3.172c.554-.868.815-1.389.848-1.369a1.7 1.7 0 0 1-.167.381 10.763 10.763 0 0 1-.568 1.055 13.042 13.042 0 0 1-8.894 5.969 13.219 13.219 0 0 1-3.886.074 13.105 13.105 0 0 1-7.432-3.559 13.425 13.425 0 0 1-2.377-3.072 13.979 13.979 0 0 1-1.335-3.272 13.637 13.637 0 0 1-.367-3.038 12.518 12.518 0 0 1 .728-4.347 8.723 8.723 0 0 1 .467-1.1 2.093 2.093 0 0 1 .24-.441z" class="cls-8" transform="translate(-251.455 -199.148)"/>
            <path id="Tracé_136" d="M152.678 304.084a28.044 28.044 0 1 1-31.763-23.644 28.044 28.044 0 0 1 31.763 23.644z" class="cls-6" transform="translate(-96.892 -192.549)"/>
            <g id="Groupe_13" class="cls-9" transform="translate(6.35 93.392)">
                <path id="Tracé_137" d="M149.134 307.252a13.308 13.308 0 0 1-.928-2.457 22.488 22.488 0 0 0-3.379-6.13 22.156 22.156 0 0 0-3.339-3.432 21.213 21.213 0 0 0-4.674-2.885 19.416 19.416 0 0 0-2.784-1.028 19.916 19.916 0 0 0-3.025-.668 20.961 20.961 0 0 0-3.192-.187 22.882 22.882 0 0 0-3.278.321 22.347 22.347 0 0 0-3.192.828 21.891 21.891 0 0 0-2.938 1.275 19.948 19.948 0 0 0-2.617 1.649 20.554 20.554 0 0 0-2.264 1.923 21.233 21.233 0 0 0-5.342 8.68 22.5 22.5 0 0 0-1.062 6.917 17.857 17.857 0 0 1 0 2.624 6.065 6.065 0 0 1-.608-2.591 19.5 19.5 0 0 1 .588-7.271 21.447 21.447 0 0 1 1.9-4.727 22.034 22.034 0 0 1 3.5-4.707 20.829 20.829 0 0 1 2.39-2.11 21.362 21.362 0 0 1 2.8-1.81 22.04 22.04 0 0 1 10.143-2.637 22.585 22.585 0 0 1 3.445.227 20.555 20.555 0 0 1 3.252.734 21.582 21.582 0 0 1 11.291 8.153 19.944 19.944 0 0 1 3.058 6.63 6.826 6.826 0 0 1 .255 2.679z" transform="translate(-106.401 -288.828)"/>
            </g>
            <g id="Groupe_14" class="cls-9" transform="translate(18.554 100.658)">
                <path id="Tracé_138" d="M138.394 326.866l.588 3.672-3.278.527-.574-3.579a15.574 15.574 0 0 1-8.587-1.335l1.162-4.293a13.354 13.354 0 0 0 6.737 1.335l-.875-5.475c-3.786-.3-8.046-.868-8.8-5.555-.554-3.479 1.5-6.871 6.584-8.286l-.588-3.646 3.285-.521.568 3.572a15.144 15.144 0 0 1 6.984.935l-.995 4.3a13.609 13.609 0 0 0-5.295-.9l.895 5.575c3.779.267 7.972.841 8.714 5.469.546 3.404-1.477 6.756-6.525 8.205zm-5.6-13.975l-.748-4.674c-1.676.668-2.21 1.736-2.037 2.818s1.267 1.629 2.783 1.856zm6.911 7c-.187-1.148-1.235-1.623-2.724-1.89l.721 4.527c1.582-.594 2.17-1.589 2-2.637z" transform="translate(-124.678 -299.71)"/>
            </g>
            <path id="Tracé_139" d="M107.243 323.573a1.077 1.077 0 0 1 .047.167c.033.127.073.294.12.494l.174.8a9.394 9.394 0 0 0 .28 1.088 21.514 21.514 0 0 0 3.078 6.41 22.034 22.034 0 0 0 3.265 3.672l1.048.855c.18.14.354.294.541.427l.588.387c.394.254.781.541 1.2.781l1.3.668a21.774 21.774 0 0 0 5.909 1.93 22.962 22.962 0 0 0 6.677.073 23.2 23.2 0 0 0 6.37-2 21.855 21.855 0 0 0 5.095-3.552l1.042-1.048c.341-.347.621-.734.928-1.088l.447-.541c.147-.187.267-.381.394-.568.26-.381.507-.754.761-1.122a22.7 22.7 0 0 0 2.057-4.46 21.474 21.474 0 0 0 1.088-7.031 7.342 7.342 0 0 0-.047-1.122c0-.314-.047-.588-.06-.821a3.243 3.243 0 0 0-.033-.508.575.575 0 0 1 0-.174.547.547 0 0 1 .033.174 4.769 4.769 0 0 0 .067.5c.027.2.06.508.1.821a8.014 8.014 0 0 1 .073 1.128 20.7 20.7 0 0 1-.988 7.1 21.875 21.875 0 0 1-2.05 4.54l-.755 1.135c-.134.194-.254.394-.4.581l-.447.548c-.307.367-.594.761-.935 1.115s-.668.708-1.055 1.062a21.9 21.9 0 0 1-5.168 3.632 21.367 21.367 0 0 1-13.241 1.956 21.976 21.976 0 0 1-6.009-2l-1.335-.715c-.427-.24-.815-.534-1.215-.795l-.594-.394c-.187-.14-.361-.3-.548-.441l-1.055-.868a22.148 22.148 0 0 1-3.272-3.753 20.846 20.846 0 0 1-3-6.517 6.9 6.9 0 0 1-.254-1.1c-.053-.314-.1-.581-.147-.815l-.08-.5a.668.668 0 0 1 .006-.111z" class="cls-8" transform="translate(-100.327 -204.894)"/>
        </g>
    </g>
</svg>
