<svg xmlns="http://www.w3.org/2000/svg" id="City_driver-cuate" width="661.109" height="360" viewBox="0 0 741.109 440.748">
    <defs>
        <style>
            .cls-1{fill:#ebebeb}.cls-2{fill:#fff}.cls-3{fill:#263238}.cls-5{fill:#ffc628}.cls-6{opacity:.2}.cls-7{fill:#455a64}.cls-12{opacity:.1}.cls-9{opacity:.5}.cls-10{fill:#dbdbdb}.cls-11{fill:#a6a6a6}
        </style>
    </defs>
    <g id="freepik--background-complete--inject-5" transform="translate(33.38)">
        <path id="Tracé_730" d="M77.01 150.934h58.51v71.047h15.049v-40.225h74.4v63.692h9.844V95.988h64.654v41.028H332.6v51.031h10.036v-32.089h58.77v95.793h17.2v-77.882h53.758v-59.143h36.547V81.03H551.2v149.414h14.21V168.1h69.644v89.24h9.64v-72.846h70.628v-65.627h36.038v252.12H77.01z" class="cls-1" transform="translate(-77.01 -62.286)"/>
        <path id="Rectangle_154" d="M0 0H9.901V13.578H0z" class="cls-2" transform="translate(7.174 97.587)"/>
        <path id="Rectangle_155" d="M0 0H9.901V13.578H0z" class="cls-2" transform="translate(24.339 97.587)"/>
        <path id="Rectangle_156" d="M0 0H9.901V13.578H0z" class="cls-2" transform="translate(41.492 97.587)"/>
        <path id="Rectangle_157" d="M0 0H9.901V13.578H0z" class="cls-2" transform="translate(7.174 118.022)"/>
        <path id="Rectangle_158" d="M0 0H9.901V13.578H0z" class="cls-2" transform="translate(24.339 118.022)"/>
        <path id="Rectangle_159" d="M0 0H9.901V13.578H0z" class="cls-2" transform="translate(41.492 118.022)"/>
        <path id="Rectangle_160" d="M0 0H9.901V13.578H0z" class="cls-2" transform="translate(7.174 138.457)"/>
        <path id="Rectangle_161" d="M0 0H9.901V13.578H0z" class="cls-2" transform="translate(24.339 138.457)"/>
        <path id="Rectangle_162" d="M0 0H9.901V13.578H0z" class="cls-2" transform="translate(41.492 138.457)"/>
        <path id="Rectangle_163" d="M0 0H9.901V13.578H0z" class="cls-2" transform="translate(7.174 158.892)"/>
        <path id="Rectangle_164" d="M0 0H9.901V13.578H0z" class="cls-2" transform="translate(24.339 158.892)"/>
        <path id="Rectangle_165" d="M0 0H9.901V13.578H0z" class="cls-2" transform="translate(41.492 158.892)"/>
        <path id="Rectangle_166" d="M0 0H9.901V11.326H0z" class="cls-2" transform="translate(349.859 121.292)"/>
        <path id="Rectangle_167" d="M0 0H9.901V11.326H0z" class="cls-2" transform="translate(367.013 121.292)"/>
        <path id="Rectangle_168" d="M0 0H9.901V11.326H0z" class="cls-2" transform="translate(384.166 121.292)"/>
        <path id="Rectangle_169" d="M0 0H9.901V11.326H0z" class="cls-2" transform="translate(349.859 138.344)"/>
        <path id="Rectangle_170" d="M0 0H9.901V11.326H0z" class="cls-2" transform="translate(367.013 138.344)"/>
        <path id="Rectangle_171" d="M0 0H9.901V11.326H0z" class="cls-2" transform="translate(384.166 138.344)"/>
        <path id="Rectangle_172" d="M0 0H9.901V11.326H0z" class="cls-2" transform="translate(349.859 155.395)"/>
        <path id="Rectangle_173" d="M0 0H9.901V11.326H0z" class="cls-2" transform="translate(367.013 155.395)"/>
        <path id="Rectangle_174" d="M0 0H9.901V11.326H0z" class="cls-2" transform="translate(384.166 155.395)"/>
        <path id="Rectangle_175" d="M0 0H9.901V11.326H0z" class="cls-2" transform="translate(349.859 172.436)"/>
        <path id="Rectangle_176" d="M0 0H9.901V11.326H0z" class="cls-2" transform="translate(367.013 172.436)"/>
        <path id="Rectangle_177" d="M0 0H9.901V11.326H0z" class="cls-2" transform="translate(384.166 172.436)"/>
        <path id="Rectangle_178" d="M0 0H9.901V11.326H0z" class="cls-2" transform="translate(349.859 189.917)"/>
        <path id="Rectangle_179" d="M0 0H9.901V11.326H0z" class="cls-2" transform="translate(367.013 189.917)"/>
        <path id="Rectangle_180" d="M0 0H9.901V11.326H0z" class="cls-2" transform="translate(384.166 189.917)"/>
        <path id="Rectangle_181" d="M0 0H9.901V11.326H0z" class="cls-2" transform="translate(349.859 207.388)"/>
        <path id="Rectangle_182" d="M0 0H9.901V11.326H0z" class="cls-2" transform="translate(367.013 207.388)"/>
        <path id="Rectangle_183" d="M0 0H9.901V11.326H0z" class="cls-2" transform="translate(384.166 207.388)"/>
        <path id="Rectangle_184" d="M0 0H9.901V11.326H0z" class="cls-2" transform="translate(349.859 224.858)"/>
        <path id="Rectangle_185" d="M0 0H9.901V11.326H0z" class="cls-2" transform="translate(367.013 224.858)"/>
        <path id="Rectangle_186" d="M0 0H9.901V11.326H0z" class="cls-2" transform="translate(384.166 224.858)"/>
        <path id="Rectangle_187" d="M0 0H9.901V11.326H0z" class="cls-2" transform="translate(349.859 242.328)"/>
        <path id="Rectangle_188" d="M0 0H9.901V11.326H0z" class="cls-2" transform="translate(367.013 242.328)"/>
        <path id="Rectangle_189" d="M0 0H9.901V11.326H0z" class="cls-2" transform="translate(384.166 242.328)"/>
        <path id="Rectangle_190" d="M0 0H56.982V8.498H0z" class="cls-2" transform="translate(82.011 128.183)"/>
        <path id="Rectangle_191" d="M0 0H56.982V8.498H0z" class="cls-2" transform="translate(82.011 144.669)"/>
        <path id="Rectangle_192" d="M0 0H56.982V8.498H0z" class="cls-2" transform="translate(82.011 161.155)"/>
        <path id="Rectangle_193" d="M0 0H56.982V8.498H0z" class="cls-2" transform="translate(82.011 177.629)"/>
        <path id="Rectangle_194" d="M0 0H56.982V8.498H0z" class="cls-2" transform="translate(82.011 194.115)"/>
        <path id="Rectangle_195" d="M0 0H56.982V8.498H0z" class="cls-2" transform="translate(82.011 210.601)"/>
        <path id="Rectangle_196" d="M0 0H56.982V8.498H0z" class="cls-2" transform="translate(82.011 227.087)"/>
        <path id="Rectangle_197" d="M0 0H56.982V8.498H0z" class="cls-2" transform="translate(82.011 243.562)"/>
        <path id="Rectangle_198" d="M0 0H52.388V8.498H0z" class="cls-2" transform="translate(496.818 113.734)"/>
        <path id="Rectangle_199" d="M0 0H52.388V8.498H0z" class="cls-2" transform="translate(496.818 130.22)"/>
        <path id="Rectangle_200" d="M0 0H52.388V8.498H0z" class="cls-2" transform="translate(496.818 146.694)"/>
        <path id="Rectangle_201" d="M0 0H52.388V8.498H0z" class="cls-2" transform="translate(496.818 163.18)"/>
        <path id="Rectangle_202" d="M0 0H52.388V8.498H0z" class="cls-2" transform="translate(496.818 179.666)"/>
        <path id="Rectangle_203" d="M0 0H52.388V8.498H0z" class="cls-2" transform="translate(496.818 196.141)"/>
        <path id="Rectangle_204" d="M0 0H52.388V8.498H0z" class="cls-2" transform="translate(496.818 212.627)"/>
        <path id="Rectangle_205" d="M0 0H52.388V8.498H0z" class="cls-2" transform="translate(496.818 229.112)"/>
        <path id="Rectangle_206" d="M0 0H52.388V8.498H0z" class="cls-2" transform="translate(496.818 244.772)"/>
        <path id="Rectangle_207" d="M0 0H52.388V8.498H0z" class="cls-2" transform="translate(496.818 260.432)"/>
        <path id="Rectangle_208" d="M0 0H52.388V8.498H0z" class="cls-2" transform="translate(496.818 276.092)"/>
        <path id="Rectangle_209" d="M0 0H52.388V8.498H0z" class="cls-2" transform="translate(496.818 291.764)"/>
        <path id="Rectangle_210" d="M0 0H55.342V8.498H0z" class="cls-2" transform="translate(578.58 133.637)"/>
        <path id="Rectangle_211" d="M0 0H55.342V8.498H0z" class="cls-2" transform="translate(578.58 150.123)"/>
        <path id="Rectangle_212" d="M0 0H55.342V8.498H0z" class="cls-2" transform="translate(578.58 166.609)"/>
        <path id="Rectangle_213" d="M0 0H55.342V8.498H0z" class="cls-2" transform="translate(578.58 183.094)"/>
        <path id="Rectangle_214" d="M0 0H55.342V8.498H0z" class="cls-2" transform="translate(578.58 199.569)"/>
        <path id="Rectangle_215" d="M0 0H55.342V8.498H0z" class="cls-2" transform="translate(578.58 216.055)"/>
        <path id="Rectangle_216" d="M0 0H55.342V8.498H0z" class="cls-2" transform="translate(578.58 232.541)"/>
        <path id="Rectangle_217" d="M0 0H55.342V8.498H0z" class="cls-2" transform="translate(578.58 249.016)"/>
        <path id="Rectangle_218" d="M0 0H55.342V8.498H0z" class="cls-2" transform="translate(578.58 263.77)"/>
        <path id="Rectangle_219" d="M0 0H55.342V8.498H0z" class="cls-2" transform="translate(578.58 278.525)"/>
        <path id="Rectangle_220" d="M0 0H55.342V8.498H0z" class="cls-2" transform="translate(578.58 293.28)"/>
        <path id="Rectangle_221" d="M0 0H17.595V8.203H0z" class="cls-2" transform="translate(282.829 101.355)"/>
        <path id="Rectangle_222" d="M0 0H17.595V8.203H0z" class="cls-2" transform="translate(282.829 117.275)"/>
        <path id="Rectangle_223" d="M0 0H17.595V8.203H0z" class="cls-2" transform="translate(282.829 133.195)"/>
        <path id="Rectangle_224" d="M0 0H17.595V8.203H0z" class="cls-2" transform="translate(282.829 149.116)"/>
        <path id="Rectangle_225" d="M0 0H17.595V8.203H0z" class="cls-2" transform="translate(282.829 165.024)"/>
        <path id="Rectangle_226" d="M0 0H17.595V8.203H0z" class="cls-2" transform="translate(282.829 180.945)"/>
        <path id="Rectangle_227" d="M0 0H17.595V8.203H0z" class="cls-2" transform="translate(282.829 196.865)"/>
        <path id="Rectangle_228" d="M0 0H17.595V8.203H0z" class="cls-2" transform="translate(282.829 212.785)"/>
        <path id="Rectangle_229" d="M0 0H17.595V8.203H0z" class="cls-2" transform="translate(306.772 101.355)"/>
        <path id="Rectangle_230" d="M0 0H17.595V8.203H0z" class="cls-2" transform="translate(306.772 117.275)"/>
        <path id="Rectangle_231" d="M0 0H17.595V8.203H0z" class="cls-2" transform="translate(306.772 133.195)"/>
        <path id="Rectangle_232" d="M0 0H17.595V8.203H0z" class="cls-2" transform="translate(306.772 149.116)"/>
        <path id="Rectangle_233" d="M0 0H17.595V8.203H0z" class="cls-2" transform="translate(306.772 165.024)"/>
        <path id="Rectangle_234" d="M0 0H17.595V8.203H0z" class="cls-2" transform="translate(306.772 180.945)"/>
        <path id="Rectangle_235" d="M0 0H17.595V8.203H0z" class="cls-2" transform="translate(306.772 196.865)"/>
        <path id="Rectangle_236" d="M0 0H17.595V8.203H0z" class="cls-2" transform="translate(306.772 212.785)"/>
        <path id="Rectangle_237" d="M0 0H18.33V12.933H0z" class="cls-2" transform="translate(167.609 42.302)"/>
        <path id="Rectangle_238" d="M0 0H18.33V12.933H0z" class="cls-2" transform="translate(194.935 42.302)"/>
        <path id="Rectangle_239" d="M0 0H18.33V12.933H0z" class="cls-2" transform="translate(167.609 61.311)"/>
        <path id="Rectangle_240" d="M0 0H18.33V12.933H0z" class="cls-2" transform="translate(194.935 61.311)"/>
        <path id="Rectangle_241" d="M0 0H18.33V12.933H0z" class="cls-2" transform="translate(167.609 80.309)"/>
        <path id="Rectangle_242" d="M0 0H18.33V12.933H0z" class="cls-2" transform="translate(194.935 80.309)"/>
        <path id="Rectangle_243" d="M0 0H18.33V12.933H0z" class="cls-2" transform="translate(167.609 99.318)"/>
        <path id="Rectangle_244" d="M0 0H18.33V12.933H0z" class="cls-2" transform="translate(194.935 99.318)"/>
        <path id="Rectangle_245" d="M0 0H18.33V12.933H0z" class="cls-2" transform="translate(167.609 118.327)"/>
        <path id="Rectangle_246" d="M0 0H18.33V12.933H0z" class="cls-2" transform="translate(194.935 118.327)"/>
        <path id="Rectangle_247" d="M0 0H18.33V12.933H0z" class="cls-2" transform="translate(167.609 137.325)"/>
        <path id="Rectangle_248" d="M0 0H18.33V12.933H0z" class="cls-2" transform="translate(194.935 137.325)"/>
        <path id="Rectangle_249" d="M0 0H18.33V12.933H0z" class="cls-2" transform="translate(167.609 156.334)"/>
        <path id="Rectangle_250" d="M0 0H18.33V12.933H0z" class="cls-2" transform="translate(194.935 156.334)"/>
        <path id="Rectangle_251" d="M0 0H18.33V12.933H0z" class="cls-2" transform="translate(167.609 175.332)"/>
        <path id="Rectangle_252" d="M0 0H18.33V12.933H0z" class="cls-2" transform="translate(194.935 175.332)"/>
        <path id="Rectangle_253" d="M0 0H18.33V12.933H0z" class="cls-2" transform="translate(228.812 80.309)"/>
        <path id="Rectangle_254" d="M0 0H18.33V12.933H0z" class="cls-2" transform="translate(228.812 99.318)"/>
        <path id="Rectangle_255" d="M0 0H18.33V12.933H0z" class="cls-2" transform="translate(228.812 118.327)"/>
        <path id="Rectangle_256" d="M0 0H18.33V12.933H0z" class="cls-2" transform="translate(228.812 137.325)"/>
        <path id="Rectangle_257" d="M0 0H18.33V12.933H0z" class="cls-2" transform="translate(228.812 156.334)"/>
        <path id="Rectangle_258" d="M0 0H18.33V12.933H0z" class="cls-2" transform="translate(228.812 175.332)"/>
        <path id="Rectangle_259" d="M0 0H18.33V12.933H0z" class="cls-2" transform="translate(167.609 194.115)"/>
        <path id="Rectangle_260" d="M0 0H18.33V12.933H0z" class="cls-2" transform="translate(194.935 194.115)"/>
        <path id="Rectangle_261" d="M0 0H18.33V12.933H0z" class="cls-2" transform="translate(228.812 194.115)"/>
        <path id="Rectangle_262" d="M0 0H18.33V12.933H0z" class="cls-2" transform="translate(167.609 212.898)"/>
        <path id="Rectangle_263" d="M0 0H18.33V12.933H0z" class="cls-2" transform="translate(194.935 212.898)"/>
        <path id="Rectangle_264" d="M0 0H18.33V12.933H0z" class="cls-2" transform="translate(228.812 212.898)"/>
        <path id="Rectangle_265" d="M0 0H18.33V12.933H0z" class="cls-2" transform="translate(167.609 231.67)"/>
        <path id="Rectangle_266" d="M0 0H18.33V12.933H0z" class="cls-2" transform="translate(194.935 231.67)"/>
        <path id="Rectangle_267" d="M0 0H18.33V12.933H0z" class="cls-2" transform="translate(228.812 231.67)"/>
        <path id="Rectangle_268" d="M0 0H18.33V12.933H0z" class="cls-2" transform="translate(167.609 250.453)"/>
        <path id="Rectangle_269" d="M0 0H18.33V12.933H0z" class="cls-2" transform="translate(194.935 250.453)"/>
        <path id="Rectangle_270" d="M0 0H18.33V12.933H0z" class="cls-2" transform="translate(228.812 250.453)"/>
        <path id="Rectangle_271" d="M0 0H18.33V12.933H0z" class="cls-2" transform="translate(167.609 269.224)"/>
        <path id="Rectangle_272" d="M0 0H18.33V12.933H0z" class="cls-2" transform="translate(194.935 269.224)"/>
        <path id="Rectangle_273" d="M0 0H18.33V12.933H0z" class="cls-2" transform="translate(228.812 269.224)"/>
        <path id="Rectangle_274" d="M0 0H9.901V11.326H0z" class="cls-2" transform="translate(402.825 60.768)"/>
        <path id="Rectangle_275" d="M0 0H9.901V11.326H0z" class="cls-2" transform="translate(419.978 60.768)"/>
        <path id="Rectangle_276" d="M0 0H9.901V11.326H0z" class="cls-2" transform="translate(402.825 77.82)"/>
        <path id="Rectangle_277" d="M0 0H9.901V11.326H0z" class="cls-2" transform="translate(419.978 77.82)"/>
        <path id="Rectangle_278" d="M0 0H9.901V11.326H0z" class="cls-2" transform="translate(402.825 94.872)"/>
        <path id="Rectangle_279" d="M0 0H9.901V11.326H0z" class="cls-2" transform="translate(419.978 94.872)"/>
        <path id="Rectangle_280" d="M0 0H9.901V11.326H0z" class="cls-2" transform="translate(402.825 111.923)"/>
        <path id="Rectangle_281" d="M0 0H9.901V11.326H0z" class="cls-2" transform="translate(419.978 111.923)"/>
        <path id="Rectangle_282" d="M0 0H9.901V11.326H0z" class="cls-2" transform="translate(402.825 129.394)"/>
        <path id="Rectangle_283" d="M0 0H9.901V11.326H0z" class="cls-2" transform="translate(419.978 129.394)"/>
        <path id="Rectangle_284" d="M0 0H9.901V11.326H0z" class="cls-2" transform="translate(402.825 146.864)"/>
        <path id="Rectangle_285" d="M0 0H9.901V11.326H0z" class="cls-2" transform="translate(419.978 146.864)"/>
        <path id="Rectangle_286" d="M0 0H9.901V11.326H0z" class="cls-2" transform="translate(402.825 164.334)"/>
        <path id="Rectangle_287" d="M0 0H9.901V11.326H0z" class="cls-2" transform="translate(419.978 164.334)"/>
        <path id="Rectangle_288" d="M0 0H9.901V11.326H0z" class="cls-2" transform="translate(402.825 181.805)"/>
        <path id="Rectangle_289" d="M0 0H9.901V11.326H0z" class="cls-2" transform="translate(419.978 181.805)"/>
        <path id="Rectangle_290" d="M0 0H9.901V11.326H0z" class="cls-2" transform="translate(402.825 199.467)"/>
        <path id="Rectangle_291" d="M0 0H9.901V11.326H0z" class="cls-2" transform="translate(419.978 199.467)"/>
        <path id="Rectangle_292" d="M0 0H9.901V11.326H0z" class="cls-2" transform="translate(402.825 217.13)"/>
        <path id="Rectangle_293" d="M0 0H9.901V11.326H0z" class="cls-2" transform="translate(419.978 217.13)"/>
        <path id="Rectangle_294" d="M0 0H9.901V11.326H0z" class="cls-2" transform="translate(402.825 234.781)"/>
        <path id="Rectangle_295" d="M0 0H9.901V11.326H0z" class="cls-2" transform="translate(419.978 234.781)"/>
        <path id="Rectangle_296" d="M0 0H9.901V11.326H0z" class="cls-2" transform="translate(402.825 252.444)"/>
        <path id="Rectangle_297" d="M0 0H9.901V11.326H0z" class="cls-2" transform="translate(419.978 252.444)"/>
        <path id="Rectangle_298" d="M0 0H9.901V13.352H0z" class="cls-2" transform="translate(644.513 62.612)"/>
        <path id="Rectangle_299" d="M0 0H9.901V13.352H0z" class="cls-2" transform="translate(661.666 62.612)"/>
        <path id="Rectangle_300" d="M0 0H9.901V13.352H0z" class="cls-2" transform="translate(644.513 82.697)"/>
        <path id="Rectangle_301" d="M0 0H9.901V13.352H0z" class="cls-2" transform="translate(661.666 82.697)"/>
        <path id="Rectangle_302" d="M0 0H9.901V13.352H0z" class="cls-2" transform="translate(644.513 102.792)"/>
        <path id="Rectangle_303" d="M0 0H9.901V13.352H0z" class="cls-2" transform="translate(661.666 102.792)"/>
        <path id="Rectangle_304" d="M0 0H9.901V13.352H0z" class="cls-2" transform="translate(644.513 122.876)"/>
        <path id="Rectangle_305" d="M0 0H9.901V13.352H0z" class="cls-2" transform="translate(661.666 122.876)"/>
        <path id="Rectangle_306" d="M0 0H9.901V13.352H0z" class="cls-2" transform="translate(644.513 143.458)"/>
        <path id="Rectangle_307" d="M0 0H9.901V13.352H0z" class="cls-2" transform="translate(661.666 143.458)"/>
        <path id="Rectangle_308" d="M0 0H9.901V13.352H0z" class="cls-2" transform="translate(644.513 164.04)"/>
        <path id="Rectangle_309" d="M0 0H9.901V13.352H0z" class="cls-2" transform="translate(661.666 164.04)"/>
        <path id="Rectangle_310" d="M0 0H9.901V13.352H0z" class="cls-2" transform="translate(644.513 184.622)"/>
        <path id="Rectangle_311" d="M0 0H9.901V13.352H0z" class="cls-2" transform="translate(661.666 184.622)"/>
        <path id="Rectangle_312" d="M0 0H9.901V13.352H0z" class="cls-2" transform="translate(644.513 205.215)"/>
        <path id="Rectangle_313" d="M0 0H9.901V13.352H0z" class="cls-2" transform="translate(661.666 205.215)"/>
        <path id="Rectangle_314" d="M0 0H9.901V13.352H0z" class="cls-2" transform="translate(644.513 226.012)"/>
        <path id="Rectangle_315" d="M0 0H9.901V13.352H0z" class="cls-2" transform="translate(661.666 226.012)"/>
        <path id="Rectangle_316" d="M0 0H9.901V13.352H0z" class="cls-2" transform="translate(644.513 246.82)"/>
        <path id="Rectangle_317" d="M0 0H9.901V13.352H0z" class="cls-2" transform="translate(661.666 246.82)"/>
        <path id="Rectangle_318" d="M0 0H9.901V13.352H0z" class="cls-2" transform="translate(644.513 267.617)"/>
        <path id="Rectangle_319" d="M0 0H9.901V13.352H0z" class="cls-2" transform="translate(661.666 267.617)"/>
        <path id="Rectangle_320" d="M0 0H9.901V13.352H0z" class="cls-2" transform="translate(644.513 288.426)"/>
        <path id="Rectangle_321" d="M0 0H9.901V13.352H0z" class="cls-2" transform="translate(661.666 288.426)"/>
        <path id="Rectangle_322" d="M0 0H9.901V11.326H0z" class="cls-2" transform="translate(439.508 60.768)"/>
        <path id="Rectangle_323" d="M0 0H9.901V11.326H0z" class="cls-2" transform="translate(456.661 60.768)"/>
        <path id="Rectangle_324" d="M0 0H9.901V11.326H0z" class="cls-2" transform="translate(439.508 43.286)"/>
        <path id="Rectangle_325" d="M0 0H9.901V11.326H0z" class="cls-2" transform="translate(456.661 43.286)"/>
        <path id="Rectangle_326" d="M0 0H9.901V11.326H0z" class="cls-2" transform="translate(439.508 25.805)"/>
        <path id="Rectangle_327" d="M0 0H9.901V11.326H0z" class="cls-2" transform="translate(456.661 25.805)"/>
        <path id="Rectangle_328" d="M0 0H9.901V11.326H0z" class="cls-2" transform="translate(439.508 77.82)"/>
        <path id="Rectangle_329" d="M0 0H9.901V11.326H0z" class="cls-2" transform="translate(456.661 77.82)"/>
        <path id="Rectangle_330" d="M0 0H9.901V11.326H0z" class="cls-2" transform="translate(439.508 94.872)"/>
        <path id="Rectangle_331" d="M0 0H9.901V11.326H0z" class="cls-2" transform="translate(456.661 94.872)"/>
        <path id="Rectangle_332" d="M0 0H9.901V11.326H0z" class="cls-2" transform="translate(439.508 111.923)"/>
        <path id="Rectangle_333" d="M0 0H9.901V11.326H0z" class="cls-2" transform="translate(456.661 111.923)"/>
        <path id="Rectangle_334" d="M0 0H9.901V11.326H0z" class="cls-2" transform="translate(439.508 129.394)"/>
        <path id="Rectangle_335" d="M0 0H9.901V11.326H0z" class="cls-2" transform="translate(456.661 129.394)"/>
        <path id="Rectangle_336" d="M0 0H9.901V11.326H0z" class="cls-2" transform="translate(439.508 146.864)"/>
        <path id="Rectangle_337" d="M0 0H9.901V11.326H0z" class="cls-2" transform="translate(456.661 146.864)"/>
        <path id="Rectangle_338" d="M0 0H9.901V11.326H0z" class="cls-2" transform="translate(439.508 164.334)"/>
        <path id="Rectangle_339" d="M0 0H9.901V11.326H0z" class="cls-2" transform="translate(456.661 164.334)"/>
        <path id="Rectangle_340" d="M0 0H9.901V11.326H0z" class="cls-2" transform="translate(439.508 181.805)"/>
        <path id="Rectangle_341" d="M0 0H9.901V11.326H0z" class="cls-2" transform="translate(456.661 181.805)"/>
        <path id="Rectangle_342" d="M0 0H9.901V11.326H0z" class="cls-2" transform="translate(439.508 199.467)"/>
        <path id="Rectangle_343" d="M0 0H9.901V11.326H0z" class="cls-2" transform="translate(456.661 199.467)"/>
        <path id="Rectangle_344" d="M0 0H9.901V11.326H0z" class="cls-2" transform="translate(439.508 217.13)"/>
        <path id="Rectangle_345" d="M0 0H9.901V11.326H0z" class="cls-2" transform="translate(456.661 217.13)"/>
        <path id="Rectangle_346" d="M0 0H9.901V11.326H0z" class="cls-2" transform="translate(439.508 234.781)"/>
        <path id="Rectangle_347" d="M0 0H9.901V11.326H0z" class="cls-2" transform="translate(456.661 234.781)"/>
        <path id="Rectangle_348" d="M0 0H9.901V11.326H0z" class="cls-2" transform="translate(439.508 252.444)"/>
        <path id="Rectangle_349" d="M0 0H9.901V11.326H0z" class="cls-2" transform="translate(456.661 252.444)"/>
        <path id="Tracé_731" d="M195.3 136.807l-99.12-.147s4.933-6.416 10.365-7.208c0 0 10.613-31.444 28.287-31.682 16.452-.181 23.015 19.383 23.015 19.383s7.638-8.758 14.913-4.73 11.372 15.513 11.372 15.513 8.214 4.458 11.168 8.871z" class="cls-1" transform="translate(-74.489 -60.085)"/>
        <path id="Tracé_732" d="M558.08 104.673l125.359.192s0-8.011-17.255-9.606c0 0-15.717-35.076-39.795-30.358C611.4 67.752 603.7 88.323 603.7 88.323s-11.315-16.214-20.367-13.091S568.852 95.6 568.852 95.6s-9.346 4.547-10.772 9.073z" class="cls-1" transform="translate(-13.75 -64.464)"/>
        <path id="Tracé_733" d="M289.3 99.813l85.247.124s-8.034-7.5-11.609-7.5-14.008-25.154-27.315-24.113-20.434 19.756-20.434 19.756S299 82.977 289.3 99.813z" class="cls-1" transform="translate(-49.094 -63.961)"/>
        <path id="Tracé_734" d="M499.75 143.577l72.891.113s-3.621-4.73-7.615-5.318c0 0-7.728-23.151-20.74-23.332-12.1-.17-16.973 14.2-16.973 14.2s-5.59-6.461-10.942-3.519-8.418 11.383-8.418 11.383-6.019 3.236-8.203 6.473z" class="cls-1" transform="translate(-21.42 -57.814)"/>
    </g>
    <g id="freepik--Shadow--inject-5" transform="translate(55.048 349.775)">
        <ellipse id="Ellipse_32" cx="310.981" cy="26.285" class="cls-1" rx="310.981" ry="26.285"/>
        <ellipse id="Ellipse_33" cx="154.167" cy="20.627" class="cls-1" rx="154.167" ry="20.627" transform="translate(279.955 49.718)"/>
    </g>
    <g id="freepik--Floor--inject-5" transform="translate(0 301.947)">
        <path id="Tracé_735" d="M47.51 341.956l92.636-.272 92.636-.1 185.283-.192 185.283.192 92.636.1 92.636.272-92.636.283-92.636.1-185.283.181-185.283-.181-92.636-.1z" class="cls-3" transform="translate(-47.51 -329.996)"/>
        <path id="Rectangle_350" fill="#c7c7c7" d="M0 0H741.109V11.971H0z"/>
        <path id="Tracé_736" d="M81.276 331.32a31.885 31.885 0 0 1 0 11.96 27.4 27.4 0 0 1-.566-5.974 28.164 28.164 0 0 1 .566-5.986z" class="cls-3" transform="translate(-43.145 -331.32)"/>
        <path id="Tracé_737" d="M120.446 331.32a28.161 28.161 0 0 1 .566 5.986 27.4 27.4 0 0 1-.566 5.974 28.119 28.119 0 0 1-.566-5.974 28.91 28.91 0 0 1 .566-5.986z" class="cls-3" transform="translate(-37.994 -331.32)"/>
        <path id="Tracé_738" d="M159.616 331.32a31.886 31.886 0 0 1 0 11.96 31.885 31.885 0 0 1 0-11.96z" class="cls-3" transform="translate(-32.843 -331.32)"/>
        <path id="Tracé_739" d="M198.8 331.32a32.528 32.528 0 0 1 0 11.96 31.886 31.886 0 0 1 0-11.96z" class="cls-3" transform="translate(-27.691 -331.32)"/>
        <path id="Tracé_740" d="M237.966 331.32a31.884 31.884 0 0 1 0 11.96 31.888 31.888 0 0 1 0-11.96z" class="cls-3" transform="translate(-22.54 -331.32)"/>
        <path id="Tracé_741" d="M277.136 331.32a28.9 28.9 0 0 1 .566 5.986 28.115 28.115 0 0 1-.566 5.974 27.4 27.4 0 0 1-.566-5.974 28.9 28.9 0 0 1 .566-5.986z" class="cls-3" transform="translate(-17.389 -331.32)"/>
        <path id="Tracé_742" d="M316.306 331.32a28.165 28.165 0 0 1 .566 5.986 27.412 27.412 0 0 1-.566 5.974 31.881 31.881 0 0 1 0-11.96z" class="cls-3" transform="translate(-12.238 -331.32)"/>
        <path id="Tracé_743" d="M355.476 331.32a31.884 31.884 0 0 1 0 11.96 31.889 31.889 0 0 1 0-11.96z" class="cls-3" transform="translate(-7.087 -331.32)"/>
        <path id="Tracé_744" d="M394.656 331.32a31.885 31.885 0 0 1 0 11.96 31.884 31.884 0 0 1 0-11.96z" class="cls-3" transform="translate(-1.935 -331.32)"/>
        <path id="Tracé_745" d="M433.826 331.32a31.884 31.884 0 0 1 0 11.96 27.4 27.4 0 0 1-.566-5.974 28.157 28.157 0 0 1 .566-5.986z" class="cls-3" transform="translate(3.215 -331.32)"/>
        <path id="Tracé_746" d="M473 331.32a28.912 28.912 0 0 1 .566 5.986 27.4 27.4 0 0 1-.566 5.974 28.116 28.116 0 0 1-.566-5.974 28.9 28.9 0 0 1 .566-5.986z" class="cls-3" transform="translate(8.366 -331.32)"/>
        <path id="Tracé_747" d="M512.166 331.32a31.889 31.889 0 0 1 0 11.96 31.879 31.879 0 0 1 0-11.96z" class="cls-3" transform="translate(13.517 -331.32)"/>
        <path id="Tracé_748" d="M551.346 331.32a32.531 32.531 0 0 1 0 11.96 31.884 31.884 0 0 1 0-11.96z" class="cls-3" transform="translate(18.669 -331.32)"/>
        <path id="Tracé_749" d="M590.516 331.32a31.876 31.876 0 0 1 0 11.96 31.892 31.892 0 0 1 0-11.96z" class="cls-3" transform="translate(23.82 -331.32)"/>
        <path id="Tracé_750" d="M629.686 331.32a28.9 28.9 0 0 1 .566 5.986 28.107 28.107 0 0 1-.566 5.974 27.411 27.411 0 0 1-.566-5.974 28.165 28.165 0 0 1 .566-5.986z" class="cls-3" transform="translate(28.97 -331.32)"/>
        <path id="Tracé_751" d="M668.856 331.32a28.149 28.149 0 0 1 .566 5.986 27.4 27.4 0 0 1-.566 5.974 31.886 31.886 0 0 1 0-11.96z" class="cls-3" transform="translate(34.122 -331.32)"/>
    </g>
    <g id="freepik--Car--inject-5" transform="translate(60.372 147.656)">
        <path id="Tracé_752" d="M140 362.6h134.648s-14.71-62.9-67.313-62.9-65.072 48.858-67.335 62.9z" class="cls-5" transform="translate(-95.719 -181.187)"/>
        <path id="Tracé_753" d="M140 362.6h134.648s-14.71-62.9-67.313-62.9-65.072 48.858-67.335 62.9z" class="cls-6" transform="translate(-95.719 -181.187)"/>
        <path id="Tracé_754" d="M485.3 368.6h134.648s-14.709-62.9-67.313-62.9-65.016 48.858-67.335 62.9z" class="cls-5" transform="translate(-50.312 -180.398)"/>
        <path id="Tracé_755" d="M485.3 368.6h134.648s-14.709-62.9-67.313-62.9-65.016 48.858-67.335 62.9z" class="cls-6" transform="translate(-50.312 -180.398)"/>
        <path id="Tracé_756" d="M114.336 261.65c-2.885 4.526-7.92 55.093-8.249 56.858s-4.526 9.5-4.526 10.976-1.132 24.237-.509 25.708a64.191 64.191 0 0 0 4.639 7.739c.735.883 19.813 17.3 21.951 17.527s21.872.362 22.245 0 2.648-61.1 62.527-61.1 59.223 64.5 60.331 64.744 269.15 6.336 269.15 6.336c0-9.878.77-68.648 59.505-68.648 38.267 0 57.6 31.535 58.272 54.8.272 9.686-1.346 20.367-.815 20.367 1.765 0 7.807.441 8.837 0s13.578-8.7 14.585-9 8.249-.441 10.014-.883 14.144-11.315 14.37-11.711.588-4.707.656-5.08 12.6-15.694 13.193-17.38.8-15.694.8-17.1-22.754-38.3-28.061-42.273-43.083-17.23-54.138-19.23-71.816-11.055-74.023-12.594-105.965-61.044-124.012-65.468c-14.585-3.53-183.4 1.324-192.242 1.765s-33.3 4.865-35.654 4.865-29.419-.147-31.082.588 0 7.219 2.059 8.4-64.811 41.844-69.823 49.794z" class="cls-5" transform="translate(-100.865 -194.96)"/>
        <path id="Tracé_757" d="M116.192 255.86c.634.588 11.191.849 12.3.407s67.6-44.672 67.641-45.961c0-.645-12.446-.475-13.985-.407s-67.178 44.852-65.956 45.961z" class="cls-7" transform="translate(-98.852 -193.005)"/>
        <path id="Tracé_758" d="M181.644 255.966c2.885 8.509 352.1 24.418 354.012 20.3 1.414-3.055-29.826-28.14-44.411-36.321S434.9 208.127 414.3 205.694s-62.232-2.263-98.554-1.539c-36.027.656-78.447 1.539-93.473 7.92-13.133 5.658-42.914 37.125-40.629 43.891z" class="cls-3" transform="translate(-90.259 -193.813)"/>
        <path id="Tracé_759" d="M190.242 250.525c.871 3.2 77.994 11.5 168.378 15.694s135.01 4.854 136.119 4.413-3.1-24.52-4.639-26.511-66.295-35.133-76.455-36.027-65.084-1-92.783-.554-85.507 3.757-95.351 7.728c-8.678 3.507-36.162 32.055-35.269 35.257z" class="cls-7" transform="translate(-89.115 -193.339)"/>
        <g id="Groupe_20" opacity="0.1" transform="translate(103.153 13.985)">
            <path id="Tracé_760" d="M304.973 207.76l-51.766 51.766c-9.233-.815-17.776-1.629-25.447-2.41l47.964-47.953c10.229-.656 20.424-1.131 29.249-1.403z" class="cls-2" transform="translate(-187.332 -207.262)"/>
            <path id="Tracé_761" d="M462.972 261.343l-5.216 5.216q-7.92 0-27.326-.521l26.93-26.918a7.357 7.357 0 0 1 1.132.8c1.119 1.429 3.586 14.125 4.48 21.423z" class="cls-2" transform="translate(-160.681 -203.138)"/>
            <path id="Tracé_762" d="M338 207.32l-55.043 55.08c-4.413-.306-8.747-.622-12.967-.95l54.018-54.029c4.435-.067 9.154-.101 13.992-.101z" class="cls-2" transform="translate(-181.778 -207.32)"/>
            <path id="Tracé_763" d="M440.474 229.177l-37.724 37.746-13.42-.5 41.87-41.863c3.175 1.55 6.3 3.1 9.274 4.617z" class="cls-2" transform="translate(-166.085 -205.053)"/>
            <path id="Tracé_764" d="M267.824 209.46l-46.561 46.584-3.553-.4 45.89-45.89z" class="cls-2" transform="translate(-188.653 -207.039)"/>
            <path id="Tracé_765" d="M446.009 232.426l-33.945 34.013-3.825-.136 35.212-35.223z" class="cls-2" transform="translate(-163.599 -204.196)"/>
            <path id="Tracé_766" d="M405.237 211.753l-54.595 54.595-3.8-.159 55.624-55.579z" class="cls-2" transform="translate(-171.673 -206.887)"/>
            <path id="Tracé_767" d="M234.2 212.6l-38.969 38.924c-1.3-.26-2.376-.509-3.2-.758l37.339-37.339c1.414-.273 3.021-.555 4.83-.827z" class="cls-2" transform="translate(-192.03 -206.626)"/>
        </g>
        <path id="Tracé_768" d="M235.471 212.281c.362 0 .532.475.215 1.324-1.81 5.013-15.943 33.4-19.473 40.033a3.123 3.123 0 0 1-2 1.4L239.1 257.7a2.025 2.025 0 0 1-1.233-2.263c.249-1.573 9.493-34.941 12.446-43.144a3.5 3.5 0 0 1 1.663-1.742c.5 0-4.243.068-8.747.532-4.002.429-7.758 1.198-7.758 1.198z" class="cls-3" transform="translate(-85.96 -192.91)"/>
        <path id="Tracé_769" d="M262 209.492s.453.249.475 1.132c.158 7.853 1.041 47.172.283 49.322a.849.849 0 0 1-.362.521l4.707.373a2.264 2.264 0 0 1-.43-1.131c-.532-6.642-1.007-42.691-.916-49.356a2.025 2.025 0 0 1 .441-1.131z" class="cls-3" transform="translate(-79.676 -193.085)"/>
        <path id="Tracé_770" d="M330.642 208.941c.554 1.742 1.471 53.079 1.471 54.731s-1.89 2.048-1.89 2.048l29.181 1.358s-1.89-.532-2.263-1.414-9.5-56.235-9.448-56.96 1.494-1.4 1.494-1.4H328.82a3.1 3.1 0 0 1 1.822 1.637z" class="cls-3" transform="translate(-70.889 -193.338)"/>
        <path id="Tracé_771" d="M118.979 260.284c-3.587.453-11.643 8.837-12.232 10.6s-2.795 13.7-1.618 15.468 5.454 6.189 9.131 6.336 21.657-8.4 23.275-9.867 2.795-10.444.883-13.329-14.879-9.792-19.439-9.208z" class="cls-2" transform="translate(-100.349 -186.375)"/>
        <path id="Tracé_772" d="M137.344 282.656c-1.618 1.471-19.6 10.014-23.275 9.867-2.806-.113-5.963-2.716-7.819-4.73a11.927 11.927 0 0 0 7.2 2.263c1.98-.181 18.817-7.423 20.978-9.4s2.263-9.437 1.969-10.783-11.157-8.35-11.157-8.35c5.375 2.071 11.7 5.85 12.99 7.8 1.908 2.924.732 11.851-.886 13.333z" class="cls-1" transform="translate(-100.157 -186.208)"/>
        <path id="Tracé_773" d="M104.288 319.271c-1 1-1.335 8.475-.294 9.131s7.072.588 8.249 0 4.2-6.189 3.972-8.1-10.75-2.208-11.927-1.031z" class="cls-2" transform="translate(-100.537 -178.705)"/>
        <path id="Tracé_774" d="M579.531 283.844c3.18 5.148 26.523 14.257 35.246 15.694 5.5.905 24.531 2.1 25.64 1.132s-8.068-13.7-12.82-16.8-28.5-11.043-35.687-10.715-15.581 5.484-12.379 10.689z" class="cls-2" transform="translate(-38.013 -184.68)"/>
        <path id="Tracé_775" d="M640.417 300.654c-1.131 1-20.141-.2-25.64-1.131-8.724-1.437-32.067-10.546-35.246-15.694s5.193-10.376 12.378-10.715a14.327 14.327 0 0 1 1.675 0c-6.687 2.467-8.056 7.694-3.983 10.681s17.131 9.969 22.347 11.428c5.024 1.414 23.761 4.334 25.391 3.055a3.257 3.257 0 0 0 .713-2.693c1.72 2.636 2.783 4.695 2.365 5.069z" class="cls-1" transform="translate(-38.012 -184.686)"/>
        <g id="Groupe_21" class="cls-9" transform="translate(2.823 69.134)">
            <path id="Tracé_776" d="M186.034 282.943a11.926 11.926 0 0 1-3.395 8.418 12.079 12.079 0 1 1 0-16.825 11.9 11.9 0 0 1 3.395 8.407zm0 0a11.791 11.791 0 0 0-3.519-8.305 11.572 11.572 0 1 0 0 16.622 11.835 11.835 0 0 0 3.519-8.317z" transform="translate(-95.661 -254.113)"/>
            <path id="Tracé_777" d="M141.406 317.083c-1.2-2.67-2.263-5.363-3.395-8.079s-2.082-5.431-3.123-8.158-1.98-5.477-2.908-8.237-1.856-5.533-2.67-8.339c1.211 2.67 2.263 5.363 3.395 8.068s2.082 5.443 3.134 8.169 1.98 5.476 2.908 8.237 1.821 5.533 2.659 8.339z" transform="translate(-99.948 -252.35)"/>
            <path id="Tracé_778" d="M103.36 313.281c5.8-.113 11.6-.1 17.4-.079l17.391.181 17.391.419c5.793.181 11.587.373 17.38.679-5.793.113-11.6.1-17.391.091l-17.4-.192-17.391-.419c-5.793-.182-11.587-.375-17.38-.68z" transform="translate(-103.36 -248.548)"/>
            <path id="Tracé_779" d="M345.34 263.4l1.991 14.132.86 7.083c.136 1.188.26 2.365.351 3.564s0 2.376 0 3.576l-.192 28.536-.226 14.28L348 341.7l-.057 3.576-.272 3.553-1.131 14.234-1.2 14.166.724-14.245.815-14.234.2-3.564v-3.564l.068-7.128.147-14.245.487-28.514c0-1.188.1-2.387 0-3.553s-.17-2.365-.283-3.542l-.713-7.095z" transform="translate(-71.54 -255.095)"/>
            <path id="Tracé_780" d="M518.138 270.849l2.455 14.2 1.131 7.151.294 1.776a9.645 9.645 0 0 1 .215 1.8v3.609c-.079 9.606-.317 19.235-.611 28.808q-.113 3.6-.305 7.2a26.625 26.625 0 0 1-1.38 7.106c-1.312 4.628-2.817 9.188-4.469 13.714a105.409 105.409 0 0 1-5.748 13.239l-.894 1.584c-.305.521-.656 1.018-.984 1.528a13.643 13.643 0 0 1-1.131 1.46l-.589.713a2.263 2.263 0 0 1-1.052.317c-2.433.249-4.82.283-7.23.362-19.235.4-38.414.226-57.627.09s-38.414-.419-57.627-.769-38.4-.883-57.6-1.584c-9.6-.4-19.236-.713-28.785-1.573a22.139 22.139 0 0 1-3.643-.577c-.679-.26-1.075-.577-1.652-.826s-1.064-.521-1.607-.769c-2.184-.984-4.424-1.856-6.6-2.942a25.313 25.313 0 0 1-6.053-4.028 57.347 57.347 0 0 1-4.368-5.816c-5.409-7.92-10.58-16.045-15.739-24.135s-10.274-16.237-15.354-24.384-10.093-16.35-15.049-24.576l-1.833-3.1-.441-.815-.215-.407a2.072 2.072 0 0 1-.057-.453l-.181-1.788c-.2-2.4-.385-4.8-.475-7.2v-1.81a10.7 10.7 0 0 1 .385-1.765c.328-1.131.724-2.263 1.131-3.394.8-2.263 1.663-4.526 2.557-6.732q-1.312 3.394-2.5 6.789c-.385 1.131-.769 2.263-1.132 3.394A10.786 10.786 0 0 0 223 268v1.8c.1 2.388.317 4.786.532 7.174l.192 1.788a2.758 2.758 0 0 0 .068.441l.215.385c.147.249.272.5.43.758l1.856 3.089c5.013 8.181 10.184 16.316 15.253 24.44 10.183 16.237 20.446 32.519 31.229 48.406a57.046 57.046 0 0 0 4.277 5.657 25.006 25.006 0 0 0 5.906 3.9c2.138 1.052 4.367 1.912 6.574 2.908.555.249 1.132.5 1.641.769a14.633 14.633 0 0 0 1.573.792 23.338 23.338 0 0 0 3.462.52c9.539.837 19.156 1.132 28.751 1.482 19.235.656 38.392 1.075 57.593 1.426s38.4.724 57.616.939 38.471.419 57.6.079c2.387-.068 4.809-.1 7.162-.339a2.767 2.767 0 0 0 .668-.124l.566-.679a11.842 11.842 0 0 0 1.064-1.414c.317-.5.668-.984.973-1.494l.883-1.55a103.68 103.68 0 0 0 5.85-13.193q2.5-6.789 4.526-13.657a26.716 26.716 0 0 0 1.381-6.981l.328-7.2c.385-9.6.7-19.235.86-28.8v-3.587a10.678 10.678 0 0 0-.2-1.788l-.283-1.776-1.132-7.106z" transform="translate(-87.637 -256.06)"/>
            <path id="Tracé_781" d="M596.953 290.71a65.622 65.622 0 0 1-7.921 5.714c-2.749 1.776-5.556 3.451-8.339 5.16s-5.657 3.293-8.5 4.877-5.725 3.134-8.656 4.594c2.727-1.81 5.5-3.542 8.271-5.262l8.373-5.069 8.441-4.945 4.231-2.467a40.308 40.308 0 0 0 4.1-2.602z" transform="translate(-42.847 -251.504)"/>
            <path id="Tracé_782" d="M235.74 315.54l37.407.984 37.419 1.132 74.826 2.286 74.815 2.614 37.407 1.312 37.4 1.471-37.419-.984-37.407-1.131-74.826-2.286-74.815-2.614L273.136 317z" transform="translate(-85.952 -248.239)"/>
            <path id="Tracé_783" d="M234.1 268.179l-1.471.079h-.362c-.079 0-.09.068-.136.181a4.827 4.827 0 0 0-.136.7 18.912 18.912 0 0 0-.057 2.885 11.692 11.692 0 0 0 .125 1.426 2.754 2.754 0 0 0 .158.622h.385c.951.09 1.935.113 2.9.147 3.892.125 7.8.249 11.688.317l5.839.17h4.164a2.265 2.265 0 0 0 .158-.362 5.806 5.806 0 0 0 .136-.668 15.9 15.9 0 0 0 .124-2.851 11.718 11.718 0 0 0-.124-1.414 2.265 2.265 0 0 0-.158-.543 1.656 1.656 0 0 0-.543-.158c-1.89-.328-3.858-.441-5.793-.634a53.719 53.719 0 0 1 5.873.158 1.573 1.573 0 0 1 .826.249 1.765 1.765 0 0 1 .339.815 11.3 11.3 0 0 1 .215 1.494 17.562 17.562 0 0 1 0 2.987 6.392 6.392 0 0 1-.125.769 1.368 1.368 0 0 1-.532.894.475.475 0 0 1-.283.091h-4.29l-5.861-.079c-3.892-.147-7.8-.26-11.688-.543-.984-.09-1.946-.147-2.942-.294a1.463 1.463 0 0 1-.43-.091.737.737 0 0 1-.249-.09.577.577 0 0 1-.181-.26 2.737 2.737 0 0 1-.181-.792 11.045 11.045 0 0 1-.057-1.494 18.364 18.364 0 0 1 .283-2.942 4.334 4.334 0 0 1 .2-.724.674.674 0 0 1 .091-.181.283.283 0 0 1 .238-.113h.362z" transform="translate(-86.52 -254.499)"/>
            <path id="Tracé_784" d="M360.657 271.308l-1.46.079h-.362c-.079 0-.1.068-.147.181a3.657 3.657 0 0 0-.124.7 18.866 18.866 0 0 0-.068 2.885 9.825 9.825 0 0 0 .125 1.426 2.736 2.736 0 0 0 .17.622h.385c.95.091 1.935.113 2.9.147 3.892.124 7.785.249 11.677.317l5.85.17h4.107a1.256 1.256 0 0 0 .147-.351 5.788 5.788 0 0 0 .147-.668 17.092 17.092 0 0 0 .125-2.851 11.748 11.748 0 0 0-.136-1.414 2.458 2.458 0 0 0-.147-.543 1.651 1.651 0 0 0-.543-.158c-1.9-.328-3.858-.441-5.793-.634a56.446 56.446 0 0 1 5.861.147 1.549 1.549 0 0 1 .826.26 1.8 1.8 0 0 1 .351.815c.1.5.158 1 .215 1.494a17.561 17.561 0 0 1 0 2.987 6.345 6.345 0 0 1-.124.769c-.113.26-.068.543-.532.894a.487.487 0 0 1-.294.091h-4.288l-5.85-.079c-3.9-.147-7.8-.26-11.7-.554-.973-.079-1.935-.147-2.931-.283a1.591 1.591 0 0 1-.441-.091 1.243 1.243 0 0 1-.238-.09.839.839 0 0 1-.192-.26 2.77 2.77 0 0 1-.17-.792 13.355 13.355 0 0 1-.068-1.494 19.789 19.789 0 0 1 .294-2.942 4.3 4.3 0 0 1 .192-.724.937.937 0 0 1 .1-.181.272.272 0 0 1 .237-.113h.362z" transform="translate(-69.885 -254.086)"/>
        </g>
        <circle id="Ellipse_34" cx="55.681" cy="55.681" r="55.681" class="cls-3" transform="rotate(-45 238.384 53.965)"/>
        <circle id="Ellipse_35" cx="40.655" cy="40.655" r="40.655" class="cls-10" transform="rotate(-45 249.01 28.314)"/>
        <circle id="Ellipse_36" cx="37.487" cy="37.487" r="37.487" class="cls-11" transform="translate(72.92 146.891)"/>
        <path id="Tracé_785" d="M206.156 352.835h-11.779c3.972-5.748-9.867-25.775-9.867-25.775l6.212-2.06c4.119 7.072 6.178 9.142 9.572 9.142s5.443-2.071 9.573-9.142l6.189 2.071s-13.872 20.016-9.9 25.764z" class="cls-10" transform="translate(-89.866 -177.86)"/>
        <path id="Tracé_786" d="M195.985 352.247l-3.632 11.2c-4.232-5.556-27.563 1.426-27.563 1.426v-6.529c8-1.731 10.6-3.055 11.654-6.28s-.294-5.816-5.737-11.937l3.881-5.239s14.712 19.362 21.397 17.359z" class="cls-10" transform="translate(-92.459 -176.56)"/>
        <path id="Tracé_787" d="M192.173 361.15l9.527 6.925c-6.6 2.263-7.162 26.647-7.162 26.647l-6.223-1.958c.815-8.147.373-11.032-2.376-13.024s-5.658-1.527-13.125 1.765L169 376.2s23.015-8.069 23.173-15.05z" class="cls-10" transform="translate(-91.905 -173.107)"/>
        <path id="Tracé_788" d="M199 368.075l9.527-6.925c.158 6.981 23.139 15.049 23.139 15.049l-3.791 5.318c-7.491-3.3-10.376-3.768-13.114-1.777s-3.191 4.877-2.376 13.024l-6.223 1.957s-.599-24.338-7.162-26.646z" class="cls-10" transform="translate(-87.96 -173.107)"/>
        <path id="Tracé_789" d="M208.153 363.449l-3.643-11.2c6.687 2 21.5-17.357 21.5-17.357l3.892 5.25c-5.454 6.1-6.789 8.7-5.748 11.926s3.666 4.526 11.666 6.291l-.068 6.517s-23.367-6.983-27.599-1.427z" class="cls-10" transform="translate(-87.236 -176.56)"/>
        <circle id="Ellipse_37" cx="10.885" cy="10.885" r="10.885" class="cls-10" transform="translate(99.521 173.221)"/>
        <circle id="Ellipse_38" cx="55.681" cy="55.681" r="55.681" class="cls-3" transform="rotate(-20 637.015 -1150.168)"/>
        <circle id="Ellipse_39" cx="40.655" cy="40.655" r="40.655" class="cls-10" transform="rotate(-75.23 363.604 -185.606)"/>
        <circle id="Ellipse_40" cx="37.487" cy="37.487" r="37.487" class="cls-11" transform="translate(462.54 146.891)"/>
        <path id="Tracé_790" d="M550.518 352.836h-11.8c3.983-5.748-9.867-25.775-9.867-25.775l6.189-2.071c4.119 7.072 6.178 9.142 9.572 9.142s5.443-2.071 9.584-9.142l6.178 2.071s-13.85 20.027-9.856 25.775z" class="cls-10" transform="translate(-44.586 -177.861)"/>
        <path id="Tracé_791" d="M540.332 352.247l-3.632 11.2c-4.232-5.556-27.563 1.426-27.563 1.426l-.057-6.529c8-1.731 10.6-3.055 11.654-6.28s-.294-5.816-5.737-11.937l3.881-5.239s14.767 19.362 21.454 17.359z" class="cls-10" transform="translate(-47.185 -176.56)"/>
        <path id="Tracé_792" d="M536.509 361.15l9.527 6.925c-6.585 2.263-7.162 26.647-7.162 26.647l-6.224-1.958c.826-8.147.373-11.032-2.365-13.024s-5.657-1.527-13.125 1.765l-3.79-5.307s22.981-8.067 23.139-15.048z" class="cls-10" transform="translate(-46.621 -173.107)"/>
        <path id="Tracé_793" d="M543.32 368.075l9.527-6.925c.158 6.981 23.128 15.049 23.128 15.049l-3.791 5.318c-7.49-3.3-10.376-3.768-13.114-1.777s-3.191 4.877-2.376 13.024l-6.223 1.957s-.566-24.338-7.151-26.646z" class="cls-10" transform="translate(-42.683 -173.107)"/>
        <path id="Tracé_794" d="M552.494 363.449l-3.644-11.2c6.687 2 21.5-17.357 21.5-17.357l3.881 5.25c-5.454 6.1-6.789 8.7-5.737 11.926s3.655 4.526 11.654 6.291l-.068 6.517s-23.355-6.983-27.586-1.427z" class="cls-10" transform="translate(-41.956 -176.56)"/>
        <circle id="Ellipse_41" cx="10.885" cy="10.885" r="10.885" class="cls-10" transform="translate(489.141 173.221)"/>
        <path id="Tracé_795" d="M448.224 245.018c-2.025 2.037-1.844 20.186-.373 21.657s21.657 2.806 23.275-8.464-19.734-16.361-22.902-13.193z" class="cls-5" transform="translate(-55.385 -188.5)"/>
        <path id="Tracé_796" d="M526.828 261.289H510.41c-42.725-28.186-101.36-56.077-101.36-56.077l9.731-2.342c35.5 17.176 103.94 56.473 105.739 57.706a10.18 10.18 0 0 0 2.308.713z" class="cls-7" transform="translate(-60.339 -193.92)"/>
        <g id="Groupe_22" class="cls-9" transform="translate(44.281 5.035)">
            <path id="Tracé_797" d="M140 329.994a71.8 71.8 0 0 1 12.447-15.321A78.688 78.688 0 0 1 168.491 303a77.768 77.768 0 0 1 38.267-9.425l4.979.226 2.489.124c.826.09 1.652.226 2.478.339l4.933.7c1.629.339 3.236.769 4.854 1.132a61.328 61.328 0 0 1 18.262 7.83 63.8 63.8 0 0 1 14.777 13.216 88.716 88.716 0 0 1 10.444 16.814 92.584 92.584 0 0 0-10.942-16.4 63.219 63.219 0 0 0-14.823-12.775c-11.157-6.959-24.406-9.787-37.453-9.912a79.93 79.93 0 0 0-19.473 2.093 77.621 77.621 0 0 0-18.33 6.9 78.476 78.476 0 0 0-16.09 11.258A74.93 74.93 0 0 0 140 329.994z" class="cls-2" transform="translate(-140 -187.029)"/>
            <path id="Tracé_798" d="M484.78 329.994a71.794 71.794 0 0 1 12.447-15.321A78.7 78.7 0 0 1 513.316 303a77.767 77.767 0 0 1 38.29-9.425l4.979.226 2.489.124c.826.091 1.652.226 2.467.339l4.945.7c1.618.339 3.236.769 4.854 1.132a61.328 61.328 0 0 1 18.262 7.83 63.789 63.789 0 0 1 14.778 13.214 88.711 88.711 0 0 1 10.443 16.814c-3.236-5.748-6.574-11.462-10.942-16.4a63.677 63.677 0 0 0-14.823-12.775c-11.158-6.954-24.405-9.779-37.458-9.907a79.9 79.9 0 0 0-19.462 2.093 78.356 78.356 0 0 0-34.42 18.161 74.574 74.574 0 0 0-12.938 14.868z" class="cls-2" transform="translate(-94.662 -187.029)"/>
            <path id="Tracé_799" d="M147.1 249.965q13.018-10.183 26.341-19.982c8.86-6.551 17.821-12.99 27.043-19.088 1.132-.735 2.331-1.482 3.542-2.172.6-.362 1.211-.7 1.856-1.018a11.317 11.317 0 0 1 2.025-.758c2.67-.781 5.341-1.46 8.011-2.127 5.363-1.324 10.727-2.591 16.147-3.643a95.319 95.319 0 0 1 16.5-1.7c5.522-.113 11.032-.1 16.543.158q-8.266 0-16.509.5a94.753 94.753 0 0 0-16.316 2.037c-5.363 1.211-10.738 2.444-16.056 3.813-2.67.69-5.341 1.38-7.92 2.173a9.493 9.493 0 0 0-1.833.7c-.588.306-1.188.634-1.765.984-1.132.69-2.331 1.426-3.485 2.173-9.222 5.974-18.1 12.446-27.156 18.794z" class="cls-2" transform="translate(-139.066 -199.41)"/>
        </g>
        <path id="Tracé_800" d="M568.908 308.54c-42.657 9.754-43.28 58.069-43.28 66.928 0 0-268.052-6.11-269.15-6.336-.894-.192-.622-42.488-32.259-58.612 14.212 7.027 32.417 24.044 39.308 48.892.747 2.648 39.784 6.789 106.508 8.927s124.725.792 135.78-.758 23.876-59.211 63.093-59.041z" class="cls-12" transform="translate(-84.644 -180.025)"/>
        <path id="Tracé_801" d="M659.139 337.376c-.588 1.7-13.125 16.972-13.182 17.38s-.441 4.639-.668 5.092-12.6 11.315-14.37 11.7-8.984.588-10 .883-13.578 8.543-14.6 8.984-7.072 0-8.837 0c-.532 0 1.132-10.647.815-20.367-.486-16.882-10.794-38.132-31.048-48.507 10.987 2.342 29.317 17.346 36.717 32.813s5.5 16.61 7.23 18.477 7.468-1.9 10.115-2.568 11.315-.883 14.6-1.539 3.847-6.631 6.121-7.921 13.826-10.523 17.107-14.427z" class="cls-12" transform="translate(-39.536 -179.499)"/>
    </g>
    <g id="freepik--Locator--inject-5" transform="translate(342.123 18.948)">
        <path id="Tracé_802" d="M406.592 109.384c-1.4-14.121-11.134-28.174-28.287-28.174s-26.817 14.053-28.22 28.174c-2.161 21.793 12.548 41.537 28.22 59.551 15.682-18.013 30.395-37.758 28.287-59.551zM378.3 125.1a15.445 15.445 0 1 1 10.947-4.516A15.467 15.467 0 0 1 378.3 125.1z" class="cls-5" transform="translate(-349.873 -81.21)"/>
    </g>
</svg>
