<svg xmlns="http://www.w3.org/2000/svg" width="200.449" height="200.732" viewBox="0 0 263.449 262.732">
    <defs>
        <style>
            .cls-1{fill:#e0e0e0}.cls-2{fill:#fafafa}.cls-3{fill:#ebebeb}.cls-4{fill:#f5f5f5}.cls-5{fill:#fff}.cls-6{fill:#263238}.cls-7{fill:#ffc628}.cls-8{opacity:.24}.cls-9{opacity:.3}
        </style>
    </defs>
    <g id="Groupe_168" transform="translate(-391 -264)">
        <g id="freepik--background-complete--inject-63" transform="translate(396.69 264)">
            <path id="Rectangle_1543" d="M0 0H4.775V35.752H0z" class="cls-1" transform="rotate(-90 133.799 102.657)"/>
            <path id="Tracé_986" d="M103.929 405.8a11.383 11.383 0 0 1 0 4.477 5.8 5.8 0 0 1-.229-2.235 5.7 5.7 0 0 1 .229-2.242z" class="cls-2" transform="translate(-67.91 -173.93)"/>
            <path id="Tracé_987" d="M102.7 405.65a11.384 11.384 0 0 1 0 4.477 11.383 11.383 0 0 1 0-4.477z" class="cls-2" transform="translate(-67.464 -173.876)"/>
            <path id="Tracé_988" d="M148.2 405.8a11.073 11.073 0 0 1 0 4.477 5.728 5.728 0 0 1-.222-2.235 5.92 5.92 0 0 1 .222-2.242z" class="cls-2" transform="translate(-84.071 -173.93)"/>
            <path id="Tracé_989" d="M146.979 405.65a11.383 11.383 0 0 1 0 4.477 5.818 5.818 0 0 1-.229-2.242 5.631 5.631 0 0 1 .229-2.235z" class="cls-2" transform="translate(-83.622 -173.876)"/>
            <path id="Tracé_990" d="M129.239 409.352c0 .127-4.1.222-9.144.222s-9.144-.1-9.144-.222 4.1-.222 9.144-.222 9.144.095 9.144.222z" class="cls-2" transform="translate(-70.556 -175.146)"/>
            <path id="Rectangle_1544" d="M0 0H9.551V35.752H0z" class="cls-1" transform="rotate(-90 146.86 115.871)"/>
            <path id="Tracé_991" d="M132.4 446.688a1.139 1.139 0 0 1-.191.108c-.133.064-.33.159-.6.273a10.272 10.272 0 0 1-2.426.692 6.3 6.3 0 0 1-3.931-.559 5.169 5.169 0 0 1-1.867-1.689 3.944 3.944 0 0 1-.635-2.75 2.9 2.9 0 0 1 .635-1.422 1.854 1.854 0 0 1 1.505-.686 2.159 2.159 0 0 1 1.518.813 2.978 2.978 0 0 1 .692 1.632 4.344 4.344 0 0 1-1.232 3.385 5.461 5.461 0 0 1-3.436 1.683 9.235 9.235 0 0 1-3.988-.5 7.379 7.379 0 0 1-3.486-2.343 3.81 3.81 0 0 1-.813-2.064 2.686 2.686 0 0 1 .762-2.146 1.765 1.765 0 0 1 1.118-.489 2.038 2.038 0 0 1 1.168.33 3.067 3.067 0 0 1 1.315 1.905 4.5 4.5 0 0 1-1.41 4.21 7.024 7.024 0 0 1-4.026 1.638 9.912 9.912 0 0 1-4.172-.413 5.767 5.767 0 0 1-3.175-2.47 4.217 4.217 0 0 1-.394-3.81 1.975 1.975 0 0 1 1.454-1.232 2.311 2.311 0 0 1 1.8.432 2.985 2.985 0 0 1 .851 3.22 5.576 5.576 0 0 1-1.8 2.54 8.065 8.065 0 0 1-4.9 1.905 7.83 7.83 0 0 1-5.906-2.381 6.123 6.123 0 0 1-.432-.5 1.268 1.268 0 0 1-.127-.184 9.145 9.145 0 0 0 2.661 2.026 7.779 7.779 0 0 0 3.81.787 7.9 7.9 0 0 0 4.712-1.905 5.29 5.29 0 0 0 1.676-2.4 2.629 2.629 0 0 0-.743-2.82 1.95 1.95 0 0 0-1.505-.356 1.581 1.581 0 0 0-1.168 1.016 3.81 3.81 0 0 0 .387 3.423 5.353 5.353 0 0 0 2.959 2.273 9.525 9.525 0 0 0 3.988.381 6.649 6.649 0 0 0 3.772-1.53 4.071 4.071 0 0 0 1.27-3.81 2.648 2.648 0 0 0-1.111-1.645 1.365 1.365 0 0 0-1.746.1 2.235 2.235 0 0 0-.635 1.791 3.391 3.391 0 0 0 .718 1.829 6.986 6.986 0 0 0 3.27 2.2 8.891 8.891 0 0 0 3.81.489 5.081 5.081 0 0 0 3.175-1.537 3.963 3.963 0 0 0 1.149-3.08 2.273 2.273 0 0 0-1.854-2.14 1.543 1.543 0 0 0-1.238.559 2.59 2.59 0 0 0-.591 1.27 3.613 3.613 0 0 0 .578 2.54 4.96 4.96 0 0 0 1.746 1.632 6.185 6.185 0 0 0 3.81.6 11.432 11.432 0 0 0 2.413-.6c.533-.12.806-.24.816-.221z" class="cls-2" transform="translate(-65.198 -186.642)"/>
            <path id="Rectangle_1545" d="M0 0H16.574V32.558H0z" class="cls-3" transform="rotate(-90 143.673 109.489)"/>
            <path id="Tracé_992" d="M109.559 414.13a144.823 144.823 0 0 1 0 16.041 72.1 72.1 0 0 1-.229-8.02 70.29 70.29 0 0 1 .229-8.021z" class="cls-1" transform="translate(-69.965 -176.971)"/>
            <path id="Tracé_993" d="M113.449 413.8a141.18 141.18 0 0 1 0 15.838 70.3 70.3 0 0 1-.229-7.919 68.542 68.542 0 0 1 .229-7.919z" class="cls-1" transform="translate(-71.384 -176.85)"/>
            <path id="Tracé_994" d="M146.519 413a156.627 156.627 0 0 1 0 16.682 77.963 77.963 0 0 1-.229-8.338 76.182 76.182 0 0 1 .229-8.344z" class="cls-1" transform="translate(-83.454 -176.558)"/>
            <path id="Tracé_995" d="M141.949 413.32a148.512 148.512 0 0 1 0 16.244 73.908 73.908 0 0 1-.229-8.122 72.069 72.069 0 0 1 .229-8.122z" class="cls-1" transform="translate(-81.786 -176.675)"/>
            <path id="Tracé_996" d="M415.748 355.3a17.886 17.886 0 0 1 11.1-1.353 9.215 9.215 0 0 1 5.48 2.451c1.372 1.518 1.626 4.172.057 5.468a5.225 5.225 0 0 1-3.461.876c-2.934-.032-6.185-.546-8.528 1.219-1.34 1-2.229 2.68-3.81 3.175a3.747 3.747 0 0 1-4.153-1.848 6.452 6.452 0 0 1-.47-4.769 7.271 7.271 0 0 1 3.785-5.219z" class="cls-3" transform="translate(-180.324 -154.893)"/>
            <path id="Tracé_997" d="M404.77 315.17c2.064 2.947 6.077 1.969 7.938.171s2.648-4.407 3.359-6.9c1.638-5.677 3.283-11.64 2.07-17.425a9.62 9.62 0 0 0-2.229-4.737 5.08 5.08 0 0 0-4.794-1.6c-2.019.54-3.277 2.54-4.185 4.4a41.606 41.606 0 0 0-4.109 17.832c0 2.87.33 5.88 1.95 8.255" class="cls-3" transform="translate(-177.08 -129.69)"/>
            <path id="Tracé_998" d="M383.338 324.845a10.724 10.724 0 0 0 1.67-9.868 19.041 19.041 0 0 0-5.849-8.484 31.48 31.48 0 0 0-10.472-6.179 11.221 11.221 0 0 0-4.706-.8 4.934 4.934 0 0 0-3.95 2.394c-1.1 2.1-.044 4.648 1.1 6.731A80.283 80.283 0 0 0 368 319.1c2.064 2.661 4.445 5.283 7.563 6.484s6.407 1.054 8.071-1.124" class="cls-3" transform="translate(-161.293 -135.135)"/>
            <path id="Tracé_999" d="M405.65 387.183a6.628 6.628 0 0 0 .19-1.34c.1-.972.21-2.2.356-3.651a53.45 53.45 0 0 1 .819-5.366 41.183 41.183 0 0 1 1.949-6.35 23.5 23.5 0 0 1 3.232-5.715 12.066 12.066 0 0 1 4.083-3.4 11.729 11.729 0 0 1 3.442-1.073 6.073 6.073 0 0 0 1.334-.191 6.218 6.218 0 0 0-1.359 0 10.434 10.434 0 0 0-3.588.934 12.066 12.066 0 0 0-4.305 3.423 22.8 22.8 0 0 0-3.353 5.842 38.648 38.648 0 0 0-1.905 6.433 46.392 46.392 0 0 0-.718 5.43c-.114 1.549-.159 2.807-.178 3.677a6.4 6.4 0 0 0 .001 1.347z" class="cls-1" transform="translate(-178.1 -157.237)"/>
            <path id="Tracé_1000" d="M405.906 363.595a2.652 2.652 0 0 0 .038-.635v-1.778c0-1.537 0-3.772.076-6.528.14-5.512.635-11.431 1.53-19.813.87-7.862 2.032-17.019 3.264-22.969.26-1.353.527-2.572.781-3.639s.438-1.988.635-2.731.3-1.27.413-1.727a3.57 3.57 0 0 0 .114-.635 2.4 2.4 0 0 0-.216.584c-.14.445-.311 1.01-.521 1.7s-.464 1.651-.73 2.718-.572 2.28-.857 3.632A201.31 201.31 0 0 0 407 333.088c-.914 8.382-1.327 16.016-1.365 21.54-.032 2.762 0 5 .1 6.541.044.724.083 1.315.108 1.778a2.625 2.625 0 0 0 .063.648z" class="cls-1" transform="translate(-178.102 -136.462)"/>
            <path id="Tracé_1001" d="M394.818 351.481a11.832 11.832 0 0 0 0-1.854c-.07-1.194-.235-2.921-.572-5.03a66.184 66.184 0 0 0-1.632-7.328 60.537 60.537 0 0 0-3.067-8.674 46.155 46.155 0 0 0-9-14.015 24.08 24.08 0 0 0-2.121-1.969c-.324-.273-.635-.546-.9-.762l-.819-.565a11.247 11.247 0 0 0-1.568-1 54.679 54.679 0 0 1 5.125 4.572 48.643 48.643 0 0 1 8.776 13.971 68.05 68.05 0 0 1 3.067 8.586c.807 2.693 1.34 5.169 1.746 7.252s.6 3.81.737 4.985a11.486 11.486 0 0 0 .228 1.831z" class="cls-1" transform="translate(-166.976 -139.068)"/>
            <path id="Tracé_1002" d="M382.17 412.53l1.48 20.207h25.95l1.48-20.207z" class="cls-3" transform="translate(-169.543 -176.387)"/>
            <path id="Rectangle_1546" d="M0 0H34.514V7.963H0z" class="cls-3" transform="translate(210.119 228.18)"/>
            <path id="Tracé_1003" d="M378.22 443.13v2.21h33.949v-2.21z" class="cls-1" transform="translate(-168.101 -187.555)"/>
            <path id="Tracé_1004" d="M382.368 450.11l-1.588-3.88h31.085l-1.854 3.88z" class="cls-1" transform="translate(-169.036 -188.686)"/>
            <path id="Tracé_1005" d="M410.863 421.32a.832.832 0 0 1-.121.184c-.108.14-.235.3-.387.514l-1.518 1.937-.064.089-.063-.1c-.953-1.315-2.223-3.067-3.715-5.137h.191l-3.658 5.182-.114.159-.127-.152-4.318-5.176h.248l-.235.3-3.862 4.88-.133.165-.114-.171c-1.321-1.861-2.54-3.607-3.664-5.175h.216l-4.509 5.137-.076.089-.064-.1-1.41-2.369c-.152-.26-.267-.47-.362-.635a1.039 1.039 0 0 1-.114-.222 1.026 1.026 0 0 1 .152.2l.4.635 1.48 2.331h-.14l4.445-5.2.108-.127.1.14 3.7 5.156h-.254l3.874-4.871.235-.3.127-.152.127.152 4.325 5.169h-.241l3.7-5.156.108-.152.1.152 3.639 5.195h-.133c.667-.8 1.188-1.429 1.575-1.905l.419-.489c.07-.132.121-.183.127-.177z" class="cls-4" transform="translate(-169.806 -178.573)"/>
            <path id="Tracé_1006" d="M411.569 412.229c0 .089-6.509.159-14.53.159s-14.529-.07-14.529-.159 6.5-.159 14.529-.159 14.53.07 14.53.159z" class="cls-4" transform="translate(-169.667 -176.219)"/>
            <path id="Tracé_1007" d="M163.812 73.7a.4.4 0 0 1-.152-.044l-.419-.165-1.6-.667-5.874-2.54-19.3-8.408-.673-.3h.14L117.01 69.7l-5.715 2.4-1.562.635a3.334 3.334 0 0 1-.552.2 3.735 3.735 0 0 1 .527-.26l1.537-.7 5.715-2.508 18.873-8.186h.14l.673.292 19.267 8.509 5.823 2.61 1.575.73.406.2a.541.541 0 0 1 .095.078z" class="cls-1" transform="translate(-69.91 -48.191)"/>
            <path id="Rectangle_1547" d="M0 0H124.015V92.86H0z" class="cls-1" transform="translate(0 22.742)"/>
            <path id="Rectangle_1548" d="M0 0H115.81V84.726H0z" class="cls-2" transform="translate(4.337 27.06)"/>
            <path id="Tracé_1008" d="M94.45 141.57s.121 14.218.845 18.562l17.838-.845s-1.562-13.971-.959-17.717z" class="cls-1" transform="translate(-64.534 -77.494)"/>
            <path id="Tracé_1009" d="M106.012 144.712h.26a4.221 4.221 0 0 1 .743.038 4.166 4.166 0 0 1 1.13.337 3.753 3.753 0 0 1 1.232.978 4.2 4.2 0 0 1 .857 1.715 4.14 4.14 0 0 1-.184 2.2 6.592 6.592 0 0 1-.5 1.1 10.16 10.16 0 0 0-.572 1.111 9.729 9.729 0 0 0-.724 2.54v.057h-3.734v-.064a5.277 5.277 0 0 0-.857-2.439c-.216-.368-.451-.7-.635-1.054a10.8 10.8 0 0 1-.635-1.022 3.461 3.461 0 0 1-.279-2.172 4.591 4.591 0 0 1 .692-1.778 3.486 3.486 0 0 1 1.156-1.048 4.782 4.782 0 0 1 1.829-.54 4.894 4.894 0 0 0-.718.14 4.4 4.4 0 0 0-1.073.438 3.353 3.353 0 0 0-1.124 1.035 4.61 4.61 0 0 0-.635 1.746 3.328 3.328 0 0 0 .279 2.1 11.75 11.75 0 0 0 .635 1.01c.222.337.457.686.673 1.054a5.309 5.309 0 0 1 .883 2.5l-.07-.07h3.613l-.07.064a9.811 9.811 0 0 1 .737-2.572A11.7 11.7 0 0 1 109.5 151a6.6 6.6 0 0 0 .5-1.08 4.051 4.051 0 0 0 .2-2.14 4.255 4.255 0 0 0-.819-1.683 3.715 3.715 0 0 0-1.2-.972 4.006 4.006 0 0 0-1.111-.349 5.615 5.615 0 0 0-.73-.064h-.2c-.103.006-.128.006-.128 0z" class="cls-5" transform="translate(-67.307 -78.629)"/>
            <path id="Tracé_1010" d="M107.993 156.584a.418.418 0 0 1 0-.057v-.165c0-.146-.057-.362-.1-.635-.083-.559-.2-1.359-.279-2.356 0-.248-.038-.508-.044-.781a7.67 7.67 0 0 1 0-.857 2.344 2.344 0 0 1 .2-.889 1.353 1.353 0 0 1 .686-.679.9.9 0 0 1 .972.184.635.635 0 0 1 .2.489.864.864 0 0 1-.178.508 1.206 1.206 0 0 1-.432.349 2.222 2.222 0 0 1-.527.171 6.763 6.763 0 0 1-2.261.076 2.013 2.013 0 0 1-.54-.152 1.39 1.39 0 0 1-.445-.318 1.029 1.029 0 0 1-.26-.483.794.794 0 0 1 .063-.527.7.7 0 0 1 .375-.362.635.635 0 0 1 .5 0 .933.933 0 0 1 .381.318 1.365 1.365 0 0 1 .191.445 5.785 5.785 0 0 1 .089.914l.089 1.632c.044 1 .089 1.8.114 2.369v.857a.393.393 0 0 0 0-.057v-.165a4.864 4.864 0 0 0-.038-.635c0-.565-.083-1.372-.14-2.369 0-.5-.057-1.041-.089-1.632a4.948 4.948 0 0 0-.1-.9 1.193 1.193 0 0 0-.178-.425.991.991 0 0 0-.362-.3.591.591 0 0 0-.464 0 .667.667 0 0 0-.349.337.775.775 0 0 0-.057.5 1.023 1.023 0 0 0 .248.451 1.626 1.626 0 0 0 .953.457 6.6 6.6 0 0 0 1.124.051 6.482 6.482 0 0 0 1.118-.127 2.045 2.045 0 0 0 .514-.171 1.175 1.175 0 0 0 .413-.33.838.838 0 0 0 .171-.476.635.635 0 0 0-.191-.451.864.864 0 0 0-.914-.178 1.27 1.27 0 0 0-.635.635 2.375 2.375 0 0 0-.2.876v.845a4.569 4.569 0 0 0 .044.787c.076 1 .191 1.8.26 2.35.038.279.07.489.089.635v.165a.393.393 0 0 1-.025.089z" class="cls-5" transform="translate(-68.373 -80.589)"/>
            <path id="Tracé_1011" d="M106 160.41a4.86 4.86 0 0 1 .051.591q0 .635.076 1.543v-.038l1.207 1.4h-.063l1.391-.076h-.062l.686-.838.349-.425v.057c0-.819-.038-1.588-.051-2.286l.076.07H106a.876.876 0 0 1 .248 0l.73-.038 2.642-.1h.076v.076c0 .7.044 1.473.07 2.286v.006c-.114.14-.229.286-.349.425l-.692.845h-.038l-1.391.07h-.025l-1.181-1.4v-1.588a4.948 4.948 0 0 1-.09-.58z" class="cls-5" transform="translate(-68.749 -84.319)"/>
            <path id="Tracé_1012" d="M109.662 163.393a.266.266 0 0 1-.133-.057 3.719 3.719 0 0 0-.362-.14 3.455 3.455 0 0 0-1.27-.19 3.524 3.524 0 0 0-1.27.267l-.349.165-.127.064a.387.387 0 0 1 .114-.083 3.247 3.247 0 0 1 .349-.184 3.334 3.334 0 0 1 1.27-.286 3.233 3.233 0 0 1 1.27.21 2.541 2.541 0 0 1 .356.159z" class="cls-5" transform="translate(-68.804 -85.296)"/>
            <path id="Tracé_1013" d="M109.655 162.52l-.127-.057-.362-.146a3.626 3.626 0 0 0-1.27-.191 3.811 3.811 0 0 0-1.27.267 3.855 3.855 0 0 0-.349.165l-.127.063.114-.083a2.477 2.477 0 0 1 .349-.178 3.327 3.327 0 0 1 1.27-.292 3.48 3.48 0 0 1 1.27.21c.152.064.273.121.356.165a.993.993 0 0 1 .146.077z" class="cls-5" transform="translate(-68.804 -84.976)"/>
            <path id="Tracé_1014" d="M109.605 161.684l-.127-.051c-.089-.038-.21-.1-.362-.146a3.638 3.638 0 0 0-1.27-.191 3.486 3.486 0 0 0-1.27.267c-.152.064-.267.121-.349.165l-.127.063.114-.083a2.726 2.726 0 0 1 .349-.184 3.467 3.467 0 0 1 1.27-.286 3.505 3.505 0 0 1 1.27.21 2.823 2.823 0 0 1 .356.165.413.413 0 0 1 .146.071z" class="cls-5" transform="translate(-68.786 -84.673)"/>
            <path id="Tracé_1015" d="M63.17 105s.121 14.225.845 18.562l17.838-.845s-1.569-13.97-.966-17.717z" class="cls-3" transform="translate(-53.117 -64.147)"/>
            <path id="Tracé_1016" d="M79.957 114.349a51.8 51.8 0 0 1-5.976.533 49.03 49.03 0 0 1-6 .184 53.561 53.561 0 0 1 5.976-.533 52.29 52.29 0 0 1 6-.184z" class="cls-5" transform="translate(-54.873 -67.553)"/>
            <path id="Tracé_1017" d="M79.96 119.09a50.527 50.527 0 0 1-5.976.54 52.175 52.175 0 0 1-5.995.184 51.616 51.616 0 0 1 5.976-.533 51.438 51.438 0 0 1 5.995-.191z" class="cls-5" transform="translate(-54.877 -69.283)"/>
            <path id="Tracé_1018" d="M78.15 123.71a16.994 16.994 0 0 1-3.4.381 16.872 16.872 0 0 1-3.416 0 16.968 16.968 0 0 1 3.4-.381 16.923 16.923 0 0 1 3.416 0z" class="cls-5" transform="translate(-56.096 -70.944)"/>
            <path id="Tracé_1019" d="M61.84 170.85s.121 14.218.845 18.562l17.838-.845s-1.569-13.971-.965-17.717z" class="cls-3" transform="translate(-52.632 -88.181)"/>
            <path id="Tracé_1020" d="M78.63 180.24a50.91 50.91 0 0 1-5.976.54 52.209 52.209 0 0 1-5.995.184 51.4 51.4 0 0 1 5.969-.533 51.525 51.525 0 0 1 6-.191z" class="cls-5" transform="translate(-54.391 -91.601)"/>
            <path id="Tracé_1021" d="M78.63 184.989a51.432 51.432 0 0 1-5.976.533 52.164 52.164 0 0 1-5.995.184 51.618 51.618 0 0 1 5.976-.533 52.188 52.188 0 0 1 5.995-.184z" class="cls-5" transform="translate(-54.391 -93.334)"/>
            <path id="Tracé_1022" d="M76.82 189.616a16.713 16.713 0 0 1-3.4.375 16.922 16.922 0 0 1-3.423.032 16.967 16.967 0 0 1 3.4-.381 16.623 16.623 0 0 1 3.423-.025z" class="cls-5" transform="translate(-55.61 -95.002)"/>
            <path id="Tracé_1023" d="M138.61 110.89l1.765 41.023 51.209.616-2.3-41.1z" class="cls-3" transform="translate(-80.651 -66.297)"/>
            <path id="Rectangle_1549" d="M0 0H50.872V38.413H0z" class="cls-4" transform="translate(57.362 44.301)"/>
            <path id="Tracé_1024" d="M188.436 148.752v-2.762c0-1.8 0-4.445-.038-7.773 0-6.7-.044-16.282-.076-27.878l.146.14H137.6l.178-.171v38.412l-.159-.159 36.692.076 10.44.044h2.807l-2.794.121-10.4.044-36.832.076h-.159V110.18h51.2v.146c0 11.627-.057 21.248-.076 27.941 0 3.334 0 5.944-.038 7.741v2.019c-.01.496-.023.725-.023.725z" class="cls-1" transform="translate(-80.202 -66.038)"/>
            <path id="Rectangle_1550" d="M0 0H20.619V25.954H0z" class="cls-4" transform="translate(63.503 52.436)"/>
            <path id="Tracé_1025" d="M167.893 149.1a.426.426 0 0 1 0-.133v-1.784c0-1.27 0-3.055-.038-5.328 0-4.566-.051-11.03-.083-18.708l.159.159h-20.62c-.044 0 .33-.33.171-.171v25.941l-.14-.146 14.93.076 4.185.038h1.5a2.483 2.483 0 0 1-.362 0h-1.08l-4.159.038-15.018.076h-.138v-26c-.159.152.21-.222.178-.178h20.778v.159c-.032 7.716-.063 14.218-.083 18.81l-.038 5.29v1.74a.779.779 0 0 1-.14.121z" class="cls-1" transform="translate(-83.77 -70.707)"/>
            <path id="Rectangle_1551" d="M0 0H39.518V3.74H0z" class="cls-4" transform="translate(64.29 46.498)"/>
            <path id="Tracé_1026" d="M188.018 117.466v-.984c0-.635 0-1.569-.044-2.756l.07.07c-6.661.064-21.851.108-39.518.108.349-.356.1-.1.178-.178v3.728l-.171-.178 28.011.076 8.408.051h2.889a1.411 1.411 0 0 1 .21 0h-3.01l-8.37.057-28.138.07h-.171v-3.912l.178-.178c17.667 0 32.856.044 39.518.108h.076v.07c0 1.2 0 2.14-.038 2.8v.7a1.01 1.01 0 0 1-.078.348z" class="cls-1" transform="translate(-84.209 -67.228)"/>
            <path id="Rectangle_1552" d="M0 0H17.165V15.641H0z" class="cls-4" transform="translate(86.643 52.436)"/>
            <path id="Tracé_1027" d="M200.871 138.73v-1.15c0-.762 0-1.835-.038-3.175 0-2.756-.044-6.636-.076-11.3l.146.152h-17.146l.171-.171v15.634l-.159-.152 12.383.076 3.512.044h.94a1.959 1.959 0 0 1 .33 0 1.623 1.623 0 0 1-.3 0h-.908l-3.474.038-12.485.076h-.152v-15.796c-.159.152.21-.216.178-.178h17.3v.146l-.076 11.431c0 1.334-.032 2.394-.038 3.175v.819a1.27 1.27 0 0 1-.108.331z" class="cls-1" transform="translate(-97.063 -70.653)"/>
            <path id="Rectangle_1553" d="M0 0H17.165V7.862H0z" class="cls-4" transform="translate(86.643 70.528)"/>
            <path id="Tracé_1028" d="M200.874 159.425v-.572l-.032-1.575c0-1.391-.038-3.328-.07-5.715l.127.127-17.146.051c-.159.159.21-.216.171-.171v7.855l-.171-.165 12.275.076 3.582.051h1.308a1.662 1.662 0 0 1-.3 0h-.934l-3.537.051-12.389.076h-.165v-8.02c-.038 0 .33-.337.178-.178l17.146.044H201v.127c0 2.419-.051 4.388-.064 5.791v1.549a3.109 3.109 0 0 1-.057.6z" class="cls-1" transform="translate(-97.066 -81.036)"/>
            <path id="Tracé_1029" d="M167.441 123.31c-6.388 8.821-13.729 17.089-20.111 25.909" class="cls-5" transform="translate(-83.833 -70.83)"/>
            <path id="Tracé_1030" d="M147.34 149.219a1.981 1.981 0 0 1 .165-.292l.54-.787c.47-.686 1.175-1.657 2.064-2.845 1.772-2.388 4.305-5.614 7.15-9.138s5.4-6.725 7.22-9.068l2.153-2.775.591-.756c.14-.165.216-.254.229-.248a1.512 1.512 0 0 1-.171.292l-.54.787c-.47.686-1.175 1.657-2.064 2.851-1.772 2.381-4.306 5.607-7.15 9.132s-5.4 6.725-7.22 9.068l-2.153 2.781-.591.749a1.428 1.428 0 0 1-.223.249z" class="cls-1" transform="translate(-83.837 -70.83)"/>
            <path id="Ligne_4" d="M0 0L20.619 25.954" class="cls-5" transform="translate(63.503 52.436)"/>
            <path id="Tracé_1031" d="M167.966 149.193c-.076.057-4.756-5.715-10.446-12.866s-10.25-13.027-10.161-13.087 4.75 5.715 10.446 12.872 10.237 13.012 10.161 13.081z" class="cls-1" transform="translate(-83.844 -70.804)"/>
            <path id="Tracé_1032" d="M137.682 121.476a3.226 3.226 0 1 1-3.226-3.226 3.226 3.226 0 0 1 3.226 3.226z" class="cls-1" transform="translate(-77.957 -68.983)"/>
            <path id="Tracé_1033" d="M220.772 109.146a3.226 3.226 0 1 1-3.226-3.226 3.226 3.226 0 0 1 3.226 3.226z" class="cls-1" transform="translate(-108.283 -64.483)"/>
            <path id="Rectangle_1554" d="M0 0H37.175V53.889H0z" class="cls-1" transform="translate(201.508 67.13)"/>
            <path id="Rectangle_1555" d="M0 0H37.175V53.889H0z" class="cls-4" transform="translate(199.647 67.13)"/>
            <path id="Rectangle_1556" d="M0 0H27.941V42.217H0z" class="cls-5" transform="translate(204.264 72.966)"/>
            <path id="Tracé_1034" d="M396.9 197.681v-11.818c0-7.443 0-17.984-.044-30.4l.1.1h-28l.1-.1v42.217l-.083-.083 20.321.044h.051l-20.384.038h-.083V155.28h28.106v.089c0 12.44-.032 23-.044 30.481v11.558z" class="cls-1" transform="translate(-164.693 -82.498)"/>
            <path id="Tracé_1035" d="M417.536 146.38a5.827 5.827 0 0 1-.635.965c-.432.578-1.048 1.359-1.746 2.21s-1.353 1.6-1.835 2.14a6.248 6.248 0 0 1-.819.832 7.283 7.283 0 0 1 .711-.927l1.788-2.172 1.784-2.172a7.881 7.881 0 0 1 .752-.876z" class="cls-1" transform="translate(-180.613 -79.25)"/>
            <path id="Tracé_1036" d="M413.22 221.83a34.394 34.394 0 0 0 4.871 6.1" class="cls-5" transform="translate(-180.875 -106.787)"/>
            <path id="Tracé_1037" d="M418.091 227.926a5.194 5.194 0 0 1-.845-.775 26.663 26.663 0 0 1-1.842-2.07 27.448 27.448 0 0 1-1.619-2.248 5.41 5.41 0 0 1-.565-1 8.254 8.254 0 0 1 .686.921c.406.578.984 1.359 1.657 2.2s1.315 1.575 1.784 2.1a7.327 7.327 0 0 1 .743.87z" class="cls-1" transform="translate(-180.875 -106.787)"/>
            <path id="Tracé_1038" d="M361.72 227.717l4.871-6.007" class="cls-5" transform="translate(-162.079 -106.743)"/>
            <path id="Tracé_1039" d="M366.576 221.71c.038 0-1.016 1.41-2.356 3.067a36.708 36.708 0 0 1-2.54 2.94 73.585 73.585 0 0 1 4.871-6.007z" class="cls-1" transform="translate(-162.065 -106.743)"/>
            <path id="Tracé_1040" d="M361.73 146.38a36.629 36.629 0 0 1 2.362 2.826 33.313 33.313 0 0 1 2.2 2.953 35.005 35.005 0 0 1-2.362-2.845 31.853 31.853 0 0 1-2.2-2.934z" class="cls-1" transform="translate(-162.083 -79.25)"/>
            <path id="Rectangle_1557" d="M0 0H9.354V26.563H0z" class="cls-1" transform="translate(214.145 81.539)"/>
            <path id="Rectangle_1558" d="M0 0H5.322V26.481H0z" class="cls-1" transform="translate(224.794 9.9)"/>
            <path id="Rectangle_1559" d="M0 0H13.78V14.618H0z" class="cls-3" transform="translate(178.692 10.016)"/>
            <path id="Rectangle_1560" d="M0 0H13.78V14.618H0z" class="cls-4" transform="translate(192.402 9.948)"/>
            <path id="Tracé_1041" d="M328.687 62.569c9.157.076 18.34 0 27.5-.127a.146.146 0 1 0 0-.292q-13.748-.076-27.5.165a.127.127 0 1 0 0 .254z" class="cls-1" transform="translate(-149.977 -48.501)"/>
            <path id="Rectangle_1561" d="M0 0H25.039V11.913H0z" class="cls-3" transform="translate(170.096 24.459)"/>
            <path id="Rectangle_1562" d="M0 0H25.039V11.913H0z" class="cls-4" transform="translate(195.02 24.324)"/>
            <path id="Tracé_1042" d="M315.147 84.073c16.638.191 33.326 0 49.958-.248a.146.146 0 0 0 0-.292c-16.638-.089-33.326-.076-49.958.286a.127.127 0 1 0 0 .254z" class="cls-1" transform="translate(-145.035 -56.296)"/>
            <path id="Rectangle_1563" d="M0 0H97.007V4.267H0z" class="cls-1" transform="translate(160.751 36.376)"/>
            <path id="Rectangle_1564" d="M0 0H3.937V14.561H0z" class="cls-1" transform="translate(176.633 38.427)"/>
            <path id="Rectangle_1565" d="M0 0H3.937V14.561H0z" class="cls-1" transform="translate(235.418 38.427)"/>
            <path id="Rectangle_1566" d="M0 0H5.322V36.419H0z" class="cls-3" transform="translate(229.986 .029)"/>
            <path id="Rectangle_1567" d="M0 0H8.268V29.516H0z" class="cls-4" transform="translate(235.357 6.826)"/>
            <path id="Tracé_1043" d="M426.145 60.23a58.584 58.584 0 0 1-8.255 0 61.237 61.237 0 0 1 8.255 0z" class="cls-1" transform="translate(-182.58 -47.757)"/>
            <path id="Tracé_1044" d="M426.145 58.28a58.58 58.58 0 0 1-8.255 0 61.235 61.235 0 0 1 8.255 0z" class="cls-1" transform="translate(-182.58 -47.045)"/>
            <path id="Tracé_1045" d="M426.145 90.76a58.581 58.581 0 0 1-8.255 0 61.234 61.234 0 0 1 8.255 0z" class="cls-1" transform="translate(-182.58 -58.899)"/>
            <path id="Tracé_1046" d="M426.145 88.81a58.577 58.577 0 0 1-8.255 0 61.239 61.239 0 0 1 8.255 0z" class="cls-1" transform="translate(-182.58 -58.188)"/>
            <path id="Tracé_1047" d="M424.506 76.988c-.083 0-.146-2.978-.146-6.649s.064-6.649.146-6.649.14 2.978.14 6.649-.064 6.649-.14 6.649z" class="cls-1" transform="translate(-184.941 -49.07)"/>
            <path id="Rectangle_1568" d="M0 0H8.998V22.277H0z" class="cls-3" transform="translate(243.654 14.035)"/>
            <path id="Tracé_1048" d="M437.361 86.742a1.905 1.905 0 0 1-2.013-2.007 1.74 1.74 0 0 1 .73-1.505l.2.286a1.442 1.442 0 0 0-.591 1.219 1.67 1.67 0 1 0 3.34 0 1.429 1.429 0 0 0-.6-1.219l.21-.286a1.765 1.765 0 0 1 .724 1.505 1.905 1.905 0 0 1-2.007 2.007z" class="cls-2" transform="translate(-188.951 -56.202)"/>
            <path id="Tracé_1049" d="M438.862 80.55l-.3-.171a2.337 2.337 0 0 0 .476-1.429c0-.832-.3-1.168-.743-1.168-1.156 0-.3 2.629-1.861 2.629-.6 0-1.086-.5-1.086-1.505a2.439 2.439 0 0 1 .387-1.359l.3.178a2.032 2.032 0 0 0-.356 1.188c0 .775.318 1.118.743 1.118 1.188 0 .349-2.629 1.861-2.629.635 0 1.08.559 1.08 1.569a2.458 2.458 0 0 1-.501 1.579z" class="cls-2" transform="translate(-188.952 -54.074)"/>
            <path id="Tracé_1050" d="M438.862 74.84l-.3-.171a2.337 2.337 0 0 0 .476-1.429c0-.832-.3-1.168-.743-1.168-1.156 0-.3 2.623-1.861 2.623-.6 0-1.086-.5-1.086-1.5a2.439 2.439 0 0 1 .387-1.359l.3.171a2.064 2.064 0 0 0-.356 1.194c0 .775.318 1.118.743 1.118 1.188 0 .349-2.629 1.861-2.629.635 0 1.08.552 1.08 1.562a2.464 2.464 0 0 1-.501 1.588z" class="cls-2" transform="translate(-188.952 -51.99)"/>
            <circle id="Ellipse_178" cx="1.53" cy="1.53" r="1.53" class="cls-1" transform="translate(231.036 4.7)"/>
            <path id="Rectangle_1569" d="M0 0H0.946V21.667H0z" class="cls-1" transform="translate(232.091 10.435)"/>
        </g>
        <g id="freepik--Hourglass--inject-63" transform="translate(453.904 300.236)">
            <path id="Tracé_1051" d="M149.407 110.236c-10.192 16.028-9.525 38.254 1.613 53.641 7.423 10.262 18.556 17.146 27.4 26.2s15.558 22.423 10.891 34.2c-4.75 11.983-18.664 16.854-29.078 24.449a54.955 54.955 0 0 0-13.264 75.074H255.19s19.013-36.228-5.43-63.846-37.568-28.062-36.667-46.173 13.577-23.985 20.823-30.78 42.547-22.626 21.724-72.768z" class="cls-2" transform="translate(-137.504 -102.292)"/>
            <path id="Tracé_1052" d="M149.339 110.207h28.468l77.766-.057h.083v.076a99.7 99.7 0 0 1 4.064 11.653 67.774 67.774 0 0 1 2.3 12.7 50.314 50.314 0 0 1-.686 13.444 43.226 43.226 0 0 1-4.89 13.069 46.84 46.84 0 0 1-4.078 5.908 54.025 54.025 0 0 1-4.985 5.334 72.229 72.229 0 0 1-5.658 4.794c-1.969 1.524-4.026 2.959-6.033 4.483-1 .756-1.905 1.607-2.883 2.458s-1.95 1.645-2.953 2.445c-2 1.6-4.02 3.175-5.925 4.947a31.688 31.688 0 0 0-8.89 12.751 31.115 31.115 0 0 0-1.677 7.824c-.057.635-.146 1.334-.171 2.007a17.852 17.852 0 0 0 0 2.019 22.538 22.538 0 0 0 .406 4.026 18.371 18.371 0 0 0 3.213 7.443 40.856 40.856 0 0 0 5.607 6.077c4.109 3.753 8.471 7.341 12.643 11.215s8.255 7.912 12.193 12.186a72.244 72.244 0 0 1 5.626 6.693 46.62 46.62 0 0 1 4.54 7.563 49.749 49.749 0 0 1 4.661 17.146 62.927 62.927 0 0 1-1.054 18.035 74.1 74.1 0 0 1-2.326 8.854 65.1 65.1 0 0 1-3.429 8.541l-.044.089H146.812l-.044-.07a55.787 55.787 0 0 1-9.062-25.547 53.863 53.863 0 0 1 3.747-25.782 56.136 56.136 0 0 1 14.3-20.435 65.129 65.129 0 0 1 9.767-7.125c3.378-2.1 6.788-4.039 10.008-6.16a46 46 0 0 0 8.814-7.163 24.17 24.17 0 0 0 5.449-9.449 23.559 23.559 0 0 0 .432-10.548 34.527 34.527 0 0 0-3.347-9.7 47.324 47.324 0 0 0-5.449-8.255 65.217 65.217 0 0 0-6.592-6.877c-4.579-4.217-9.271-7.906-13.488-11.7-2.115-1.905-4.115-3.81-5.963-5.76a54.452 54.452 0 0 1-4.941-6.09 46.661 46.661 0 0 1-6.192-12.834 48.14 48.14 0 0 1-2.108-12.161c-.089-.94-.051-1.867-.051-2.775s0-1.791.083-2.648.127-1.7.191-2.54.235-1.6.343-2.369a45.2 45.2 0 0 1 4.242-13.45 17.008 17.008 0 0 1 .978-1.905l.781-1.327c.413-.7.635-1.06.635-1.06l-.635 1.08-.756 1.308a19.15 19.15 0 0 0-.965 1.905 45.423 45.423 0 0 0-4.191 13.469c-.108.762-.235 1.549-.33 2.356s-.127 1.651-.191 2.508-.064 1.74-.07 2.642a27.088 27.088 0 0 0 .057 2.769 47.749 47.749 0 0 0 2.127 12.116 46.357 46.357 0 0 0 6.185 12.783 53.4 53.4 0 0 0 4.934 6.058c1.842 1.956 3.842 3.861 5.957 5.715 4.217 3.81 8.89 7.462 13.5 11.685a65.636 65.636 0 0 1 6.642 6.928 47.785 47.785 0 0 1 5.48 8.313 34.659 34.659 0 0 1 3.378 9.76 23.794 23.794 0 0 1-.432 10.662 24.321 24.321 0 0 1-5.5 9.557 46.6 46.6 0 0 1-8.852 7.214c-3.232 2.127-6.642 4.071-10.014 6.166a65.27 65.27 0 0 0-9.729 7.1 55.921 55.921 0 0 0-14.218 20.321 53.552 53.552 0 0 0-3.715 25.649 55.54 55.54 0 0 0 9.017 25.4l-.127-.07h108.225l-.146.089a64.142 64.142 0 0 0 3.416-8.522 73.759 73.759 0 0 0 2.312-8.814 62.539 62.539 0 0 0 1.048-17.946 49.227 49.227 0 0 0-4.629-17.051 46.685 46.685 0 0 0-4.5-7.512 74.067 74.067 0 0 0-5.6-6.668q-5.874-6.395-12.174-12.167c-4.166-3.867-8.516-7.449-12.637-11.221a41.6 41.6 0 0 1-5.658-6.122 18.739 18.739 0 0 1-3.3-7.538 23.923 23.923 0 0 1-.413-4.083c-.032-.68 0-1.359 0-2.038s.114-1.353.165-2.026a31.551 31.551 0 0 1 1.715-7.868 31.911 31.911 0 0 1 8.973-12.859c1.905-1.765 3.944-3.366 5.944-4.96 1-.8 1.988-1.607 2.947-2.432s1.905-1.715 2.9-2.477c2.019-1.524 4.071-2.959 6.033-4.477a73.126 73.126 0 0 0 5.645-4.769 54.911 54.911 0 0 0 4.96-5.3 48.2 48.2 0 0 0 4.058-5.88 42.934 42.934 0 0 0 4.864-12.98 50 50 0 0 0 .692-13.336 67.876 67.876 0 0 0-2.28-12.7 100.786 100.786 0 0 0-4.013-11.691l.108.07-77.721-.057h-26.637z" class="cls-6" transform="translate(-137.437 -102.263)"/>
            <path id="Tracé_1053" d="M257.136 151.122c15.939 2.623-9.189 30.856-23.42 41.995-8.255 6.446-17.082 13.444-20.994 23.147-4.445 11.011-1.149 23.382-3.3 34.457a1.537 1.537 0 0 1-3.048-.324 122.507 122.507 0 0 0-1.27-21.693c-1.708-10.16-5.607-20.188-12.7-27.624-5.811-6.077-13.425-10.11-19.616-15.787-9.043-8.287-18.333-18.975-19.241-31.205 0 0 17.362-13.971 27-12.224 11.265 2.064 22.353 19.445 39.8 17.457 12.153-1.392 18.303-11.235 36.789-8.199z" class="cls-7" transform="translate(-143.317 -113.782)"/>
            <path id="Tracé_1054" d="M256.021 383.707c-.4-3.988-1.467-8.5-5-10.376a9.863 9.863 0 0 0-7.1-.4c-2.35.616-4.553 1.689-6.877 2.381a22.524 22.524 0 0 1-14.079-.451c-4.325-1.588-8.033-4.445-12.066-6.719s-8.713-3.937-13.183-2.826c-7.709 1.905-11.723 11.2-19.343 13.444-3.391.991-7.03.432-10.472-.343s-6.9-1.784-10.427-1.651a11.568 11.568 0 0 0-7.582 2.953l-.051.057a7.5 7.5 0 0 0-.876 1.029c-2.362 3.175-2.743 7.385-2.013 11.234.813 4.312 2.826 8.293 4.985 12.11 2.54 4.5 5.436 8.967 9.64 11.964 5.195 3.7 11.716 1.149 18.073 1.651 14.815 1.168 30.754 1.962 45.576.819 7.83-.635 15.164.241 21.375-4.566a25.28 25.28 0 0 0 8.586-13.818 47.48 47.48 0 0 0 .834-16.492z" class="cls-7" transform="translate(-140.786 -195.262)"/>
            <g id="Groupe_105" class="cls-8" transform="translate(84.934 180.812)">
                <path id="Tracé_1055" d="M273.518 382.46a4.1 4.1 0 0 0-.387 4.293c.807 1.3 1.905 2.483 2.248 3.975.552 2.337-.857 4.623-1.905 6.788a21.623 21.623 0 0 0-2.1 12.529 17.044 17.044 0 0 0 6.217 10.942c1.5 1.162 3.461 2.064 5.277 1.492a5.177 5.177 0 0 0 3.175-4.026 16.243 16.243 0 0 0-.165-5.341 82.962 82.962 0 0 1 .635-24.817c.241-1.365.47-2.927-.394-4.013a4.649 4.649 0 0 0-2.28-1.27c-3.3-1.1-6.865.121-10.287-.527" transform="translate(-271.184 -382.46)"/>
            </g>
            <path id="Tracé_1056" d="M139.829 449.835s-.3-4.966 6.179-7.735h113.829s5.938 3.01 6.668 7.62z" class="cls-6" transform="translate(-138.309 -223.415)"/>
            <path id="Tracé_1057" d="M261.94 106.277l-.184.083-107.034-.686s-.381-.241-.946-.692a4.058 4.058 0 0 1 2.54-7.252l103.891.838a4.058 4.058 0 0 1 1.733 7.709z" class="cls-6" transform="translate(-142.832 -97.73)"/>
            <g id="Groupe_106" class="cls-8" transform="translate(31.023 48.03)">
                <path id="Tracé_1058" d="M257.229 174.714c.216.413-.591 1.27-2.121 2.667s-3.81 3.232-6.642 5.537a87.191 87.191 0 0 1-10.8 7.62 43.317 43.317 0 0 1-7.392 3.4 35 35 0 0 1-4.248 1.175 28.981 28.981 0 0 1-4.591.6 24.512 24.512 0 0 1-9.227-1.27 33.249 33.249 0 0 1-7.417-3.81c-2.134-1.41-3.969-2.807-5.715-4.147s-3.3-2.629-4.712-3.848c-5.62-4.871-8.579-8.452-8.008-9.144s4.572 1.562 10.8 5.372l5.08 3.112c1.823 1.1 3.772 2.331 5.766 3.461a32.285 32.285 0 0 0 6.255 2.826 20.085 20.085 0 0 0 6.884.813 36.484 36.484 0 0 0 13.7-3.95c4.1-1.981 7.8-4.293 11.018-6.1a55.508 55.508 0 0 1 7.951-3.874c2.016-.707 3.235-.84 3.419-.44z" transform="translate(-186.29 -173.364)"/>
            </g>
            <path id="Tracé_1059" d="M236.193 334.185a1.841 1.841 0 1 1-.089.038" class="cls-7" transform="translate(-173.056 -183.981)"/>
            <path id="Tracé_1060" d="M167.923 175.573a2.751 2.751 0 0 1-.381-.381l-1.035-1.13c-.438-.5-1.016-1.086-1.607-1.829l-2.019-2.54c-.692-.978-1.473-2.032-2.261-3.175l-1.162-1.848c-.2-.318-.406-.635-.6-.972l-.559-1.029a42.928 42.928 0 0 1-3.944-9.494 40.007 40.007 0 0 1-1.5-10.16c0-.794.044-1.562.057-2.318a7.955 7.955 0 0 1 .051-1.1c.051-.362.076-.718.114-1.067.083-.7.133-1.378.229-2.026s.229-1.27.337-1.848c.178-1.187.5-2.223.718-3.175.121-.457.216-.889.337-1.27l.349-1.061.489-1.454a2.708 2.708 0 0 1 .191-.5 2.888 2.888 0 0 1-.127.521c-.108.368-.248.857-.432 1.473l-.318 1.06c-.108.387-.2.819-.311 1.27a27.7 27.7 0 0 0-.635 3.175c-.1.584-.2 1.2-.311 1.842s-.133 1.315-.21 2.013a10.348 10.348 0 0 1-.108 1.061c-.038.362 0 .73-.038 1.1 0 .749-.051 1.511-.044 2.3a40.222 40.222 0 0 0 1.48 10.1 43.7 43.7 0 0 0 3.893 9.437c.184.343.368.686.546 1.029s.4.635.591.965l1.143 1.848c.775 1.168 1.543 2.223 2.216 3.175l1.981 2.54c.571.756 1.137 1.346 1.556 1.867l.991 1.175a4.317 4.317 0 0 1 .333.426z" class="cls-6" transform="translate(-143.066 -108.482)"/>
            <path id="Tracé_1061" d="M167.09 309.749a1.269 1.269 0 0 1 .114-.21l.381-.6c.171-.267.381-.584.635-.965l.4-.635c.159-.21.343-.419.527-.635l1.27-1.524c.489-.527 1.048-1.073 1.638-1.67a42.982 42.982 0 0 1 4.356-3.671c3.372-2.54 7.722-5.08 12.434-8.059a71.109 71.109 0 0 0 7.131-5.023 33.268 33.268 0 0 0 6.396-6.757 31.986 31.986 0 0 0 5.175-17.038 40.305 40.305 0 0 0-2.438-14.479 54.04 54.04 0 0 0-4.2-9.017c-.591-1.022-1.073-1.8-1.4-2.324l-.375-.6c-.083-.133-.121-.21-.121-.21a.94.94 0 0 1 .146.191l.406.584c.349.508.851 1.27 1.454 2.292a51.54 51.54 0 0 1 4.318 9 40.267 40.267 0 0 1 2.54 14.561 34.29 34.29 0 0 1-.349 4.28 31.273 31.273 0 0 1-.933 4.388 29.731 29.731 0 0 1-3.994 8.554 33.485 33.485 0 0 1-6.465 6.827 72.043 72.043 0 0 1-7.169 5.029c-4.731 2.953-9.087 5.468-12.459 7.989a44.726 44.726 0 0 0-4.369 3.613c-.591.591-1.156 1.124-1.651 1.645l-1.27 1.492c-.191.229-.375.438-.533.635l-.413.6-.635.946-.406.578a1.476 1.476 0 0 1-.141.213z" class="cls-6" transform="translate(-148.259 -148.318)"/>
            <path id="Tracé_1062" d="M154.684 369.61a2.01 2.01 0 0 1-.14.3l-.457.806c-.2.343-.445.775-.692 1.27s-.565 1.08-.832 1.746c-.14.33-.292.673-.445 1.029s-.279.749-.432 1.143c-.3.787-.546 1.651-.826 2.54a34.507 34.507 0 0 0-1.124 12.243c.108.94.184 1.842.349 2.667.07.413.127.819.21 1.2s.171.749.254 1.1c.14.7.349 1.321.5 1.867s.3 1.016.445 1.4l.3.876a1.087 1.087 0 0 1 .083.311 1.2 1.2 0 0 1-.146-.286c-.1-.235-.21-.514-.356-.857a13.69 13.69 0 0 1-.5-1.384c-.171-.546-.394-1.162-.552-1.867-.089-.349-.178-.718-.273-1.1s-.152-.794-.235-1.207c-.178-.838-.267-1.74-.381-2.686a33.237 33.237 0 0 1 1.13-12.32c.286-.914.54-1.784.864-2.572.159-.394.286-.781.451-1.143l.47-1.035c.279-.635.635-1.226.883-1.734a13.159 13.159 0 0 1 .743-1.27l.508-.781c.125-.174.189-.266.201-.256z" class="cls-6" transform="translate(-141.759 -196.958)"/>
            <path id="Tracé_1063" d="M247.6 393.649l-.127.089-.394.248-1.543.927-1.118.635c-.419.235-.883.451-1.378.7-1 .483-2.108 1.1-3.416 1.594l-2.032.832c-.7.279-1.473.5-2.248.768-1.543.565-3.258.972-5.042 1.435a59.115 59.115 0 0 1-23.883.635c-1.816-.368-3.543-.686-5.118-1.168-.787-.229-1.562-.406-2.286-.635l-2.07-.756c-1.327-.425-2.47-.978-3.493-1.41-.508-.222-.984-.419-1.41-.635l-1.156-.6-1.588-.845-.406-.229-.133-.083a.335.335 0 0 1 .152.057l.419.2 1.613.787 1.162.571c.432.2.914.387 1.423.6 1.022.406 2.165.946 3.5 1.353l2.045.743c.724.241 1.5.413 2.286.635 1.569.47 3.289.768 5.08 1.13a60.365 60.365 0 0 0 23.763-.635c1.778-.457 3.486-.845 5.029-1.4.775-.26 1.537-.47 2.242-.749l2.032-.806c1.308-.483 2.419-1.08 3.423-1.543.5-.241.965-.451 1.384-.635l1.13-.635 1.569-.876.413-.216c.127-.07.176-.089.176-.083z" class="cls-6" transform="translate(-156.168 -205.731)"/>
            <path id="Tracé_1064" d="M256.426 182a.672.672 0 0 1-.133.121l-.419.343c-.387.311-.927.749-1.619 1.27-1.41 1.118-3.455 2.737-6.039 4.667a87.317 87.317 0 0 1-9.443 6.3 42.546 42.546 0 0 1-6.084 2.8 27.731 27.731 0 0 1-7.023 1.562 26.671 26.671 0 0 1-13.488-2.807 45.759 45.759 0 0 1-5.214-3.1c-1.549-1.092-2.966-2.153-4.217-3.175-2.54-2.019-4.483-3.728-5.855-4.9l-1.569-1.359-.4-.356-.133-.133s.057 0 .152.1l.425.337 1.607 1.308c1.4 1.143 3.391 2.82 5.918 4.814 1.27 1 2.673 2.045 4.229 3.124a46.351 46.351 0 0 0 5.188 3.048 26.576 26.576 0 0 0 13.336 2.75 27.536 27.536 0 0 0 6.941-1.537 42.593 42.593 0 0 0 6.046-2.762 91.322 91.322 0 0 0 9.456-6.166c2.591-1.905 4.655-3.493 6.1-4.579l1.657-1.27.438-.318a.572.572 0 0 1 .143-.082z" class="cls-6" transform="translate(-158.369 -128.486)"/>
            <g id="Groupe_107" class="cls-8" transform="translate(40.784 191.153)">
                <path id="Tracé_1065" d="M201.66 400.844c3.01-2.324 7.239-1.765 10.961-.978s7.468 2.051 11.234 1.524c2.839-.4 5.442-1.791 8.255-2.4s6.2-.159 7.754 2.248a60.328 60.328 0 0 1-38.184-.394" transform="translate(-201.66 -398.745)"/>
            </g>
        </g>
        <g id="freepik--Plant--inject-63" transform="translate(391 402.577)">
            <path id="Tracé_1066" d="M61.305 366.185a1.271 1.271 0 0 1 .114-.267l.356-.768a19.624 19.624 0 0 0 1.06-3.074 27.1 27.1 0 0 0-.1-11.856 62.911 62.911 0 0 0-2.2-7.97c-.934-2.826-2.013-5.823-2.9-9.068a35.168 35.168 0 0 1-1.429-10.427 40.827 40.827 0 0 1 2.426-11.037 53.192 53.192 0 0 0 2.807-10.865 16.511 16.511 0 0 0-1.988-10.033c-1.594-2.934-3.588-5.436-5.08-8.033a27.942 27.942 0 0 1-3.061-7.716 28.8 28.8 0 0 1-.191-11.958 22.6 22.6 0 0 1 1.27-4.223 1.683 1.683 0 0 1-.07.286l-.254.806a28.545 28.545 0 0 0-.464 15.025 27.586 27.586 0 0 0 3.067 7.62c1.492 2.54 3.5 5.08 5.118 8.02a16.917 16.917 0 0 1 2.026 10.224 53.735 53.735 0 0 1-2.82 10.948 40.823 40.823 0 0 0-2.413 10.929 34.927 34.927 0 0 0 1.391 10.326c.87 3.226 1.943 6.223 2.858 9.062a62.475 62.475 0 0 1 2.165 8.014 27.32 27.32 0 0 1 0 11.945 17.436 17.436 0 0 1-1.13 3.067c-.165.318-.3.565-.394.756a1.665 1.665 0 0 1-.178.267z" class="cls-6" transform="translate(-42.838 -258.89)"/>
            <path id="Tracé_1067" d="M59.264 291.634s-3.042-9.716 2.413-15.406a.337.337 0 0 1 .578.165c.292 1.607.654 6.496-2.991 15.241z" class="cls-7" transform="translate(-45.693 -265.178)"/>
            <path id="Tracé_1068" d="M61.509 281.39a9.069 9.069 0 0 1-.21 1.791c-.2 1.27-.432 2.686-.692 4.286s-.483 3.054-.679 4.286a9.525 9.525 0 0 1-.324 1.778 7.792 7.792 0 0 1 .057-1.81c.1-1.111.3-2.635.572-4.312s.565-3.175.806-4.274a7.875 7.875 0 0 1 .47-1.746z" class="cls-6" transform="translate(-46.116 -267.102)"/>
            <path id="Tracé_1069" d="M65.37 329.468s1.861-10.014 9.341-12.478a.337.337 0 0 1 .432.419c-.483 1.536-2.457 6.032-9.773 12.059z" class="cls-7" transform="translate(-48.23 -280.088)"/>
            <path id="Tracé_1070" d="M72.625 321.05a9.048 9.048 0 0 1-1.022 1.486c-.749 1-1.638 2.172-2.616 3.467l-2.629 3.474a9.8 9.8 0 0 1-1.118 1.416 7.778 7.778 0 0 1 .9-1.575c.635-.934 1.492-2.191 2.54-3.543s1.994-2.54 2.712-3.4a7.85 7.85 0 0 1 1.233-1.325z" class="cls-6" transform="translate(-48.183 -281.577)"/>
            <path id="Tracé_1071" d="M62.146 367.733s-1.13-10.122 5.309-14.669a.337.337 0 0 1 .533.279c-.019 1.626-.597 6.496-5.842 14.39z" class="cls-7" transform="translate(-47.026 -293.237)"/>
            <path id="Tracé_1072" d="M66.269 357.93a8.549 8.549 0 0 1-.546 1.721l-1.5 4.077-1.48 4.077a9.4 9.4 0 0 1-.635 1.683 8.129 8.129 0 0 1 .4-1.765c.311-1.073.794-2.54 1.384-4.128s1.168-3.016 1.607-4.039a7.946 7.946 0 0 1 .768-1.626z" class="cls-6" transform="translate(-47.04 -295.037)"/>
            <path id="Tracé_1073" d="M71.044 407.652s-.768-10.16 5.83-14.466a.337.337 0 0 1 .527.292c-.083 1.622-.832 6.465-6.357 14.174z" class="cls-7" transform="translate(-50.291 -307.882)"/>
            <path id="Tracé_1074" d="M75.56 398a8.8 8.8 0 0 1-.635 1.7c-.476 1.156-1.029 2.54-1.645 4.013l-1.632 4.026a9.685 9.685 0 0 1-.648 1.628 7.69 7.69 0 0 1 .464-1.746c.343-1.061.883-2.5 1.53-4.071s1.27-2.978 1.746-3.982a8.053 8.053 0 0 1 .82-1.568z" class="cls-6" transform="translate(-50.285 -309.661)"/>
            <path id="Tracé_1075" d="M47.581 279.671s-9.024-4.712-9.2-12.593a.337.337 0 0 1 .527-.292c1.339.927 5.054 4.121 8.673 12.885z" class="cls-7" transform="translate(-38.379 -261.75)"/>
            <path id="Tracé_1076" d="M41.33 271.54a8.827 8.827 0 0 1 1.124 1.41l2.54 3.518 2.54 3.512a9.949 9.949 0 0 1 1.029 1.48 7.2 7.2 0 0 1-1.27-1.315c-.718-.851-1.664-2.07-2.654-3.448s-1.854-2.654-2.458-3.594a7.8 7.8 0 0 1-.851-1.562z" class="cls-6" transform="translate(-39.456 -263.507)"/>
            <path id="Tracé_1077" d="M62.41 312.889s-9.29-4.153-9.951-12.008a.337.337 0 0 1 .508-.318c1.397.819 5.303 3.784 9.443 12.326z" class="cls-7" transform="translate(-43.518 -274.082)"/>
            <path id="Tracé_1078" d="M55.67 305.14a9.032 9.032 0 0 1 1.207 1.34l2.756 3.359 2.762 3.347a9.209 9.209 0 0 1 1.1 1.391 8.176 8.176 0 0 1-1.315-1.27c-.768-.813-1.784-1.969-2.858-3.283s-2.013-2.54-2.667-3.436a7.761 7.761 0 0 1-.985-1.448z" class="cls-6" transform="translate(-44.69 -275.77)"/>
            <path id="Tracé_1079" d="M57.3 347.758s-6.382-7.938-3.385-15.241a.337.337 0 0 1 .6-.057c.859 1.404 2.974 5.817 2.785 15.298z" class="cls-7" transform="translate(-43.759 -285.684)"/>
            <path id="Tracé_1080" d="M55.37 337.75a8.8 8.8 0 0 1 .464 1.74c.267 1.226.578 2.661.927 4.248s.635 3.016.933 4.236a9.952 9.952 0 0 1 .349 1.772 7.271 7.271 0 0 1-.635-1.7c-.318-1.073-.692-2.54-1.048-4.229s-.635-3.175-.813-4.267a8.256 8.256 0 0 1-.177-1.8z" class="cls-6" transform="translate(-44.58 -287.672)"/>
            <path id="Tracé_1081" d="M64.067 392.574s-9.227-4.306-9.748-12.18a.337.337 0 0 1 .508-.311c1.385.87 5.24 3.899 9.24 12.491z" class="cls-7" transform="translate(-44.197 -303.104)"/>
            <path id="Tracé_1082" d="M57.45 384.73a8.892 8.892 0 0 1 1.188 1.359c.775.984 1.689 2.134 2.7 3.4l2.705 3.4a9.96 9.96 0 0 1 1.092 1.435 7.534 7.534 0 0 1-1.27-1.27c-.749-.819-1.746-1.994-2.794-3.328s-2-2.566-2.635-3.474a8.47 8.47 0 0 1-.984-1.524z" class="cls-6" transform="translate(-45.34 -304.818)"/>
            <path id="Tracé_1083" d="M88.476 336.73a.985.985 0 0 1 0 .229v.635c0 .635-.063 1.441-.108 2.47-.121 2.172-.286 5.195-.483 8.821a33.458 33.458 0 0 1-5.08 11.729c-1.848 2.921-3.81 5.582-5.455 8.052a56.87 56.87 0 0 0-4.1 6.763 28.393 28.393 0 0 0-1.905 4.966c-.165.6-.286 1.08-.356 1.4a2.539 2.539 0 0 1-.133.489 2.5 2.5 0 0 1 .057-.5c.044-.33.146-.813.286-1.429a26.494 26.494 0 0 1 1.816-5.08 54.533 54.533 0 0 1 4.045-6.839c1.657-2.489 3.588-5.15 5.429-8.052a34.736 34.736 0 0 0 5.08-11.6c.254-3.613.464-6.636.635-8.808.083-1.029.152-1.854.2-2.464a4.7 4.7 0 0 1 .07-.635.71.71 0 0 1 0-.152z" class="cls-6" transform="translate(-50.234 -287.299)"/>
            <path id="Tracé_1084" d="M88.811 364.179s3.905-9.4-1.01-15.565a.337.337 0 0 0-.591.114c-.463 1.572-1.269 6.434 1.601 15.451z" class="cls-7" transform="translate(-56.03 -291.589)"/>
            <path id="Tracé_1085" d="M88.816 353.86a8.256 8.256 0 0 1 .311 1.778c.14 1.1.292 2.635.413 4.331s.178 3.232.178 4.344a7.271 7.271 0 0 1-.108 1.8 9.342 9.342 0 0 1-.159-1.791c-.083-1.27-.184-2.712-.292-4.331s-.216-3.086-.3-4.331a9.17 9.17 0 0 1-.043-1.8z" class="cls-6" transform="translate(-56.778 -293.551)"/>
            <g id="Groupe_108" class="cls-9" transform="translate(30.712 56.895)">
                <path id="Tracé_1086" d="M88.811 364.179s3.905-9.4-1.01-15.565a.337.337 0 0 0-.591.114c-.463 1.572-1.269 6.434 1.601 15.451z" transform="translate(-86.742 -348.483)"/>
            </g>
            <path id="Tracé_1087" d="M69.152 399.952s3.131-9.684-2.267-15.425a.337.337 0 0 0-.578.159c-.307 1.6-.717 6.484 2.845 15.266z" class="cls-7" transform="translate(-48.501 -304.704)"/>
            <path id="Tracé_1088" d="M68.21 389.69a8.039 8.039 0 0 1 .451 1.753c.229 1.086.508 2.6.768 4.28s.438 3.207.527 4.318a7.442 7.442 0 0 1 .038 1.81 10.058 10.058 0 0 1-.3-1.778c-.184-1.27-.4-2.686-.635-4.293s-.464-3.055-.635-4.293a9.2 9.2 0 0 1-.214-1.797z" class="cls-6" transform="translate(-49.267 -306.628)"/>
            <g id="Groupe_109" class="cls-9" transform="translate(17.611 79.714)">
                <path id="Tracé_1089" d="M69.152 399.952s3.131-9.684-2.267-15.425a.337.337 0 0 0-.578.159c-.307 1.6-.717 6.484 2.845 15.266z" transform="translate(-66.111 -384.418)"/>
            </g>
            <path id="Tracé_1090" d="M97.78 347.072s8.344-5.842 7.5-13.679a.337.337 0 0 0-.559-.222c-1.207 1.129-4.483 4.744-6.941 13.901z" class="cls-7" transform="translate(-60.059 -285.969)"/>
            <g id="Groupe_110" class="cls-9" transform="translate(37.721 47.117)">
                <path id="Tracé_1091" d="M97.78 347.072s8.344-5.842 7.5-13.679a.337.337 0 0 0-.559-.222c-1.207 1.129-4.483 4.744-6.941 13.901z" transform="translate(-97.78 -333.086)"/>
            </g>
            <path id="Tracé_1092" d="M103.822 338.18a8.154 8.154 0 0 1-.692 1.664c-.476 1.01-1.168 2.381-1.975 3.88s-1.581 2.826-2.185 3.766a6.94 6.94 0 0 1-1.06 1.461 10.114 10.114 0 0 1 .832-1.6l2.077-3.81 2.07-3.81a8.781 8.781 0 0 1 .933-1.551z" class="cls-6" transform="translate(-60.106 -287.829)"/>
            <path id="Tracé_1093" d="M76.19 388.34s10.04-1.569 12.758-8.973a.337.337 0 0 0-.406-.445c-1.569.445-6.122 2.278-12.352 9.418z" class="cls-7" transform="translate(-52.179 -302.694)"/>
            <g id="Groupe_111" class="cls-9" transform="translate(24.011 76.216)">
                <path id="Tracé_1094" d="M76.19 388.34s10.04-1.569 12.758-8.973a.337.337 0 0 0-.406-.445c-1.569.445-6.122 2.278-12.352 9.418z" transform="translate(-76.19 -378.91)"/>
            </g>
            <path id="Tracé_1095" d="M86.35 382.72a8.508 8.508 0 0 1-1.35 1.188c-.87.7-2.1 1.626-3.48 2.61s-2.667 1.842-3.613 2.426a7.512 7.512 0 0 1-1.6.845 9.929 9.929 0 0 1 1.448-1.073l3.55-2.5 3.537-2.54a8.585 8.585 0 0 1 1.505-.953z" class="cls-6" transform="translate(-52.223 -304.084)"/>
            <path id="Tracé_1096" fill="#455a64" d="M59.394 422.92l-2.934 19.749h18.289l-2.375-19.749z" transform="translate(-44.978 -318.756)"/>
            <path id="Tracé_1097" d="M74.2 432.428a70.669 70.669 0 0 1-7.379.191 70.514 70.514 0 0 1-7.373-.191 72.742 72.742 0 0 1 7.373-.19 72.84 72.84 0 0 1 7.379.19z" class="cls-6" transform="translate(-46.07 -322.148)"/>
            <path id="Tracé_1098" d="M74.491 434.891c0 .1-3.41.19-7.62.19s-7.62-.089-7.62-.19 3.41-.191 7.62-.191 7.62.1 7.62.191z" class="cls-6" transform="translate(-45.997 -323.055)"/>
        </g>
    </g>
</svg>
